%TF.GenerationSoftware,KiCad,Pcbnew,8.99.0-3110-g1838b2656d*%
%TF.CreationDate,2024-11-19T22:29:11+01:00*%
%TF.ProjectId,dmm_sao_front,646d6d5f-7361-46f5-9f66-726f6e742e6b,1.0*%
%TF.SameCoordinates,PX4dbaf29PY3d7cb27*%
%TF.FileFunction,Copper,L2,Bot*%
%TF.FilePolarity,Positive*%
%FSLAX46Y46*%
G04 Gerber Fmt 4.6, Leading zero omitted, Abs format (unit mm)*
G04 Created by KiCad (PCBNEW 8.99.0-3110-g1838b2656d) date 2024-11-19 22:29:11*
%MOMM*%
%LPD*%
G01*
G04 APERTURE LIST*
%TA.AperFunction,ComponentPad*%
%ADD10C,7.000000*%
%TD*%
%TA.AperFunction,SMDPad,CuDef*%
%ADD11C,2.500000*%
%TD*%
%TA.AperFunction,Conductor*%
%ADD12C,0.500000*%
%TD*%
G04 APERTURE END LIST*
D10*
%TO.P,REF\u002A\u002A,1*%
%TO.N,GND*%
X17493911Y-63526105D03*
%TD*%
%TO.P,REF\u002A\u002A,1*%
%TO.N,MEASURE*%
X29493911Y-63526105D03*
%TD*%
D11*
%TO.P,REF\u002A\u002A,1*%
%TO.N,GND*%
X11993911Y-67026105D03*
%TD*%
%TO.P,REF\u002A\u002A,1*%
%TO.N,MEASURE*%
X23993911Y-67026105D03*
%TD*%
D12*
%TO.N,MEASURE*%
X29493911Y-63526105D02*
X25993911Y-67026105D01*
X25993911Y-67026105D02*
X23993911Y-67026105D01*
%TD*%
%TA.AperFunction,Conductor*%
%TO.N,GND*%
G36*
X32496203Y-526710D02*
G01*
X32858363Y-543454D01*
X32867458Y-544296D01*
X33224300Y-594074D01*
X33233269Y-595751D01*
X33583966Y-678234D01*
X33592761Y-680736D01*
X33934353Y-795226D01*
X33942880Y-798529D01*
X34272468Y-944056D01*
X34280625Y-948117D01*
X34595404Y-1123449D01*
X34603125Y-1128230D01*
X34900381Y-1331854D01*
X34907668Y-1337358D01*
X35184831Y-1567511D01*
X35191589Y-1573671D01*
X35446344Y-1828426D01*
X35452504Y-1835184D01*
X35682657Y-2112347D01*
X35688163Y-2119638D01*
X35891781Y-2416884D01*
X35896569Y-2424617D01*
X36071893Y-2739382D01*
X36075962Y-2747553D01*
X36221486Y-3077135D01*
X36224789Y-3085662D01*
X36339279Y-3427254D01*
X36341781Y-3436049D01*
X36424262Y-3786736D01*
X36425943Y-3795725D01*
X36475718Y-4152552D01*
X36476561Y-4161657D01*
X36493305Y-4523812D01*
X36493411Y-4528384D01*
X36493411Y-31654589D01*
X36474504Y-31712780D01*
X36425004Y-31748744D01*
X36363818Y-31748744D01*
X36314318Y-31712780D01*
X36312561Y-31710281D01*
X36046699Y-31319547D01*
X36046692Y-31319538D01*
X35655285Y-30813169D01*
X35535447Y-30676152D01*
X35233931Y-30331412D01*
X34784187Y-29876046D01*
X34784176Y-29876036D01*
X34784170Y-29876030D01*
X34446321Y-29573054D01*
X34307701Y-29448742D01*
X33806221Y-29051067D01*
X33281587Y-28684480D01*
X32735722Y-28350325D01*
X32620702Y-28289161D01*
X32170622Y-28049823D01*
X31588394Y-27784096D01*
X31588363Y-27784083D01*
X30991120Y-27554090D01*
X30381027Y-27360669D01*
X30381022Y-27360668D01*
X29760341Y-27204533D01*
X29131329Y-27086258D01*
X28496330Y-27006281D01*
X27857661Y-26964892D01*
X27857637Y-26964891D01*
X27217651Y-26962242D01*
X27217648Y-26962242D01*
X27217636Y-26962242D01*
X27217628Y-26962242D01*
X27217600Y-26962243D01*
X26578649Y-26998340D01*
X26578637Y-26998341D01*
X25942989Y-27073058D01*
X25313047Y-27186117D01*
X25313041Y-27186118D01*
X25313032Y-27186120D01*
X25036212Y-27253321D01*
X24691061Y-27337112D01*
X24691059Y-27337113D01*
X24079406Y-27525471D01*
X23480258Y-27750516D01*
X23480250Y-27750520D01*
X23012714Y-27959242D01*
X22895807Y-28011433D01*
X22328264Y-28307232D01*
X21779655Y-28636852D01*
X21779655Y-28636853D01*
X21252000Y-28999083D01*
X20792129Y-29357601D01*
X20747241Y-29392596D01*
X20595862Y-29526105D01*
X20267225Y-29815947D01*
X20267222Y-29815950D01*
X19813740Y-30267556D01*
X19813719Y-30267579D01*
X19388419Y-30745802D01*
X19388405Y-30745818D01*
X18992817Y-31248929D01*
X18992802Y-31248949D01*
X18628399Y-31775084D01*
X18296505Y-32322331D01*
X18296490Y-32322357D01*
X17998360Y-32888643D01*
X17735027Y-33472004D01*
X17735024Y-33472012D01*
X17507506Y-34070205D01*
X17507497Y-34070229D01*
X17316608Y-34681103D01*
X17163045Y-35302428D01*
X17047378Y-35931901D01*
X17047372Y-35931940D01*
X16970029Y-36567225D01*
X16970025Y-36567267D01*
X16931282Y-37206089D01*
X16931282Y-37846120D01*
X16970025Y-38484942D01*
X16970029Y-38484984D01*
X17047372Y-39120269D01*
X17047378Y-39120308D01*
X17163045Y-39749781D01*
X17316608Y-40371106D01*
X17507497Y-40981980D01*
X17507506Y-40982004D01*
X17735024Y-41580197D01*
X17735027Y-41580205D01*
X17900182Y-41946074D01*
X17968775Y-42098028D01*
X17998360Y-42163566D01*
X18296490Y-42729852D01*
X18296504Y-42729876D01*
X18296506Y-42729880D01*
X18436067Y-42959997D01*
X18628399Y-43277125D01*
X18943905Y-43732661D01*
X18992810Y-43803271D01*
X19388406Y-44306393D01*
X19581608Y-44523636D01*
X19813719Y-44784630D01*
X19813740Y-44784653D01*
X20248026Y-45217142D01*
X20267233Y-45236270D01*
X20747241Y-45659614D01*
X21251996Y-46053123D01*
X21779649Y-46415353D01*
X21779655Y-46415356D01*
X21779655Y-46415357D01*
X21857571Y-46462171D01*
X22328261Y-46744976D01*
X22590430Y-46881616D01*
X22895807Y-47040776D01*
X22895811Y-47040778D01*
X22895823Y-47040784D01*
X23480250Y-47301690D01*
X24079401Y-47526737D01*
X24505465Y-47657942D01*
X24691059Y-47715096D01*
X24691061Y-47715097D01*
X24691070Y-47715099D01*
X24691076Y-47715101D01*
X25313032Y-47866090D01*
X25942989Y-47979151D01*
X26578634Y-48053868D01*
X26578643Y-48053868D01*
X26578649Y-48053869D01*
X27217600Y-48089966D01*
X27217636Y-48089968D01*
X27857652Y-48087318D01*
X28496334Y-48045928D01*
X29131339Y-47965950D01*
X29760337Y-47847677D01*
X30381022Y-47691542D01*
X30991117Y-47498120D01*
X30991120Y-47498119D01*
X31588363Y-47268126D01*
X31588371Y-47268122D01*
X31588383Y-47268118D01*
X31986749Y-47086305D01*
X32170622Y-47002386D01*
X32197463Y-46988113D01*
X32735722Y-46701885D01*
X33281587Y-46367730D01*
X33806221Y-46001143D01*
X34307701Y-45603468D01*
X34784187Y-45176164D01*
X35233931Y-44720798D01*
X35655284Y-44239042D01*
X36046700Y-43732661D01*
X36312562Y-43341926D01*
X36360928Y-43304454D01*
X36422084Y-43302566D01*
X36472670Y-43336986D01*
X36493364Y-43394566D01*
X36493411Y-43397620D01*
X36493411Y-66523825D01*
X36493305Y-66528397D01*
X36476561Y-66890552D01*
X36475718Y-66899657D01*
X36425943Y-67256484D01*
X36424262Y-67265473D01*
X36341781Y-67616160D01*
X36339279Y-67624955D01*
X36224789Y-67966547D01*
X36221486Y-67975074D01*
X36075962Y-68304656D01*
X36071888Y-68312836D01*
X35896575Y-68627582D01*
X35891775Y-68635334D01*
X35758965Y-68829212D01*
X35688168Y-68932565D01*
X35682657Y-68939862D01*
X35452504Y-69217025D01*
X35446344Y-69223783D01*
X35191589Y-69478538D01*
X35184831Y-69484698D01*
X34907668Y-69714851D01*
X34900371Y-69720362D01*
X34603140Y-69923969D01*
X34595388Y-69928769D01*
X34280642Y-70104082D01*
X34272462Y-70108156D01*
X33942880Y-70253680D01*
X33934353Y-70256983D01*
X33592761Y-70371473D01*
X33583966Y-70373975D01*
X33233279Y-70456456D01*
X33224290Y-70458137D01*
X32867463Y-70507912D01*
X32858358Y-70508755D01*
X32496204Y-70525499D01*
X32491632Y-70525605D01*
X4496190Y-70525605D01*
X4491618Y-70525499D01*
X4129463Y-70508755D01*
X4120358Y-70507912D01*
X3763531Y-70458137D01*
X3754542Y-70456456D01*
X3403855Y-70373975D01*
X3395060Y-70371473D01*
X3053468Y-70256983D01*
X3044941Y-70253680D01*
X2715359Y-70108156D01*
X2707188Y-70104087D01*
X2392423Y-69928763D01*
X2384690Y-69923975D01*
X2087444Y-69720357D01*
X2080153Y-69714851D01*
X1802990Y-69484698D01*
X1796232Y-69478538D01*
X1541477Y-69223783D01*
X1535317Y-69217025D01*
X1305164Y-68939862D01*
X1299660Y-68932575D01*
X1096036Y-68635319D01*
X1091255Y-68627598D01*
X915923Y-68312819D01*
X911859Y-68304656D01*
X872371Y-68215224D01*
X871374Y-68212967D01*
X11160601Y-68212967D01*
X11160601Y-68212968D01*
X11233939Y-68266252D01*
X11233945Y-68266256D01*
X11437303Y-68369872D01*
X11654372Y-68440402D01*
X11879791Y-68476105D01*
X12108031Y-68476105D01*
X12333449Y-68440402D01*
X12550518Y-68369872D01*
X12753879Y-68266254D01*
X12827219Y-68212968D01*
X11993910Y-67379659D01*
X11160601Y-68212967D01*
X871374Y-68212967D01*
X766335Y-67975074D01*
X763032Y-67966547D01*
X648542Y-67624955D01*
X646040Y-67616160D01*
X607522Y-67452391D01*
X563557Y-67265463D01*
X561880Y-67256498D01*
X513822Y-66911984D01*
X10543911Y-66911984D01*
X10543911Y-67140225D01*
X10579613Y-67365643D01*
X10650143Y-67582712D01*
X10753759Y-67786070D01*
X10753763Y-67786076D01*
X10807046Y-67859413D01*
X11640355Y-67026104D01*
X12347465Y-67026104D01*
X13180774Y-67859413D01*
X13234060Y-67786073D01*
X13337678Y-67582712D01*
X13408208Y-67365643D01*
X13443911Y-67140225D01*
X13443911Y-66911984D01*
X13408208Y-66686566D01*
X13337677Y-66469493D01*
X13337676Y-66469490D01*
X13261709Y-66320398D01*
X13261707Y-66320396D01*
X13234062Y-66266139D01*
X13234058Y-66266133D01*
X13180774Y-66192795D01*
X13180773Y-66192795D01*
X12347465Y-67026104D01*
X11640355Y-67026104D01*
X10807046Y-66192795D01*
X10753761Y-66266135D01*
X10753759Y-66266139D01*
X10650143Y-66469497D01*
X10579613Y-66686566D01*
X10543911Y-66911984D01*
X513822Y-66911984D01*
X512102Y-66899654D01*
X511260Y-66890552D01*
X510557Y-66875355D01*
X494517Y-66528397D01*
X494411Y-66523825D01*
X494411Y-63357599D01*
X2493411Y-63357599D01*
X2493411Y-63694613D01*
X2531143Y-64029500D01*
X2606136Y-64358064D01*
X2717441Y-64676154D01*
X2717442Y-64676156D01*
X2717443Y-64676158D01*
X2863666Y-64979792D01*
X3042966Y-65265146D01*
X3253088Y-65528630D01*
X3491389Y-65766931D01*
X3491393Y-65766934D01*
X3491399Y-65766940D01*
X3754866Y-65977047D01*
X3754870Y-65977049D01*
X3754873Y-65977052D01*
X3916661Y-66078710D01*
X4040228Y-66156353D01*
X4268190Y-66266133D01*
X4343861Y-66302574D01*
X4492353Y-66354533D01*
X4661955Y-66413880D01*
X4661958Y-66413880D01*
X4661959Y-66413881D01*
X4990518Y-66488872D01*
X5325408Y-66526605D01*
X5325409Y-66526605D01*
X5662416Y-66526605D01*
X5662417Y-66526605D01*
X5997306Y-66488872D01*
X6325866Y-66413880D01*
X6643963Y-66302573D01*
X6947597Y-66156351D01*
X7232951Y-65977051D01*
X7405760Y-65839240D01*
X11160601Y-65839240D01*
X11993910Y-66672549D01*
X12827219Y-65839240D01*
X12753882Y-65785957D01*
X12753876Y-65785953D01*
X12550518Y-65682337D01*
X12333449Y-65611807D01*
X12108031Y-65576105D01*
X11879791Y-65576105D01*
X11654372Y-65611807D01*
X11437303Y-65682337D01*
X11233945Y-65785953D01*
X11233941Y-65785955D01*
X11160601Y-65839240D01*
X7405760Y-65839240D01*
X7496435Y-65766929D01*
X7734736Y-65528628D01*
X7944858Y-65265144D01*
X8124157Y-64979790D01*
X8270380Y-64676156D01*
X8381687Y-64358059D01*
X8456678Y-64029499D01*
X8494411Y-63694609D01*
X8494411Y-63526105D01*
X8494411Y-63460213D01*
X8494411Y-63357601D01*
X8492915Y-63344328D01*
X13793911Y-63344328D01*
X13793911Y-63707881D01*
X13829543Y-64069658D01*
X13900467Y-64426220D01*
X14005993Y-64774092D01*
X14145113Y-65109958D01*
X14145126Y-65109985D01*
X14316485Y-65430576D01*
X14518460Y-65732851D01*
X14705590Y-65960870D01*
X15949650Y-64716809D01*
X16024678Y-64814588D01*
X16205428Y-64995338D01*
X16303203Y-65070364D01*
X15059144Y-66314424D01*
X15287164Y-66501555D01*
X15589439Y-66703530D01*
X15910030Y-66874889D01*
X15910057Y-66874902D01*
X16245923Y-67014022D01*
X16593795Y-67119548D01*
X16950359Y-67190472D01*
X16950355Y-67190472D01*
X17312134Y-67226105D01*
X17675688Y-67226105D01*
X18037464Y-67190472D01*
X18394026Y-67119548D01*
X18741898Y-67014022D01*
X18988337Y-66911944D01*
X22543411Y-66911944D01*
X22543411Y-67140265D01*
X22579125Y-67365760D01*
X22649680Y-67582904D01*
X22753331Y-67786332D01*
X22753335Y-67786338D01*
X22887527Y-67971036D01*
X22887529Y-67971038D01*
X22887532Y-67971042D01*
X23048974Y-68132484D01*
X23048977Y-68132486D01*
X23048979Y-68132488D01*
X23233677Y-68266680D01*
X23233683Y-68266684D01*
X23437112Y-68370336D01*
X23654251Y-68440889D01*
X23654252Y-68440889D01*
X23654255Y-68440890D01*
X23879751Y-68476605D01*
X23879754Y-68476605D01*
X24108071Y-68476605D01*
X24333566Y-68440890D01*
X24333567Y-68440889D01*
X24333571Y-68440889D01*
X24550710Y-68370336D01*
X24754139Y-68266684D01*
X24938848Y-68132484D01*
X25100290Y-67971042D01*
X25234490Y-67786333D01*
X25338142Y-67582904D01*
X25338143Y-67582899D01*
X25338145Y-67582897D01*
X25350455Y-67545012D01*
X25386419Y-67495512D01*
X25444609Y-67476605D01*
X26053220Y-67476605D01*
X26143580Y-67452392D01*
X26143583Y-67452392D01*
X26156814Y-67448846D01*
X26167798Y-67445904D01*
X26270525Y-67386594D01*
X27151081Y-66506036D01*
X27205596Y-66478261D01*
X27266028Y-66487832D01*
X27283889Y-66499515D01*
X27286864Y-66501957D01*
X27589181Y-66703960D01*
X27908993Y-66874902D01*
X27909835Y-66875352D01*
X28245747Y-67014491D01*
X28245749Y-67014491D01*
X28245755Y-67014494D01*
X28593664Y-67120031D01*
X28593678Y-67120035D01*
X28950280Y-67190967D01*
X29312117Y-67226605D01*
X29312120Y-67226605D01*
X29675702Y-67226605D01*
X29675705Y-67226605D01*
X30037542Y-67190967D01*
X30394144Y-67120035D01*
X30454369Y-67101765D01*
X30742066Y-67014494D01*
X30742068Y-67014492D01*
X30742075Y-67014491D01*
X31077987Y-66875352D01*
X31344446Y-66732927D01*
X31398640Y-66703960D01*
X31424853Y-66686445D01*
X31700955Y-66501959D01*
X31982012Y-66271302D01*
X32239108Y-66014206D01*
X32469765Y-65733149D01*
X32671764Y-65430837D01*
X32682819Y-65410156D01*
X32816724Y-65159636D01*
X32843158Y-65110181D01*
X32982297Y-64774269D01*
X33012060Y-64676156D01*
X33087837Y-64426351D01*
X33087841Y-64426337D01*
X33108454Y-64322708D01*
X33158773Y-64069736D01*
X33194411Y-63707899D01*
X33194411Y-63344311D01*
X33158773Y-62982474D01*
X33087841Y-62625872D01*
X33087837Y-62625858D01*
X32982300Y-62277949D01*
X32843239Y-61942224D01*
X32843158Y-61942029D01*
X32760325Y-61787059D01*
X32671766Y-61621375D01*
X32469963Y-61319358D01*
X32469765Y-61319061D01*
X32239108Y-61038004D01*
X31982012Y-60780908D01*
X31700955Y-60550251D01*
X31625377Y-60499751D01*
X31398640Y-60348249D01*
X31078005Y-60176867D01*
X31077993Y-60176861D01*
X31077987Y-60176858D01*
X31077982Y-60176855D01*
X31077978Y-60176854D01*
X30742066Y-60037715D01*
X30394157Y-59932178D01*
X30394143Y-59932174D01*
X30106904Y-59875040D01*
X30037542Y-59861243D01*
X30037540Y-59861242D01*
X29773030Y-59835190D01*
X29675705Y-59825605D01*
X29312117Y-59825605D01*
X29205206Y-59836134D01*
X28950283Y-59861242D01*
X28593678Y-59932174D01*
X28593664Y-59932178D01*
X28245755Y-60037715D01*
X27909843Y-60176854D01*
X27909816Y-60176867D01*
X27589181Y-60348249D01*
X27286865Y-60550252D01*
X27005815Y-60780903D01*
X26748709Y-61038009D01*
X26518058Y-61319059D01*
X26316055Y-61621375D01*
X26144673Y-61942010D01*
X26144660Y-61942037D01*
X26005521Y-62277949D01*
X25899984Y-62625858D01*
X25899980Y-62625872D01*
X25829048Y-62982477D01*
X25793411Y-63344313D01*
X25793411Y-63707896D01*
X25829048Y-64069732D01*
X25899980Y-64426337D01*
X25899984Y-64426351D01*
X26005521Y-64774260D01*
X26144660Y-65110172D01*
X26144673Y-65110199D01*
X26316055Y-65430834D01*
X26381400Y-65528628D01*
X26518057Y-65733149D01*
X26520502Y-65736128D01*
X26542800Y-65793105D01*
X26527350Y-65852308D01*
X26513976Y-65868934D01*
X25836304Y-66546608D01*
X25781787Y-66574386D01*
X25766300Y-66575605D01*
X25444609Y-66575605D01*
X25386418Y-66556698D01*
X25350455Y-66507198D01*
X25338145Y-66469312D01*
X25338143Y-66469309D01*
X25338142Y-66469308D01*
X25338142Y-66469306D01*
X25234490Y-66265877D01*
X25234486Y-66265871D01*
X25100294Y-66081173D01*
X25100292Y-66081171D01*
X25100290Y-66081168D01*
X24938848Y-65919726D01*
X24938844Y-65919723D01*
X24938842Y-65919721D01*
X24754144Y-65785529D01*
X24754138Y-65785525D01*
X24550710Y-65681874D01*
X24333566Y-65611319D01*
X24108071Y-65575605D01*
X24108068Y-65575605D01*
X23879754Y-65575605D01*
X23879751Y-65575605D01*
X23654255Y-65611319D01*
X23437111Y-65681874D01*
X23233683Y-65785525D01*
X23233677Y-65785529D01*
X23048979Y-65919721D01*
X22887527Y-66081173D01*
X22753335Y-66265871D01*
X22753331Y-66265877D01*
X22649680Y-66469305D01*
X22579125Y-66686449D01*
X22543411Y-66911944D01*
X18988337Y-66911944D01*
X19077764Y-66874902D01*
X19077791Y-66874889D01*
X19179083Y-66820748D01*
X19398382Y-66703530D01*
X19700657Y-66501555D01*
X19928676Y-66314424D01*
X18684617Y-65070365D01*
X18782394Y-64995338D01*
X18963144Y-64814588D01*
X19038171Y-64716811D01*
X20282230Y-65960870D01*
X20469361Y-65732851D01*
X20671336Y-65430576D01*
X20842695Y-65109985D01*
X20842708Y-65109958D01*
X20981828Y-64774092D01*
X21087354Y-64426220D01*
X21158278Y-64069658D01*
X21193911Y-63707881D01*
X21193911Y-63344328D01*
X21158278Y-62982551D01*
X21087354Y-62625989D01*
X20981828Y-62278117D01*
X20842708Y-61942251D01*
X20842695Y-61942224D01*
X20671336Y-61621633D01*
X20469361Y-61319358D01*
X20282229Y-61091338D01*
X19038169Y-62335397D01*
X18963144Y-62237622D01*
X18782394Y-62056872D01*
X18684615Y-61981844D01*
X19928676Y-60737784D01*
X19700657Y-60550654D01*
X19398382Y-60348679D01*
X19077791Y-60177320D01*
X19077764Y-60177307D01*
X18741898Y-60038187D01*
X18394026Y-59932661D01*
X18037462Y-59861737D01*
X18037466Y-59861737D01*
X17675688Y-59826105D01*
X17312134Y-59826105D01*
X16950357Y-59861737D01*
X16593795Y-59932661D01*
X16245923Y-60038187D01*
X15910057Y-60177307D01*
X15910030Y-60177320D01*
X15589439Y-60348679D01*
X15287164Y-60550654D01*
X15059144Y-60737784D01*
X16303204Y-61981844D01*
X16205428Y-62056872D01*
X16024678Y-62237622D01*
X15949650Y-62335398D01*
X14705590Y-61091338D01*
X14518460Y-61319358D01*
X14316485Y-61621633D01*
X14145126Y-61942224D01*
X14145113Y-61942251D01*
X14005993Y-62278117D01*
X13900467Y-62625989D01*
X13829543Y-62982551D01*
X13793911Y-63344328D01*
X8492915Y-63344328D01*
X8456678Y-63022711D01*
X8381687Y-62694151D01*
X8270380Y-62376054D01*
X8124157Y-62072419D01*
X7944857Y-61787066D01*
X7944854Y-61787062D01*
X7944852Y-61787059D01*
X7734745Y-61523592D01*
X7734739Y-61523586D01*
X7734736Y-61523582D01*
X7496434Y-61285280D01*
X7496429Y-61285276D01*
X7496423Y-61285270D01*
X7232956Y-61075163D01*
X7232953Y-61075161D01*
X6947594Y-60895857D01*
X6947582Y-60895851D01*
X6885499Y-60865954D01*
X6643962Y-60749636D01*
X6643960Y-60749635D01*
X6325868Y-60638329D01*
X5997303Y-60563337D01*
X5662416Y-60525605D01*
X5662415Y-60525605D01*
X5325407Y-60525605D01*
X5325405Y-60525605D01*
X4990518Y-60563337D01*
X4661953Y-60638329D01*
X4343861Y-60749635D01*
X4343859Y-60749636D01*
X4040239Y-60895851D01*
X4040227Y-60895857D01*
X3754868Y-61075161D01*
X3754865Y-61075163D01*
X3491398Y-61285270D01*
X3253076Y-61523592D01*
X3042969Y-61787059D01*
X3042967Y-61787062D01*
X2863663Y-62072421D01*
X2863657Y-62072433D01*
X2717442Y-62376053D01*
X2717441Y-62376055D01*
X2606135Y-62694147D01*
X2531143Y-63022712D01*
X2493411Y-63357599D01*
X494411Y-63357599D01*
X494411Y-54485104D01*
X2493410Y-54485104D01*
X2493410Y-54694613D01*
X2531142Y-55029500D01*
X2606135Y-55358064D01*
X2717441Y-55676156D01*
X2717442Y-55676158D01*
X2863657Y-55979778D01*
X2863663Y-55979790D01*
X2863664Y-55979791D01*
X2863665Y-55979793D01*
X3042965Y-56265146D01*
X3253087Y-56528630D01*
X3253090Y-56528633D01*
X3491383Y-56766928D01*
X3491386Y-56766930D01*
X3491388Y-56766932D01*
X3754873Y-56977053D01*
X4040224Y-57156352D01*
X4040228Y-57156354D01*
X4040240Y-57156360D01*
X4305906Y-57284297D01*
X4343861Y-57302575D01*
X4492352Y-57354534D01*
X4661954Y-57413881D01*
X4661957Y-57413881D01*
X4661958Y-57413882D01*
X4990518Y-57488873D01*
X5325408Y-57526606D01*
X5325409Y-57526606D01*
X5662416Y-57526606D01*
X5662417Y-57526606D01*
X5997307Y-57488873D01*
X6325866Y-57413881D01*
X6643963Y-57302574D01*
X6947598Y-57156351D01*
X7232951Y-56977052D01*
X7496436Y-56766930D01*
X7734737Y-56528629D01*
X7944858Y-56265144D01*
X8124158Y-55979791D01*
X8270381Y-55676156D01*
X8381688Y-55358059D01*
X8456679Y-55029499D01*
X8494412Y-54694609D01*
X8494412Y-54526105D01*
X8494412Y-54460213D01*
X8494412Y-54357601D01*
X8456679Y-54022711D01*
X8381688Y-53694151D01*
X8270381Y-53376054D01*
X8124158Y-53072419D01*
X7944858Y-52787066D01*
X7944855Y-52787062D01*
X7944853Y-52787059D01*
X7734746Y-52523592D01*
X7734740Y-52523586D01*
X7734737Y-52523582D01*
X7496435Y-52285280D01*
X7496430Y-52285276D01*
X7496424Y-52285270D01*
X7232957Y-52075163D01*
X7232954Y-52075161D01*
X6947595Y-51895857D01*
X6947583Y-51895851D01*
X6643963Y-51749636D01*
X6643961Y-51749635D01*
X6325869Y-51638329D01*
X5997304Y-51563337D01*
X5662417Y-51525605D01*
X5662416Y-51525605D01*
X5325408Y-51525605D01*
X5325406Y-51525605D01*
X4990519Y-51563337D01*
X4661954Y-51638329D01*
X4343862Y-51749635D01*
X4343860Y-51749636D01*
X4040240Y-51895851D01*
X4040228Y-51895857D01*
X3754869Y-52075161D01*
X3754866Y-52075163D01*
X3491399Y-52285270D01*
X3253077Y-52523592D01*
X3042970Y-52787059D01*
X3042968Y-52787062D01*
X2863664Y-53072421D01*
X2863658Y-53072433D01*
X2717443Y-53376053D01*
X2717442Y-53376055D01*
X2606136Y-53694147D01*
X2531144Y-54022712D01*
X2493412Y-54357599D01*
X2493412Y-54485098D01*
X2493410Y-54485104D01*
X494411Y-54485104D01*
X494411Y-29357599D01*
X2493411Y-29357599D01*
X2493411Y-29694613D01*
X2531143Y-30029500D01*
X2606136Y-30358064D01*
X2717441Y-30676154D01*
X2742013Y-30727179D01*
X2863666Y-30979792D01*
X3042966Y-31265146D01*
X3253088Y-31528630D01*
X3491389Y-31766931D01*
X3491393Y-31766934D01*
X3491399Y-31766940D01*
X3754866Y-31977047D01*
X3754870Y-31977049D01*
X3754873Y-31977052D01*
X3916661Y-32078710D01*
X4040228Y-32156353D01*
X4323707Y-32292868D01*
X4343861Y-32302574D01*
X4400398Y-32322357D01*
X4661955Y-32413880D01*
X4661958Y-32413880D01*
X4661959Y-32413881D01*
X4990518Y-32488872D01*
X5325408Y-32526605D01*
X5325409Y-32526605D01*
X5662416Y-32526605D01*
X5662417Y-32526605D01*
X5997306Y-32488872D01*
X6325866Y-32413880D01*
X6643963Y-32302573D01*
X6947597Y-32156351D01*
X7232951Y-31977051D01*
X7496435Y-31766929D01*
X7734736Y-31528628D01*
X7944858Y-31265144D01*
X8124157Y-30979790D01*
X8270380Y-30676156D01*
X8381687Y-30358059D01*
X8456678Y-30029499D01*
X8494411Y-29694609D01*
X8494411Y-29526105D01*
X8494411Y-29460213D01*
X8494411Y-29357601D01*
X8456678Y-29022711D01*
X8381687Y-28694151D01*
X8378301Y-28684475D01*
X8309271Y-28487197D01*
X8270380Y-28376054D01*
X8171436Y-28170594D01*
X8124164Y-28072433D01*
X8124158Y-28072421D01*
X8092378Y-28021844D01*
X7944857Y-27787066D01*
X7944854Y-27787062D01*
X7944852Y-27787059D01*
X7734745Y-27523592D01*
X7734739Y-27523586D01*
X7734736Y-27523582D01*
X7496434Y-27285280D01*
X7496429Y-27285276D01*
X7496423Y-27285270D01*
X7232956Y-27075163D01*
X7232953Y-27075161D01*
X6947594Y-26895857D01*
X6947582Y-26895851D01*
X6643962Y-26749636D01*
X6643960Y-26749635D01*
X6325868Y-26638329D01*
X5997303Y-26563337D01*
X5662416Y-26525605D01*
X5662415Y-26525605D01*
X5325407Y-26525605D01*
X5325405Y-26525605D01*
X4990518Y-26563337D01*
X4661953Y-26638329D01*
X4343861Y-26749635D01*
X4343859Y-26749636D01*
X4040239Y-26895851D01*
X4040227Y-26895857D01*
X3754868Y-27075161D01*
X3754865Y-27075163D01*
X3491398Y-27285270D01*
X3253076Y-27523592D01*
X3042969Y-27787059D01*
X3042967Y-27787062D01*
X2863663Y-28072421D01*
X2863657Y-28072433D01*
X2717442Y-28376053D01*
X2717441Y-28376055D01*
X2606135Y-28694147D01*
X2531143Y-29022712D01*
X2493411Y-29357599D01*
X494411Y-29357599D01*
X494411Y-8460213D01*
X5493411Y-8460213D01*
X5493411Y-21460213D01*
X5493411Y-21591997D01*
X5523490Y-21704256D01*
X5527520Y-21719295D01*
X5593407Y-21833414D01*
X5593409Y-21833416D01*
X5593411Y-21833419D01*
X5686597Y-21926605D01*
X5686599Y-21926606D01*
X5686601Y-21926608D01*
X5800721Y-21992495D01*
X5800719Y-21992495D01*
X5800723Y-21992496D01*
X5800725Y-21992497D01*
X5928019Y-22026605D01*
X5928021Y-22026605D01*
X31059801Y-22026605D01*
X31059803Y-22026605D01*
X31187097Y-21992497D01*
X31187099Y-21992495D01*
X31187101Y-21992495D01*
X31301220Y-21926608D01*
X31301220Y-21926607D01*
X31301225Y-21926605D01*
X31394411Y-21833419D01*
X31460303Y-21719291D01*
X31494411Y-21591997D01*
X31494411Y-8460213D01*
X31460303Y-8332919D01*
X31460301Y-8332916D01*
X31460301Y-8332914D01*
X31394414Y-8218795D01*
X31394412Y-8218793D01*
X31394411Y-8218791D01*
X31301225Y-8125605D01*
X31301222Y-8125603D01*
X31301220Y-8125601D01*
X31187100Y-8059714D01*
X31187102Y-8059714D01*
X31137710Y-8046480D01*
X31059803Y-8025605D01*
X18559803Y-8025605D01*
X6059803Y-8025605D01*
X5928019Y-8025605D01*
X5850111Y-8046480D01*
X5800720Y-8059714D01*
X5686601Y-8125601D01*
X5593407Y-8218795D01*
X5527520Y-8332914D01*
X5527519Y-8332919D01*
X5493411Y-8460213D01*
X494411Y-8460213D01*
X494411Y-4528384D01*
X494517Y-4523812D01*
X511260Y-4161657D01*
X512103Y-4152552D01*
X546349Y-3907051D01*
X561880Y-3795711D01*
X563556Y-3786750D01*
X646041Y-3436043D01*
X648542Y-3427254D01*
X763034Y-3085654D01*
X766335Y-3077135D01*
X911866Y-2747538D01*
X915918Y-2739399D01*
X1091261Y-2424601D01*
X1096029Y-2416900D01*
X1299667Y-2119624D01*
X1305155Y-2112357D01*
X1535326Y-1835173D01*
X1541466Y-1828437D01*
X1796243Y-1573660D01*
X1802979Y-1567520D01*
X2080163Y-1337349D01*
X2087430Y-1331861D01*
X2384706Y-1128223D01*
X2392407Y-1123455D01*
X2707205Y-948112D01*
X2715344Y-944060D01*
X3044948Y-798526D01*
X3053460Y-795228D01*
X3395065Y-680734D01*
X3403849Y-678235D01*
X3754556Y-595750D01*
X3763517Y-594074D01*
X4120365Y-544296D01*
X4129456Y-543454D01*
X4491618Y-526710D01*
X4496190Y-526605D01*
X4559803Y-526605D01*
X32428019Y-526605D01*
X32491632Y-526605D01*
X32496203Y-526710D01*
G37*
%TD.AperFunction*%
%TD*%
M02*
