%TF.GenerationSoftware,KiCad,Pcbnew,8.99.0-2433-g53022ab347*%
%TF.CreationDate,2024-10-12T16:27:44+02:00*%
%TF.ProjectId,dmm_sao_front,646d6d5f-7361-46f5-9f66-726f6e742e6b,1.0*%
%TF.SameCoordinates,PX4dbaf29PY3d7cb27*%
%TF.FileFunction,Legend,Top*%
%TF.FilePolarity,Positive*%
%FSLAX46Y46*%
G04 Gerber Fmt 4.6, Leading zero omitted, Abs format (unit mm)*
G04 Created by KiCad (PCBNEW 8.99.0-2433-g53022ab347) date 2024-10-12 16:27:44*
%MOMM*%
%LPD*%
G01*
G04 APERTURE LIST*
%ADD10C,0.000000*%
G04 APERTURE END LIST*
D10*
%TO.C,G\u002A\u002A\u002A*%
G36*
X12223353Y-37655129D02*
G01*
X12223353Y-39042702D01*
X12022102Y-39042702D01*
X11820851Y-39042702D01*
X11820851Y-37655129D01*
X11820851Y-36267556D01*
X12022102Y-36267556D01*
X12223353Y-36267556D01*
X12223353Y-37655129D01*
G37*
G36*
X13685071Y-44031609D02*
G01*
X13685071Y-45419182D01*
X13483820Y-45419182D01*
X13282569Y-45419182D01*
X13282569Y-44031609D01*
X13282569Y-42644036D01*
X13483820Y-42644036D01*
X13685071Y-42644036D01*
X13685071Y-44031609D01*
G37*
G36*
X15273895Y-31585821D02*
G01*
X15273895Y-31734111D01*
X15125604Y-31734111D01*
X14977314Y-31734111D01*
X14977314Y-31585821D01*
X14977314Y-31437531D01*
X15125604Y-31437531D01*
X15273895Y-31437531D01*
X15273895Y-31585821D01*
G37*
G36*
X15273895Y-32728806D02*
G01*
X15273895Y-33450041D01*
X15125323Y-33450041D01*
X14976751Y-33450041D01*
X14982329Y-32735070D01*
X14987906Y-32020100D01*
X15130901Y-32013836D01*
X15273895Y-32007572D01*
X15273895Y-32728806D01*
G37*
G36*
X17011009Y-5073644D02*
G01*
X17011009Y-6079899D01*
X16862719Y-6079899D01*
X16714429Y-6079899D01*
X16714429Y-5073644D01*
X16714429Y-4067389D01*
X16862719Y-4067389D01*
X17011009Y-4067389D01*
X17011009Y-5073644D01*
G37*
G36*
X18790492Y-5073644D02*
G01*
X18790492Y-6079899D01*
X18642202Y-6079899D01*
X18493911Y-6079899D01*
X18493911Y-5073644D01*
X18493911Y-4067389D01*
X18642202Y-4067389D01*
X18790492Y-4067389D01*
X18790492Y-5073644D01*
G37*
G36*
X27433695Y-5073644D02*
G01*
X27433695Y-6079899D01*
X27285404Y-6079899D01*
X27137114Y-6079899D01*
X27137114Y-5073644D01*
X27137114Y-4067389D01*
X27285404Y-4067389D01*
X27433695Y-4067389D01*
X27433695Y-5073644D01*
G37*
G36*
X21290242Y-4925354D02*
G01*
X21290242Y-5783319D01*
X21576230Y-5783319D01*
X21862218Y-5783319D01*
X21862218Y-5931609D01*
X21862218Y-6079899D01*
X21427940Y-6079899D01*
X20993661Y-6079899D01*
X20993661Y-5073644D01*
X20993661Y-4067389D01*
X21141951Y-4067389D01*
X21290242Y-4067389D01*
X21290242Y-4925354D01*
G37*
G36*
X25633027Y-4925354D02*
G01*
X25633027Y-5783319D01*
X25919016Y-5783319D01*
X26205004Y-5783319D01*
X26205004Y-5931609D01*
X26205004Y-6079899D01*
X25770725Y-6079899D01*
X25336447Y-6079899D01*
X25336447Y-5073644D01*
X25336447Y-4067389D01*
X25484737Y-4067389D01*
X25633027Y-4067389D01*
X25633027Y-4925354D01*
G37*
G36*
X7774645Y-57864970D02*
G01*
X7774645Y-58002668D01*
X7605171Y-58002668D01*
X7435696Y-58002668D01*
X7435696Y-58871226D01*
X7435696Y-59739783D01*
X7287406Y-59739783D01*
X7139116Y-59739783D01*
X7139116Y-58871226D01*
X7139116Y-58002668D01*
X6969641Y-58002668D01*
X6800167Y-58002668D01*
X6800167Y-57864970D01*
X6800167Y-57727272D01*
X7287406Y-57727272D01*
X7774645Y-57727272D01*
X7774645Y-57864970D01*
G37*
G36*
X8198332Y-67037781D02*
G01*
X8198332Y-67175479D01*
X8028857Y-67175479D01*
X7859383Y-67175479D01*
X7859383Y-68044036D01*
X7859383Y-68912593D01*
X7711092Y-68912593D01*
X7562802Y-68912593D01*
X7562802Y-68044036D01*
X7562802Y-67175479D01*
X7393328Y-67175479D01*
X7223853Y-67175479D01*
X7223853Y-67037781D01*
X7223853Y-66900083D01*
X7711092Y-66900083D01*
X8198332Y-66900083D01*
X8198332Y-67037781D01*
G37*
G36*
X19892077Y-4205087D02*
G01*
X19892077Y-4342785D01*
X19722602Y-4342785D01*
X19553127Y-4342785D01*
X19553127Y-5211342D01*
X19553127Y-6079899D01*
X19404837Y-6079899D01*
X19256547Y-6079899D01*
X19256547Y-5211342D01*
X19256547Y-4342785D01*
X19087072Y-4342785D01*
X18917598Y-4342785D01*
X18917598Y-4205087D01*
X18917598Y-4067389D01*
X19404837Y-4067389D01*
X19892077Y-4067389D01*
X19892077Y-4205087D01*
G37*
G36*
X26988824Y-4205087D02*
G01*
X26988824Y-4342785D01*
X26819349Y-4342785D01*
X26649875Y-4342785D01*
X26649875Y-5211342D01*
X26649875Y-6079899D01*
X26501584Y-6079899D01*
X26353294Y-6079899D01*
X26353294Y-5211342D01*
X26353294Y-4342785D01*
X26183820Y-4342785D01*
X26014345Y-4342785D01*
X26014345Y-4205087D01*
X26014345Y-4067389D01*
X26501584Y-4067389D01*
X26988824Y-4067389D01*
X26988824Y-4205087D01*
G37*
G36*
X31119766Y-4205087D02*
G01*
X31119766Y-4342785D01*
X30950292Y-4342785D01*
X30780817Y-4342785D01*
X30780817Y-5211342D01*
X30780817Y-6079899D01*
X30632527Y-6079899D01*
X30484237Y-6079899D01*
X30484237Y-5211342D01*
X30484237Y-4342785D01*
X30314762Y-4342785D01*
X30145288Y-4342785D01*
X30145288Y-4205087D01*
X30145288Y-4067389D01*
X30632527Y-4067389D01*
X31119766Y-4067389D01*
X31119766Y-4205087D01*
G37*
G36*
X4803544Y-34895536D02*
G01*
X5391409Y-34901167D01*
X5391409Y-35091826D01*
X5391409Y-35282485D01*
X5004795Y-35288259D01*
X4618182Y-35294033D01*
X4618182Y-35706649D01*
X4618182Y-36119266D01*
X4957131Y-36119266D01*
X5296080Y-36119266D01*
X5296080Y-36309924D01*
X5296080Y-36500583D01*
X4957131Y-36500583D01*
X4618182Y-36500583D01*
X4618182Y-37083152D01*
X4618182Y-37665721D01*
X4416931Y-37665721D01*
X4215680Y-37665721D01*
X4215680Y-36277813D01*
X4215680Y-34889905D01*
X4803544Y-34895536D01*
G37*
G36*
X4999499Y-67037781D02*
G01*
X4999499Y-67175479D01*
X4713511Y-67175479D01*
X4427523Y-67175479D01*
X4427523Y-67472060D01*
X4427523Y-67768640D01*
X4681735Y-67768640D01*
X4935946Y-67768640D01*
X4935946Y-67906338D01*
X4935946Y-68044036D01*
X4681735Y-68044036D01*
X4427523Y-68044036D01*
X4427523Y-68330025D01*
X4427523Y-68616013D01*
X4713511Y-68616013D01*
X4999499Y-68616013D01*
X4999499Y-68764303D01*
X4999499Y-68912593D01*
X4565221Y-68912593D01*
X4130942Y-68912593D01*
X4130942Y-67906338D01*
X4130942Y-66900083D01*
X4565221Y-66900083D01*
X4999499Y-66900083D01*
X4999499Y-67037781D01*
G37*
G36*
X5020684Y-5093937D02*
G01*
X5020684Y-6270558D01*
X4851209Y-6270558D01*
X4681735Y-6270558D01*
X4681735Y-5751542D01*
X4681735Y-5232527D01*
X4480484Y-5232527D01*
X4279233Y-5232527D01*
X4279233Y-5751542D01*
X4279233Y-6270558D01*
X4109579Y-6270558D01*
X3939925Y-6270558D01*
X3945400Y-5100125D01*
X3950876Y-3929691D01*
X4114669Y-3923511D01*
X4278462Y-3917330D01*
X4284143Y-4421342D01*
X4289825Y-4925354D01*
X4485394Y-4931440D01*
X4680964Y-4937526D01*
X4686645Y-4433608D01*
X4692327Y-3929691D01*
X4856505Y-3923504D01*
X5020684Y-3917317D01*
X5020684Y-5093937D01*
G37*
G36*
X7202669Y-67037781D02*
G01*
X7202669Y-67175479D01*
X6916680Y-67175479D01*
X6630692Y-67175479D01*
X6630692Y-67472060D01*
X6630692Y-67768640D01*
X6884904Y-67768640D01*
X7139116Y-67768640D01*
X7139116Y-67906338D01*
X7139116Y-68044036D01*
X6884904Y-68044036D01*
X6630692Y-68044036D01*
X6630692Y-68330025D01*
X6630692Y-68616013D01*
X6916680Y-68616013D01*
X7202669Y-68616013D01*
X7202669Y-68764303D01*
X7202669Y-68912593D01*
X6768390Y-68912593D01*
X6334112Y-68912593D01*
X6334112Y-67906338D01*
X6334112Y-66900083D01*
X6768390Y-66900083D01*
X7202669Y-66900083D01*
X7202669Y-67037781D01*
G37*
G36*
X30124103Y-4205087D02*
G01*
X30124103Y-4342785D01*
X29838115Y-4342785D01*
X29552127Y-4342785D01*
X29552127Y-4639366D01*
X29552127Y-4935946D01*
X29806338Y-4935946D01*
X30060550Y-4935946D01*
X30060550Y-5073644D01*
X30060550Y-5211342D01*
X29806338Y-5211342D01*
X29552127Y-5211342D01*
X29552127Y-5497331D01*
X29552127Y-5783319D01*
X29838115Y-5783319D01*
X30124103Y-5783319D01*
X30124103Y-5931609D01*
X30124103Y-6079899D01*
X29689825Y-6079899D01*
X29255546Y-6079899D01*
X29255546Y-5073644D01*
X29255546Y-4067389D01*
X29689825Y-4067389D01*
X30124103Y-4067389D01*
X30124103Y-4205087D01*
G37*
G36*
X32094245Y-4205087D02*
G01*
X32094245Y-4342785D01*
X31808257Y-4342785D01*
X31522268Y-4342785D01*
X31522268Y-4639366D01*
X31522268Y-4935946D01*
X31776480Y-4935946D01*
X32030692Y-4935946D01*
X32030692Y-5073644D01*
X32030692Y-5211342D01*
X31776480Y-5211342D01*
X31522268Y-5211342D01*
X31522268Y-5497331D01*
X31522268Y-5783319D01*
X31808257Y-5783319D01*
X32094245Y-5783319D01*
X32094245Y-5931609D01*
X32094245Y-6079899D01*
X31659966Y-6079899D01*
X31225688Y-6079899D01*
X31225688Y-5073644D01*
X31225688Y-4067389D01*
X31659966Y-4067389D01*
X32094245Y-4067389D01*
X32094245Y-4205087D01*
G37*
G36*
X23027356Y-4575813D02*
G01*
X23075372Y-4713925D01*
X23119490Y-4837776D01*
X23157720Y-4942026D01*
X23188073Y-5021334D01*
X23208561Y-5070361D01*
X23216723Y-5084236D01*
X23230527Y-5065828D01*
X23252502Y-5017625D01*
X23277254Y-4951834D01*
X23299287Y-4888192D01*
X23331882Y-4793954D01*
X23371770Y-4678572D01*
X23415684Y-4551499D01*
X23453024Y-4443411D01*
X23582905Y-4067389D01*
X23728817Y-4067389D01*
X23874729Y-4067389D01*
X23874729Y-5073644D01*
X23874729Y-6079899D01*
X23726439Y-6079899D01*
X23578148Y-6079899D01*
X23576383Y-5481442D01*
X23574618Y-4882985D01*
X23433786Y-5301376D01*
X23292954Y-5719766D01*
X23213745Y-5719766D01*
X23134536Y-5719766D01*
X22997736Y-5301376D01*
X22860935Y-4882985D01*
X22859408Y-5481442D01*
X22857881Y-6079899D01*
X22709591Y-6079899D01*
X22561301Y-6079899D01*
X22561301Y-5073644D01*
X22561301Y-4067389D01*
X22706966Y-4067389D01*
X22852630Y-4067389D01*
X23027356Y-4575813D01*
G37*
G36*
X28153961Y-4575813D02*
G01*
X28201978Y-4713925D01*
X28246095Y-4837776D01*
X28284325Y-4942026D01*
X28314679Y-5021334D01*
X28335166Y-5070361D01*
X28343328Y-5084236D01*
X28357133Y-5065828D01*
X28379108Y-5017625D01*
X28403859Y-4951834D01*
X28425893Y-4888192D01*
X28458487Y-4793954D01*
X28498376Y-4678572D01*
X28542289Y-4551499D01*
X28579630Y-4443411D01*
X28709511Y-4067389D01*
X28855423Y-4067389D01*
X29001334Y-4067389D01*
X29001334Y-5073644D01*
X29001334Y-6079899D01*
X28853044Y-6079899D01*
X28704754Y-6079899D01*
X28702989Y-5481442D01*
X28701224Y-4882985D01*
X28560392Y-5301376D01*
X28419560Y-5719766D01*
X28340351Y-5719766D01*
X28261142Y-5719766D01*
X28124341Y-5301376D01*
X27987540Y-4882985D01*
X27986014Y-5481442D01*
X27984487Y-6079899D01*
X27836197Y-6079899D01*
X27687906Y-6079899D01*
X27687906Y-5073644D01*
X27687906Y-4067389D01*
X27833571Y-4067389D01*
X27979236Y-4067389D01*
X28153961Y-4575813D01*
G37*
G36*
X24430097Y-4884837D02*
G01*
X24436113Y-5702286D01*
X24495551Y-5753395D01*
X24569388Y-5796362D01*
X24640959Y-5797366D01*
X24708470Y-5756416D01*
X24712472Y-5752505D01*
X24764470Y-5700507D01*
X24764470Y-4883948D01*
X24764470Y-4067389D01*
X24924672Y-4067389D01*
X25084873Y-4067389D01*
X25078258Y-4909466D01*
X25076535Y-5120680D01*
X25074842Y-5293823D01*
X25072931Y-5433194D01*
X25070554Y-5543089D01*
X25067462Y-5627807D01*
X25063408Y-5691644D01*
X25058144Y-5738899D01*
X25051421Y-5773868D01*
X25042993Y-5800849D01*
X25032610Y-5824139D01*
X25024593Y-5839527D01*
X24943350Y-5951212D01*
X24838722Y-6033795D01*
X24718327Y-6084512D01*
X24589779Y-6100601D01*
X24460692Y-6079298D01*
X24413747Y-6061127D01*
X24331938Y-6008595D01*
X24252462Y-5931895D01*
X24187587Y-5844879D01*
X24150159Y-5763519D01*
X24145041Y-5723816D01*
X24140451Y-5646119D01*
X24136494Y-5534803D01*
X24133273Y-5394240D01*
X24130893Y-5228805D01*
X24129458Y-5042870D01*
X24129059Y-4877689D01*
X24128941Y-4067389D01*
X24276511Y-4067389D01*
X24424081Y-4067389D01*
X24430097Y-4884837D01*
G37*
G36*
X30505421Y-57054799D02*
G01*
X31066805Y-57379168D01*
X31072683Y-57087165D01*
X31078561Y-56795162D01*
X31258046Y-56795162D01*
X31437531Y-56795162D01*
X31437531Y-57091743D01*
X31437531Y-57388323D01*
X31808257Y-57388323D01*
X32178982Y-57388323D01*
X32178982Y-57568390D01*
X32178982Y-57748457D01*
X31808257Y-57748457D01*
X31437531Y-57748457D01*
X31437531Y-58034445D01*
X31437531Y-58320433D01*
X31258062Y-58320433D01*
X31078593Y-58320433D01*
X31072699Y-58036775D01*
X31066805Y-57753117D01*
X30537197Y-58059627D01*
X30399842Y-58139081D01*
X30273157Y-58212287D01*
X30162145Y-58276358D01*
X30071806Y-58328413D01*
X30007143Y-58365566D01*
X29973158Y-58384933D01*
X29970517Y-58386399D01*
X29956483Y-58391418D01*
X29946510Y-58384842D01*
X29939911Y-58360937D01*
X29935998Y-58313971D01*
X29934082Y-58238211D01*
X29933475Y-58127925D01*
X29933444Y-58077559D01*
X29933444Y-57748457D01*
X29541534Y-57748457D01*
X29149625Y-57748457D01*
X29149625Y-57568390D01*
X29149625Y-57388323D01*
X29540997Y-57388323D01*
X29932368Y-57388323D01*
X29938203Y-57059376D01*
X29944037Y-56730429D01*
X30505421Y-57054799D01*
G37*
G36*
X18303253Y-57504096D02*
G01*
X18303253Y-59019516D01*
X18096401Y-59019516D01*
X17889550Y-59019516D01*
X17594645Y-58209216D01*
X17529223Y-58029868D01*
X17467015Y-57860102D01*
X17409793Y-57704702D01*
X17359330Y-57568452D01*
X17317401Y-57456134D01*
X17285780Y-57372534D01*
X17266239Y-57322434D01*
X17262792Y-57314178D01*
X17253801Y-57294806D01*
X17246391Y-57284064D01*
X17240401Y-57285342D01*
X17235671Y-57302027D01*
X17232040Y-57337507D01*
X17229348Y-57395173D01*
X17227433Y-57478412D01*
X17226134Y-57590612D01*
X17225292Y-57735162D01*
X17224744Y-57915452D01*
X17224349Y-58124478D01*
X17222852Y-59019516D01*
X17011009Y-59019516D01*
X16799166Y-59019516D01*
X16799166Y-57504837D01*
X16799166Y-55990158D01*
X16999167Y-55990158D01*
X17109670Y-55992749D01*
X17180468Y-56000715D01*
X17213914Y-56014343D01*
X17215701Y-56016638D01*
X17226145Y-56041602D01*
X17249306Y-56102248D01*
X17283637Y-56194363D01*
X17327590Y-56313732D01*
X17379619Y-56456144D01*
X17438176Y-56617384D01*
X17501714Y-56793240D01*
X17544338Y-56911676D01*
X17856442Y-57780233D01*
X17862708Y-56890492D01*
X17868974Y-56000750D01*
X18086113Y-55994713D01*
X18303253Y-55988676D01*
X18303253Y-57504096D01*
G37*
G36*
X6568172Y-35708643D02*
G01*
X6669884Y-35774183D01*
X6751246Y-35871640D01*
X6763290Y-35892761D01*
X6775195Y-35916101D01*
X6784962Y-35940130D01*
X6792841Y-35969149D01*
X6799079Y-36007459D01*
X6803926Y-36059358D01*
X6807631Y-36129148D01*
X6810442Y-36221129D01*
X6812609Y-36339600D01*
X6814380Y-36488862D01*
X6816005Y-36673215D01*
X6817175Y-36823644D01*
X6823591Y-37665721D01*
X6621220Y-37665721D01*
X6418849Y-37665721D01*
X6418731Y-36982527D01*
X6418258Y-36772716D01*
X6416631Y-36601067D01*
X6413416Y-36463379D01*
X6408179Y-36355452D01*
X6400486Y-36273084D01*
X6389904Y-36212074D01*
X6375998Y-36168223D01*
X6358336Y-36137329D01*
X6336484Y-36115191D01*
X6328575Y-36109298D01*
X6254854Y-36080952D01*
X6172173Y-36083390D01*
X6099946Y-36115933D01*
X6098135Y-36117375D01*
X6048123Y-36157852D01*
X6042055Y-36911787D01*
X6035986Y-37665721D01*
X5824915Y-37665721D01*
X5613845Y-37665721D01*
X5613845Y-36680650D01*
X5613845Y-35695579D01*
X5825688Y-35695579D01*
X6037531Y-35695579D01*
X6037531Y-35777522D01*
X6037531Y-35859464D01*
X6111317Y-35789875D01*
X6217683Y-35715636D01*
X6334397Y-35678159D01*
X6453785Y-35676232D01*
X6568172Y-35708643D01*
G37*
G36*
X15803503Y-32073635D02*
G01*
X15803503Y-32139698D01*
X15882475Y-32074603D01*
X15937310Y-32035150D01*
X15989818Y-32015677D01*
X16059854Y-32009669D01*
X16080869Y-32009507D01*
X16167813Y-32015358D01*
X16228816Y-32035450D01*
X16256532Y-32053747D01*
X16289238Y-32080859D01*
X16315327Y-32108416D01*
X16335547Y-32141322D01*
X16350643Y-32184478D01*
X16361364Y-32242789D01*
X16368455Y-32321158D01*
X16372665Y-32424487D01*
X16374738Y-32557681D01*
X16375424Y-32725642D01*
X16375479Y-32834644D01*
X16375479Y-33450041D01*
X16227189Y-33450041D01*
X16078899Y-33450041D01*
X16078899Y-32913124D01*
X16078715Y-32747767D01*
X16077921Y-32619592D01*
X16076150Y-32523411D01*
X16073038Y-32454039D01*
X16068220Y-32406288D01*
X16061329Y-32374974D01*
X16052002Y-32354908D01*
X16039872Y-32340905D01*
X16038512Y-32339658D01*
X15977730Y-32311639D01*
X15927294Y-32309894D01*
X15892653Y-32316542D01*
X15865235Y-32332080D01*
X15844194Y-32360971D01*
X15828685Y-32407681D01*
X15817863Y-32476672D01*
X15810883Y-32572410D01*
X15806901Y-32699360D01*
X15805070Y-32861984D01*
X15804698Y-32957506D01*
X15803503Y-33450041D01*
X15654931Y-33450041D01*
X15506359Y-33450041D01*
X15511937Y-32735070D01*
X15517514Y-32020100D01*
X15660509Y-32013836D01*
X15803503Y-32007572D01*
X15803503Y-32073635D01*
G37*
G36*
X20342243Y-25067357D02*
G01*
X20366779Y-25080418D01*
X20423074Y-25111992D01*
X20506262Y-25159296D01*
X20611473Y-25219549D01*
X20733839Y-25289969D01*
X20868491Y-25367775D01*
X20898332Y-25385058D01*
X21427940Y-25691919D01*
X21433834Y-25408261D01*
X21439728Y-25124603D01*
X21619196Y-25124603D01*
X21798665Y-25124603D01*
X21798665Y-25410592D01*
X21798665Y-25696580D01*
X22169391Y-25696580D01*
X22540117Y-25696580D01*
X22540117Y-25876146D01*
X22540117Y-26055713D01*
X22174687Y-26061509D01*
X21809258Y-26067306D01*
X21803364Y-26358590D01*
X21797470Y-26649874D01*
X21618599Y-26649874D01*
X21439728Y-26649874D01*
X21433834Y-26365408D01*
X21427940Y-26080942D01*
X20880802Y-26397185D01*
X20742929Y-26476718D01*
X20617246Y-26548919D01*
X20508337Y-26611179D01*
X20420782Y-26660890D01*
X20359165Y-26695443D01*
X20328067Y-26712230D01*
X20325265Y-26713427D01*
X20322003Y-26693455D01*
X20318540Y-26638379D01*
X20315194Y-26555461D01*
X20312288Y-26451964D01*
X20311019Y-26390366D01*
X20305171Y-26067306D01*
X19907965Y-26061542D01*
X19510759Y-26055779D01*
X19510759Y-25876179D01*
X19510759Y-25696580D01*
X19913261Y-25696580D01*
X20315763Y-25696580D01*
X20315763Y-25376549D01*
X20316543Y-25248889D01*
X20319154Y-25158853D01*
X20323999Y-25101718D01*
X20331483Y-25072762D01*
X20342010Y-25067265D01*
X20342243Y-25067357D01*
G37*
G36*
X6953753Y-3925025D02*
G01*
X7111092Y-3931544D01*
X7233098Y-3940391D01*
X7326802Y-3953168D01*
X7399233Y-3971477D01*
X7457422Y-3996919D01*
X7508398Y-4031097D01*
X7541076Y-4058828D01*
X7613780Y-4135891D01*
X7665589Y-4220848D01*
X7699815Y-4322710D01*
X7719770Y-4450486D01*
X7727226Y-4565221D01*
X7727182Y-4726534D01*
X7711041Y-4855940D01*
X7676219Y-4961688D01*
X7620135Y-5052026D01*
X7552180Y-5124371D01*
X7458386Y-5210828D01*
X7636717Y-5741503D01*
X7815048Y-6272179D01*
X7631559Y-6266073D01*
X7448070Y-6259966D01*
X7296003Y-5772727D01*
X7143935Y-5285487D01*
X7046196Y-5279031D01*
X6948457Y-5272574D01*
X6948457Y-5771566D01*
X6948457Y-6270558D01*
X6778982Y-6270558D01*
X6609508Y-6270558D01*
X6609508Y-5092077D01*
X6609508Y-4984460D01*
X6948457Y-4984460D01*
X7095668Y-4972118D01*
X7177105Y-4962417D01*
X7246797Y-4949057D01*
X7288120Y-4935564D01*
X7340189Y-4883933D01*
X7374855Y-4794840D01*
X7391683Y-4669644D01*
X7393328Y-4606175D01*
X7384323Y-4469966D01*
X7356807Y-4370169D01*
X7310028Y-4304729D01*
X7274796Y-4282167D01*
X7225641Y-4269353D01*
X7151858Y-4260606D01*
X7085158Y-4258048D01*
X6948457Y-4258048D01*
X6948457Y-4621254D01*
X6948457Y-4984460D01*
X6609508Y-4984460D01*
X6609508Y-4621254D01*
X6609508Y-3913596D01*
X6953753Y-3925025D01*
G37*
G36*
X13273967Y-36304628D02*
G01*
X13268147Y-36335410D01*
X13255483Y-36404124D01*
X13236660Y-36507011D01*
X13212360Y-36640308D01*
X13183268Y-36800255D01*
X13150069Y-36983091D01*
X13113445Y-37185053D01*
X13074082Y-37402382D01*
X13032663Y-37631315D01*
X13028357Y-37655129D01*
X12986767Y-37885033D01*
X12947163Y-38103715D01*
X12910229Y-38307414D01*
X12876650Y-38492369D01*
X12847108Y-38654818D01*
X12822289Y-38791001D01*
X12802877Y-38897156D01*
X12789554Y-38969523D01*
X12783007Y-39004338D01*
X12782747Y-39005629D01*
X12774750Y-39035396D01*
X12759542Y-39052773D01*
X12727442Y-39061093D01*
X12668772Y-39063689D01*
X12613579Y-39063886D01*
X12523183Y-39060788D01*
X12470163Y-39051750D01*
X12456380Y-39040234D01*
X12460067Y-39016489D01*
X12470615Y-38955314D01*
X12487254Y-38860953D01*
X12509212Y-38737653D01*
X12535719Y-38589658D01*
X12566006Y-38421214D01*
X12599301Y-38236566D01*
X12634834Y-38039960D01*
X12671835Y-37835640D01*
X12709532Y-37627853D01*
X12747157Y-37420843D01*
X12783937Y-37218855D01*
X12819104Y-37026135D01*
X12851885Y-36846929D01*
X12881511Y-36685481D01*
X12907212Y-36546038D01*
X12928217Y-36432843D01*
X12943755Y-36350143D01*
X12953055Y-36302182D01*
X12954774Y-36294036D01*
X12963546Y-36269740D01*
X12982452Y-36255477D01*
X13020972Y-36248606D01*
X13088588Y-36246483D01*
X13125773Y-36246371D01*
X13285935Y-36246371D01*
X13273967Y-36304628D01*
G37*
G36*
X14548423Y-41988608D02*
G01*
X14654046Y-42035304D01*
X14743469Y-42112564D01*
X14791501Y-42183301D01*
X14813423Y-42229882D01*
X14827567Y-42278161D01*
X14835553Y-42339024D01*
X14839001Y-42423358D01*
X14839584Y-42506338D01*
X14839831Y-42575193D01*
X14839235Y-42631499D01*
X14835829Y-42680621D01*
X14827644Y-42727926D01*
X14812708Y-42778779D01*
X14789055Y-42838545D01*
X14754713Y-42912589D01*
X14707714Y-43006279D01*
X14646089Y-43124979D01*
X14567868Y-43274054D01*
X14534411Y-43337823D01*
X14342831Y-43703252D01*
X14596520Y-43703252D01*
X14850208Y-43703252D01*
X14850208Y-43851542D01*
X14850208Y-43999833D01*
X14415930Y-43999833D01*
X13981651Y-43999833D01*
X13982018Y-43867431D01*
X13982763Y-43827839D01*
X13986189Y-43791367D01*
X13994442Y-43752965D01*
X14009667Y-43707583D01*
X14034012Y-43650172D01*
X14069620Y-43575683D01*
X14118637Y-43479067D01*
X14183210Y-43355273D01*
X14265483Y-43199254D01*
X14267822Y-43194829D01*
X14553258Y-42654628D01*
X14553443Y-42502580D01*
X14552146Y-42421549D01*
X14545719Y-42370742D01*
X14530723Y-42338043D01*
X14503719Y-42311342D01*
X14497810Y-42306625D01*
X14439241Y-42270357D01*
X14391262Y-42269564D01*
X14340326Y-42304901D01*
X14330230Y-42314716D01*
X14296436Y-42358966D01*
X14281098Y-42413586D01*
X14278232Y-42473599D01*
X14278232Y-42580483D01*
X14127095Y-42580483D01*
X13975958Y-42580483D01*
X13986223Y-42437489D01*
X14002142Y-42326564D01*
X14030621Y-42230461D01*
X14041834Y-42205689D01*
X14115088Y-42102951D01*
X14209931Y-42029648D01*
X14318807Y-41986006D01*
X14434157Y-41972251D01*
X14548423Y-41988608D01*
G37*
G36*
X15944457Y-4071317D02*
G01*
X16076235Y-4084829D01*
X16178767Y-4110520D01*
X16258325Y-4150981D01*
X16321181Y-4208806D01*
X16373605Y-4286589D01*
X16391938Y-4321601D01*
X16449625Y-4438115D01*
X16449625Y-5063052D01*
X16449175Y-5263481D01*
X16447244Y-5426485D01*
X16442960Y-5557006D01*
X16435448Y-5659984D01*
X16423835Y-5740358D01*
X16407250Y-5803070D01*
X16384818Y-5853059D01*
X16355667Y-5895266D01*
X16318923Y-5934631D01*
X16291004Y-5960629D01*
X16234712Y-6005424D01*
X16174802Y-6037735D01*
X16103176Y-6059441D01*
X16011732Y-6072420D01*
X15892371Y-6078549D01*
X15777022Y-6079781D01*
X15506922Y-6079899D01*
X15506922Y-5809596D01*
X15803503Y-5809596D01*
X15933760Y-5800174D01*
X16014370Y-5790838D01*
X16065495Y-5774331D01*
X16099924Y-5746288D01*
X16103234Y-5742320D01*
X16114656Y-5725470D01*
X16123629Y-5703123D01*
X16130446Y-5670366D01*
X16135399Y-5622291D01*
X16138780Y-5553985D01*
X16140881Y-5460540D01*
X16141995Y-5337043D01*
X16142413Y-5178585D01*
X16142452Y-5083071D01*
X16142386Y-4906372D01*
X16141942Y-4767057D01*
X16140752Y-4660139D01*
X16138448Y-4580634D01*
X16134661Y-4523555D01*
X16129022Y-4483918D01*
X16121165Y-4456737D01*
X16110719Y-4437027D01*
X16097317Y-4419802D01*
X16093080Y-4414856D01*
X16053633Y-4378913D01*
X16003777Y-4358645D01*
X15927942Y-4347865D01*
X15923606Y-4347499D01*
X15803503Y-4337539D01*
X15803503Y-5073567D01*
X15803503Y-5809596D01*
X15506922Y-5809596D01*
X15506922Y-5073644D01*
X15506922Y-5073567D01*
X15506922Y-4067389D01*
X15777162Y-4067389D01*
X15944457Y-4071317D01*
G37*
G36*
X3204128Y-66900201D02*
G01*
X3370767Y-66903442D01*
X3501915Y-66914602D01*
X3604089Y-66936066D01*
X3683802Y-66970224D01*
X3747571Y-67019463D01*
X3801912Y-67086171D01*
X3828984Y-67129199D01*
X3853885Y-67174224D01*
X3870479Y-67215315D01*
X3880441Y-67262620D01*
X3885445Y-67326285D01*
X3887168Y-67416457D01*
X3887323Y-67482652D01*
X3884991Y-67614022D01*
X3875931Y-67712685D01*
X3857049Y-67788145D01*
X3825249Y-67849906D01*
X3777435Y-67907475D01*
X3735949Y-67947472D01*
X3662911Y-68014384D01*
X3812095Y-68447600D01*
X3855942Y-68575619D01*
X3894700Y-68690107D01*
X3926362Y-68785019D01*
X3948917Y-68854313D01*
X3960358Y-68891945D01*
X3961373Y-68896705D01*
X3941991Y-68904390D01*
X3890734Y-68910031D01*
X3818083Y-68912551D01*
X3806755Y-68912593D01*
X3652042Y-68912593D01*
X3606906Y-68769599D01*
X3583019Y-68693679D01*
X3550645Y-68590447D01*
X3513899Y-68473040D01*
X3476897Y-68354596D01*
X3474188Y-68345913D01*
X3386607Y-68065221D01*
X3303312Y-68065221D01*
X3220017Y-68065221D01*
X3220017Y-68488907D01*
X3220017Y-68912593D01*
X3071726Y-68912593D01*
X2923436Y-68912593D01*
X2923436Y-67906338D01*
X2923436Y-67789824D01*
X3220017Y-67789824D01*
X3345390Y-67789824D01*
X3419334Y-67787682D01*
X3479289Y-67782149D01*
X3505056Y-67776665D01*
X3551528Y-67736761D01*
X3583518Y-67660624D01*
X3599632Y-67552319D01*
X3601334Y-67495675D01*
X3598339Y-67411955D01*
X3590511Y-67337999D01*
X3580285Y-67292347D01*
X3538722Y-67238907D01*
X3464999Y-67199519D01*
X3368110Y-67178160D01*
X3316026Y-67175479D01*
X3220017Y-67175479D01*
X3220017Y-67482652D01*
X3220017Y-67789824D01*
X2923436Y-67789824D01*
X2923436Y-67482652D01*
X2923436Y-66900083D01*
X3204128Y-66900201D01*
G37*
G36*
X32565596Y-4067507D02*
G01*
X32732235Y-4070749D01*
X32863383Y-4081908D01*
X32965556Y-4103372D01*
X33045270Y-4137530D01*
X33109039Y-4186769D01*
X33163380Y-4253477D01*
X33190452Y-4296505D01*
X33215353Y-4341530D01*
X33231947Y-4382621D01*
X33241908Y-4429926D01*
X33246913Y-4493591D01*
X33248635Y-4583764D01*
X33248790Y-4649958D01*
X33246459Y-4781328D01*
X33237399Y-4879991D01*
X33218517Y-4955451D01*
X33186716Y-5017212D01*
X33138902Y-5074781D01*
X33097417Y-5114778D01*
X33024379Y-5181690D01*
X33173563Y-5614906D01*
X33217410Y-5742925D01*
X33256168Y-5857413D01*
X33287830Y-5952326D01*
X33310385Y-6021620D01*
X33321826Y-6059251D01*
X33322841Y-6064011D01*
X33303459Y-6071696D01*
X33252202Y-6077337D01*
X33179551Y-6079857D01*
X33168223Y-6079899D01*
X33013510Y-6079899D01*
X32968374Y-5936905D01*
X32944487Y-5860986D01*
X32912113Y-5757753D01*
X32875367Y-5640346D01*
X32838365Y-5521902D01*
X32835656Y-5513219D01*
X32748075Y-5232527D01*
X32664780Y-5232527D01*
X32581484Y-5232527D01*
X32581484Y-5656213D01*
X32581484Y-6079899D01*
X32433194Y-6079899D01*
X32284904Y-6079899D01*
X32284904Y-5073644D01*
X32284904Y-4957130D01*
X32581484Y-4957130D01*
X32706858Y-4957130D01*
X32780802Y-4954988D01*
X32840756Y-4949455D01*
X32866524Y-4943971D01*
X32912996Y-4904067D01*
X32944986Y-4827930D01*
X32961100Y-4719625D01*
X32962802Y-4662981D01*
X32959807Y-4579261D01*
X32951978Y-4505306D01*
X32941753Y-4459653D01*
X32900190Y-4406213D01*
X32826467Y-4366825D01*
X32729578Y-4345466D01*
X32677494Y-4342785D01*
X32581484Y-4342785D01*
X32581484Y-4649958D01*
X32581484Y-4957130D01*
X32284904Y-4957130D01*
X32284904Y-4649958D01*
X32284904Y-4067389D01*
X32565596Y-4067507D01*
G37*
G36*
X17888281Y-4068741D02*
G01*
X18003274Y-4114570D01*
X18103121Y-4190559D01*
X18180715Y-4296611D01*
X18186037Y-4306971D01*
X18226426Y-4413794D01*
X18239624Y-4527554D01*
X18239700Y-4538571D01*
X18239700Y-4662486D01*
X18096705Y-4656222D01*
X17953711Y-4649958D01*
X17947006Y-4554628D01*
X17924411Y-4458598D01*
X17875618Y-4391522D01*
X17806055Y-4357101D01*
X17721151Y-4359034D01*
X17679836Y-4372561D01*
X17646436Y-4389244D01*
X17619783Y-4411387D01*
X17599199Y-4443507D01*
X17584005Y-4490122D01*
X17573522Y-4555749D01*
X17567074Y-4644905D01*
X17563982Y-4762107D01*
X17563568Y-4911874D01*
X17565153Y-5098723D01*
X17565563Y-5133767D01*
X17572393Y-5702313D01*
X17631832Y-5753408D01*
X17707804Y-5796545D01*
X17789717Y-5798574D01*
X17856867Y-5773510D01*
X17892308Y-5752302D01*
X17916464Y-5726603D01*
X17931478Y-5688456D01*
X17939492Y-5629905D01*
X17942650Y-5542994D01*
X17943119Y-5453229D01*
X17943119Y-5232527D01*
X17826605Y-5232527D01*
X17710092Y-5232527D01*
X17710092Y-5105421D01*
X17710092Y-4978315D01*
X17976154Y-4978315D01*
X18242217Y-4978315D01*
X18235662Y-5389660D01*
X18229107Y-5801005D01*
X18165193Y-5891869D01*
X18072621Y-5988502D01*
X17955878Y-6056923D01*
X17824938Y-6094005D01*
X17689774Y-6096623D01*
X17588046Y-6072805D01*
X17480146Y-6014471D01*
X17384169Y-5927294D01*
X17323427Y-5840632D01*
X17310263Y-5814763D01*
X17299779Y-5788538D01*
X17291671Y-5757047D01*
X17285633Y-5715378D01*
X17281361Y-5658619D01*
X17278550Y-5581857D01*
X17276895Y-5480183D01*
X17276091Y-5348683D01*
X17275833Y-5182446D01*
X17275813Y-5073644D01*
X17275813Y-4395746D01*
X17334810Y-4295381D01*
X17418953Y-4188959D01*
X17523477Y-4113181D01*
X17641277Y-4067949D01*
X17765247Y-4053168D01*
X17888281Y-4068741D01*
G37*
G36*
X5177481Y-57728521D02*
G01*
X5292373Y-57774437D01*
X5392163Y-57850484D01*
X5469773Y-57956537D01*
X5476768Y-57970265D01*
X5530799Y-58080700D01*
X5524657Y-58770759D01*
X5518515Y-59460817D01*
X5454601Y-59551717D01*
X5362051Y-59648359D01*
X5245328Y-59716791D01*
X5114401Y-59753885D01*
X4979241Y-59756514D01*
X4877454Y-59732689D01*
X4769554Y-59674354D01*
X4673577Y-59587177D01*
X4612835Y-59500515D01*
X4599670Y-59474646D01*
X4589187Y-59448422D01*
X4581079Y-59416931D01*
X4575041Y-59375261D01*
X4570769Y-59318502D01*
X4567958Y-59241741D01*
X4566303Y-59140066D01*
X4565499Y-59008566D01*
X4565241Y-58842329D01*
X4565221Y-58733527D01*
X4565221Y-58567197D01*
X4852947Y-58567197D01*
X4854495Y-58752884D01*
X4854971Y-58793650D01*
X4861801Y-59362197D01*
X4921240Y-59413292D01*
X4997212Y-59456429D01*
X5079125Y-59458457D01*
X5146275Y-59433394D01*
X5192838Y-59401100D01*
X5219368Y-59368108D01*
X5222753Y-59338732D01*
X5225815Y-59272683D01*
X5228439Y-59175654D01*
X5230507Y-59053341D01*
X5231903Y-58911437D01*
X5232510Y-58755637D01*
X5232527Y-58724895D01*
X5232455Y-58548486D01*
X5232001Y-58409553D01*
X5230807Y-58303202D01*
X5228516Y-58224540D01*
X5224770Y-58168676D01*
X5219213Y-58130714D01*
X5211486Y-58105764D01*
X5201232Y-58088931D01*
X5188095Y-58075323D01*
X5184862Y-58072349D01*
X5110672Y-58023072D01*
X5034501Y-58013757D01*
X4970620Y-58031869D01*
X4936857Y-58048630D01*
X4909911Y-58070673D01*
X4889096Y-58102522D01*
X4873725Y-58148702D01*
X4863112Y-58213736D01*
X4856569Y-58302147D01*
X4853409Y-58418460D01*
X4852947Y-58567197D01*
X4565221Y-58567197D01*
X4565221Y-58055629D01*
X4624218Y-57955264D01*
X4708451Y-57848657D01*
X4812972Y-57772804D01*
X4930702Y-57727580D01*
X5054565Y-57712860D01*
X5177481Y-57728521D01*
G37*
G36*
X6363803Y-57728521D02*
G01*
X6478695Y-57774437D01*
X6578485Y-57850484D01*
X6656095Y-57956537D01*
X6663090Y-57970265D01*
X6717121Y-58080700D01*
X6710979Y-58770759D01*
X6704837Y-59460817D01*
X6640922Y-59551717D01*
X6548373Y-59648359D01*
X6431650Y-59716791D01*
X6300723Y-59753885D01*
X6165563Y-59756514D01*
X6063776Y-59732689D01*
X5955876Y-59674354D01*
X5859899Y-59587177D01*
X5799157Y-59500515D01*
X5785992Y-59474646D01*
X5775509Y-59448422D01*
X5767401Y-59416931D01*
X5761363Y-59375261D01*
X5757091Y-59318502D01*
X5754280Y-59241741D01*
X5752625Y-59140066D01*
X5751821Y-59008566D01*
X5751562Y-58842329D01*
X5751543Y-58733527D01*
X5751543Y-58567197D01*
X6039269Y-58567197D01*
X6040817Y-58752884D01*
X6041293Y-58793650D01*
X6048123Y-59362197D01*
X6107561Y-59413292D01*
X6183534Y-59456429D01*
X6265447Y-59458457D01*
X6332596Y-59433394D01*
X6379160Y-59401100D01*
X6405690Y-59368108D01*
X6409075Y-59338732D01*
X6412137Y-59272683D01*
X6414761Y-59175654D01*
X6416829Y-59053341D01*
X6418225Y-58911437D01*
X6418832Y-58755637D01*
X6418849Y-58724895D01*
X6418777Y-58548486D01*
X6418323Y-58409553D01*
X6417129Y-58303202D01*
X6414838Y-58224540D01*
X6411092Y-58168676D01*
X6405535Y-58130714D01*
X6397808Y-58105764D01*
X6387554Y-58088931D01*
X6374417Y-58075323D01*
X6371184Y-58072349D01*
X6296994Y-58023072D01*
X6220823Y-58013757D01*
X6156942Y-58031869D01*
X6123179Y-58048630D01*
X6096233Y-58070673D01*
X6075418Y-58102522D01*
X6060047Y-58148702D01*
X6049433Y-58213736D01*
X6042890Y-58302147D01*
X6039731Y-58418460D01*
X6039269Y-58567197D01*
X5751543Y-58567197D01*
X5751543Y-58055629D01*
X5810540Y-57955264D01*
X5894773Y-57848657D01*
X5999294Y-57772804D01*
X6117024Y-57727580D01*
X6240887Y-57712860D01*
X6363803Y-57728521D01*
G37*
G36*
X14371476Y-4068638D02*
G01*
X14486368Y-4114554D01*
X14586158Y-4190600D01*
X14663768Y-4296654D01*
X14670763Y-4310381D01*
X14724794Y-4420817D01*
X14718652Y-5110876D01*
X14712510Y-5800934D01*
X14648596Y-5891833D01*
X14556046Y-5988476D01*
X14439323Y-6056907D01*
X14308396Y-6094001D01*
X14173236Y-6096631D01*
X14071449Y-6072805D01*
X13963549Y-6014471D01*
X13867572Y-5927294D01*
X13806830Y-5840632D01*
X13793665Y-5814763D01*
X13783182Y-5788538D01*
X13775074Y-5757047D01*
X13769036Y-5715378D01*
X13764764Y-5658619D01*
X13761953Y-5581857D01*
X13760298Y-5480183D01*
X13759494Y-5348683D01*
X13759236Y-5182446D01*
X13759216Y-5073644D01*
X13759216Y-4907314D01*
X14046942Y-4907314D01*
X14048490Y-5093000D01*
X14048966Y-5133767D01*
X14055796Y-5702313D01*
X14115235Y-5753408D01*
X14191207Y-5796545D01*
X14273120Y-5798574D01*
X14340270Y-5773510D01*
X14386833Y-5741217D01*
X14413363Y-5708225D01*
X14416748Y-5678849D01*
X14419810Y-5612800D01*
X14422434Y-5515771D01*
X14424502Y-5393458D01*
X14425898Y-5251554D01*
X14426505Y-5095754D01*
X14426522Y-5065012D01*
X14426450Y-4888603D01*
X14425996Y-4749669D01*
X14424802Y-4643318D01*
X14422511Y-4564657D01*
X14418765Y-4508792D01*
X14413208Y-4470831D01*
X14405481Y-4445881D01*
X14395227Y-4429048D01*
X14382090Y-4415439D01*
X14378857Y-4412466D01*
X14304667Y-4363189D01*
X14228496Y-4353874D01*
X14164615Y-4371986D01*
X14130852Y-4388746D01*
X14103906Y-4410790D01*
X14083091Y-4442639D01*
X14067720Y-4488819D01*
X14057107Y-4553853D01*
X14050564Y-4642264D01*
X14047404Y-4758576D01*
X14046942Y-4907314D01*
X13759216Y-4907314D01*
X13759216Y-4395746D01*
X13818213Y-4295381D01*
X13902446Y-4188774D01*
X14006967Y-4112921D01*
X14124697Y-4067697D01*
X14248560Y-4052977D01*
X14371476Y-4068638D01*
G37*
G36*
X14281600Y-36277682D02*
G01*
X14431738Y-36331284D01*
X14558700Y-36420271D01*
X14662014Y-36544356D01*
X14706531Y-36623256D01*
X14776063Y-36764496D01*
X14776063Y-37665275D01*
X14776063Y-38566055D01*
X14725606Y-38677698D01*
X14663624Y-38779536D01*
X14575786Y-38878422D01*
X14474373Y-38962860D01*
X14371670Y-39021354D01*
X14349355Y-39029862D01*
X14245924Y-39052476D01*
X14121818Y-39061108D01*
X13995512Y-39055807D01*
X13885477Y-39036623D01*
X13859488Y-39028554D01*
X13765781Y-38979772D01*
X13668250Y-38903229D01*
X13578963Y-38810441D01*
X13509982Y-38712925D01*
X13491908Y-38677698D01*
X13441451Y-38566055D01*
X13441451Y-37665275D01*
X13441451Y-37660746D01*
X13854545Y-37660746D01*
X13854599Y-37872378D01*
X13854898Y-38045780D01*
X13855651Y-38185089D01*
X13857063Y-38294443D01*
X13859343Y-38377980D01*
X13862698Y-38439839D01*
X13867335Y-38484156D01*
X13873461Y-38515071D01*
X13881284Y-38536720D01*
X13891011Y-38553243D01*
X13899840Y-38564963D01*
X13975006Y-38628624D01*
X14068139Y-38659145D01*
X14168374Y-38654431D01*
X14235629Y-38629728D01*
X14266467Y-38613619D01*
X14291878Y-38597504D01*
X14312387Y-38577380D01*
X14328518Y-38549245D01*
X14340797Y-38509097D01*
X14349749Y-38452933D01*
X14355899Y-38376751D01*
X14359771Y-38276548D01*
X14361891Y-38148322D01*
X14362783Y-37988070D01*
X14362974Y-37791790D01*
X14362969Y-37658889D01*
X14362969Y-36814111D01*
X14290942Y-36742085D01*
X14241188Y-36698010D01*
X14194793Y-36676703D01*
X14131789Y-36670269D01*
X14108757Y-36670058D01*
X14037636Y-36673772D01*
X13988644Y-36690176D01*
X13941817Y-36727163D01*
X13926572Y-36742085D01*
X13854545Y-36814111D01*
X13854545Y-37660746D01*
X13441451Y-37660746D01*
X13441451Y-36814111D01*
X13441451Y-36764496D01*
X13510984Y-36623256D01*
X13601724Y-36480902D01*
X13716358Y-36373497D01*
X13854416Y-36301326D01*
X14015426Y-36264676D01*
X14108757Y-36259751D01*
X14281600Y-36277682D01*
G37*
G36*
X3776364Y-57730081D02*
G01*
X3894941Y-57739715D01*
X3987474Y-57757990D01*
X4061976Y-57786719D01*
X4126462Y-57827715D01*
X4149220Y-57846213D01*
X4225579Y-57930464D01*
X4275843Y-58033316D01*
X4302490Y-58161627D01*
X4308470Y-58286919D01*
X4302533Y-58407400D01*
X4282730Y-58498214D01*
X4245045Y-58570903D01*
X4187221Y-58635368D01*
X4133553Y-58685499D01*
X4194387Y-58736687D01*
X4243664Y-58790712D01*
X4277630Y-58860693D01*
X4298218Y-58953830D01*
X4307361Y-59077323D01*
X4308210Y-59160814D01*
X4306341Y-59265086D01*
X4300519Y-59340117D01*
X4288427Y-59399003D01*
X4267750Y-59454839D01*
X4249200Y-59494495D01*
X4200407Y-59578054D01*
X4143525Y-59636635D01*
X4092298Y-59670962D01*
X4051297Y-59693742D01*
X4012886Y-59709902D01*
X3968481Y-59720809D01*
X3909501Y-59727826D01*
X3827362Y-59732320D01*
X3713482Y-59735656D01*
X3680775Y-59736430D01*
X3368307Y-59743669D01*
X3368307Y-59443202D01*
X3664887Y-59443202D01*
X3780220Y-59443202D01*
X3859948Y-59438261D01*
X3915563Y-59420064D01*
X3954154Y-59392795D01*
X3985799Y-59360788D01*
X4004744Y-59324040D01*
X4015265Y-59269732D01*
X4021271Y-59191679D01*
X4024212Y-59059607D01*
X4013430Y-58962842D01*
X3985232Y-58895527D01*
X3935923Y-58851802D01*
X3861809Y-58825811D01*
X3783042Y-58813940D01*
X3664887Y-58801745D01*
X3664887Y-59122474D01*
X3664887Y-59443202D01*
X3368307Y-59443202D01*
X3368307Y-59122474D01*
X3368307Y-58735470D01*
X3368307Y-58558553D01*
X3664887Y-58558553D01*
X3792816Y-58549300D01*
X3880733Y-58537724D01*
X3938857Y-58515900D01*
X3966554Y-58494236D01*
X3998741Y-58438274D01*
X4018454Y-58356456D01*
X4024557Y-58263751D01*
X4015916Y-58175128D01*
X3995467Y-58112889D01*
X3941789Y-58054040D01*
X3855152Y-58016706D01*
X3740177Y-58002830D01*
X3733736Y-58002787D01*
X3664887Y-58002668D01*
X3664887Y-58280611D01*
X3664887Y-58558553D01*
X3368307Y-58558553D01*
X3368307Y-58280611D01*
X3368307Y-57727272D01*
X3623730Y-57727272D01*
X3776364Y-57730081D01*
G37*
G36*
X15798322Y-55978413D02*
G01*
X15904425Y-55999162D01*
X16070802Y-56062357D01*
X16206766Y-56154890D01*
X16311784Y-56276065D01*
X16385322Y-56425182D01*
X16426847Y-56601542D01*
X16435197Y-56694537D01*
X16444215Y-56879899D01*
X16219188Y-56879899D01*
X15994162Y-56879899D01*
X15994082Y-56747497D01*
X15980914Y-56622696D01*
X15940616Y-56528902D01*
X15871747Y-56463429D01*
X15830277Y-56442165D01*
X15728978Y-56419882D01*
X15623110Y-56429684D01*
X15536122Y-56466545D01*
X15509335Y-56485333D01*
X15487058Y-56506015D01*
X15468907Y-56532416D01*
X15454496Y-56568357D01*
X15443438Y-56617662D01*
X15435349Y-56684152D01*
X15429843Y-56771652D01*
X15426533Y-56883984D01*
X15425034Y-57024971D01*
X15424960Y-57198434D01*
X15425926Y-57408198D01*
X15426823Y-57549745D01*
X15432777Y-58450827D01*
X15511907Y-58523328D01*
X15605846Y-58583052D01*
X15711058Y-58603148D01*
X15822491Y-58583085D01*
X15872459Y-58561259D01*
X15915133Y-58532557D01*
X15946885Y-58492761D01*
X15969186Y-58435898D01*
X15983506Y-58355998D01*
X15991315Y-58247088D01*
X15994083Y-58103198D01*
X15994162Y-58066902D01*
X15994162Y-57748457D01*
X15824687Y-57748457D01*
X15655212Y-57748457D01*
X15655212Y-57547206D01*
X15655212Y-57345954D01*
X16048350Y-57345954D01*
X16441487Y-57345954D01*
X16434964Y-57933819D01*
X16428440Y-58521684D01*
X16369116Y-58642490D01*
X16287900Y-58767459D01*
X16178242Y-58878660D01*
X16052392Y-58964875D01*
X15981750Y-58997193D01*
X15849023Y-59030128D01*
X15699409Y-59040439D01*
X15550872Y-59028157D01*
X15428583Y-58996158D01*
X15304015Y-58929315D01*
X15187051Y-58832030D01*
X15090237Y-58715943D01*
X15047230Y-58642490D01*
X14987906Y-58521684D01*
X14981397Y-57582887D01*
X14980073Y-57307499D01*
X14980216Y-57073945D01*
X14981835Y-56881715D01*
X14984939Y-56730301D01*
X14989535Y-56619192D01*
X14995632Y-56547880D01*
X14998494Y-56530382D01*
X15040864Y-56404767D01*
X15111078Y-56281110D01*
X15199731Y-56173391D01*
X15286555Y-56102229D01*
X15453078Y-56018936D01*
X15623915Y-55977623D01*
X15798322Y-55978413D01*
G37*
G36*
X19237451Y-55994940D02*
G01*
X19415041Y-56004835D01*
X19561459Y-56025677D01*
X19681876Y-56058703D01*
X19781462Y-56105146D01*
X19865386Y-56166241D01*
X19905681Y-56205406D01*
X19950132Y-56255331D01*
X19987582Y-56305432D01*
X20018582Y-56359663D01*
X20043688Y-56421980D01*
X20063452Y-56496338D01*
X20078427Y-56586693D01*
X20089168Y-56697000D01*
X20096228Y-56831215D01*
X20100160Y-56993292D01*
X20101517Y-57187188D01*
X20100854Y-57416856D01*
X20099570Y-57591001D01*
X20097691Y-57805663D01*
X20095875Y-57982357D01*
X20093866Y-58125482D01*
X20091414Y-58239438D01*
X20088264Y-58328625D01*
X20084164Y-58397442D01*
X20078861Y-58450288D01*
X20072101Y-58491563D01*
X20063633Y-58525667D01*
X20053203Y-58556999D01*
X20042410Y-58585237D01*
X19964949Y-58728065D01*
X19856575Y-58847207D01*
X19723912Y-58936436D01*
X19626992Y-58975693D01*
X19570046Y-58991633D01*
X19512456Y-59003251D01*
X19446176Y-59011196D01*
X19363158Y-59016118D01*
X19255354Y-59018669D01*
X19114716Y-59019499D01*
X19084700Y-59019516D01*
X18684288Y-59019516D01*
X18685738Y-58617014D01*
X19129441Y-58617014D01*
X19230067Y-58616496D01*
X19317224Y-58610989D01*
X19407195Y-58597985D01*
X19426022Y-58594020D01*
X19495257Y-58571046D01*
X19553409Y-58540067D01*
X19566683Y-58529484D01*
X19589209Y-58505543D01*
X19607847Y-58477272D01*
X19622922Y-58440742D01*
X19634758Y-58392023D01*
X19643680Y-58327186D01*
X19650013Y-58242302D01*
X19654082Y-58133443D01*
X19656210Y-57996678D01*
X19656723Y-57828078D01*
X19655946Y-57623716D01*
X19654847Y-57462468D01*
X19653141Y-57249762D01*
X19651396Y-57075239D01*
X19649393Y-56934713D01*
X19646915Y-56824000D01*
X19643744Y-56738913D01*
X19639662Y-56675268D01*
X19634451Y-56628878D01*
X19627893Y-56595559D01*
X19619770Y-56571126D01*
X19609864Y-56551392D01*
X19607182Y-56546865D01*
X19540696Y-56477692D01*
X19440190Y-56433594D01*
X19305847Y-56414644D01*
X19266710Y-56413844D01*
X19129441Y-56413844D01*
X19129441Y-57515429D01*
X19129441Y-58617014D01*
X18685738Y-58617014D01*
X18689706Y-57515429D01*
X18689725Y-57510133D01*
X18695162Y-56000750D01*
X19023519Y-55994760D01*
X19237451Y-55994940D01*
G37*
G36*
X14718806Y-29977027D02*
G01*
X14782429Y-29981297D01*
X14816893Y-29989561D01*
X14828776Y-30002759D01*
X14829024Y-30005743D01*
X14824860Y-30031197D01*
X14812846Y-30094586D01*
X14793697Y-30192351D01*
X14768127Y-30320934D01*
X14736851Y-30476775D01*
X14700585Y-30656316D01*
X14660044Y-30855998D01*
X14615943Y-31072262D01*
X14568996Y-31301550D01*
X14553628Y-31376415D01*
X14505976Y-31608657D01*
X14460937Y-31828662D01*
X14419223Y-32032916D01*
X14381547Y-32217905D01*
X14348622Y-32380115D01*
X14321160Y-32516032D01*
X14299875Y-32622142D01*
X14285478Y-32694931D01*
X14278684Y-32730885D01*
X14278232Y-32734058D01*
X14259100Y-32744189D01*
X14209429Y-32750084D01*
X14140803Y-32752041D01*
X14064809Y-32750361D01*
X13993032Y-32745342D01*
X13937058Y-32737283D01*
X13908471Y-32726484D01*
X13907197Y-32724478D01*
X13901410Y-32699573D01*
X13887967Y-32636730D01*
X13867608Y-32539538D01*
X13841072Y-32411587D01*
X13809099Y-32256467D01*
X13772428Y-32077769D01*
X13731799Y-31879081D01*
X13687952Y-31663994D01*
X13641625Y-31436098D01*
X13631168Y-31384570D01*
X13584278Y-31153584D01*
X13539648Y-30934027D01*
X13498030Y-30729568D01*
X13460172Y-30543876D01*
X13426825Y-30380620D01*
X13398737Y-30243468D01*
X13376659Y-30136089D01*
X13361339Y-30062152D01*
X13353529Y-30025326D01*
X13352927Y-30022709D01*
X13348944Y-30001054D01*
X13354494Y-29987302D01*
X13376772Y-29979981D01*
X13422977Y-29977618D01*
X13500303Y-29978738D01*
X13559925Y-29980340D01*
X13778708Y-29986405D01*
X13929389Y-30912998D01*
X13960923Y-31105789D01*
X13990661Y-31285446D01*
X14017872Y-31447700D01*
X14041823Y-31588284D01*
X14061782Y-31702929D01*
X14077016Y-31787369D01*
X14086794Y-31837334D01*
X14090054Y-31849575D01*
X14095525Y-31831651D01*
X14106897Y-31776289D01*
X14123389Y-31687889D01*
X14144223Y-31570854D01*
X14168618Y-31429583D01*
X14195795Y-31268478D01*
X14224975Y-31091939D01*
X14233536Y-31039496D01*
X14263955Y-30852880D01*
X14293051Y-30674851D01*
X14319936Y-30510807D01*
X14343721Y-30366149D01*
X14363519Y-30246276D01*
X14378442Y-30156586D01*
X14387601Y-30102481D01*
X14388449Y-30097623D01*
X14409865Y-29975813D01*
X14619444Y-29975813D01*
X14718806Y-29977027D01*
G37*
G36*
X5689045Y-4260960D02*
G01*
X5736274Y-4388867D01*
X5772152Y-4479936D01*
X5798313Y-4537658D01*
X5816396Y-4565526D01*
X5828035Y-4567030D01*
X5830527Y-4562837D01*
X5843937Y-4529417D01*
X5868966Y-4464446D01*
X5902499Y-4376098D01*
X5941425Y-4272547D01*
X5958713Y-4226271D01*
X6069310Y-3929691D01*
X6244079Y-3923538D01*
X6337227Y-3922802D01*
X6396868Y-3927981D01*
X6418814Y-3938700D01*
X6418849Y-3939246D01*
X6411265Y-3964006D01*
X6389883Y-4022711D01*
X6356754Y-4110015D01*
X6313931Y-4220571D01*
X6263466Y-4349035D01*
X6207412Y-4490058D01*
X6207006Y-4491075D01*
X6150891Y-4632349D01*
X6100358Y-4761278D01*
X6057463Y-4872479D01*
X6024261Y-4960567D01*
X6002809Y-5020158D01*
X5995163Y-5045869D01*
X5995162Y-5045895D01*
X6002685Y-5071201D01*
X6023966Y-5130780D01*
X6057082Y-5219548D01*
X6100104Y-5332420D01*
X6151107Y-5464311D01*
X6208164Y-5610138D01*
X6228190Y-5660950D01*
X6286697Y-5809447D01*
X6339824Y-5944886D01*
X6385658Y-6062345D01*
X6422287Y-6156901D01*
X6447798Y-6223631D01*
X6460281Y-6257613D01*
X6461218Y-6260856D01*
X6441666Y-6265265D01*
X6389537Y-6268627D01*
X6314617Y-6270407D01*
X6283374Y-6270558D01*
X6105531Y-6270558D01*
X5974085Y-5915721D01*
X5930729Y-5799425D01*
X5891614Y-5695904D01*
X5859423Y-5612143D01*
X5836836Y-5555130D01*
X5827112Y-5532771D01*
X5814837Y-5541696D01*
X5790743Y-5587322D01*
X5756378Y-5666147D01*
X5713287Y-5774666D01*
X5672906Y-5882313D01*
X5534227Y-6259966D01*
X5349003Y-6266125D01*
X5257575Y-6267839D01*
X5202264Y-6265071D01*
X5176985Y-6257082D01*
X5174828Y-6244941D01*
X5185035Y-6218891D01*
X5208542Y-6158483D01*
X5243347Y-6068870D01*
X5287452Y-5955205D01*
X5338857Y-5822639D01*
X5395561Y-5676325D01*
X5413702Y-5629502D01*
X5641526Y-5041406D01*
X5426434Y-4495216D01*
X5370321Y-4352205D01*
X5319665Y-4222106D01*
X5276457Y-4110111D01*
X5242687Y-4021411D01*
X5220345Y-3961199D01*
X5211420Y-3934665D01*
X5211343Y-3934063D01*
X5230888Y-3927246D01*
X5282982Y-3922056D01*
X5357814Y-3919322D01*
X5388248Y-3919099D01*
X5565154Y-3919099D01*
X5689045Y-4260960D01*
G37*
G36*
X5735494Y-66893416D02*
G01*
X5799368Y-66904428D01*
X5856267Y-66927799D01*
X5902301Y-66954449D01*
X6010353Y-67042981D01*
X6084858Y-67155342D01*
X6127359Y-67294154D01*
X6135036Y-67350250D01*
X6149304Y-67493244D01*
X5987496Y-67493244D01*
X5825688Y-67493244D01*
X5825688Y-67400771D01*
X5809708Y-67306835D01*
X5766413Y-67235985D01*
X5702771Y-67193198D01*
X5625749Y-67183448D01*
X5552824Y-67205946D01*
X5496962Y-67256972D01*
X5460276Y-67335804D01*
X5445430Y-67431225D01*
X5455089Y-67532021D01*
X5466159Y-67570610D01*
X5486243Y-67610917D01*
X5520117Y-67645930D01*
X5574671Y-67680042D01*
X5656794Y-67717649D01*
X5760286Y-67758235D01*
X5906189Y-67826736D01*
X6014437Y-67907756D01*
X6083575Y-68000050D01*
X6103459Y-68051615D01*
X6117847Y-68134901D01*
X6125387Y-68244044D01*
X6126197Y-68364076D01*
X6120393Y-68480031D01*
X6108093Y-68576942D01*
X6099040Y-68615267D01*
X6043168Y-68732424D01*
X5957673Y-68825298D01*
X5849347Y-68891264D01*
X5724982Y-68927696D01*
X5591369Y-68931968D01*
X5455301Y-68901456D01*
X5408560Y-68882169D01*
X5298599Y-68808474D01*
X5212525Y-68704241D01*
X5154279Y-68576312D01*
X5127800Y-68431530D01*
X5126605Y-68392535D01*
X5128710Y-68366123D01*
X5140972Y-68350640D01*
X5172311Y-68343172D01*
X5231648Y-68340803D01*
X5285488Y-68340617D01*
X5444370Y-68340617D01*
X5444370Y-68436909D01*
X5459952Y-68531554D01*
X5505682Y-68597041D01*
X5580040Y-68631773D01*
X5635029Y-68637197D01*
X5711527Y-68626421D01*
X5769531Y-68589267D01*
X5773690Y-68585199D01*
X5798879Y-68556253D01*
X5814328Y-68523901D01*
X5822375Y-68477356D01*
X5825357Y-68405832D01*
X5825688Y-68345272D01*
X5823637Y-68247999D01*
X5813252Y-68177843D01*
X5788187Y-68126383D01*
X5742095Y-68085198D01*
X5668629Y-68045867D01*
X5567237Y-68002359D01*
X5422535Y-67935764D01*
X5314997Y-67867527D01*
X5239739Y-67790796D01*
X5191877Y-67698720D01*
X5166528Y-67584449D01*
X5158807Y-67441132D01*
X5158802Y-67429407D01*
X5160655Y-67335537D01*
X5167955Y-67268674D01*
X5184100Y-67213502D01*
X5212488Y-67154709D01*
X5224602Y-67132826D01*
X5300563Y-67027213D01*
X5392027Y-66953044D01*
X5453331Y-66918416D01*
X5508138Y-66899290D01*
X5573771Y-66891405D01*
X5647020Y-66890336D01*
X5735494Y-66893416D01*
G37*
G36*
X12027237Y-4060722D02*
G01*
X12091111Y-4071734D01*
X12148010Y-4095105D01*
X12194045Y-4121755D01*
X12302096Y-4210287D01*
X12376601Y-4322648D01*
X12419102Y-4461460D01*
X12426780Y-4517556D01*
X12441047Y-4660550D01*
X12279239Y-4660550D01*
X12117431Y-4660550D01*
X12117431Y-4568077D01*
X12101451Y-4474141D01*
X12058156Y-4403291D01*
X11994514Y-4360504D01*
X11917493Y-4350754D01*
X11844567Y-4373252D01*
X11788706Y-4424278D01*
X11752019Y-4503110D01*
X11737173Y-4598531D01*
X11746833Y-4699327D01*
X11757902Y-4737916D01*
X11777986Y-4778223D01*
X11811860Y-4813236D01*
X11866414Y-4847348D01*
X11948537Y-4884955D01*
X12052029Y-4925541D01*
X12197932Y-4994042D01*
X12306180Y-5075062D01*
X12375318Y-5167356D01*
X12395202Y-5218921D01*
X12409590Y-5302207D01*
X12417130Y-5411350D01*
X12417940Y-5531382D01*
X12412136Y-5647337D01*
X12399836Y-5744248D01*
X12390783Y-5782573D01*
X12334911Y-5899730D01*
X12249416Y-5992604D01*
X12141090Y-6058570D01*
X12016725Y-6095002D01*
X11883112Y-6099274D01*
X11747044Y-6068763D01*
X11700303Y-6049476D01*
X11590342Y-5975780D01*
X11504268Y-5871547D01*
X11446022Y-5743618D01*
X11419544Y-5598836D01*
X11418348Y-5559841D01*
X11420453Y-5533429D01*
X11432715Y-5517946D01*
X11464054Y-5510478D01*
X11523391Y-5508109D01*
X11577231Y-5507923D01*
X11736113Y-5507923D01*
X11736113Y-5604215D01*
X11751695Y-5698860D01*
X11797425Y-5764347D01*
X11871783Y-5799079D01*
X11926772Y-5804503D01*
X12003270Y-5793727D01*
X12061274Y-5756574D01*
X12065433Y-5752505D01*
X12090622Y-5723560D01*
X12106071Y-5691207D01*
X12114118Y-5644662D01*
X12117100Y-5573138D01*
X12117431Y-5512578D01*
X12115380Y-5415305D01*
X12104995Y-5345149D01*
X12079930Y-5293689D01*
X12033838Y-5252504D01*
X11960372Y-5213173D01*
X11858980Y-5169665D01*
X11714278Y-5103070D01*
X11606740Y-5034833D01*
X11531482Y-4958102D01*
X11483620Y-4866026D01*
X11458271Y-4751755D01*
X11450550Y-4608438D01*
X11450545Y-4596713D01*
X11452398Y-4502844D01*
X11459698Y-4435980D01*
X11475843Y-4380808D01*
X11504231Y-4322015D01*
X11516345Y-4300132D01*
X11592306Y-4194520D01*
X11683771Y-4120350D01*
X11745074Y-4085722D01*
X11799881Y-4066596D01*
X11865514Y-4058711D01*
X11938764Y-4057642D01*
X12027237Y-4060722D01*
G37*
G36*
X15900555Y-42649785D02*
G01*
X16044228Y-42701800D01*
X16169294Y-42787439D01*
X16181416Y-42798708D01*
X16271238Y-42905991D01*
X16331026Y-43030119D01*
X16363931Y-43178814D01*
X16371231Y-43263678D01*
X16380662Y-43449040D01*
X16176820Y-43449040D01*
X15972977Y-43449040D01*
X15972977Y-43342067D01*
X15958368Y-43223372D01*
X15916017Y-43132877D01*
X15848141Y-43073320D01*
X15756957Y-43047440D01*
X15733843Y-43046538D01*
X15643599Y-43057386D01*
X15580575Y-43093612D01*
X15538918Y-43152036D01*
X15530625Y-43173679D01*
X15523852Y-43206080D01*
X15518457Y-43253252D01*
X15514294Y-43319205D01*
X15511220Y-43407953D01*
X15509091Y-43523507D01*
X15507761Y-43669879D01*
X15507087Y-43851081D01*
X15506922Y-44042201D01*
X15507094Y-44263688D01*
X15507893Y-44446756D01*
X15509743Y-44595351D01*
X15513069Y-44713424D01*
X15518296Y-44804922D01*
X15525848Y-44873794D01*
X15536150Y-44923988D01*
X15549628Y-44959452D01*
X15566705Y-44984135D01*
X15587806Y-45001985D01*
X15611670Y-45016052D01*
X15695992Y-45039272D01*
X15788569Y-45030630D01*
X15872638Y-44992457D01*
X15892020Y-44977105D01*
X15929650Y-44939157D01*
X15951467Y-44900326D01*
X15963011Y-44846122D01*
X15968967Y-44775854D01*
X15977913Y-44635362D01*
X16176696Y-44635362D01*
X16375479Y-44635362D01*
X16375479Y-44779879D01*
X16362016Y-44937714D01*
X16319236Y-45071828D01*
X16243549Y-45192161D01*
X16214177Y-45226740D01*
X16099174Y-45333158D01*
X15976901Y-45400967D01*
X15838993Y-45433909D01*
X15741086Y-45438456D01*
X15651372Y-45434694D01*
X15568336Y-45426636D01*
X15509569Y-45416006D01*
X15508433Y-45415685D01*
X15389252Y-45361748D01*
X15280541Y-45276210D01*
X15191155Y-45168824D01*
X15129948Y-45049347D01*
X15110690Y-44977446D01*
X15107033Y-44935128D01*
X15103649Y-44855527D01*
X15100625Y-44743726D01*
X15098050Y-44604809D01*
X15096011Y-44443861D01*
X15094595Y-44265966D01*
X15093891Y-44076208D01*
X15093828Y-43999833D01*
X15093875Y-43783778D01*
X15094154Y-43605836D01*
X15094875Y-43461749D01*
X15096247Y-43347261D01*
X15098478Y-43258114D01*
X15101777Y-43190052D01*
X15106355Y-43138819D01*
X15112418Y-43100158D01*
X15120177Y-43069811D01*
X15129841Y-43043523D01*
X15141617Y-43017037D01*
X15142128Y-43015928D01*
X15203855Y-42900036D01*
X15271903Y-42814533D01*
X15357297Y-42747701D01*
X15434616Y-42705103D01*
X15588076Y-42650475D01*
X15745947Y-42632356D01*
X15900555Y-42649785D01*
G37*
G36*
X27969166Y-55990330D02*
G01*
X28116262Y-56032130D01*
X28258674Y-56105279D01*
X28374288Y-56209364D01*
X28466423Y-56347469D01*
X28476133Y-56366623D01*
X28545871Y-56508283D01*
X28545871Y-57419654D01*
X28545871Y-58331025D01*
X28487627Y-58430106D01*
X28439666Y-58499398D01*
X28384649Y-58561831D01*
X28360521Y-58583457D01*
X28291660Y-58637728D01*
X28487614Y-58637963D01*
X28683569Y-58638198D01*
X28683569Y-58828857D01*
X28683569Y-59019516D01*
X28312844Y-59019516D01*
X27942118Y-59019516D01*
X27942118Y-58849858D01*
X27943651Y-58761019D01*
X27950455Y-58700662D01*
X27965838Y-58654945D01*
X27993109Y-58610025D01*
X28002634Y-58596660D01*
X28028781Y-58559013D01*
X28050456Y-58522001D01*
X28068044Y-58481441D01*
X28081929Y-58433150D01*
X28092496Y-58372946D01*
X28100130Y-58296645D01*
X28105214Y-58200065D01*
X28108134Y-58079024D01*
X28109274Y-57929337D01*
X28109019Y-57746824D01*
X28107752Y-57527300D01*
X28107268Y-57458544D01*
X28101001Y-56586062D01*
X28038327Y-56520665D01*
X27948645Y-56454263D01*
X27845630Y-56421812D01*
X27739525Y-56424254D01*
X27640568Y-56462534D01*
X27613343Y-56481511D01*
X27585527Y-56504569D01*
X27562549Y-56528646D01*
X27543947Y-56557805D01*
X27529258Y-56596112D01*
X27518023Y-56647631D01*
X27509777Y-56716426D01*
X27504061Y-56806562D01*
X27500412Y-56922104D01*
X27498368Y-57067116D01*
X27497468Y-57245662D01*
X27497250Y-57461807D01*
X27497248Y-57503416D01*
X27497508Y-57732576D01*
X27498587Y-57923487D01*
X27500930Y-58080270D01*
X27504986Y-58207042D01*
X27511200Y-58307923D01*
X27520019Y-58387031D01*
X27531890Y-58448486D01*
X27547259Y-58496407D01*
X27566573Y-58534912D01*
X27590279Y-58568120D01*
X27615838Y-58596989D01*
X27640815Y-58627818D01*
X27656006Y-58662487D01*
X27663781Y-58712094D01*
X27666509Y-58787738D01*
X27666722Y-58835312D01*
X27666722Y-59019516D01*
X27306589Y-59019516D01*
X26946455Y-59019516D01*
X26946455Y-58828857D01*
X26946455Y-58638198D01*
X27125964Y-58638198D01*
X27305474Y-58638198D01*
X27213429Y-58546153D01*
X27178555Y-58510776D01*
X27149534Y-58477870D01*
X27125830Y-58443336D01*
X27106903Y-58403073D01*
X27092217Y-58352981D01*
X27081233Y-58288960D01*
X27073414Y-58206909D01*
X27068222Y-58102727D01*
X27065119Y-57972316D01*
X27063568Y-57811573D01*
X27063030Y-57616400D01*
X27062969Y-57398915D01*
X27062969Y-56509174D01*
X27119064Y-56389526D01*
X27208328Y-56246135D01*
X27325526Y-56130991D01*
X27465434Y-56045966D01*
X27622827Y-55992933D01*
X27792479Y-55973763D01*
X27969166Y-55990330D01*
G37*
G36*
X13141738Y-4069031D02*
G01*
X13181657Y-4076448D01*
X13200902Y-4093376D01*
X13208398Y-4115054D01*
X13216274Y-4149470D01*
X13231811Y-4218581D01*
X13253917Y-4317458D01*
X13281499Y-4441174D01*
X13313465Y-4584801D01*
X13348720Y-4743410D01*
X13386174Y-4912073D01*
X13424733Y-5085863D01*
X13463304Y-5259852D01*
X13500794Y-5429111D01*
X13536112Y-5588713D01*
X13568163Y-5733729D01*
X13595856Y-5859231D01*
X13618098Y-5960292D01*
X13633795Y-6031983D01*
X13641856Y-6069376D01*
X13642702Y-6073687D01*
X13623305Y-6076749D01*
X13572261Y-6078968D01*
X13500287Y-6079895D01*
X13494412Y-6079899D01*
X13421315Y-6078695D01*
X13368351Y-6075526D01*
X13346238Y-6071057D01*
X13346122Y-6070692D01*
X13342147Y-6046941D01*
X13331805Y-5993413D01*
X13317467Y-5921785D01*
X13301505Y-5843739D01*
X13286289Y-5770953D01*
X13274193Y-5715107D01*
X13271637Y-5703878D01*
X13263722Y-5681221D01*
X13247047Y-5667171D01*
X13212977Y-5659683D01*
X13152878Y-5656713D01*
X13070322Y-5656213D01*
X12986453Y-5657162D01*
X12921463Y-5659703D01*
X12884813Y-5663378D01*
X12880067Y-5665420D01*
X12876119Y-5689149D01*
X12865689Y-5743383D01*
X12850898Y-5817141D01*
X12848354Y-5829599D01*
X12827255Y-5934920D01*
X12811396Y-6005919D01*
X12795379Y-6049281D01*
X12773802Y-6071694D01*
X12741267Y-6079845D01*
X12692372Y-6080422D01*
X12646232Y-6079899D01*
X12569002Y-6079148D01*
X12525658Y-6074926D01*
X12507720Y-6064282D01*
X12506706Y-6044262D01*
X12509315Y-6032235D01*
X12517191Y-5997819D01*
X12532729Y-5928708D01*
X12554835Y-5829830D01*
X12582417Y-5706114D01*
X12614382Y-5562488D01*
X12649638Y-5403879D01*
X12660205Y-5356293D01*
X12943620Y-5356293D01*
X12962334Y-5368261D01*
X13009164Y-5376665D01*
X13070143Y-5381028D01*
X13131303Y-5380879D01*
X13178675Y-5375744D01*
X13198292Y-5365148D01*
X13198304Y-5364929D01*
X13194854Y-5331457D01*
X13184717Y-5268371D01*
X13169620Y-5184334D01*
X13151290Y-5088007D01*
X13131454Y-4988052D01*
X13111838Y-4893133D01*
X13094170Y-4811911D01*
X13080176Y-4753048D01*
X13071584Y-4725208D01*
X13070546Y-4724103D01*
X13063139Y-4743501D01*
X13049978Y-4795888D01*
X13032812Y-4872554D01*
X13013390Y-4964789D01*
X12993461Y-5063884D01*
X12974773Y-5161128D01*
X12959075Y-5247811D01*
X12948116Y-5315223D01*
X12943645Y-5354654D01*
X12943620Y-5356293D01*
X12660205Y-5356293D01*
X12687091Y-5235215D01*
X12725650Y-5061425D01*
X12764221Y-4887436D01*
X12801712Y-4718177D01*
X12837029Y-4558576D01*
X12869081Y-4413560D01*
X12896774Y-4288057D01*
X12919015Y-4186997D01*
X12934713Y-4115306D01*
X12942773Y-4077912D01*
X12943620Y-4073602D01*
X12962870Y-4070320D01*
X13012890Y-4068068D01*
X13070322Y-4067389D01*
X13141738Y-4069031D01*
G37*
G36*
X20344406Y-4069031D02*
G01*
X20384326Y-4076448D01*
X20403571Y-4093376D01*
X20411067Y-4115054D01*
X20418943Y-4149470D01*
X20434480Y-4218581D01*
X20456586Y-4317458D01*
X20484168Y-4441174D01*
X20516133Y-4584801D01*
X20551389Y-4743410D01*
X20588843Y-4912073D01*
X20627401Y-5085863D01*
X20665972Y-5259852D01*
X20703463Y-5429111D01*
X20738780Y-5588713D01*
X20770832Y-5733729D01*
X20798525Y-5859231D01*
X20820767Y-5960292D01*
X20836464Y-6031983D01*
X20844525Y-6069376D01*
X20845371Y-6073687D01*
X20825974Y-6076749D01*
X20774929Y-6078968D01*
X20702956Y-6079895D01*
X20697081Y-6079899D01*
X20623984Y-6078695D01*
X20571020Y-6075526D01*
X20548906Y-6071057D01*
X20548790Y-6070692D01*
X20544816Y-6046941D01*
X20534474Y-5993413D01*
X20520136Y-5921785D01*
X20504174Y-5843739D01*
X20488958Y-5770953D01*
X20476862Y-5715107D01*
X20474306Y-5703878D01*
X20466391Y-5681221D01*
X20449716Y-5667171D01*
X20415646Y-5659683D01*
X20355547Y-5656713D01*
X20272991Y-5656213D01*
X20189122Y-5657162D01*
X20124132Y-5659703D01*
X20087482Y-5663378D01*
X20082735Y-5665420D01*
X20078787Y-5689149D01*
X20068357Y-5743383D01*
X20053566Y-5817141D01*
X20051023Y-5829599D01*
X20029924Y-5934920D01*
X20014065Y-6005919D01*
X19998048Y-6049281D01*
X19976471Y-6071694D01*
X19943936Y-6079845D01*
X19895041Y-6080422D01*
X19848901Y-6079899D01*
X19771671Y-6079148D01*
X19728327Y-6074926D01*
X19710388Y-6064282D01*
X19709375Y-6044262D01*
X19711984Y-6032235D01*
X19719860Y-5997819D01*
X19735397Y-5928708D01*
X19757503Y-5829830D01*
X19785086Y-5706114D01*
X19817051Y-5562488D01*
X19852307Y-5403879D01*
X19862874Y-5356293D01*
X20146288Y-5356293D01*
X20165003Y-5368261D01*
X20211833Y-5376665D01*
X20272812Y-5381028D01*
X20333972Y-5380879D01*
X20381344Y-5375744D01*
X20400961Y-5365148D01*
X20400973Y-5364929D01*
X20397523Y-5331457D01*
X20387386Y-5268371D01*
X20372289Y-5184334D01*
X20353959Y-5088007D01*
X20334123Y-4988052D01*
X20314507Y-4893133D01*
X20296839Y-4811911D01*
X20282845Y-4753048D01*
X20274253Y-4725208D01*
X20273215Y-4724103D01*
X20265808Y-4743501D01*
X20252647Y-4795888D01*
X20235481Y-4872554D01*
X20216059Y-4964789D01*
X20196130Y-5063884D01*
X20177442Y-5161128D01*
X20161744Y-5247811D01*
X20150785Y-5315223D01*
X20146313Y-5354654D01*
X20146288Y-5356293D01*
X19862874Y-5356293D01*
X19889760Y-5235215D01*
X19928319Y-5061425D01*
X19966890Y-4887436D01*
X20004380Y-4718177D01*
X20039698Y-4558576D01*
X20071749Y-4413560D01*
X20099442Y-4288057D01*
X20121684Y-4186997D01*
X20137382Y-4115306D01*
X20145442Y-4077912D01*
X20146288Y-4073602D01*
X20165539Y-4070320D01*
X20215559Y-4068068D01*
X20272991Y-4067389D01*
X20344406Y-4069031D01*
G37*
G36*
X18291372Y-24564842D02*
G01*
X18448166Y-24618061D01*
X18581321Y-24705619D01*
X18689182Y-24826580D01*
X18731356Y-24895993D01*
X18743704Y-24920084D01*
X18753796Y-24944480D01*
X18761901Y-24973574D01*
X18768283Y-25011755D01*
X18773208Y-25063416D01*
X18776944Y-25132948D01*
X18779756Y-25224741D01*
X18781910Y-25343188D01*
X18783673Y-25492679D01*
X18785311Y-25677606D01*
X18786306Y-25802502D01*
X18787875Y-26028080D01*
X18788398Y-26215512D01*
X18787395Y-26369015D01*
X18784387Y-26492808D01*
X18778892Y-26591108D01*
X18770433Y-26668134D01*
X18758528Y-26728104D01*
X18742700Y-26775236D01*
X18722466Y-26813748D01*
X18697349Y-26847859D01*
X18666869Y-26881786D01*
X18663119Y-26885739D01*
X18585209Y-26967639D01*
X18740811Y-26967639D01*
X18896413Y-26967639D01*
X18896413Y-27147706D01*
X18896413Y-27327773D01*
X18568057Y-27327773D01*
X18239700Y-27327773D01*
X18239700Y-27159548D01*
X18242574Y-27071191D01*
X18250472Y-27007650D01*
X18262309Y-26977419D01*
X18263061Y-26976886D01*
X18284383Y-26950797D01*
X18314610Y-26898858D01*
X18336999Y-26853826D01*
X18349921Y-26825403D01*
X18360426Y-26798174D01*
X18368764Y-26767636D01*
X18375178Y-26729283D01*
X18379918Y-26678612D01*
X18383228Y-26611119D01*
X18385357Y-26522300D01*
X18386550Y-26407650D01*
X18387054Y-26262667D01*
X18387116Y-26082845D01*
X18387032Y-25940200D01*
X18386535Y-25719574D01*
X18385298Y-25537986D01*
X18383213Y-25392111D01*
X18380173Y-25278624D01*
X18376069Y-25194199D01*
X18370793Y-25135509D01*
X18364238Y-25099231D01*
X18359330Y-25086255D01*
X18299435Y-25016959D01*
X18217862Y-24973470D01*
X18124999Y-24955889D01*
X18031230Y-24964315D01*
X17946941Y-24998848D01*
X17882519Y-25059588D01*
X17869333Y-25081541D01*
X17860932Y-25103331D01*
X17854096Y-25135705D01*
X17848679Y-25182732D01*
X17844533Y-25248485D01*
X17841510Y-25337033D01*
X17839462Y-25452446D01*
X17838242Y-25598797D01*
X17837703Y-25780154D01*
X17837663Y-25955036D01*
X17837925Y-26164069D01*
X17838574Y-26335101D01*
X17839801Y-26472499D01*
X17841795Y-26580629D01*
X17844748Y-26663860D01*
X17848848Y-26726557D01*
X17854286Y-26773088D01*
X17861252Y-26807820D01*
X17869937Y-26835119D01*
X17876674Y-26851125D01*
X17908762Y-26910892D01*
X17941763Y-26956554D01*
X17950354Y-26964937D01*
X17969277Y-26991044D01*
X17980277Y-27036655D01*
X17984984Y-27110865D01*
X17985488Y-27160892D01*
X17985488Y-27327773D01*
X17645682Y-27327773D01*
X17305876Y-27327773D01*
X17312029Y-27153002D01*
X17318182Y-26978231D01*
X17482088Y-26972049D01*
X17645994Y-26965867D01*
X17573496Y-26902213D01*
X17537560Y-26869144D01*
X17507894Y-26836068D01*
X17483900Y-26798735D01*
X17464977Y-26752897D01*
X17450526Y-26694305D01*
X17439945Y-26618710D01*
X17432635Y-26521863D01*
X17427996Y-26399515D01*
X17425428Y-26247416D01*
X17424330Y-26061319D01*
X17424103Y-25844399D01*
X17424103Y-25049517D01*
X17493908Y-24907747D01*
X17583233Y-24767703D01*
X17696588Y-24662199D01*
X17834602Y-24590868D01*
X17997902Y-24553343D01*
X18112594Y-24546895D01*
X18291372Y-24564842D01*
G37*
%TD*%
M02*
