%TF.GenerationSoftware,KiCad,Pcbnew,8.99.0-2433-g53022ab347*%
%TF.CreationDate,2024-10-12T16:27:44+02:00*%
%TF.ProjectId,dmm_sao_front,646d6d5f-7361-46f5-9f66-726f6e742e6b,1.0*%
%TF.SameCoordinates,PX4dbaf29PY3d7cb27*%
%TF.FileFunction,Soldermask,Top*%
%TF.FilePolarity,Negative*%
%FSLAX46Y46*%
G04 Gerber Fmt 4.6, Leading zero omitted, Abs format (unit mm)*
G04 Created by KiCad (PCBNEW 8.99.0-2433-g53022ab347) date 2024-10-12 16:27:44*
%MOMM*%
%LPD*%
G01*
G04 APERTURE LIST*
%ADD10C,0.000000*%
%ADD11C,7.000000*%
G04 APERTURE END LIST*
D10*
%TO.C,G\u002A\u002A\u002A*%
G36*
X16140661Y-37059306D02*
G01*
X16275730Y-37118951D01*
X16382251Y-37208339D01*
X16457191Y-37323390D01*
X16497518Y-37460023D01*
X16503852Y-37548009D01*
X16484442Y-37687565D01*
X16431029Y-37809361D01*
X16349555Y-37909757D01*
X16245965Y-37985111D01*
X16126202Y-38031784D01*
X15996209Y-38046133D01*
X15861930Y-38024519D01*
X15779579Y-37991684D01*
X15663834Y-37912712D01*
X15577698Y-37810281D01*
X15522504Y-37691614D01*
X15499586Y-37563937D01*
X15510274Y-37434471D01*
X15555902Y-37310442D01*
X15634092Y-37202902D01*
X15750168Y-37109150D01*
X15879392Y-37054065D01*
X16017213Y-37038936D01*
X16140661Y-37059306D01*
G37*
G36*
X8598307Y-4468964D02*
G01*
X8652896Y-4471078D01*
X8695976Y-4477020D01*
X8728911Y-4491312D01*
X8753062Y-4518476D01*
X8769792Y-4563034D01*
X8780462Y-4629509D01*
X8786436Y-4722423D01*
X8789074Y-4846298D01*
X8789739Y-5005655D01*
X8789758Y-5104552D01*
X8789758Y-5643369D01*
X8737760Y-5695366D01*
X8688381Y-5731512D01*
X8625857Y-5746079D01*
X8588805Y-5747364D01*
X8522774Y-5741677D01*
X8485485Y-5726323D01*
X8481587Y-5720626D01*
X8479150Y-5693286D01*
X8477304Y-5629159D01*
X8476090Y-5533821D01*
X8475547Y-5412849D01*
X8475717Y-5271821D01*
X8476640Y-5116314D01*
X8476956Y-5079800D01*
X8482585Y-4465713D01*
X8598307Y-4468964D01*
G37*
G36*
X21934837Y-27099458D02*
G01*
X22046611Y-27155241D01*
X22141680Y-27237100D01*
X22213968Y-27342252D01*
X22257397Y-27467916D01*
X22267386Y-27570453D01*
X22250149Y-27713285D01*
X22197093Y-27835797D01*
X22133911Y-27916105D01*
X22021306Y-28005735D01*
X21892153Y-28061198D01*
X21755137Y-28079815D01*
X21646315Y-28066530D01*
X21527675Y-28017614D01*
X21420510Y-27936419D01*
X21337675Y-27833012D01*
X21329181Y-27818128D01*
X21293082Y-27739642D01*
X21275927Y-27663016D01*
X21272189Y-27577729D01*
X21286864Y-27437111D01*
X21332296Y-27320691D01*
X21412204Y-27220046D01*
X21442232Y-27192715D01*
X21560056Y-27116378D01*
X21685483Y-27077245D01*
X21812436Y-27072532D01*
X21934837Y-27099458D01*
G37*
G36*
X17746863Y-42833200D02*
G01*
X17873136Y-42907743D01*
X17965644Y-43007686D01*
X18023701Y-43131953D01*
X18046621Y-43279469D01*
X18046986Y-43303460D01*
X18027437Y-43448380D01*
X17971322Y-43574274D01*
X17881754Y-43676972D01*
X17761846Y-43752303D01*
X17692742Y-43778026D01*
X17592596Y-43801135D01*
X17504909Y-43801740D01*
X17406780Y-43779695D01*
X17395169Y-43776133D01*
X17268846Y-43717084D01*
X17169405Y-43626177D01*
X17103726Y-43521630D01*
X17072037Y-43449601D01*
X17056257Y-43387344D01*
X17052739Y-43315071D01*
X17055058Y-43257563D01*
X17063542Y-43167556D01*
X17080326Y-43102132D01*
X17110754Y-43043612D01*
X17126963Y-43019566D01*
X17225632Y-42912547D01*
X17344369Y-42838300D01*
X17475935Y-42799002D01*
X17613094Y-42796828D01*
X17746863Y-42833200D01*
G37*
G36*
X17639037Y-31296867D02*
G01*
X17749352Y-31325792D01*
X17848143Y-31385085D01*
X17883520Y-31414874D01*
X17974185Y-31519104D01*
X18027282Y-31637317D01*
X18045893Y-31776600D01*
X18045984Y-31788339D01*
X18026775Y-31932693D01*
X17971613Y-32060453D01*
X17884197Y-32165890D01*
X17768228Y-32243275D01*
X17745719Y-32253320D01*
X17646057Y-32278593D01*
X17528831Y-32284343D01*
X17413909Y-32270894D01*
X17337240Y-32246648D01*
X17249163Y-32190413D01*
X17165766Y-32109638D01*
X17100238Y-32018689D01*
X17072658Y-31958487D01*
X17059661Y-31892499D01*
X17053911Y-31806105D01*
X17055190Y-31744311D01*
X17065974Y-31652758D01*
X17088692Y-31583127D01*
X17126965Y-31519266D01*
X17224481Y-31407783D01*
X17334755Y-31335172D01*
X17462308Y-31298747D01*
X17505055Y-31294445D01*
X17639037Y-31296867D01*
G37*
G36*
X8765524Y-3929716D02*
G01*
X8998670Y-3930316D01*
X9091634Y-3930655D01*
X10473911Y-3936105D01*
X10479387Y-5106539D01*
X10484862Y-6276972D01*
X9247772Y-6276972D01*
X8010682Y-6276972D01*
X7911960Y-5986208D01*
X8238965Y-5986208D01*
X8490350Y-5975854D01*
X8604560Y-5970002D01*
X8686724Y-5962224D01*
X8747162Y-5950680D01*
X8796197Y-5933525D01*
X8834329Y-5914423D01*
X8930749Y-5837539D01*
X8980150Y-5768282D01*
X8995995Y-5739182D01*
X9008335Y-5711600D01*
X9017608Y-5680044D01*
X9024252Y-5639024D01*
X9028706Y-5583050D01*
X9031407Y-5506628D01*
X9032794Y-5404269D01*
X9033305Y-5270482D01*
X9033377Y-5101243D01*
X9033375Y-5097712D01*
X9033300Y-4930812D01*
X9032776Y-4797255D01*
X9031371Y-4695075D01*
X9028647Y-4618776D01*
X9024169Y-4562865D01*
X9017500Y-4521843D01*
X9008205Y-4490217D01*
X8995847Y-4462491D01*
X8980417Y-4433936D01*
X8931524Y-4361561D01*
X8872653Y-4309142D01*
X8796736Y-4273941D01*
X8696707Y-4253216D01*
X8565498Y-4244228D01*
X8488689Y-4243278D01*
X9276997Y-4243278D01*
X9276997Y-5097712D01*
X9277359Y-5284031D01*
X9278392Y-5457077D01*
X9280017Y-5612279D01*
X9282155Y-5745064D01*
X9284726Y-5850862D01*
X9287652Y-5925102D01*
X9290852Y-5963211D01*
X9292072Y-5967221D01*
X9320330Y-5974750D01*
X9375746Y-5977275D01*
X9413881Y-5976047D01*
X9520617Y-5969800D01*
X9531209Y-5694403D01*
X9536733Y-5575247D01*
X9543724Y-5488645D01*
X9553811Y-5424782D01*
X9568626Y-5373843D01*
X9589800Y-5326015D01*
X9593687Y-5318382D01*
X9625005Y-5262274D01*
X9649972Y-5225746D01*
X9659525Y-5217756D01*
X9670844Y-5236672D01*
X9693866Y-5289256D01*
X9726073Y-5369265D01*
X9764952Y-5470455D01*
X9806748Y-5583186D01*
X9849947Y-5700387D01*
X9888960Y-5803886D01*
X9921219Y-5887055D01*
X9944154Y-5943266D01*
X9954962Y-5965653D01*
X9982845Y-5973985D01*
X10038813Y-5977391D01*
X10087049Y-5976245D01*
X10204193Y-5969800D01*
X10004113Y-5452011D01*
X9804033Y-4934223D01*
X9964201Y-4599279D01*
X10016155Y-4490063D01*
X10061075Y-4394539D01*
X10096015Y-4319065D01*
X10118027Y-4270000D01*
X10124370Y-4253807D01*
X10105233Y-4247970D01*
X10055994Y-4244147D01*
X10011026Y-4243278D01*
X9897681Y-4243278D01*
X9719741Y-4633681D01*
X9541801Y-5024084D01*
X9536038Y-4633681D01*
X9530274Y-4243278D01*
X9403636Y-4243278D01*
X9276997Y-4243278D01*
X8488689Y-4243278D01*
X8238965Y-4243278D01*
X8238965Y-5114743D01*
X8238965Y-5986208D01*
X7911960Y-5986208D01*
X7843454Y-5784437D01*
X7676226Y-5291901D01*
X7745583Y-5208845D01*
X7811630Y-5117717D01*
X7813077Y-5114743D01*
X7858463Y-5021434D01*
X7888679Y-4910743D01*
X7904876Y-4776391D01*
X7909627Y-4624595D01*
X7905842Y-4461487D01*
X7891577Y-4330069D01*
X7864491Y-4220452D01*
X7822245Y-4122748D01*
X7771168Y-4039494D01*
X7736021Y-3986226D01*
X7713630Y-3948095D01*
X7709357Y-3937431D01*
X7729956Y-3935410D01*
X7789412Y-3933656D01*
X7884213Y-3932187D01*
X8010850Y-3931020D01*
X8165810Y-3930172D01*
X8345583Y-3929661D01*
X8546658Y-3929503D01*
X8765524Y-3929716D01*
G37*
%TD*%
D11*
%TO.C,REF\u002A\u002A*%
X17493911Y-63526105D03*
%TD*%
%TO.C,REF\u002A\u002A*%
X29493911Y-63526105D03*
%TD*%
M02*
