%TF.GenerationSoftware,KiCad,Pcbnew,8.99.0-2433-g53022ab347*%
%TF.CreationDate,2024-10-12T16:27:44+02:00*%
%TF.ProjectId,dmm_sao_front,646d6d5f-7361-46f5-9f66-726f6e742e6b,1.0*%
%TF.SameCoordinates,PX4dbaf29PY3d7cb27*%
%TF.FileFunction,Profile,NP*%
%FSLAX46Y46*%
G04 Gerber Fmt 4.6, Leading zero omitted, Abs format (unit mm)*
G04 Created by KiCad (PCBNEW 8.99.0-2433-g53022ab347) date 2024-10-12 16:27:44*
%MOMM*%
%LPD*%
G01*
G04 APERTURE LIST*
%TA.AperFunction,Profile*%
%ADD10C,0.050000*%
%TD*%
G04 APERTURE END LIST*
D10*
X7993912Y-54526105D02*
G75*
G02*
X2993910Y-54526107I-2500001J0D01*
G01*
X36140358Y-42672552D02*
G75*
G02*
X36140358Y-32379658I-8646447J5146447D01*
G01*
X36993911Y-32026105D02*
G75*
G02*
X36140358Y-32379658I-500000J0D01*
G01*
X5993911Y-21526105D02*
X5993911Y-8526105D01*
X30993911Y-8526105D02*
X30993911Y-21526105D01*
X36993911Y-43026105D02*
X36993911Y-66526105D01*
X2993912Y-54526105D02*
G75*
G02*
X7993912Y-54526105I2500000J0D01*
G01*
X32493911Y-26105D02*
G75*
G02*
X36993911Y-4526105I0J-4500000D01*
G01*
X4493911Y-26105D02*
X32493911Y-26105D01*
X32493911Y-71026105D02*
X4493911Y-71026105D01*
X2993911Y-31526105D02*
G75*
G02*
X7993911Y-31526105I2500000J0D01*
G01*
X18493911Y-8526105D02*
X30993911Y-8526105D01*
X2993911Y-63526105D02*
G75*
G02*
X7993911Y-63526105I2500000J0D01*
G01*
X36140358Y-42672552D02*
G75*
G02*
X36993910Y-43026105I353553J-353553D01*
G01*
X30993911Y-21526105D02*
X5993911Y-21526105D01*
X36993911Y-66526105D02*
G75*
G02*
X32493911Y-71026105I-4500000J0D01*
G01*
X7993911Y-63526105D02*
G75*
G02*
X2993911Y-63526107I-2500000J0D01*
G01*
X-6089Y-66526105D02*
X-6089Y-4526105D01*
X36993911Y-32026105D02*
X36993911Y-4526105D01*
X4493911Y-71026105D02*
G75*
G02*
X-6089Y-66526105I0J4500000D01*
G01*
X-6089Y-4526105D02*
G75*
G02*
X4493911Y-26105I4500000J0D01*
G01*
X7993911Y-31526105D02*
G75*
G02*
X2993911Y-31526107I-2500000J0D01*
G01*
X5993911Y-8526105D02*
X18493911Y-8526105D01*
M02*
