%TF.GenerationSoftware,KiCad,Pcbnew,8.99.0-3110-g1838b2656d*%
%TF.CreationDate,2024-11-19T22:29:11+01:00*%
%TF.ProjectId,dmm_sao_front,646d6d5f-7361-46f5-9f66-726f6e742e6b,1.0*%
%TF.SameCoordinates,PX4dbaf29PY3d7cb27*%
%TF.FileFunction,Copper,L1,Top*%
%TF.FilePolarity,Positive*%
%FSLAX46Y46*%
G04 Gerber Fmt 4.6, Leading zero omitted, Abs format (unit mm)*
G04 Created by KiCad (PCBNEW 8.99.0-3110-g1838b2656d) date 2024-11-19 22:29:11*
%MOMM*%
%LPD*%
G01*
G04 APERTURE LIST*
%TA.AperFunction,EtchedComponent*%
%ADD10C,0.000000*%
%TD*%
%TA.AperFunction,ComponentPad*%
%ADD11C,7.000000*%
%TD*%
G04 APERTURE END LIST*
D10*
%TA.AperFunction,EtchedComponent*%
%TO.C,G\u002A\u002A\u002A*%
G36*
X16146967Y-37059510D02*
G01*
X16282036Y-37119155D01*
X16388557Y-37208543D01*
X16463497Y-37323594D01*
X16503824Y-37460227D01*
X16510158Y-37548213D01*
X16490748Y-37687769D01*
X16437335Y-37809565D01*
X16355861Y-37909961D01*
X16252271Y-37985315D01*
X16132508Y-38031988D01*
X16002515Y-38046337D01*
X15868236Y-38024723D01*
X15785885Y-37991888D01*
X15670140Y-37912916D01*
X15584004Y-37810485D01*
X15528810Y-37691818D01*
X15505892Y-37564141D01*
X15516580Y-37434675D01*
X15562208Y-37310646D01*
X15640398Y-37203106D01*
X15756474Y-37109354D01*
X15885698Y-37054269D01*
X16023519Y-37039140D01*
X16146967Y-37059510D01*
G37*
%TD.AperFunction*%
%TA.AperFunction,EtchedComponent*%
G36*
X8600042Y-4462550D02*
G01*
X8654631Y-4464664D01*
X8697711Y-4470606D01*
X8730646Y-4484898D01*
X8754797Y-4512062D01*
X8771527Y-4556620D01*
X8782197Y-4623095D01*
X8788171Y-4716009D01*
X8790809Y-4839884D01*
X8791474Y-4999241D01*
X8791493Y-5098138D01*
X8791493Y-5636955D01*
X8739495Y-5688952D01*
X8690116Y-5725098D01*
X8627592Y-5739665D01*
X8590540Y-5740950D01*
X8524509Y-5735263D01*
X8487220Y-5719909D01*
X8483322Y-5714212D01*
X8480885Y-5686872D01*
X8479039Y-5622745D01*
X8477825Y-5527407D01*
X8477282Y-5406435D01*
X8477452Y-5265407D01*
X8478375Y-5109900D01*
X8478691Y-5073386D01*
X8484320Y-4459299D01*
X8600042Y-4462550D01*
G37*
%TD.AperFunction*%
%TA.AperFunction,EtchedComponent*%
G36*
X21932171Y-27100847D02*
G01*
X22043945Y-27156630D01*
X22139014Y-27238489D01*
X22211302Y-27343641D01*
X22254731Y-27469305D01*
X22264720Y-27571842D01*
X22247483Y-27714674D01*
X22194427Y-27837186D01*
X22131245Y-27917494D01*
X22018640Y-28007124D01*
X21889487Y-28062587D01*
X21752471Y-28081204D01*
X21643649Y-28067919D01*
X21525009Y-28019003D01*
X21417844Y-27937808D01*
X21335009Y-27834401D01*
X21326515Y-27819517D01*
X21290416Y-27741031D01*
X21273261Y-27664405D01*
X21269523Y-27579118D01*
X21284198Y-27438500D01*
X21329630Y-27322080D01*
X21409538Y-27221435D01*
X21439566Y-27194104D01*
X21557390Y-27117767D01*
X21682817Y-27078634D01*
X21809770Y-27073921D01*
X21932171Y-27100847D01*
G37*
%TD.AperFunction*%
%TA.AperFunction,EtchedComponent*%
G36*
X17748719Y-42835106D02*
G01*
X17874992Y-42909649D01*
X17967500Y-43009592D01*
X18025557Y-43133859D01*
X18048477Y-43281375D01*
X18048842Y-43305366D01*
X18029293Y-43450286D01*
X17973178Y-43576180D01*
X17883610Y-43678878D01*
X17763702Y-43754209D01*
X17694598Y-43779932D01*
X17594452Y-43803041D01*
X17506765Y-43803646D01*
X17408636Y-43781601D01*
X17397025Y-43778039D01*
X17270702Y-43718990D01*
X17171261Y-43628083D01*
X17105582Y-43523536D01*
X17073893Y-43451507D01*
X17058113Y-43389250D01*
X17054595Y-43316977D01*
X17056914Y-43259469D01*
X17065398Y-43169462D01*
X17082182Y-43104038D01*
X17112610Y-43045518D01*
X17128819Y-43021472D01*
X17227488Y-42914453D01*
X17346225Y-42840206D01*
X17477791Y-42800908D01*
X17614950Y-42798734D01*
X17748719Y-42835106D01*
G37*
%TD.AperFunction*%
%TA.AperFunction,EtchedComponent*%
G36*
X17641163Y-31295600D02*
G01*
X17751478Y-31324525D01*
X17850269Y-31383818D01*
X17885646Y-31413607D01*
X17976311Y-31517837D01*
X18029408Y-31636050D01*
X18048019Y-31775333D01*
X18048110Y-31787072D01*
X18028901Y-31931426D01*
X17973739Y-32059186D01*
X17886323Y-32164623D01*
X17770354Y-32242008D01*
X17747845Y-32252053D01*
X17648183Y-32277326D01*
X17530957Y-32283076D01*
X17416035Y-32269627D01*
X17339366Y-32245381D01*
X17251289Y-32189146D01*
X17167892Y-32108371D01*
X17102364Y-32017422D01*
X17074784Y-31957220D01*
X17061787Y-31891232D01*
X17056037Y-31804838D01*
X17057316Y-31743044D01*
X17068100Y-31651491D01*
X17090818Y-31581860D01*
X17129091Y-31517999D01*
X17226607Y-31406516D01*
X17336881Y-31333905D01*
X17464434Y-31297480D01*
X17507181Y-31293178D01*
X17641163Y-31295600D01*
G37*
%TD.AperFunction*%
%TA.AperFunction,EtchedComponent*%
G36*
X8767259Y-3923302D02*
G01*
X9000405Y-3923902D01*
X9093369Y-3924241D01*
X10475646Y-3929691D01*
X10481122Y-5100125D01*
X10486597Y-6270558D01*
X9249507Y-6270558D01*
X8012417Y-6270558D01*
X7913695Y-5979794D01*
X8240700Y-5979794D01*
X8492085Y-5969440D01*
X8606295Y-5963588D01*
X8688459Y-5955810D01*
X8748897Y-5944266D01*
X8797932Y-5927111D01*
X8836064Y-5908009D01*
X8932484Y-5831125D01*
X8981885Y-5761868D01*
X8997730Y-5732768D01*
X9010070Y-5705186D01*
X9019343Y-5673630D01*
X9025987Y-5632610D01*
X9030441Y-5576636D01*
X9033142Y-5500214D01*
X9034529Y-5397855D01*
X9035040Y-5264068D01*
X9035112Y-5094829D01*
X9035110Y-5091298D01*
X9035035Y-4924398D01*
X9034511Y-4790841D01*
X9033106Y-4688661D01*
X9030382Y-4612362D01*
X9025904Y-4556451D01*
X9019235Y-4515429D01*
X9009940Y-4483803D01*
X8997582Y-4456077D01*
X8982152Y-4427522D01*
X8933259Y-4355147D01*
X8874388Y-4302728D01*
X8798471Y-4267527D01*
X8698442Y-4246802D01*
X8567233Y-4237814D01*
X8490424Y-4236864D01*
X9278732Y-4236864D01*
X9278732Y-5091298D01*
X9279094Y-5277617D01*
X9280127Y-5450663D01*
X9281752Y-5605865D01*
X9283890Y-5738650D01*
X9286461Y-5844448D01*
X9289387Y-5918688D01*
X9292587Y-5956797D01*
X9293807Y-5960807D01*
X9322065Y-5968336D01*
X9377481Y-5970861D01*
X9415616Y-5969633D01*
X9522352Y-5963386D01*
X9532944Y-5687989D01*
X9538468Y-5568833D01*
X9545459Y-5482231D01*
X9555546Y-5418368D01*
X9570361Y-5367429D01*
X9591535Y-5319601D01*
X9595422Y-5311968D01*
X9626740Y-5255860D01*
X9651707Y-5219332D01*
X9661260Y-5211342D01*
X9672579Y-5230258D01*
X9695601Y-5282842D01*
X9727808Y-5362851D01*
X9766687Y-5464041D01*
X9808483Y-5576772D01*
X9851682Y-5693973D01*
X9890695Y-5797472D01*
X9922954Y-5880641D01*
X9945889Y-5936852D01*
X9956697Y-5959239D01*
X9984580Y-5967571D01*
X10040548Y-5970977D01*
X10088784Y-5969831D01*
X10205928Y-5963386D01*
X10005848Y-5445597D01*
X9805768Y-4927809D01*
X9965936Y-4592865D01*
X10017890Y-4483649D01*
X10062810Y-4388125D01*
X10097750Y-4312651D01*
X10119762Y-4263586D01*
X10126105Y-4247393D01*
X10106968Y-4241556D01*
X10057729Y-4237733D01*
X10012761Y-4236864D01*
X9899416Y-4236864D01*
X9721476Y-4627267D01*
X9543536Y-5017670D01*
X9537773Y-4627267D01*
X9532009Y-4236864D01*
X9405371Y-4236864D01*
X9278732Y-4236864D01*
X8490424Y-4236864D01*
X8240700Y-4236864D01*
X8240700Y-5108329D01*
X8240700Y-5979794D01*
X7913695Y-5979794D01*
X7845189Y-5778023D01*
X7677961Y-5285487D01*
X7747318Y-5202431D01*
X7813365Y-5111303D01*
X7814812Y-5108329D01*
X7860198Y-5015020D01*
X7890414Y-4904329D01*
X7906611Y-4769977D01*
X7911362Y-4618181D01*
X7907577Y-4455073D01*
X7893312Y-4323655D01*
X7866226Y-4214038D01*
X7823980Y-4116334D01*
X7772903Y-4033080D01*
X7737756Y-3979812D01*
X7715365Y-3941681D01*
X7711092Y-3931017D01*
X7731691Y-3928996D01*
X7791147Y-3927242D01*
X7885948Y-3925773D01*
X8012585Y-3924606D01*
X8167545Y-3923758D01*
X8347318Y-3923247D01*
X8548393Y-3923089D01*
X8767259Y-3923302D01*
G37*
%TD.AperFunction*%
%TD*%
D11*
%TO.P,REF\u002A\u002A,1*%
%TO.N,GND*%
X17493911Y-63526105D03*
%TD*%
%TO.P,REF\u002A\u002A,1*%
%TO.N,MEASURE*%
X29493911Y-63526105D03*
%TD*%
M02*
