M48
; DRILL file {KiCad 8.99.0-2433-g53022ab347} date 2024-10-12T16:59:49+0200
; FORMAT={-:-/ absolute / inch / decimal}
; #@! TF.CreationDate,2024-10-12T16:59:49+02:00
; #@! TF.GenerationSoftware,Kicad,Pcbnew,8.99.0-2433-g53022ab347
; #@! TF.FileFunction,Plated,1,2,PTH
FMAT,2
INCH
; #@! TA.AperFunction,Plated,PTH,ViaDrill
T1C0.0118
; #@! TA.AperFunction,Plated,PTH,ViaDrill
T2C0.0157
; #@! TA.AperFunction,Plated,PTH,ComponentDrill
T3C0.0236
; #@! TA.AperFunction,Plated,PTH,ComponentDrill
T4C0.0400
%
G90
G05
T1
X0.0315Y-1.7559
X0.0825Y-0.6142
X0.0866Y-0.3307
X0.0866Y-0.4488
X0.0866Y-0.7638
X0.0866Y-1.7953
X0.0945Y-1.6535
X0.1024Y-0.0551
X0.126Y-1.9606
X0.126Y-2.315
X0.1319Y-0.4429
X0.1325Y-0.6142
X0.1811Y-1.6535
X0.1831Y-0.4449
X0.1831Y-0.6142
X0.2205Y-0.2362
X0.2323Y-0.4449
X0.2402Y-1.4626
X0.252Y-1.6535
X0.2677Y-0.8504
X0.2835Y-0.6378
X0.2913Y-0.7323
X0.2913Y-1.3622
X0.311Y-2.0591
X0.315Y-0.5906
X0.3209Y-0.7106
X0.3228Y-1.4252
X0.3307Y-0.3465
X0.3307Y-2.4094
X0.3406Y-0.6024
X0.3543Y-1.9409
X0.3661Y-0.7303
X0.3701Y-0.6378
X0.378Y-1.811
X0.3858Y-0.7559
X0.3937Y-0.3465
X0.4016Y-1.7559
X0.4094Y-0.1339
X0.4211Y-0.6732
X0.4213Y-1.2815
X0.4567Y-0.7008
X0.4646Y-1.063
X0.4724Y-0.8268
X0.4724Y-1.2441
X0.4882Y-0.1339
X0.5276Y-1.9803
X0.5433Y-0.7087
X0.565Y-0.3789
X0.5669Y-0.9134
X0.5689Y-0.8681
X0.5728Y-1.3228
X0.5768Y-0.6772
X0.5906Y-0.0472
X0.5906Y-0.7717
X0.5984Y-0.9843
X0.5984Y-1.063
X0.5984Y-1.378
X0.5984Y-1.7165
X0.6004Y-1.4291
X0.6004Y-1.5039
X0.6083Y-0.6555
X0.6142Y-1.8898
X0.622Y-0.1339
X0.6299Y-0.3465
X0.6378Y-0.6181
X0.6378Y-1.9291
X0.6457Y-1.563
X0.6594Y-0.5984
X0.6654Y-1.3661
X0.6693Y-0.8583
X0.6693Y-1.8386
X0.6693Y-1.8898
X0.6713Y-1.4311
X0.6732Y-0.4843
X0.6772Y-0.9213
X0.689Y-0.9685
X0.6929Y-0.3465
X0.7008Y-1.6457
X0.707Y-1.5568
X0.7087Y-1.5906
X0.7165Y-0.4941
X0.7165Y-0.6535
X0.7165Y-0.9921
X0.7165Y-1.5039
X0.7303Y-1.0787
X0.7441Y-0.4961
X0.7451Y-1.0266
X0.748Y-0.3465
X0.7589Y-0.5187
X0.7795Y-0.7165
X0.7803Y-0.5326
X0.7815Y-0.5591
X0.7874Y-0.9508
X0.7913Y-0.8484
X0.795Y-1.8333
X0.8062Y-0.6114
X0.8268Y-1.8701
X0.8268Y-2.3228
X0.8504Y-0.4094
X0.8661Y-2.0866
X0.874Y-1.6378
X0.8819Y-1.8976
X0.8878Y-0.6594
X0.8898Y-0.4488
X0.8976Y-0.7008
X0.9252Y-1.5906
X0.9528Y-0.8661
X0.9843Y-0.4331
X0.9843Y-0.7165
X0.9921Y-0.8189
X1.0079Y-0.0472
X1.0315Y-1.2441
X1.0315Y-1.7953
X1.122Y-1.5945
X1.1516Y-0.5197
X1.1516Y-0.5748
X1.1732Y-0.4252
X1.1732Y-0.4961
X1.1732Y-0.5433
X1.2362Y-0.0945
T2
X0.5827Y-1.1201
X0.5866Y-1.1673
X0.5866Y-1.2126
X0.6614Y-1.9724
X0.6772Y-1.122
X0.6791Y-1.0433
X0.7717Y-1.9724
T4
X0.5717Y-2.0768
X0.5717Y-2.1768
X0.6717Y-2.0768
X0.6717Y-2.1768
X0.7717Y-2.0768
X0.7717Y-2.1768
T3
G00X1.0963Y-0.3811
M15
G01X1.1396Y-0.3811
M16
G05
G00X1.0963Y-0.7213
M15
G01X1.1396Y-0.7213
M16
G05
G00X1.2707Y-0.3811
M15
G01X1.2943Y-0.3811
M16
G05
G00X1.2707Y-0.7213
M15
G01X1.2943Y-0.7213
M16
G05
M30
