%TF.GenerationSoftware,KiCad,Pcbnew,8.99.0-3110-g1838b2656d*%
%TF.CreationDate,2025-01-19T16:02:54+01:00*%
%TF.ProjectId,dmm_sao,646d6d5f-7361-46f2-9e6b-696361645f70,1.2*%
%TF.SameCoordinates,PX4f27ac0PY3ef1480*%
%TF.FileFunction,Profile,NP*%
%FSLAX46Y46*%
G04 Gerber Fmt 4.6, Leading zero omitted, Abs format (unit mm)*
G04 Created by KiCad (PCBNEW 8.99.0-3110-g1838b2656d) date 2025-01-19 16:02:54*
%MOMM*%
%LPD*%
G01*
G04 APERTURE LIST*
%TA.AperFunction,Profile*%
%ADD10C,0.050000*%
%TD*%
G04 APERTURE END LIST*
D10*
X34000000Y-20585786D02*
G75*
G02*
X33707093Y-21292879I-999900J-14D01*
G01*
X34000000Y-33414214D02*
X34000000Y-65000000D01*
X0Y-3000000D02*
G75*
G02*
X3000000Y0I3000000J0D01*
G01*
X30500000Y-62000000D02*
G75*
G02*
X25500000Y-62000000I-2500000J1D01*
G01*
X34000000Y-65000000D02*
G75*
G02*
X31000000Y-68000000I-3000000J0D01*
G01*
X30292893Y-24707107D02*
X33707107Y-21292893D01*
X25500000Y-62000000D02*
G75*
G02*
X30500000Y-62000000I2500000J0D01*
G01*
X31000000Y-68000000D02*
X3000000Y-68000000D01*
X3000000Y0D02*
X31000000Y0D01*
X3000000Y-68000000D02*
G75*
G02*
X0Y-65000000I0J3000000D01*
G01*
X13500000Y-62000000D02*
G75*
G02*
X18500000Y-62000000I2500000J0D01*
G01*
X31000000Y0D02*
G75*
G02*
X34000000Y-3000000I0J-3000000D01*
G01*
X18500000Y-62000000D02*
G75*
G02*
X13500000Y-62000000I-2500000J1D01*
G01*
X30000000Y-25414214D02*
G75*
G02*
X30292907Y-24707121I999900J14D01*
G01*
X30000000Y-28585786D02*
X30000000Y-25414214D01*
X33707107Y-32707107D02*
X30292893Y-29292893D01*
X0Y-65000000D02*
X0Y-3000000D01*
X34000000Y-20585786D02*
X34000000Y-3000000D01*
X33707107Y-32707107D02*
G75*
G02*
X33999961Y-33414214I-707207J-707093D01*
G01*
X30292893Y-29292893D02*
G75*
G02*
X30000039Y-28585786I707207J707093D01*
G01*
M02*
