%TF.GenerationSoftware,KiCad,Pcbnew,8.99.0-3110-g1838b2656d*%
%TF.CreationDate,2025-01-19T16:02:53+01:00*%
%TF.ProjectId,dmm_sao,646d6d5f-7361-46f2-9e6b-696361645f70,1.2*%
%TF.SameCoordinates,PX4f27ac0PY3ef1480*%
%TF.FileFunction,Paste,Top*%
%TF.FilePolarity,Positive*%
%FSLAX46Y46*%
G04 Gerber Fmt 4.6, Leading zero omitted, Abs format (unit mm)*
G04 Created by KiCad (PCBNEW 8.99.0-3110-g1838b2656d) date 2025-01-19 16:02:53*
%MOMM*%
%LPD*%
G01*
G04 APERTURE LIST*
G04 Aperture macros list*
%AMRoundRect*
0 Rectangle with rounded corners*
0 $1 Rounding radius*
0 $2 $3 $4 $5 $6 $7 $8 $9 X,Y pos of 4 corners*
0 Add a 4 corners polygon primitive as box body*
4,1,4,$2,$3,$4,$5,$6,$7,$8,$9,$2,$3,0*
0 Add four circle primitives for the rounded corners*
1,1,$1+$1,$2,$3*
1,1,$1+$1,$4,$5*
1,1,$1+$1,$6,$7*
1,1,$1+$1,$8,$9*
0 Add four rect primitives between the rounded corners*
20,1,$1+$1,$2,$3,$4,$5,0*
20,1,$1+$1,$4,$5,$6,$7,0*
20,1,$1+$1,$6,$7,$8,$9,0*
20,1,$1+$1,$8,$9,$2,$3,0*%
%AMHorizOval*
0 Thick line with rounded ends*
0 $1 width*
0 $2 $3 position (X,Y) of the first rounded end (center of the circle)*
0 $4 $5 position (X,Y) of the second rounded end (center of the circle)*
0 Add line between two ends*
20,1,$1,$2,$3,$4,$5,0*
0 Add two circle primitives to create the rounded ends*
1,1,$1,$2,$3*
1,1,$1,$4,$5*%
%AMRotRect*
0 Rectangle, with rotation*
0 The origin of the aperture is its center*
0 $1 length*
0 $2 width*
0 $3 Rotation angle, in degrees counterclockwise*
0 Add horizontal line*
21,1,$1,$2,0,0,$3*%
G04 Aperture macros list end*
%ADD10RoundRect,0.200000X0.275000X-0.200000X0.275000X0.200000X-0.275000X0.200000X-0.275000X-0.200000X0*%
%ADD11RoundRect,0.225000X-0.017678X0.335876X-0.335876X0.017678X0.017678X-0.335876X0.335876X-0.017678X0*%
%ADD12RoundRect,0.225000X0.017678X-0.335876X0.335876X-0.017678X-0.017678X0.335876X-0.335876X0.017678X0*%
%ADD13RoundRect,0.225000X0.225000X0.250000X-0.225000X0.250000X-0.225000X-0.250000X0.225000X-0.250000X0*%
%ADD14RoundRect,0.225000X-0.250000X0.225000X-0.250000X-0.225000X0.250000X-0.225000X0.250000X0.225000X0*%
%ADD15RoundRect,0.150000X-0.587500X-0.150000X0.587500X-0.150000X0.587500X0.150000X-0.587500X0.150000X0*%
%ADD16R,1.000000X1.700000*%
%ADD17RoundRect,0.200000X0.200000X0.275000X-0.200000X0.275000X-0.200000X-0.275000X0.200000X-0.275000X0*%
%ADD18RoundRect,0.250000X0.650000X-0.325000X0.650000X0.325000X-0.650000X0.325000X-0.650000X-0.325000X0*%
%ADD19RoundRect,0.250000X-0.650000X0.325000X-0.650000X-0.325000X0.650000X-0.325000X0.650000X0.325000X0*%
%ADD20RoundRect,0.200000X-0.275000X0.200000X-0.275000X-0.200000X0.275000X-0.200000X0.275000X0.200000X0*%
%ADD21RoundRect,0.150000X0.150000X-0.512500X0.150000X0.512500X-0.150000X0.512500X-0.150000X-0.512500X0*%
%ADD22RoundRect,0.225000X0.335876X0.017678X0.017678X0.335876X-0.335876X-0.017678X-0.017678X-0.335876X0*%
%ADD23RoundRect,0.200000X-0.200000X-0.275000X0.200000X-0.275000X0.200000X0.275000X-0.200000X0.275000X0*%
%ADD24RoundRect,0.200000X-0.053033X0.335876X-0.335876X0.053033X0.053033X-0.335876X0.335876X-0.053033X0*%
%ADD25R,4.200000X2.000000*%
%ADD26RoundRect,0.250000X1.075000X-0.375000X1.075000X0.375000X-1.075000X0.375000X-1.075000X-0.375000X0*%
%ADD27C,2.082800*%
%ADD28RoundRect,0.150000X-0.150000X0.650000X-0.150000X-0.650000X0.150000X-0.650000X0.150000X0.650000X0*%
%ADD29R,1.400000X1.800000*%
%ADD30R,3.000000X1.800000*%
%ADD31RoundRect,0.225000X-0.335876X-0.017678X-0.017678X-0.335876X0.335876X0.017678X0.017678X0.335876X0*%
%ADD32RoundRect,0.225000X0.250000X-0.225000X0.250000X0.225000X-0.250000X0.225000X-0.250000X-0.225000X0*%
%ADD33RoundRect,0.150000X-0.150000X0.587500X-0.150000X-0.587500X0.150000X-0.587500X0.150000X0.587500X0*%
%ADD34RoundRect,0.250000X-0.445477X0.000000X0.000000X-0.445477X0.445477X0.000000X0.000000X0.445477X0*%
%ADD35HorizOval,0.200000X-0.238649X0.238649X0.238649X-0.238649X0*%
%ADD36HorizOval,0.200000X-0.238649X-0.238649X0.238649X0.238649X0*%
%ADD37R,1.150000X0.300000*%
%ADD38R,1.100000X0.300000*%
%ADD39O,2.100000X1.000000*%
%ADD40O,1.600000X1.000000*%
%ADD41R,0.320000X2.032000*%
%ADD42RoundRect,0.150000X0.587500X0.150000X-0.587500X0.150000X-0.587500X-0.150000X0.587500X-0.150000X0*%
%ADD43RoundRect,0.225000X-0.225000X-0.250000X0.225000X-0.250000X0.225000X0.250000X-0.225000X0.250000X0*%
%ADD44RotRect,1.600000X1.300000X135.000000*%
G04 APERTURE END LIST*
D10*
%TO.C,R7*%
X15200000Y-9625000D03*
X15200000Y-7975000D03*
%TD*%
D11*
%TO.C,C14*%
X19948008Y-23051992D03*
X18851992Y-24148008D03*
%TD*%
D12*
%TO.C,C22*%
X12551992Y-25748008D03*
X13648008Y-24651992D03*
%TD*%
%TO.C,C18*%
X20825000Y-13175000D03*
X21921016Y-12078984D03*
%TD*%
D13*
%TO.C,C13*%
X4775001Y-19400000D03*
X3224999Y-19400000D03*
%TD*%
D10*
%TO.C,R1*%
X19600000Y-48925000D03*
X19600000Y-47275000D03*
%TD*%
D14*
%TO.C,C7*%
X11150000Y-50224999D03*
X11150000Y-51775001D03*
%TD*%
D15*
%TO.C,Q2*%
X11462499Y-37200004D03*
X11462499Y-39100002D03*
X13337500Y-38150003D03*
%TD*%
D16*
%TO.C,SW1*%
X2100000Y-31150000D03*
X2100000Y-24850000D03*
X5900000Y-31150000D03*
X5900000Y-24850000D03*
%TD*%
D17*
%TO.C,R9*%
X12775000Y-33900000D03*
X11125000Y-33900000D03*
%TD*%
D18*
%TO.C,C8*%
X2200000Y-47475000D03*
X2200000Y-44525000D03*
%TD*%
D19*
%TO.C,C10*%
X9100000Y-48625000D03*
X9100000Y-51575000D03*
%TD*%
D20*
%TO.C,R3*%
X16200000Y-47275000D03*
X16200000Y-48925000D03*
%TD*%
D21*
%TO.C,U1*%
X11150000Y-48537500D03*
X12100000Y-48537500D03*
X13050000Y-48537500D03*
X13050000Y-46262500D03*
X11150000Y-46262500D03*
%TD*%
D22*
%TO.C,C17*%
X11448008Y-16348008D03*
X10351992Y-15251992D03*
%TD*%
D20*
%TO.C,R17*%
X4500000Y-5975000D03*
X4500000Y-7625000D03*
%TD*%
D23*
%TO.C,R10*%
X11125000Y-35550000D03*
X12775000Y-35550000D03*
%TD*%
D10*
%TO.C,R6*%
X13600000Y-9625000D03*
X13600000Y-7975000D03*
%TD*%
D24*
%TO.C,R15*%
X22583363Y-13516637D03*
X21416637Y-14683363D03*
%TD*%
D25*
%TO.C,LS1*%
X5250000Y-42000000D03*
X5250000Y-34000000D03*
%TD*%
D11*
%TO.C,C21*%
X8448008Y-19351992D03*
X7351992Y-20448008D03*
%TD*%
D12*
%TO.C,C20*%
X23551992Y-16748008D03*
X24648008Y-15651992D03*
%TD*%
D26*
%TO.C,L1*%
X5200000Y-47400000D03*
X5200000Y-44600000D03*
%TD*%
D24*
%TO.C,R14*%
X23633363Y-14566637D03*
X22466637Y-15733363D03*
%TD*%
D10*
%TO.C,R2*%
X14600000Y-48925000D03*
X14600000Y-47275000D03*
%TD*%
%TO.C,R16*%
X7900000Y-60025000D03*
X7900000Y-58375000D03*
%TD*%
D20*
%TO.C,R4*%
X17800000Y-47275000D03*
X17800000Y-48925000D03*
%TD*%
D10*
%TO.C,R5*%
X16800000Y-9625000D03*
X16800000Y-7975000D03*
%TD*%
D20*
%TO.C,R19*%
X28500000Y-50075000D03*
X28500000Y-51725000D03*
%TD*%
D27*
%TO.C,J2*%
X10500000Y-65500000D03*
%TD*%
D28*
%TO.C,U3*%
X5905000Y-9900003D03*
X4635000Y-9900000D03*
X3365000Y-9900000D03*
X2095001Y-9899999D03*
X2095000Y-17099997D03*
X3365000Y-17100000D03*
X4635000Y-17100000D03*
X5904999Y-17100001D03*
%TD*%
D29*
%TO.C,SW2*%
X23500000Y-44100000D03*
X28500000Y-44100000D03*
D30*
X26000000Y-29900000D03*
D29*
X26000000Y-44100000D03*
%TD*%
D31*
%TO.C,C11*%
X23451992Y-19051992D03*
X24548008Y-20148008D03*
%TD*%
D32*
%TO.C,C1*%
X26000000Y-9575001D03*
X26000000Y-8024999D03*
%TD*%
D27*
%TO.C,J1*%
X22500000Y-65500000D03*
%TD*%
D31*
%TO.C,C12*%
X22351992Y-20151992D03*
X23448008Y-21248008D03*
%TD*%
D20*
%TO.C,R18*%
X23400000Y-50075000D03*
X23400000Y-51725000D03*
%TD*%
D14*
%TO.C,C6*%
X9200000Y-8024999D03*
X9200000Y-9575001D03*
%TD*%
D22*
%TO.C,C16*%
X13648008Y-14148008D03*
X12551992Y-13051992D03*
%TD*%
%TO.C,C24*%
X14748008Y-13048008D03*
X13651992Y-11951992D03*
%TD*%
D33*
%TO.C,U2*%
X9505000Y-44802500D03*
X7605001Y-44802499D03*
X8555000Y-46677500D03*
%TD*%
D20*
%TO.C,R8*%
X10800000Y-7975000D03*
X10800000Y-9625000D03*
%TD*%
%TO.C,R12*%
X26000000Y-10975000D03*
X26000000Y-12625000D03*
%TD*%
D32*
%TO.C,C5*%
X18300000Y-9575001D03*
X18300000Y-8024999D03*
%TD*%
%TO.C,C3*%
X19800000Y-9575001D03*
X19800000Y-8024999D03*
%TD*%
D34*
%TO.C,U4*%
X17000000Y-17310051D03*
X16010051Y-18300000D03*
X17989949Y-18300000D03*
X17000000Y-19289949D03*
D35*
X16407797Y-14030841D03*
X16124956Y-14313685D03*
X15842112Y-14596528D03*
X15559270Y-14879371D03*
X15276427Y-15162214D03*
X14993584Y-15445056D03*
X14710743Y-15727898D03*
X14427900Y-16010743D03*
X14145055Y-16293583D03*
X13862214Y-16576427D03*
X13579371Y-16859269D03*
X13296529Y-17142111D03*
X13013683Y-17424956D03*
X12730840Y-17707797D03*
D36*
X12730841Y-18892203D03*
X13013685Y-19175044D03*
X13296528Y-19457888D03*
X13579371Y-19740730D03*
X13862214Y-20023573D03*
X14145056Y-20306416D03*
X14427898Y-20589257D03*
X14710743Y-20872100D03*
X14993583Y-21154945D03*
X15276427Y-21437786D03*
X15559269Y-21720629D03*
X15842111Y-22003471D03*
X16124956Y-22286317D03*
X16407797Y-22569160D03*
D35*
X17592203Y-22569159D03*
X17875044Y-22286315D03*
X18157888Y-22003472D03*
X18440730Y-21720629D03*
X18723573Y-21437786D03*
X19006416Y-21154944D03*
X19289257Y-20872102D03*
X19572100Y-20589257D03*
X19854945Y-20306417D03*
X20137786Y-20023573D03*
X20420629Y-19740731D03*
X20703471Y-19457889D03*
X20986317Y-19175044D03*
X21269160Y-18892203D03*
D36*
X21269159Y-17707797D03*
X20986315Y-17424956D03*
X20703472Y-17142112D03*
X20420629Y-16859270D03*
X20137786Y-16576427D03*
X19854944Y-16293584D03*
X19572102Y-16010743D03*
X19289257Y-15727900D03*
X19006417Y-15445055D03*
X18723573Y-15162214D03*
X18440731Y-14879371D03*
X18157889Y-14596529D03*
X17875044Y-14313683D03*
X17592203Y-14030840D03*
%TD*%
D16*
%TO.C,SW4*%
X2100000Y-56150000D03*
X2100000Y-49850000D03*
X5900000Y-56150000D03*
X5900000Y-49850000D03*
%TD*%
D10*
%TO.C,R11*%
X26000000Y-18425000D03*
X26000000Y-16775000D03*
%TD*%
D11*
%TO.C,C15*%
X14848008Y-25851992D03*
X13751992Y-26948008D03*
%TD*%
D14*
%TO.C,C4*%
X7600000Y-8024999D03*
X7600000Y-9575001D03*
%TD*%
D37*
%TO.C,J3*%
X27830000Y-17349999D03*
X27830000Y-16550000D03*
X27830000Y-15250001D03*
X27830000Y-14249999D03*
X27830000Y-13749999D03*
X27829999Y-12750000D03*
X27830000Y-11450000D03*
X27830000Y-10649999D03*
D38*
X27805000Y-10950000D03*
D37*
X27829999Y-11749999D03*
X27830000Y-12250000D03*
X27830001Y-13250000D03*
X27830000Y-14750000D03*
X27830001Y-15749999D03*
X27830001Y-16250001D03*
D38*
X27805000Y-17050001D03*
D39*
X28395000Y-18320002D03*
D40*
X32575000Y-18320001D03*
D39*
X28394998Y-9680000D03*
D40*
X32575000Y-9680000D03*
%TD*%
D10*
%TO.C,R13*%
X7900000Y-56625000D03*
X7900000Y-54975000D03*
%TD*%
D41*
%TO.C,OLEDM1*%
X27150000Y-5700000D03*
X26450000Y-5700000D03*
X25750000Y-5700000D03*
X25050000Y-5700000D03*
X24350000Y-5700000D03*
X23650002Y-5700001D03*
X22949999Y-5700001D03*
X22249998Y-5699998D03*
X21550002Y-5700002D03*
X20849998Y-5700000D03*
X20149998Y-5700001D03*
X19450001Y-5700000D03*
X18749998Y-5700000D03*
X18050000Y-5699998D03*
X17350000Y-5699999D03*
X16649998Y-5700000D03*
X15950000Y-5699998D03*
X15250001Y-5699999D03*
X14550000Y-5700002D03*
X13849999Y-5699998D03*
X13150002Y-5699999D03*
X12449998Y-5700002D03*
X11750001Y-5700001D03*
X11050001Y-5699998D03*
X10350000Y-5700002D03*
X9650000Y-5700002D03*
X8949998Y-5700000D03*
X8250000Y-5700000D03*
X7550000Y-5700000D03*
X6850002Y-5700001D03*
%TD*%
D42*
%TO.C,Q1*%
X13337502Y-42599997D03*
X13337501Y-40700001D03*
X11462500Y-41650000D03*
%TD*%
D12*
%TO.C,C19*%
X19775000Y-12125000D03*
X20871016Y-11028984D03*
%TD*%
D43*
%TO.C,C9*%
X11224999Y-44500000D03*
X12775001Y-44500000D03*
%TD*%
D16*
%TO.C,SW3*%
X2100000Y-65150000D03*
X2100000Y-58850000D03*
X5900000Y-65150000D03*
X5900000Y-58850000D03*
%TD*%
D44*
%TO.C,Y1*%
X12373833Y-22959619D03*
X10040381Y-20626167D03*
X8626167Y-22040381D03*
X10959619Y-24373833D03*
%TD*%
D22*
%TO.C,C23*%
X12548008Y-15248008D03*
X11451992Y-14151992D03*
%TD*%
D32*
%TO.C,C2*%
X24400000Y-9575001D03*
X24400000Y-8024999D03*
%TD*%
M02*
