%TF.GenerationSoftware,KiCad,Pcbnew,8.99.0-3110-g1838b2656d*%
%TF.CreationDate,2024-11-19T22:26:19+01:00*%
%TF.ProjectId,dmm_sao,646d6d5f-7361-46f2-9e6b-696361645f70,1.1*%
%TF.SameCoordinates,PX4f27ac0PY3ef1480*%
%TF.FileFunction,Copper,L2,Bot*%
%TF.FilePolarity,Positive*%
%FSLAX46Y46*%
G04 Gerber Fmt 4.6, Leading zero omitted, Abs format (unit mm)*
G04 Created by KiCad (PCBNEW 8.99.0-3110-g1838b2656d) date 2024-11-19 22:26:19*
%MOMM*%
%LPD*%
G01*
G04 APERTURE LIST*
%TA.AperFunction,ComponentPad*%
%ADD10O,2.100000X1.000000*%
%TD*%
%TA.AperFunction,ComponentPad*%
%ADD11O,1.600000X1.000000*%
%TD*%
%TA.AperFunction,ComponentPad*%
%ADD12O,1.727200X1.727200*%
%TD*%
%TA.AperFunction,ComponentPad*%
%ADD13R,1.727200X1.727200*%
%TD*%
%TA.AperFunction,ComponentPad*%
%ADD14C,1.727200*%
%TD*%
%TA.AperFunction,ViaPad*%
%ADD15C,0.600000*%
%TD*%
%TA.AperFunction,ViaPad*%
%ADD16C,0.500000*%
%TD*%
%TA.AperFunction,Conductor*%
%ADD17C,0.400000*%
%TD*%
%TA.AperFunction,Conductor*%
%ADD18C,0.200000*%
%TD*%
%TA.AperFunction,Conductor*%
%ADD19C,0.150000*%
%TD*%
G04 APERTURE END LIST*
D10*
%TO.P,J3,S1,SHIELD*%
%TO.N,GND*%
X28395000Y-18320002D03*
D11*
X32575000Y-18320001D03*
D10*
X28394998Y-9680000D03*
D11*
X32575000Y-9680000D03*
%TD*%
D12*
%TO.P,X1,1,VCC*%
%TO.N,SAO_VIN*%
X14520000Y-52750000D03*
D13*
%TO.P,X1,2,GND*%
%TO.N,GND*%
X14520000Y-55290000D03*
D12*
%TO.P,X1,3,SDA*%
%TO.N,I2C0_SDA*%
X17060000Y-52750000D03*
%TO.P,X1,4,SCL*%
%TO.N,I2C0_SCL*%
X17060000Y-55290000D03*
D14*
%TO.P,X1,5,GPIO1*%
%TO.N,SAO_GPIO1*%
X19600000Y-52750000D03*
%TO.P,X1,6,GPIO2*%
%TO.N,SAO_GPIO2*%
X19600000Y-55290000D03*
%TD*%
D15*
%TO.N,GND*%
X7500000Y-39250000D03*
D16*
%TO.N,VCC*%
X5600000Y-6000000D03*
X10696015Y-17100001D03*
D15*
X14550000Y-39100000D03*
D16*
X16200000Y-49000000D03*
D15*
X14550000Y-41650000D03*
D16*
X12000000Y-31500000D03*
X14350000Y-9625000D03*
D15*
X16800000Y-50100000D03*
X19600000Y-50100000D03*
D16*
X14550000Y-33600000D03*
D15*
%TO.N,GND*%
X12650000Y-43500000D03*
D16*
X19750000Y-24500000D03*
X2200000Y-11400000D03*
X7000000Y-43500000D03*
X8850000Y-60900000D03*
X15625000Y-38200000D03*
X2200000Y-8400000D03*
X18200000Y-38200000D03*
D15*
X15189836Y-30973338D03*
D16*
X22800000Y-17800000D03*
X3200000Y-58800000D03*
X11950000Y-29000000D03*
X3200000Y-49800000D03*
X17900000Y-42000000D03*
X15316071Y-34958333D03*
X9800000Y-19200000D03*
X10400000Y-3400000D03*
X16000000Y-8800000D03*
X16900000Y-34700000D03*
X21600000Y-10400000D03*
X22400000Y-48200000D03*
D15*
X11200000Y-43001000D03*
D16*
X15200000Y-25000000D03*
X18200000Y-16600000D03*
X22600000Y-11400000D03*
X26000000Y-31400000D03*
X16350000Y-39500000D03*
X10000000Y-8800000D03*
X800000Y-44600000D03*
X25600000Y-1200000D03*
X7950000Y-32950000D03*
D15*
X12150000Y-39900000D03*
D16*
X2600000Y-1400000D03*
X12500000Y-30750000D03*
X11700000Y-32400000D03*
X17275000Y-36350000D03*
X22050000Y-42050000D03*
X11600000Y-17800000D03*
X20350000Y-21150000D03*
X12400000Y-3400000D03*
X19800000Y-18200000D03*
X11800000Y-27000000D03*
X3700000Y-40400000D03*
X7200000Y-16200000D03*
X17600000Y-8800000D03*
D15*
X17100000Y-30100000D03*
D16*
X15000000Y-1200000D03*
X8400000Y-8800000D03*
X19000000Y-8800000D03*
X2200000Y-45600000D03*
X25000000Y-18200000D03*
X9400000Y-16200000D03*
X18200000Y-25200000D03*
D15*
X15350000Y-46100000D03*
D16*
X29800000Y-10800000D03*
X7400000Y-18600000D03*
X12000000Y-21000000D03*
D15*
X17250000Y-26500000D03*
D16*
X24200000Y-22000000D03*
X29800000Y-12600000D03*
X13800000Y-18000000D03*
X6800000Y-21600000D03*
D15*
X12450000Y-47350000D03*
D16*
X29800000Y-13800000D03*
D15*
X9450000Y-40300000D03*
D16*
X18722046Y-27520418D03*
X15600000Y-48000000D03*
X17000000Y-48000000D03*
X15800000Y-3400000D03*
X15625000Y-36300000D03*
X31400000Y-2400000D03*
X25000000Y-11000000D03*
X26200000Y-45600000D03*
X17200000Y-23400000D03*
D15*
X12100000Y-49550000D03*
D16*
X14400000Y-23200000D03*
X6700000Y-37250000D03*
X17000000Y-21800000D03*
X22000000Y-53000000D03*
X25200000Y-20800000D03*
X15000000Y-19600000D03*
D15*
X12300000Y-51100000D03*
D16*
X15200000Y-43600000D03*
X2200000Y-19400000D03*
D15*
%TO.N,USB_BUS_POWER*%
X10100000Y-47150000D03*
X2100000Y-21000000D03*
D16*
%TO.N,+1V1*%
X22550000Y-16748008D03*
X14450000Y-22050000D03*
X20478553Y-15528553D03*
%TO.N,/RP2040/SBU1*%
X29250000Y-13200000D03*
X16750000Y-15200000D03*
%TO.N,/RP2040/SBU2*%
X16200000Y-15700000D03*
X29250000Y-14600000D03*
%TO.N,I2C1_SDA*%
X8149992Y-18050000D03*
X8000000Y-15000000D03*
%TO.N,I2C1_SCL*%
X8650000Y-15300000D03*
X9300000Y-18550000D03*
%TO.N,/DMM Measure/MEASURE_RES*%
X21000000Y-47500000D03*
X21000000Y-59000000D03*
%TO.N,/DMM Measure/MEASURE_VIN*%
X20193453Y-46566169D03*
X17000000Y-46700000D03*
%TO.N,/RP2040/QSPI-~{CS}*%
X17100000Y-12299992D03*
X9000000Y-55000000D03*
X5900000Y-11300000D03*
%TO.N,/RP2040/~{RESET}*%
X12800000Y-51900000D03*
X7900000Y-57600000D03*
%TO.N,BTN_FN*%
X15200000Y-27000000D03*
X17500000Y-24600000D03*
%TO.N,ENC_A*%
X17999994Y-40399994D03*
X23500000Y-40399998D03*
%TO.N,ENC_B*%
X28500000Y-40500000D03*
X17956589Y-39543415D03*
%TO.N,/RP2040/QSPI-2*%
X18900000Y-12600000D03*
X3350000Y-11250000D03*
%TO.N,/RP2040/QSPI-3*%
X19850000Y-14200000D03*
X4650000Y-15599998D03*
%TO.N,/RP2040/QSPI-0*%
X2095000Y-15600000D03*
X19275000Y-13175000D03*
%TO.N,/RP2040/QSPI-1*%
X4650000Y-11300000D03*
X18200000Y-12550000D03*
%TO.N,/RP2040/QSPI-CLK*%
X19820723Y-13528115D03*
X3365000Y-15600000D03*
%TO.N,I2C0_SDA*%
X15450000Y-16650000D03*
%TO.N,/RP2040/SPI_SCK{slash}G6*%
X18700000Y-25900000D03*
X14300000Y-28650000D03*
%TO.N,I2C0_SCL*%
X14650000Y-17200000D03*
%TO.N,/RP2040/SPI_COPI{slash}G7*%
X18875000Y-26625000D03*
X14750000Y-29150000D03*
%TD*%
D17*
%TO.N,VCC*%
X10696015Y-17100001D02*
X10696015Y-30196015D01*
X10725000Y-6000000D02*
X5600000Y-6000000D01*
X14550000Y-39100000D02*
X14550000Y-33600000D01*
X14350000Y-9625000D02*
X10725000Y-6000000D01*
X10696015Y-30196015D02*
X12000000Y-31500000D01*
X14550000Y-41650000D02*
X14550000Y-39100000D01*
X14550000Y-47850000D02*
X14550000Y-41650000D01*
X16800000Y-50100000D02*
X14550000Y-47850000D01*
X16800000Y-50100000D02*
X19600000Y-50100000D01*
%TO.N,USB_BUS_POWER*%
X2100000Y-21000000D02*
X2100000Y-37300000D01*
X10100000Y-45300000D02*
X10100000Y-47150000D01*
X2100000Y-37300000D02*
X10100000Y-45300000D01*
D18*
%TO.N,+1V1*%
X20478553Y-15528553D02*
X20221447Y-15528553D01*
X21330545Y-15528553D02*
X22550000Y-16748008D01*
X14450000Y-21300000D02*
X14450000Y-22050000D01*
X20221447Y-15528553D02*
X14450000Y-21300000D01*
X20478553Y-15528553D02*
X21330545Y-15528553D01*
D19*
%TO.N,/RP2040/SBU1*%
X29250000Y-13200000D02*
X28150000Y-14300000D01*
X17025000Y-15475000D02*
X16750000Y-15200000D01*
X28150000Y-14300000D02*
X27250000Y-14300000D01*
X19422183Y-14753553D02*
X18700736Y-15475000D01*
X18700736Y-15475000D02*
X17025000Y-15475000D01*
X27250000Y-14300000D02*
X26796447Y-14753553D01*
X26796447Y-14753553D02*
X19422183Y-14753553D01*
%TO.N,/RP2040/SBU2*%
X26920711Y-15053553D02*
X19546447Y-15053553D01*
X19546447Y-15053553D02*
X18825000Y-15775000D01*
X29250000Y-14600000D02*
X27374264Y-14600000D01*
X27374264Y-14600000D02*
X26920711Y-15053553D01*
X18825000Y-15775000D02*
X16275000Y-15775000D01*
X16275000Y-15775000D02*
X16200000Y-15700000D01*
%TO.N,I2C1_SDA*%
X8000000Y-17900008D02*
X8149992Y-18050000D01*
X8000000Y-15000000D02*
X8000000Y-17900008D01*
%TO.N,I2C1_SCL*%
X8650000Y-17900000D02*
X8650000Y-15300000D01*
X9300000Y-18550000D02*
X8650000Y-17900000D01*
%TO.N,/DMM Measure/MEASURE_RES*%
X21000000Y-47500000D02*
X21000000Y-59000000D01*
%TO.N,/DMM Measure/MEASURE_VIN*%
X20059622Y-46700000D02*
X17000000Y-46700000D01*
X20193453Y-46566169D02*
X20059622Y-46700000D01*
%TO.N,/RP2040/QSPI-~{CS}*%
X7150000Y-12550000D02*
X16849992Y-12550000D01*
X1250000Y-40000000D02*
X9000000Y-47750000D01*
X5900000Y-11300000D02*
X7150000Y-12550000D01*
X5000000Y-10400000D02*
X2000000Y-10400000D01*
X9000000Y-47750000D02*
X9000000Y-55000000D01*
X2000000Y-10400000D02*
X1250000Y-11150000D01*
X16849992Y-12550000D02*
X17100000Y-12299992D01*
X5900000Y-11300000D02*
X5000000Y-10400000D01*
X1250000Y-11150000D02*
X1250000Y-40000000D01*
%TO.N,/RP2040/~{RESET}*%
X7900000Y-56800000D02*
X12800000Y-51900000D01*
X7900000Y-57600000D02*
X7900000Y-56800000D01*
%TO.N,BTN_FN*%
X15200000Y-27000000D02*
X17500000Y-24700000D01*
X17500000Y-24700000D02*
X17500000Y-24600000D01*
%TO.N,ENC_A*%
X17999998Y-40399998D02*
X17999994Y-40399994D01*
X23500000Y-40399998D02*
X17999998Y-40399998D01*
%TO.N,ENC_B*%
X27900000Y-39900000D02*
X18313174Y-39900000D01*
X28500000Y-40500000D02*
X27900000Y-39900000D01*
X18313174Y-39900000D02*
X17956589Y-39543415D01*
%TO.N,/RP2040/QSPI-2*%
X3927206Y-11250000D02*
X5827206Y-13150000D01*
X3350000Y-11250000D02*
X3927206Y-11250000D01*
X5827206Y-13150000D02*
X18350000Y-13150000D01*
X18350000Y-13150000D02*
X18900000Y-12600000D01*
%TO.N,/RP2040/QSPI-3*%
X19534501Y-14050000D02*
X6199998Y-14050000D01*
X19684501Y-14200000D02*
X19534501Y-14050000D01*
X19850000Y-14200000D02*
X19684501Y-14200000D01*
X6199998Y-14050000D02*
X4650000Y-15599998D01*
%TO.N,/RP2040/QSPI-0*%
X4245000Y-13450000D02*
X19000000Y-13450000D01*
X2095000Y-15600000D02*
X4245000Y-13450000D01*
X19000000Y-13450000D02*
X19275000Y-13175000D01*
%TO.N,/RP2040/QSPI-1*%
X4650000Y-11300000D02*
X6200000Y-12850000D01*
X6200000Y-12850000D02*
X17900000Y-12850000D01*
X17900000Y-12850000D02*
X18200000Y-12550000D01*
%TO.N,/RP2040/QSPI-CLK*%
X19820723Y-13528115D02*
X19598838Y-13750000D01*
X5215000Y-13750000D02*
X3365000Y-15600000D01*
X19598838Y-13750000D02*
X5215000Y-13750000D01*
%TO.N,I2C0_SDA*%
X15450000Y-16650000D02*
X15450000Y-17600000D01*
X13500000Y-19550000D02*
X13500000Y-47968686D01*
X13500000Y-47968686D02*
X17060000Y-51528686D01*
X17060000Y-51528686D02*
X17060000Y-52750000D01*
X15450000Y-17600000D02*
X13500000Y-19550000D01*
%TO.N,/RP2040/SPI_SCK{slash}G6*%
X18700000Y-25900000D02*
X15950000Y-28650000D01*
X15950000Y-28650000D02*
X14300000Y-28650000D01*
%TO.N,I2C0_SCL*%
X15800000Y-54030000D02*
X17060000Y-55290000D01*
X13200000Y-19425736D02*
X13200000Y-48100000D01*
X15800000Y-50700000D02*
X15800000Y-54030000D01*
X13200000Y-48100000D02*
X15800000Y-50700000D01*
X14650000Y-17200000D02*
X14650000Y-17975736D01*
X14650000Y-17975736D02*
X13200000Y-19425736D01*
%TO.N,/RP2040/SPI_COPI{slash}G7*%
X18475000Y-26625000D02*
X15950000Y-29150000D01*
X15950000Y-29150000D02*
X14750000Y-29150000D01*
X18875000Y-26625000D02*
X18475000Y-26625000D01*
%TD*%
%TA.AperFunction,Conductor*%
%TO.N,GND*%
G36*
X31002231Y-500634D02*
G01*
X31296821Y-518454D01*
X31305673Y-519528D01*
X31593784Y-572327D01*
X31602435Y-574460D01*
X31882062Y-661595D01*
X31890401Y-664757D01*
X32157497Y-784967D01*
X32165409Y-789120D01*
X32416046Y-940636D01*
X32423400Y-945712D01*
X32653951Y-1126336D01*
X32660640Y-1132262D01*
X32867737Y-1339359D01*
X32873663Y-1346048D01*
X33054287Y-1576599D01*
X33059363Y-1583953D01*
X33210879Y-1834590D01*
X33215032Y-1842502D01*
X33335239Y-2109590D01*
X33338407Y-2117946D01*
X33425536Y-2397552D01*
X33427675Y-2406228D01*
X33480469Y-2694317D01*
X33481546Y-2703188D01*
X33499365Y-2997768D01*
X33499500Y-3002236D01*
X33499500Y-9206609D01*
X33477826Y-9258935D01*
X33425500Y-9280609D01*
X33373174Y-9258935D01*
X33289350Y-9175111D01*
X33182890Y-9103978D01*
X33064598Y-9054979D01*
X33064591Y-9054977D01*
X32939018Y-9030000D01*
X32675000Y-9030000D01*
X32675000Y-9380000D01*
X32475000Y-9380000D01*
X32475000Y-9030000D01*
X32210982Y-9030000D01*
X32085408Y-9054977D01*
X32085401Y-9054979D01*
X31967109Y-9103978D01*
X31860649Y-9175111D01*
X31860648Y-9175113D01*
X31770113Y-9265648D01*
X31770111Y-9265649D01*
X31698978Y-9372109D01*
X31649979Y-9490401D01*
X31649977Y-9490408D01*
X31632156Y-9579999D01*
X31632157Y-9580000D01*
X31991212Y-9580000D01*
X31975000Y-9640504D01*
X31975000Y-9719496D01*
X31991212Y-9780000D01*
X31632156Y-9780000D01*
X31649977Y-9869591D01*
X31649979Y-9869598D01*
X31698978Y-9987890D01*
X31770111Y-10094350D01*
X31860649Y-10184888D01*
X31967109Y-10256021D01*
X32085401Y-10305020D01*
X32085408Y-10305022D01*
X32210982Y-10330000D01*
X32475000Y-10330000D01*
X32475000Y-9980000D01*
X32675000Y-9980000D01*
X32675000Y-10330000D01*
X32939018Y-10330000D01*
X33064591Y-10305022D01*
X33064598Y-10305020D01*
X33182890Y-10256021D01*
X33289350Y-10184888D01*
X33289352Y-10184887D01*
X33373174Y-10101065D01*
X33425500Y-10079391D01*
X33477826Y-10101065D01*
X33499500Y-10153391D01*
X33499500Y-17846610D01*
X33477826Y-17898936D01*
X33425500Y-17920610D01*
X33373174Y-17898936D01*
X33289350Y-17815112D01*
X33182890Y-17743979D01*
X33064598Y-17694980D01*
X33064591Y-17694978D01*
X32939018Y-17670001D01*
X32675000Y-17670001D01*
X32675000Y-18020001D01*
X32475000Y-18020001D01*
X32475000Y-17670001D01*
X32210982Y-17670001D01*
X32085408Y-17694978D01*
X32085401Y-17694980D01*
X31967109Y-17743979D01*
X31860649Y-17815112D01*
X31860648Y-17815114D01*
X31770113Y-17905649D01*
X31770111Y-17905650D01*
X31698978Y-18012110D01*
X31649979Y-18130402D01*
X31649977Y-18130409D01*
X31632156Y-18220000D01*
X31632157Y-18220001D01*
X31991212Y-18220001D01*
X31975000Y-18280505D01*
X31975000Y-18359497D01*
X31991212Y-18420001D01*
X31632156Y-18420001D01*
X31649977Y-18509592D01*
X31649979Y-18509599D01*
X31698978Y-18627891D01*
X31770111Y-18734351D01*
X31860649Y-18824889D01*
X31967109Y-18896022D01*
X32085401Y-18945021D01*
X32085408Y-18945023D01*
X32210982Y-18970001D01*
X32475000Y-18970001D01*
X32475000Y-18620001D01*
X32675000Y-18620001D01*
X32675000Y-18970001D01*
X32939018Y-18970001D01*
X33064591Y-18945023D01*
X33064598Y-18945021D01*
X33182890Y-18896022D01*
X33289350Y-18824889D01*
X33289352Y-18824888D01*
X33373174Y-18741066D01*
X33425500Y-18719392D01*
X33477826Y-18741066D01*
X33499500Y-18793392D01*
X33499500Y-20519897D01*
X33499499Y-20519901D01*
X33499499Y-20539101D01*
X33499499Y-20548867D01*
X33499499Y-20582155D01*
X33499143Y-20589407D01*
X33490618Y-20675978D01*
X33487787Y-20690209D01*
X33463597Y-20769946D01*
X33458045Y-20783349D01*
X33418760Y-20856840D01*
X33410700Y-20868901D01*
X33355394Y-20936286D01*
X33350526Y-20941658D01*
X33346575Y-20945610D01*
X33346564Y-20945621D01*
X33303852Y-20988326D01*
X33303800Y-20988384D01*
X29889119Y-24403067D01*
X29888967Y-24403239D01*
X29869475Y-24422731D01*
X29869471Y-24422734D01*
X29749720Y-24578782D01*
X29651370Y-24749115D01*
X29651360Y-24749135D01*
X29576090Y-24930839D01*
X29576084Y-24930858D01*
X29525174Y-25120849D01*
X29525172Y-25120858D01*
X29499500Y-25315871D01*
X29499500Y-28656178D01*
X29499537Y-28656749D01*
X29499537Y-28684122D01*
X29525204Y-28879127D01*
X29576104Y-29069116D01*
X29651358Y-29250820D01*
X29651365Y-29250835D01*
X29749694Y-29421169D01*
X29749704Y-29421185D01*
X29869416Y-29577218D01*
X29869423Y-29577227D01*
X29892383Y-29600190D01*
X29892393Y-29600207D01*
X29941352Y-29649166D01*
X29944139Y-29651953D01*
X29989156Y-29696979D01*
X29989224Y-29697038D01*
X33350596Y-33058410D01*
X33355476Y-33063795D01*
X33410667Y-33131055D01*
X33418725Y-33143117D01*
X33458008Y-33216621D01*
X33463556Y-33230015D01*
X33487749Y-33309778D01*
X33490578Y-33324004D01*
X33499143Y-33410982D01*
X33499499Y-33418233D01*
X33499499Y-33449614D01*
X33499499Y-33480099D01*
X33499499Y-33480101D01*
X33499500Y-33486063D01*
X33499500Y-64997763D01*
X33499365Y-65002231D01*
X33481546Y-65296811D01*
X33480469Y-65305682D01*
X33427675Y-65593771D01*
X33425536Y-65602447D01*
X33338407Y-65882053D01*
X33335239Y-65890409D01*
X33215032Y-66157497D01*
X33210879Y-66165409D01*
X33059363Y-66416046D01*
X33054287Y-66423400D01*
X32873663Y-66653951D01*
X32867737Y-66660640D01*
X32660640Y-66867737D01*
X32653951Y-66873663D01*
X32423400Y-67054287D01*
X32416046Y-67059363D01*
X32165409Y-67210879D01*
X32157497Y-67215032D01*
X31890409Y-67335239D01*
X31882053Y-67338407D01*
X31602447Y-67425536D01*
X31593771Y-67427675D01*
X31305682Y-67480469D01*
X31296811Y-67481546D01*
X31002232Y-67499365D01*
X30997764Y-67499500D01*
X3002236Y-67499500D01*
X2997768Y-67499365D01*
X2703188Y-67481546D01*
X2694317Y-67480469D01*
X2406228Y-67427675D01*
X2397552Y-67425536D01*
X2117946Y-67338407D01*
X2109590Y-67335239D01*
X1842502Y-67215032D01*
X1834590Y-67210879D01*
X1583953Y-67059363D01*
X1576599Y-67054287D01*
X1346048Y-66873663D01*
X1339359Y-66867737D01*
X1132262Y-66660640D01*
X1126336Y-66653951D01*
X945712Y-66423400D01*
X940636Y-66416046D01*
X789120Y-66165409D01*
X784967Y-66157497D01*
X664757Y-65890401D01*
X661595Y-65882062D01*
X574460Y-65602435D01*
X572327Y-65593784D01*
X519528Y-65305673D01*
X518454Y-65296821D01*
X500635Y-65002231D01*
X500500Y-64997763D01*
X500500Y-61831499D01*
X12999500Y-61831499D01*
X12999500Y-62168501D01*
X13037233Y-62503396D01*
X13112224Y-62831949D01*
X13112227Y-62831961D01*
X13223531Y-63150050D01*
X13369751Y-63453680D01*
X13369753Y-63453684D01*
X13369754Y-63453685D01*
X13549054Y-63739039D01*
X13759176Y-64002523D01*
X13997477Y-64240824D01*
X14260961Y-64450946D01*
X14546315Y-64630245D01*
X14849949Y-64776468D01*
X15168046Y-64887775D01*
X15168051Y-64887776D01*
X15168054Y-64887777D01*
X15223424Y-64900414D01*
X15496606Y-64962766D01*
X15831496Y-65000499D01*
X15831500Y-65000499D01*
X16168500Y-65000499D01*
X16168504Y-65000499D01*
X16503394Y-64962766D01*
X16831954Y-64887775D01*
X17150051Y-64776468D01*
X17453685Y-64630245D01*
X17739039Y-64450946D01*
X18002523Y-64240824D01*
X18240824Y-64002523D01*
X18450946Y-63739039D01*
X18630246Y-63453685D01*
X18776468Y-63150051D01*
X18887775Y-62831954D01*
X18962767Y-62503394D01*
X19000500Y-62168505D01*
X19000500Y-62000000D01*
X19000500Y-61934108D01*
X19000500Y-61831499D01*
X24999500Y-61831499D01*
X24999500Y-62168501D01*
X25037233Y-62503396D01*
X25112224Y-62831949D01*
X25112227Y-62831961D01*
X25223531Y-63150050D01*
X25369751Y-63453680D01*
X25369753Y-63453684D01*
X25369754Y-63453685D01*
X25549054Y-63739039D01*
X25759176Y-64002523D01*
X25997477Y-64240824D01*
X26260961Y-64450946D01*
X26546315Y-64630245D01*
X26849949Y-64776468D01*
X27168046Y-64887775D01*
X27168051Y-64887776D01*
X27168054Y-64887777D01*
X27223424Y-64900414D01*
X27496606Y-64962766D01*
X27831496Y-65000499D01*
X27831500Y-65000499D01*
X28168500Y-65000499D01*
X28168504Y-65000499D01*
X28503394Y-64962766D01*
X28831954Y-64887775D01*
X29150051Y-64776468D01*
X29453685Y-64630245D01*
X29739039Y-64450946D01*
X30002523Y-64240824D01*
X30240824Y-64002523D01*
X30450946Y-63739039D01*
X30630246Y-63453685D01*
X30776468Y-63150051D01*
X30887775Y-62831954D01*
X30962767Y-62503394D01*
X31000500Y-62168505D01*
X31000500Y-62000000D01*
X31000500Y-61934108D01*
X31000500Y-61831496D01*
X30962767Y-61496606D01*
X30887776Y-61168046D01*
X30776469Y-60849949D01*
X30630246Y-60546314D01*
X30450946Y-60260961D01*
X30240825Y-59997477D01*
X30002523Y-59759175D01*
X29739039Y-59549054D01*
X29453686Y-59369754D01*
X29453685Y-59369753D01*
X29453681Y-59369751D01*
X29150050Y-59223530D01*
X28831961Y-59112226D01*
X28831945Y-59112221D01*
X28503398Y-59037234D01*
X28503397Y-59037233D01*
X28359869Y-59021061D01*
X28168504Y-58999500D01*
X27831496Y-58999500D01*
X27664051Y-59018366D01*
X27496602Y-59037233D01*
X27496601Y-59037234D01*
X27168054Y-59112221D01*
X27168038Y-59112226D01*
X26849949Y-59223530D01*
X26546318Y-59369751D01*
X26260960Y-59549054D01*
X25997473Y-59759178D01*
X25759178Y-59997473D01*
X25549054Y-60260960D01*
X25369751Y-60546318D01*
X25223530Y-60849949D01*
X25112226Y-61168038D01*
X25112221Y-61168054D01*
X25037234Y-61496601D01*
X25037233Y-61496602D01*
X24999500Y-61831499D01*
X19000500Y-61831499D01*
X19000500Y-61831496D01*
X18962767Y-61496606D01*
X18887776Y-61168046D01*
X18776469Y-60849949D01*
X18630246Y-60546314D01*
X18450946Y-60260961D01*
X18240825Y-59997477D01*
X18002523Y-59759175D01*
X17739039Y-59549054D01*
X17453686Y-59369754D01*
X17453685Y-59369753D01*
X17453681Y-59369751D01*
X17150050Y-59223530D01*
X16831961Y-59112226D01*
X16831945Y-59112221D01*
X16503398Y-59037234D01*
X16503397Y-59037233D01*
X16359869Y-59021061D01*
X16168504Y-58999500D01*
X15831496Y-58999500D01*
X15664051Y-59018366D01*
X15496602Y-59037233D01*
X15496601Y-59037234D01*
X15168054Y-59112221D01*
X15168038Y-59112226D01*
X14849949Y-59223530D01*
X14546318Y-59369751D01*
X14260960Y-59549054D01*
X13997473Y-59759178D01*
X13759178Y-59997473D01*
X13549054Y-60260960D01*
X13369751Y-60546318D01*
X13223530Y-60849949D01*
X13112226Y-61168038D01*
X13112221Y-61168054D01*
X13037234Y-61496601D01*
X13037233Y-61496602D01*
X12999500Y-61831499D01*
X500500Y-61831499D01*
X500500Y-11105145D01*
X1024499Y-11105145D01*
X1024499Y-11194855D01*
X1024499Y-11194856D01*
X1024500Y-11203471D01*
X1024500Y-39949173D01*
X1024499Y-39949187D01*
X1024499Y-39955145D01*
X1024499Y-40044855D01*
X1038157Y-40077826D01*
X1043684Y-40091170D01*
X1058829Y-40127735D01*
X1132671Y-40201577D01*
X1132673Y-40201578D01*
X8752826Y-47821731D01*
X8774500Y-47874057D01*
X8774500Y-54628455D01*
X8752826Y-54680781D01*
X8679520Y-54754086D01*
X8626795Y-54845408D01*
X8626791Y-54845417D01*
X8599500Y-54947270D01*
X8599500Y-55052729D01*
X8626791Y-55154582D01*
X8626795Y-55154591D01*
X8647308Y-55190120D01*
X8679520Y-55245913D01*
X8754087Y-55320480D01*
X8845413Y-55373207D01*
X8849745Y-55374367D01*
X8894678Y-55408842D01*
X8902075Y-55464994D01*
X8882921Y-55498172D01*
X7773512Y-56607581D01*
X7773502Y-56607591D01*
X7772265Y-56608829D01*
X7772264Y-56608830D01*
X7708830Y-56672264D01*
X7708830Y-56672265D01*
X7703897Y-56684173D01*
X7703895Y-56684176D01*
X7674499Y-56755144D01*
X7674499Y-56853466D01*
X7674500Y-56853475D01*
X7674500Y-57228455D01*
X7652826Y-57280781D01*
X7579520Y-57354086D01*
X7526795Y-57445408D01*
X7526791Y-57445417D01*
X7499500Y-57547270D01*
X7499500Y-57652729D01*
X7526791Y-57754582D01*
X7526792Y-57754585D01*
X7526793Y-57754587D01*
X7579520Y-57845913D01*
X7654087Y-57920480D01*
X7745413Y-57973207D01*
X7847270Y-58000499D01*
X7847271Y-58000500D01*
X7847273Y-58000500D01*
X7952729Y-58000500D01*
X7952729Y-58000499D01*
X8054587Y-57973207D01*
X8145913Y-57920480D01*
X8220480Y-57845913D01*
X8273207Y-57754587D01*
X8300499Y-57652729D01*
X8300500Y-57652729D01*
X8300500Y-57547271D01*
X8300499Y-57547270D01*
X8273208Y-57445417D01*
X8273207Y-57445413D01*
X8220480Y-57354087D01*
X8147174Y-57280781D01*
X8125500Y-57228455D01*
X8125500Y-56924057D01*
X8147174Y-56871731D01*
X10607279Y-54411626D01*
X13506400Y-54411626D01*
X13506400Y-55190000D01*
X14020874Y-55190000D01*
X14012000Y-55223120D01*
X14012000Y-55356880D01*
X14020874Y-55390000D01*
X13506401Y-55390000D01*
X13506401Y-56168378D01*
X13515101Y-56212124D01*
X13548255Y-56261743D01*
X13548256Y-56261744D01*
X13597872Y-56294896D01*
X13641626Y-56303599D01*
X14420000Y-56303599D01*
X14420000Y-55789125D01*
X14453120Y-55798000D01*
X14586880Y-55798000D01*
X14620000Y-55789125D01*
X14620000Y-56303599D01*
X15398379Y-56303599D01*
X15442124Y-56294898D01*
X15491743Y-56261744D01*
X15491744Y-56261743D01*
X15524896Y-56212127D01*
X15533600Y-56168373D01*
X15533600Y-55390000D01*
X15019126Y-55390000D01*
X15028000Y-55356880D01*
X15028000Y-55223120D01*
X15019126Y-55190000D01*
X15533599Y-55190000D01*
X15533599Y-54411621D01*
X15524898Y-54367875D01*
X15491744Y-54318256D01*
X15491743Y-54318255D01*
X15442127Y-54285103D01*
X15398373Y-54276400D01*
X14620000Y-54276400D01*
X14620000Y-54790874D01*
X14586880Y-54782000D01*
X14453120Y-54782000D01*
X14420000Y-54790874D01*
X14420000Y-54276400D01*
X13641629Y-54276400D01*
X13597873Y-54285103D01*
X13548256Y-54318255D01*
X13548255Y-54318256D01*
X13515103Y-54367872D01*
X13506400Y-54411626D01*
X10607279Y-54411626D01*
X12696731Y-52322174D01*
X12749057Y-52300500D01*
X12852729Y-52300500D01*
X12852729Y-52300499D01*
X12954587Y-52273207D01*
X13045913Y-52220480D01*
X13120480Y-52145913D01*
X13173207Y-52054587D01*
X13200499Y-51952729D01*
X13200500Y-51952729D01*
X13200500Y-51847271D01*
X13200499Y-51847270D01*
X13173208Y-51745417D01*
X13173207Y-51745413D01*
X13120480Y-51654087D01*
X13045913Y-51579520D01*
X12954591Y-51526795D01*
X12954582Y-51526791D01*
X12852729Y-51499500D01*
X12852727Y-51499500D01*
X12747273Y-51499500D01*
X12747271Y-51499500D01*
X12645417Y-51526791D01*
X12645408Y-51526795D01*
X12554086Y-51579520D01*
X12479520Y-51654086D01*
X12426795Y-51745408D01*
X12426791Y-51745417D01*
X12399500Y-51847270D01*
X12399500Y-51950941D01*
X12377826Y-52003267D01*
X9498172Y-54882921D01*
X9445846Y-54904595D01*
X9393520Y-54882921D01*
X9374368Y-54849746D01*
X9373207Y-54845413D01*
X9320480Y-54754087D01*
X9247174Y-54680781D01*
X9225500Y-54628455D01*
X9225500Y-47803475D01*
X9225501Y-47803466D01*
X9225501Y-47705146D01*
X9225501Y-47705145D01*
X9201225Y-47646539D01*
X9191170Y-47622264D01*
X9127736Y-47558830D01*
X9127734Y-47558829D01*
X1497174Y-39928269D01*
X1475500Y-39875943D01*
X1475500Y-20940688D01*
X1649500Y-20940688D01*
X1649500Y-21059311D01*
X1680199Y-21173882D01*
X1680201Y-21173887D01*
X1739586Y-21276743D01*
X1749500Y-21313743D01*
X1749500Y-37346146D01*
X1773384Y-37435284D01*
X1773386Y-37435289D01*
X1819530Y-37515212D01*
X9727826Y-45423508D01*
X9749500Y-45475834D01*
X9749500Y-46836256D01*
X9739586Y-46873256D01*
X9680201Y-46976112D01*
X9680199Y-46976117D01*
X9649500Y-47090688D01*
X9649500Y-47209311D01*
X9680199Y-47323882D01*
X9680201Y-47323887D01*
X9739508Y-47426609D01*
X9739509Y-47426610D01*
X9739511Y-47426613D01*
X9823387Y-47510489D01*
X9823389Y-47510490D01*
X9823390Y-47510491D01*
X9907115Y-47558830D01*
X9926114Y-47569799D01*
X9926115Y-47569799D01*
X9926117Y-47569800D01*
X9983402Y-47585149D01*
X10040688Y-47600499D01*
X10040689Y-47600500D01*
X10040691Y-47600500D01*
X10159311Y-47600500D01*
X10159311Y-47600499D01*
X10273886Y-47569799D01*
X10376613Y-47510489D01*
X10460489Y-47426613D01*
X10519799Y-47323886D01*
X10550499Y-47209311D01*
X10550500Y-47209311D01*
X10550500Y-47090689D01*
X10550499Y-47090688D01*
X10519800Y-46976117D01*
X10519798Y-46976112D01*
X10460414Y-46873256D01*
X10450500Y-46836256D01*
X10450500Y-45253854D01*
X10450499Y-45253853D01*
X10426615Y-45164715D01*
X10426613Y-45164710D01*
X10380471Y-45084790D01*
X10380470Y-45084789D01*
X10380469Y-45084787D01*
X2472174Y-37176492D01*
X2450500Y-37124166D01*
X2450500Y-21313743D01*
X2460414Y-21276743D01*
X2467385Y-21264668D01*
X2519799Y-21173886D01*
X2550499Y-21059311D01*
X2550500Y-21059311D01*
X2550500Y-20940689D01*
X2550499Y-20940688D01*
X2549319Y-20936286D01*
X2519799Y-20826114D01*
X2519798Y-20826112D01*
X2460491Y-20723390D01*
X2460490Y-20723389D01*
X2460489Y-20723387D01*
X2376613Y-20639511D01*
X2376610Y-20639509D01*
X2376609Y-20639508D01*
X2273887Y-20580201D01*
X2273882Y-20580199D01*
X2159311Y-20549500D01*
X2159309Y-20549500D01*
X2040691Y-20549500D01*
X2040689Y-20549500D01*
X1926117Y-20580199D01*
X1926112Y-20580201D01*
X1823390Y-20639508D01*
X1739508Y-20723390D01*
X1680201Y-20826112D01*
X1680199Y-20826117D01*
X1649500Y-20940688D01*
X1475500Y-20940688D01*
X1475500Y-11274057D01*
X1497174Y-11221731D01*
X2071731Y-10647174D01*
X2124057Y-10625500D01*
X4875943Y-10625500D01*
X4928269Y-10647174D01*
X5477826Y-11196731D01*
X5499500Y-11249057D01*
X5499500Y-11352729D01*
X5526791Y-11454582D01*
X5526795Y-11454591D01*
X5570624Y-11530504D01*
X5579520Y-11545913D01*
X5654087Y-11620480D01*
X5745413Y-11673207D01*
X5847270Y-11700499D01*
X5847271Y-11700500D01*
X5950943Y-11700500D01*
X6003269Y-11722174D01*
X6779269Y-12498174D01*
X6800943Y-12550500D01*
X6779269Y-12602826D01*
X6726943Y-12624500D01*
X6324057Y-12624500D01*
X6271731Y-12602826D01*
X5072174Y-11403269D01*
X5050500Y-11350943D01*
X5050500Y-11247271D01*
X5050499Y-11247270D01*
X5049463Y-11243405D01*
X5023207Y-11145413D01*
X4970480Y-11054087D01*
X4895913Y-10979520D01*
X4860075Y-10958829D01*
X4804591Y-10926795D01*
X4804582Y-10926791D01*
X4702729Y-10899500D01*
X4702727Y-10899500D01*
X4597273Y-10899500D01*
X4597271Y-10899500D01*
X4495417Y-10926791D01*
X4495408Y-10926795D01*
X4404086Y-10979520D01*
X4329520Y-11054086D01*
X4275500Y-11147651D01*
X4267566Y-11153738D01*
X4263740Y-11162977D01*
X4245892Y-11170369D01*
X4230566Y-11182130D01*
X4220651Y-11180824D01*
X4211414Y-11184651D01*
X4193567Y-11177258D01*
X4174414Y-11174737D01*
X4159088Y-11162977D01*
X4128784Y-11132673D01*
X4128784Y-11132672D01*
X4054944Y-11058832D01*
X4054942Y-11058830D01*
X4030666Y-11048774D01*
X4030664Y-11048773D01*
X4030664Y-11048772D01*
X3972061Y-11024499D01*
X3882351Y-11024499D01*
X3873739Y-11024499D01*
X3873731Y-11024500D01*
X3721545Y-11024500D01*
X3669219Y-11002826D01*
X3595913Y-10929520D01*
X3504591Y-10876795D01*
X3504582Y-10876791D01*
X3402729Y-10849500D01*
X3402727Y-10849500D01*
X3297273Y-10849500D01*
X3297271Y-10849500D01*
X3195417Y-10876791D01*
X3195408Y-10876795D01*
X3104086Y-10929520D01*
X3029520Y-11004086D01*
X2976795Y-11095408D01*
X2976791Y-11095417D01*
X2949500Y-11197270D01*
X2949500Y-11302729D01*
X2976791Y-11404582D01*
X2976795Y-11404591D01*
X3005660Y-11454587D01*
X3029520Y-11495913D01*
X3104087Y-11570480D01*
X3195413Y-11623207D01*
X3297270Y-11650499D01*
X3297271Y-11650500D01*
X3297273Y-11650500D01*
X3402729Y-11650500D01*
X3402729Y-11650499D01*
X3504587Y-11623207D01*
X3595913Y-11570480D01*
X3669219Y-11497174D01*
X3721545Y-11475500D01*
X3803149Y-11475500D01*
X3855475Y-11497174D01*
X5456475Y-13098174D01*
X5478149Y-13150500D01*
X5456475Y-13202826D01*
X5404149Y-13224500D01*
X4200145Y-13224500D01*
X4117266Y-13258828D01*
X2198268Y-15177826D01*
X2145942Y-15199500D01*
X2042271Y-15199500D01*
X1940417Y-15226791D01*
X1940408Y-15226795D01*
X1849086Y-15279520D01*
X1774520Y-15354086D01*
X1721795Y-15445408D01*
X1721791Y-15445417D01*
X1694500Y-15547270D01*
X1694500Y-15652729D01*
X1721791Y-15754582D01*
X1721792Y-15754585D01*
X1721793Y-15754587D01*
X1774520Y-15845913D01*
X1849087Y-15920480D01*
X1940413Y-15973207D01*
X2042270Y-16000499D01*
X2042271Y-16000500D01*
X2042273Y-16000500D01*
X2147729Y-16000500D01*
X2147729Y-16000499D01*
X2249587Y-15973207D01*
X2340913Y-15920480D01*
X2415480Y-15845913D01*
X2468207Y-15754587D01*
X2495499Y-15652729D01*
X2495500Y-15652729D01*
X2495500Y-15549056D01*
X2517174Y-15496730D01*
X3414405Y-14599500D01*
X4316731Y-13697174D01*
X4369057Y-13675500D01*
X4791943Y-13675500D01*
X4844269Y-13697174D01*
X4865943Y-13749500D01*
X4844269Y-13801825D01*
X4148309Y-14497785D01*
X3468268Y-15177826D01*
X3415942Y-15199500D01*
X3312271Y-15199500D01*
X3210417Y-15226791D01*
X3210408Y-15226795D01*
X3119086Y-15279520D01*
X3044520Y-15354086D01*
X2991795Y-15445408D01*
X2991791Y-15445417D01*
X2964500Y-15547270D01*
X2964500Y-15652729D01*
X2991791Y-15754582D01*
X2991792Y-15754585D01*
X2991793Y-15754587D01*
X3044520Y-15845913D01*
X3119087Y-15920480D01*
X3210413Y-15973207D01*
X3312270Y-16000499D01*
X3312271Y-16000500D01*
X3312273Y-16000500D01*
X3417729Y-16000500D01*
X3417729Y-16000499D01*
X3519587Y-15973207D01*
X3610913Y-15920480D01*
X3685480Y-15845913D01*
X3738207Y-15754587D01*
X3765499Y-15652729D01*
X3765500Y-15652729D01*
X3765500Y-15549056D01*
X3787174Y-15496730D01*
X5286731Y-13997174D01*
X5339057Y-13975500D01*
X5776941Y-13975500D01*
X5829267Y-13997174D01*
X5850941Y-14049500D01*
X5829267Y-14101825D01*
X5278365Y-14652727D01*
X4753268Y-15177824D01*
X4700942Y-15199498D01*
X4597271Y-15199498D01*
X4495417Y-15226789D01*
X4495408Y-15226793D01*
X4404086Y-15279518D01*
X4329520Y-15354084D01*
X4276795Y-15445406D01*
X4276791Y-15445415D01*
X4249500Y-15547268D01*
X4249500Y-15652727D01*
X4276791Y-15754580D01*
X4276795Y-15754589D01*
X4303433Y-15800727D01*
X4329520Y-15845911D01*
X4404087Y-15920478D01*
X4495413Y-15973205D01*
X4597270Y-16000497D01*
X4597271Y-16000498D01*
X4597273Y-16000498D01*
X4702729Y-16000498D01*
X4702729Y-16000497D01*
X4804587Y-15973205D01*
X4895913Y-15920478D01*
X4970480Y-15845911D01*
X5023207Y-15754585D01*
X5050499Y-15652727D01*
X5050500Y-15652727D01*
X5050500Y-15549054D01*
X5072174Y-15496728D01*
X5621633Y-14947270D01*
X7599500Y-14947270D01*
X7599500Y-15052729D01*
X7626791Y-15154582D01*
X7626795Y-15154591D01*
X7679520Y-15245913D01*
X7752826Y-15319219D01*
X7774500Y-15371545D01*
X7774500Y-17855150D01*
X7774499Y-17855153D01*
X7774499Y-17882331D01*
X7774499Y-17894198D01*
X7774499Y-17894200D01*
X7771978Y-17913352D01*
X7749492Y-17997274D01*
X7749492Y-18102729D01*
X7776783Y-18204582D01*
X7776787Y-18204591D01*
X7785684Y-18220001D01*
X7829512Y-18295913D01*
X7904079Y-18370480D01*
X7995405Y-18423207D01*
X8097262Y-18450499D01*
X8097263Y-18450500D01*
X8097265Y-18450500D01*
X8202721Y-18450500D01*
X8202721Y-18450499D01*
X8304579Y-18423207D01*
X8395905Y-18370480D01*
X8470472Y-18295913D01*
X8516152Y-18216792D01*
X8561082Y-18182315D01*
X8617235Y-18189707D01*
X8632562Y-18201467D01*
X8877826Y-18446731D01*
X8899500Y-18499057D01*
X8899500Y-18602729D01*
X8926791Y-18704582D01*
X8926795Y-18704591D01*
X8979520Y-18795913D01*
X9054087Y-18870480D01*
X9145413Y-18923207D01*
X9247270Y-18950499D01*
X9247271Y-18950500D01*
X9247273Y-18950500D01*
X9352729Y-18950500D01*
X9352729Y-18950499D01*
X9454587Y-18923207D01*
X9545913Y-18870480D01*
X9620480Y-18795913D01*
X9673207Y-18704587D01*
X9700499Y-18602729D01*
X9700500Y-18602729D01*
X9700500Y-18497271D01*
X9700499Y-18497270D01*
X9680654Y-18423208D01*
X9673207Y-18395413D01*
X9620480Y-18304087D01*
X9545913Y-18229520D01*
X9476955Y-18189707D01*
X9454591Y-18176795D01*
X9454582Y-18176791D01*
X9352729Y-18149500D01*
X9352727Y-18149500D01*
X9249057Y-18149500D01*
X9196731Y-18127826D01*
X8897174Y-17828269D01*
X8875500Y-17775943D01*
X8875500Y-17047271D01*
X10295515Y-17047271D01*
X10295515Y-17047274D01*
X10295515Y-17152728D01*
X10322310Y-17252729D01*
X10322809Y-17254591D01*
X10335600Y-17276744D01*
X10345515Y-17313745D01*
X10345515Y-30242161D01*
X10369399Y-30331299D01*
X10369401Y-30331304D01*
X10415545Y-30411227D01*
X11601018Y-31596699D01*
X11620170Y-31629871D01*
X11626793Y-31654587D01*
X11679520Y-31745913D01*
X11754087Y-31820480D01*
X11845413Y-31873207D01*
X11947270Y-31900499D01*
X11947271Y-31900500D01*
X11947273Y-31900500D01*
X12052729Y-31900500D01*
X12052729Y-31900499D01*
X12154587Y-31873207D01*
X12245913Y-31820480D01*
X12320480Y-31745913D01*
X12373207Y-31654587D01*
X12400499Y-31552729D01*
X12400500Y-31552729D01*
X12400500Y-31447271D01*
X12400499Y-31447270D01*
X12373208Y-31345417D01*
X12373207Y-31345413D01*
X12320480Y-31254087D01*
X12245913Y-31179520D01*
X12154591Y-31126795D01*
X12154589Y-31126794D01*
X12154587Y-31126793D01*
X12151113Y-31125862D01*
X12129871Y-31120170D01*
X12096699Y-31101018D01*
X11068189Y-30072507D01*
X11046515Y-30020181D01*
X11046515Y-19380881D01*
X12974499Y-19380881D01*
X12974499Y-19470591D01*
X12974499Y-19470592D01*
X12974500Y-19479207D01*
X12974500Y-48049173D01*
X12974499Y-48049187D01*
X12974499Y-48144854D01*
X12994933Y-48194186D01*
X13008829Y-48227734D01*
X13008831Y-48227737D01*
X13082671Y-48301577D01*
X13082673Y-48301578D01*
X15552826Y-50771731D01*
X15574500Y-50824057D01*
X15574500Y-52273793D01*
X15552826Y-52326119D01*
X15500500Y-52347793D01*
X15448174Y-52326119D01*
X15432133Y-52302112D01*
X15418684Y-52269643D01*
X15307705Y-52103552D01*
X15307703Y-52103549D01*
X15166451Y-51962297D01*
X15000357Y-51851316D01*
X15000356Y-51851315D01*
X15000354Y-51851314D01*
X14815806Y-51774872D01*
X14815795Y-51774869D01*
X14667680Y-51745408D01*
X14619880Y-51735900D01*
X14420120Y-51735900D01*
X14393148Y-51741265D01*
X14224204Y-51774869D01*
X14224193Y-51774872D01*
X14039645Y-51851314D01*
X13873552Y-51962294D01*
X13732294Y-52103552D01*
X13621314Y-52269645D01*
X13544872Y-52454193D01*
X13544869Y-52454204D01*
X13505900Y-52650120D01*
X13505900Y-52849879D01*
X13544869Y-53045795D01*
X13544872Y-53045806D01*
X13621314Y-53230354D01*
X13621315Y-53230356D01*
X13621316Y-53230357D01*
X13732297Y-53396451D01*
X13873549Y-53537703D01*
X14039643Y-53648684D01*
X14224198Y-53725129D01*
X14420120Y-53764100D01*
X14420121Y-53764100D01*
X14619879Y-53764100D01*
X14619880Y-53764100D01*
X14815802Y-53725129D01*
X15000357Y-53648684D01*
X15166451Y-53537703D01*
X15307703Y-53396451D01*
X15418684Y-53230357D01*
X15432133Y-53197887D01*
X15472181Y-53157839D01*
X15528818Y-53157839D01*
X15568867Y-53197887D01*
X15574500Y-53226206D01*
X15574500Y-53979173D01*
X15574499Y-53979187D01*
X15574499Y-54074856D01*
X15598773Y-54133458D01*
X15608829Y-54157734D01*
X15608832Y-54157738D01*
X15682671Y-54231577D01*
X15682673Y-54231578D01*
X16158195Y-54707100D01*
X16179869Y-54759426D01*
X16167402Y-54800532D01*
X16161315Y-54809642D01*
X16084872Y-54994193D01*
X16084869Y-54994204D01*
X16065035Y-55093919D01*
X16045900Y-55190120D01*
X16045900Y-55389880D01*
X16049672Y-55408842D01*
X16084869Y-55585795D01*
X16084872Y-55585806D01*
X16161314Y-55770354D01*
X16161315Y-55770356D01*
X16161316Y-55770357D01*
X16272297Y-55936451D01*
X16413549Y-56077703D01*
X16579643Y-56188684D01*
X16579644Y-56188684D01*
X16579645Y-56188685D01*
X16756023Y-56261743D01*
X16764198Y-56265129D01*
X16960120Y-56304100D01*
X16960121Y-56304100D01*
X17159879Y-56304100D01*
X17159880Y-56304100D01*
X17355802Y-56265129D01*
X17540357Y-56188684D01*
X17706451Y-56077703D01*
X17847703Y-55936451D01*
X17958684Y-55770357D01*
X18035129Y-55585802D01*
X18074100Y-55389880D01*
X18074100Y-55190120D01*
X18585900Y-55190120D01*
X18585900Y-55389880D01*
X18589672Y-55408842D01*
X18624869Y-55585795D01*
X18624872Y-55585806D01*
X18701314Y-55770354D01*
X18701315Y-55770356D01*
X18701316Y-55770357D01*
X18812297Y-55936451D01*
X18953549Y-56077703D01*
X19119643Y-56188684D01*
X19119644Y-56188684D01*
X19119645Y-56188685D01*
X19296023Y-56261743D01*
X19304198Y-56265129D01*
X19500120Y-56304100D01*
X19500121Y-56304100D01*
X19699879Y-56304100D01*
X19699880Y-56304100D01*
X19895802Y-56265129D01*
X20080357Y-56188684D01*
X20246451Y-56077703D01*
X20387703Y-55936451D01*
X20498684Y-55770357D01*
X20575129Y-55585802D01*
X20614100Y-55389880D01*
X20614100Y-55190120D01*
X20575129Y-54994198D01*
X20513502Y-54845417D01*
X20498685Y-54809645D01*
X20430166Y-54707100D01*
X20387703Y-54643549D01*
X20246451Y-54502297D01*
X20110745Y-54411621D01*
X20080354Y-54391314D01*
X19895806Y-54314872D01*
X19895795Y-54314869D01*
X19746147Y-54285103D01*
X19699880Y-54275900D01*
X19500120Y-54275900D01*
X19461362Y-54283609D01*
X19304204Y-54314869D01*
X19304193Y-54314872D01*
X19119645Y-54391314D01*
X18953552Y-54502294D01*
X18812294Y-54643552D01*
X18701314Y-54809645D01*
X18624872Y-54994193D01*
X18624869Y-54994204D01*
X18605035Y-55093919D01*
X18585900Y-55190120D01*
X18074100Y-55190120D01*
X18035129Y-54994198D01*
X17973502Y-54845417D01*
X17958685Y-54809645D01*
X17890166Y-54707100D01*
X17847703Y-54643549D01*
X17706451Y-54502297D01*
X17570745Y-54411621D01*
X17540354Y-54391314D01*
X17355806Y-54314872D01*
X17355795Y-54314869D01*
X17206147Y-54285103D01*
X17159880Y-54275900D01*
X16960120Y-54275900D01*
X16921362Y-54283609D01*
X16764204Y-54314869D01*
X16764193Y-54314872D01*
X16579642Y-54391315D01*
X16570532Y-54397402D01*
X16514982Y-54408446D01*
X16477100Y-54388195D01*
X16047174Y-53958269D01*
X16025500Y-53905943D01*
X16025500Y-53271039D01*
X16047174Y-53218713D01*
X16099500Y-53197039D01*
X16151826Y-53218713D01*
X16161029Y-53229927D01*
X16161315Y-53230355D01*
X16161316Y-53230357D01*
X16272297Y-53396451D01*
X16413549Y-53537703D01*
X16579643Y-53648684D01*
X16764198Y-53725129D01*
X16960120Y-53764100D01*
X16960121Y-53764100D01*
X17159879Y-53764100D01*
X17159880Y-53764100D01*
X17355802Y-53725129D01*
X17540357Y-53648684D01*
X17706451Y-53537703D01*
X17847703Y-53396451D01*
X17958684Y-53230357D01*
X18035129Y-53045802D01*
X18074100Y-52849880D01*
X18074100Y-52650120D01*
X18585900Y-52650120D01*
X18585900Y-52849879D01*
X18624869Y-53045795D01*
X18624872Y-53045806D01*
X18701314Y-53230354D01*
X18701315Y-53230356D01*
X18701316Y-53230357D01*
X18812297Y-53396451D01*
X18953549Y-53537703D01*
X19119643Y-53648684D01*
X19304198Y-53725129D01*
X19500120Y-53764100D01*
X19500121Y-53764100D01*
X19699879Y-53764100D01*
X19699880Y-53764100D01*
X19895802Y-53725129D01*
X20080357Y-53648684D01*
X20246451Y-53537703D01*
X20387703Y-53396451D01*
X20498684Y-53230357D01*
X20575129Y-53045802D01*
X20614100Y-52849880D01*
X20614100Y-52650120D01*
X20575129Y-52454198D01*
X20511895Y-52301538D01*
X20498685Y-52269645D01*
X20465833Y-52220479D01*
X20387703Y-52103549D01*
X20246451Y-51962297D01*
X20080357Y-51851316D01*
X20080356Y-51851315D01*
X20080354Y-51851314D01*
X19895806Y-51774872D01*
X19895795Y-51774869D01*
X19747680Y-51745408D01*
X19699880Y-51735900D01*
X19500120Y-51735900D01*
X19473148Y-51741265D01*
X19304204Y-51774869D01*
X19304193Y-51774872D01*
X19119645Y-51851314D01*
X18953552Y-51962294D01*
X18812294Y-52103552D01*
X18701314Y-52269645D01*
X18624872Y-52454193D01*
X18624869Y-52454204D01*
X18585900Y-52650120D01*
X18074100Y-52650120D01*
X18035129Y-52454198D01*
X17971895Y-52301538D01*
X17958685Y-52269645D01*
X17925833Y-52220479D01*
X17847703Y-52103549D01*
X17706451Y-51962297D01*
X17540357Y-51851316D01*
X17540356Y-51851315D01*
X17540354Y-51851314D01*
X17355806Y-51774872D01*
X17355791Y-51774868D01*
X17345060Y-51772733D01*
X17297969Y-51741265D01*
X17285500Y-51700156D01*
X17285500Y-51483831D01*
X17285499Y-51483829D01*
X17251171Y-51400952D01*
X17251169Y-51400949D01*
X13747174Y-47896954D01*
X13725500Y-47844628D01*
X13725500Y-39040688D01*
X14099500Y-39040688D01*
X14099500Y-39159311D01*
X14130199Y-39273882D01*
X14130201Y-39273887D01*
X14189586Y-39376743D01*
X14199500Y-39413743D01*
X14199500Y-41336256D01*
X14189586Y-41373256D01*
X14130201Y-41476112D01*
X14130199Y-41476117D01*
X14099500Y-41590688D01*
X14099500Y-41709311D01*
X14130199Y-41823882D01*
X14130201Y-41823887D01*
X14189586Y-41926743D01*
X14199500Y-41963743D01*
X14199500Y-47896145D01*
X14206918Y-47923828D01*
X14206918Y-47923830D01*
X14223384Y-47985283D01*
X14223386Y-47985288D01*
X14269530Y-48065212D01*
X16330308Y-50125990D01*
X16349460Y-50159163D01*
X16380199Y-50273882D01*
X16380201Y-50273887D01*
X16439508Y-50376609D01*
X16439509Y-50376610D01*
X16439511Y-50376613D01*
X16523387Y-50460489D01*
X16626114Y-50519799D01*
X16626115Y-50519799D01*
X16626117Y-50519800D01*
X16683402Y-50535149D01*
X16740688Y-50550499D01*
X16740689Y-50550500D01*
X16740691Y-50550500D01*
X16859311Y-50550500D01*
X16859311Y-50550499D01*
X16973886Y-50519799D01*
X17015045Y-50496035D01*
X17076744Y-50460414D01*
X17113744Y-50450500D01*
X19286256Y-50450500D01*
X19323256Y-50460414D01*
X19426112Y-50519798D01*
X19426114Y-50519799D01*
X19426115Y-50519799D01*
X19426117Y-50519800D01*
X19483402Y-50535149D01*
X19540688Y-50550499D01*
X19540689Y-50550500D01*
X19540691Y-50550500D01*
X19659311Y-50550500D01*
X19659311Y-50550499D01*
X19773886Y-50519799D01*
X19876613Y-50460489D01*
X19960489Y-50376613D01*
X20019799Y-50273886D01*
X20050499Y-50159311D01*
X20050500Y-50159311D01*
X20050500Y-50040689D01*
X20050499Y-50040688D01*
X20019800Y-49926117D01*
X20019798Y-49926112D01*
X19960491Y-49823390D01*
X19960490Y-49823389D01*
X19960489Y-49823387D01*
X19876613Y-49739511D01*
X19876610Y-49739509D01*
X19876609Y-49739508D01*
X19773887Y-49680201D01*
X19773882Y-49680199D01*
X19659311Y-49649500D01*
X19659309Y-49649500D01*
X19540691Y-49649500D01*
X19540689Y-49649500D01*
X19426117Y-49680199D01*
X19426112Y-49680201D01*
X19323256Y-49739586D01*
X19286256Y-49749500D01*
X17113744Y-49749500D01*
X17076744Y-49739586D01*
X16973887Y-49680201D01*
X16973882Y-49680199D01*
X16859163Y-49649460D01*
X16825990Y-49630308D01*
X16531757Y-49336075D01*
X16510083Y-49283749D01*
X16519997Y-49246749D01*
X16520480Y-49245913D01*
X16573207Y-49154587D01*
X16600499Y-49052729D01*
X16600500Y-49052729D01*
X16600500Y-48947271D01*
X16600499Y-48947270D01*
X16573208Y-48845417D01*
X16573207Y-48845413D01*
X16520480Y-48754087D01*
X16445913Y-48679520D01*
X16426379Y-48668242D01*
X16354591Y-48626795D01*
X16354582Y-48626791D01*
X16252729Y-48599500D01*
X16252727Y-48599500D01*
X16147273Y-48599500D01*
X16147271Y-48599500D01*
X16045417Y-48626791D01*
X16045404Y-48626796D01*
X15953249Y-48680002D01*
X15897097Y-48687394D01*
X15863924Y-48668242D01*
X14922174Y-47726492D01*
X14900500Y-47674166D01*
X14900500Y-47447270D01*
X20599500Y-47447270D01*
X20599500Y-47552729D01*
X20626791Y-47654582D01*
X20626795Y-47654591D01*
X20679520Y-47745913D01*
X20752826Y-47819219D01*
X20774500Y-47871545D01*
X20774500Y-58628455D01*
X20752826Y-58680781D01*
X20679520Y-58754086D01*
X20626795Y-58845408D01*
X20626791Y-58845417D01*
X20599500Y-58947270D01*
X20599500Y-59052729D01*
X20626791Y-59154582D01*
X20626792Y-59154585D01*
X20626793Y-59154587D01*
X20679520Y-59245913D01*
X20754087Y-59320480D01*
X20845413Y-59373207D01*
X20947270Y-59400499D01*
X20947271Y-59400500D01*
X20947273Y-59400500D01*
X21052729Y-59400500D01*
X21052729Y-59400499D01*
X21154587Y-59373207D01*
X21245913Y-59320480D01*
X21320480Y-59245913D01*
X21373207Y-59154587D01*
X21400499Y-59052729D01*
X21400500Y-59052729D01*
X21400500Y-58947271D01*
X21400499Y-58947270D01*
X21373208Y-58845417D01*
X21373207Y-58845413D01*
X21320480Y-58754087D01*
X21247174Y-58680781D01*
X21225500Y-58628455D01*
X21225500Y-47871545D01*
X21247174Y-47819219D01*
X21271538Y-47794855D01*
X21320480Y-47745913D01*
X21373207Y-47654587D01*
X21400499Y-47552729D01*
X21400500Y-47552729D01*
X21400500Y-47447271D01*
X21400499Y-47447270D01*
X21373208Y-47345417D01*
X21373207Y-47345413D01*
X21320480Y-47254087D01*
X21245913Y-47179520D01*
X21154591Y-47126795D01*
X21154582Y-47126791D01*
X21052729Y-47099500D01*
X21052727Y-47099500D01*
X20947273Y-47099500D01*
X20947271Y-47099500D01*
X20845417Y-47126791D01*
X20845408Y-47126795D01*
X20754086Y-47179520D01*
X20679520Y-47254086D01*
X20626795Y-47345408D01*
X20626791Y-47345417D01*
X20599500Y-47447270D01*
X14900500Y-47447270D01*
X14900500Y-46647270D01*
X16599500Y-46647270D01*
X16599500Y-46752729D01*
X16626791Y-46854582D01*
X16626795Y-46854591D01*
X16637647Y-46873387D01*
X16679520Y-46945913D01*
X16754087Y-47020480D01*
X16845413Y-47073207D01*
X16947270Y-47100499D01*
X16947271Y-47100500D01*
X16947273Y-47100500D01*
X17052729Y-47100500D01*
X17052729Y-47100499D01*
X17154587Y-47073207D01*
X17245913Y-47020480D01*
X17319219Y-46947174D01*
X17371545Y-46925500D01*
X19995004Y-46925500D01*
X20032004Y-46935414D01*
X20038866Y-46939376D01*
X20140723Y-46966668D01*
X20140724Y-46966669D01*
X20140726Y-46966669D01*
X20246182Y-46966669D01*
X20246182Y-46966668D01*
X20348040Y-46939376D01*
X20439366Y-46886649D01*
X20513933Y-46812082D01*
X20566660Y-46720756D01*
X20593952Y-46618898D01*
X20593953Y-46618898D01*
X20593953Y-46513440D01*
X20593952Y-46513439D01*
X20583518Y-46474500D01*
X20566660Y-46411582D01*
X20513933Y-46320256D01*
X20439366Y-46245689D01*
X20348044Y-46192964D01*
X20348035Y-46192960D01*
X20246182Y-46165669D01*
X20246180Y-46165669D01*
X20140726Y-46165669D01*
X20140724Y-46165669D01*
X20038870Y-46192960D01*
X20038861Y-46192964D01*
X19947539Y-46245689D01*
X19872973Y-46320255D01*
X19820246Y-46411580D01*
X19820244Y-46411585D01*
X19818083Y-46419653D01*
X19783605Y-46464586D01*
X19746605Y-46474500D01*
X17371545Y-46474500D01*
X17319219Y-46452826D01*
X17245913Y-46379520D01*
X17154591Y-46326795D01*
X17154582Y-46326791D01*
X17052729Y-46299500D01*
X17052727Y-46299500D01*
X16947273Y-46299500D01*
X16947271Y-46299500D01*
X16845417Y-46326791D01*
X16845408Y-46326795D01*
X16754086Y-46379520D01*
X16679520Y-46454086D01*
X16626795Y-46545408D01*
X16626791Y-46545417D01*
X16599500Y-46647270D01*
X14900500Y-46647270D01*
X14900500Y-41963743D01*
X14910414Y-41926743D01*
X14969798Y-41823887D01*
X14969799Y-41823886D01*
X15000499Y-41709311D01*
X15000500Y-41709311D01*
X15000500Y-41590689D01*
X15000499Y-41590688D01*
X14969800Y-41476117D01*
X14969798Y-41476112D01*
X14910414Y-41373256D01*
X14900500Y-41336256D01*
X14900500Y-39490685D01*
X17556089Y-39490685D01*
X17556089Y-39596144D01*
X17583380Y-39697997D01*
X17583384Y-39698006D01*
X17589634Y-39708831D01*
X17636109Y-39789328D01*
X17710676Y-39863895D01*
X17731544Y-39875943D01*
X17806202Y-39919047D01*
X17805067Y-39921011D01*
X17839790Y-39955735D01*
X17839790Y-40012372D01*
X17808424Y-40048139D01*
X17754079Y-40079515D01*
X17679514Y-40154080D01*
X17626789Y-40245402D01*
X17626785Y-40245411D01*
X17599494Y-40347264D01*
X17599494Y-40452723D01*
X17626785Y-40554576D01*
X17626789Y-40554585D01*
X17667731Y-40625498D01*
X17679514Y-40645907D01*
X17754081Y-40720474D01*
X17845407Y-40773201D01*
X17947264Y-40800493D01*
X17947265Y-40800494D01*
X17947267Y-40800494D01*
X18052723Y-40800494D01*
X18052723Y-40800493D01*
X18154581Y-40773201D01*
X18245907Y-40720474D01*
X18319209Y-40647172D01*
X18371535Y-40625498D01*
X23128455Y-40625498D01*
X23180781Y-40647172D01*
X23254087Y-40720478D01*
X23345413Y-40773205D01*
X23447270Y-40800497D01*
X23447271Y-40800498D01*
X23447273Y-40800498D01*
X23552729Y-40800498D01*
X23552729Y-40800497D01*
X23654587Y-40773205D01*
X23745913Y-40720478D01*
X23820480Y-40645911D01*
X23873207Y-40554585D01*
X23900499Y-40452727D01*
X23900500Y-40452727D01*
X23900500Y-40347269D01*
X23900499Y-40347268D01*
X23873208Y-40245415D01*
X23873207Y-40245411D01*
X23868063Y-40236501D01*
X23860669Y-40180349D01*
X23895147Y-40135415D01*
X23932148Y-40125500D01*
X27775943Y-40125500D01*
X27828269Y-40147174D01*
X28077826Y-40396731D01*
X28099500Y-40449057D01*
X28099500Y-40552729D01*
X28126791Y-40654582D01*
X28126795Y-40654591D01*
X28164835Y-40720478D01*
X28179520Y-40745913D01*
X28254087Y-40820480D01*
X28345413Y-40873207D01*
X28447270Y-40900499D01*
X28447271Y-40900500D01*
X28447273Y-40900500D01*
X28552729Y-40900500D01*
X28552729Y-40900499D01*
X28654587Y-40873207D01*
X28745913Y-40820480D01*
X28820480Y-40745913D01*
X28873207Y-40654587D01*
X28900499Y-40552729D01*
X28900500Y-40552729D01*
X28900500Y-40447271D01*
X28900499Y-40447270D01*
X28873208Y-40345417D01*
X28873207Y-40345413D01*
X28820480Y-40254087D01*
X28745913Y-40179520D01*
X28701858Y-40154085D01*
X28654591Y-40126795D01*
X28654582Y-40126791D01*
X28552729Y-40099500D01*
X28552727Y-40099500D01*
X28449057Y-40099500D01*
X28396731Y-40077826D01*
X28101578Y-39782673D01*
X28101578Y-39782672D01*
X28027737Y-39708831D01*
X28027736Y-39708830D01*
X28001595Y-39698002D01*
X27944855Y-39674499D01*
X27855145Y-39674499D01*
X27846533Y-39674499D01*
X27846525Y-39674500D01*
X18437231Y-39674500D01*
X18384906Y-39652826D01*
X18378762Y-39646683D01*
X18357089Y-39594358D01*
X18357089Y-39490686D01*
X18357088Y-39490685D01*
X18329797Y-39388832D01*
X18329796Y-39388828D01*
X18277069Y-39297502D01*
X18202502Y-39222935D01*
X18111180Y-39170210D01*
X18111171Y-39170206D01*
X18009318Y-39142915D01*
X18009316Y-39142915D01*
X17903862Y-39142915D01*
X17903860Y-39142915D01*
X17802006Y-39170206D01*
X17801997Y-39170210D01*
X17710675Y-39222935D01*
X17636109Y-39297501D01*
X17583384Y-39388823D01*
X17583380Y-39388832D01*
X17556089Y-39490685D01*
X14900500Y-39490685D01*
X14900500Y-39413743D01*
X14910414Y-39376743D01*
X14956164Y-39297502D01*
X14969799Y-39273886D01*
X15000499Y-39159311D01*
X15000500Y-39159311D01*
X15000500Y-39040689D01*
X15000499Y-39040688D01*
X14969800Y-38926117D01*
X14969798Y-38926112D01*
X14910414Y-38823256D01*
X14900500Y-38786256D01*
X14900500Y-35906384D01*
X21049500Y-35906384D01*
X21049500Y-36093615D01*
X21086025Y-36277244D01*
X21086027Y-36277251D01*
X21157678Y-36450231D01*
X21261698Y-36605908D01*
X21394092Y-36738302D01*
X21549769Y-36842322D01*
X21722749Y-36913973D01*
X21906384Y-36950500D01*
X21906385Y-36950500D01*
X22093615Y-36950500D01*
X22093616Y-36950500D01*
X22277251Y-36913973D01*
X22450231Y-36842322D01*
X22605908Y-36738302D01*
X22738302Y-36605908D01*
X22842322Y-36450231D01*
X22913973Y-36277251D01*
X22950500Y-36093616D01*
X22950500Y-35906384D01*
X29049500Y-35906384D01*
X29049500Y-36093615D01*
X29086025Y-36277244D01*
X29086027Y-36277251D01*
X29157678Y-36450231D01*
X29261698Y-36605908D01*
X29394092Y-36738302D01*
X29549769Y-36842322D01*
X29722749Y-36913973D01*
X29906384Y-36950500D01*
X29906385Y-36950500D01*
X30093615Y-36950500D01*
X30093616Y-36950500D01*
X30277251Y-36913973D01*
X30450231Y-36842322D01*
X30605908Y-36738302D01*
X30738302Y-36605908D01*
X30842322Y-36450231D01*
X30913973Y-36277251D01*
X30950500Y-36093616D01*
X30950500Y-35906384D01*
X30913973Y-35722749D01*
X30842322Y-35549769D01*
X30738302Y-35394092D01*
X30605908Y-35261698D01*
X30450231Y-35157678D01*
X30450228Y-35157676D01*
X30450227Y-35157676D01*
X30277251Y-35086027D01*
X30277244Y-35086025D01*
X30138902Y-35058507D01*
X30093616Y-35049500D01*
X29906384Y-35049500D01*
X29870056Y-35056725D01*
X29722755Y-35086025D01*
X29722748Y-35086027D01*
X29549772Y-35157676D01*
X29394092Y-35261697D01*
X29394091Y-35261699D01*
X29261699Y-35394091D01*
X29261697Y-35394092D01*
X29157676Y-35549772D01*
X29086027Y-35722748D01*
X29086025Y-35722755D01*
X29049500Y-35906384D01*
X22950500Y-35906384D01*
X22913973Y-35722749D01*
X22842322Y-35549769D01*
X22738302Y-35394092D01*
X22605908Y-35261698D01*
X22450231Y-35157678D01*
X22450228Y-35157676D01*
X22450227Y-35157676D01*
X22277251Y-35086027D01*
X22277244Y-35086025D01*
X22138902Y-35058507D01*
X22093616Y-35049500D01*
X21906384Y-35049500D01*
X21870056Y-35056725D01*
X21722755Y-35086025D01*
X21722748Y-35086027D01*
X21549772Y-35157676D01*
X21394092Y-35261697D01*
X21394091Y-35261699D01*
X21261699Y-35394091D01*
X21261697Y-35394092D01*
X21157676Y-35549772D01*
X21086027Y-35722748D01*
X21086025Y-35722755D01*
X21049500Y-35906384D01*
X14900500Y-35906384D01*
X14900500Y-33813744D01*
X14910415Y-33776743D01*
X14923205Y-33754590D01*
X14923204Y-33754590D01*
X14923207Y-33754587D01*
X14950500Y-33652727D01*
X14950500Y-33547273D01*
X14950500Y-33547271D01*
X14950499Y-33547270D01*
X14923208Y-33445417D01*
X14923207Y-33445413D01*
X14870480Y-33354087D01*
X14795913Y-33279520D01*
X14710180Y-33230022D01*
X14704591Y-33226795D01*
X14704582Y-33226791D01*
X14602729Y-33199500D01*
X14602727Y-33199500D01*
X14497273Y-33199500D01*
X14497271Y-33199500D01*
X14395417Y-33226791D01*
X14395408Y-33226795D01*
X14304086Y-33279520D01*
X14229520Y-33354086D01*
X14176795Y-33445408D01*
X14176791Y-33445417D01*
X14149500Y-33547270D01*
X14149500Y-33547273D01*
X14149500Y-33652727D01*
X14176793Y-33754587D01*
X14176794Y-33754590D01*
X14189585Y-33776743D01*
X14199500Y-33813744D01*
X14199500Y-38786256D01*
X14189586Y-38823256D01*
X14130201Y-38926112D01*
X14130199Y-38926117D01*
X14099500Y-39040688D01*
X13725500Y-39040688D01*
X13725500Y-28597270D01*
X13899500Y-28597270D01*
X13899500Y-28702729D01*
X13926791Y-28804582D01*
X13926795Y-28804591D01*
X13967735Y-28875500D01*
X13979520Y-28895913D01*
X14054087Y-28970480D01*
X14145413Y-29023207D01*
X14247270Y-29050499D01*
X14247271Y-29050500D01*
X14275500Y-29050500D01*
X14327826Y-29072174D01*
X14349500Y-29124500D01*
X14349500Y-29202729D01*
X14376791Y-29304582D01*
X14376795Y-29304591D01*
X14417735Y-29375500D01*
X14429520Y-29395913D01*
X14504087Y-29470480D01*
X14595413Y-29523207D01*
X14697270Y-29550499D01*
X14697271Y-29550500D01*
X14697273Y-29550500D01*
X14802729Y-29550500D01*
X14802729Y-29550499D01*
X14904587Y-29523207D01*
X14995913Y-29470480D01*
X15069219Y-29397174D01*
X15121545Y-29375500D01*
X15896525Y-29375500D01*
X15896533Y-29375501D01*
X15905145Y-29375501D01*
X15994854Y-29375501D01*
X15994855Y-29375501D01*
X16053460Y-29351225D01*
X16077736Y-29341170D01*
X16141170Y-29277736D01*
X16141170Y-29277735D01*
X16151575Y-29267330D01*
X16151577Y-29267327D01*
X18498930Y-26919973D01*
X18551255Y-26898300D01*
X18603581Y-26919974D01*
X18629087Y-26945480D01*
X18720413Y-26998207D01*
X18822270Y-27025499D01*
X18822271Y-27025500D01*
X18822273Y-27025500D01*
X18927729Y-27025500D01*
X18927729Y-27025499D01*
X19029587Y-26998207D01*
X19120913Y-26945480D01*
X19195480Y-26870913D01*
X19248207Y-26779587D01*
X19275499Y-26677729D01*
X19275500Y-26677729D01*
X19275500Y-26572271D01*
X19275499Y-26572270D01*
X19248208Y-26470417D01*
X19248207Y-26470413D01*
X19195480Y-26379087D01*
X19120913Y-26304520D01*
X19103383Y-26294399D01*
X19040050Y-26257833D01*
X19005571Y-26212899D01*
X19012964Y-26156747D01*
X19018344Y-26148696D01*
X19020476Y-26145916D01*
X19020480Y-26145913D01*
X19073207Y-26054587D01*
X19100499Y-25952729D01*
X19100500Y-25952729D01*
X19100500Y-25847271D01*
X19100499Y-25847270D01*
X19073208Y-25745417D01*
X19073207Y-25745413D01*
X19020480Y-25654087D01*
X18945913Y-25579520D01*
X18854591Y-25526795D01*
X18854582Y-25526791D01*
X18752729Y-25499500D01*
X18752727Y-25499500D01*
X18647273Y-25499500D01*
X18647271Y-25499500D01*
X18545417Y-25526791D01*
X18545408Y-25526795D01*
X18454086Y-25579520D01*
X18379520Y-25654086D01*
X18326795Y-25745408D01*
X18326791Y-25745417D01*
X18299500Y-25847270D01*
X18299500Y-25950941D01*
X18277826Y-26003267D01*
X15878269Y-28402826D01*
X15825943Y-28424500D01*
X14671545Y-28424500D01*
X14619219Y-28402826D01*
X14545913Y-28329520D01*
X14454591Y-28276795D01*
X14454582Y-28276791D01*
X14352729Y-28249500D01*
X14352727Y-28249500D01*
X14247273Y-28249500D01*
X14247271Y-28249500D01*
X14145417Y-28276791D01*
X14145408Y-28276795D01*
X14054086Y-28329520D01*
X13979520Y-28404086D01*
X13926795Y-28495408D01*
X13926791Y-28495417D01*
X13899500Y-28597270D01*
X13725500Y-28597270D01*
X13725500Y-26947270D01*
X14799500Y-26947270D01*
X14799500Y-27052729D01*
X14826791Y-27154582D01*
X14826792Y-27154585D01*
X14826793Y-27154587D01*
X14879520Y-27245913D01*
X14954087Y-27320480D01*
X15045413Y-27373207D01*
X15147270Y-27400499D01*
X15147271Y-27400500D01*
X15147273Y-27400500D01*
X15252729Y-27400500D01*
X15252729Y-27400499D01*
X15354587Y-27373207D01*
X15445913Y-27320480D01*
X15520480Y-27245913D01*
X15573207Y-27154587D01*
X15600499Y-27052729D01*
X15600500Y-27052729D01*
X15600500Y-26949056D01*
X15622174Y-26896730D01*
X17496731Y-25022174D01*
X17549057Y-25000500D01*
X17552729Y-25000500D01*
X17552729Y-25000499D01*
X17654587Y-24973207D01*
X17745913Y-24920480D01*
X17820480Y-24845913D01*
X17873207Y-24754587D01*
X17900499Y-24652729D01*
X17900500Y-24652729D01*
X17900500Y-24547271D01*
X17900499Y-24547270D01*
X17873208Y-24445417D01*
X17873207Y-24445413D01*
X17820480Y-24354087D01*
X17745913Y-24279520D01*
X17654591Y-24226795D01*
X17654582Y-24226791D01*
X17552729Y-24199500D01*
X17552727Y-24199500D01*
X17447273Y-24199500D01*
X17447271Y-24199500D01*
X17345417Y-24226791D01*
X17345408Y-24226795D01*
X17254086Y-24279520D01*
X17179520Y-24354086D01*
X17126795Y-24445408D01*
X17126791Y-24445417D01*
X17099500Y-24547270D01*
X17099500Y-24652727D01*
X17115674Y-24713095D01*
X17108280Y-24769247D01*
X17096521Y-24784572D01*
X15303268Y-26577826D01*
X15250942Y-26599500D01*
X15147271Y-26599500D01*
X15045417Y-26626791D01*
X15045408Y-26626795D01*
X14954086Y-26679520D01*
X14879520Y-26754086D01*
X14826795Y-26845408D01*
X14826791Y-26845417D01*
X14799500Y-26947270D01*
X13725500Y-26947270D01*
X13725500Y-19674057D01*
X13747174Y-19621731D01*
X14664323Y-18704582D01*
X15641170Y-17727736D01*
X15675500Y-17644855D01*
X15675500Y-17555146D01*
X15675500Y-17021545D01*
X15697174Y-16969219D01*
X15720984Y-16945409D01*
X15770480Y-16895913D01*
X15823207Y-16804587D01*
X15850499Y-16702729D01*
X15850500Y-16702729D01*
X15850500Y-16597271D01*
X15850499Y-16597270D01*
X15849466Y-16593416D01*
X15823207Y-16495413D01*
X15770480Y-16404087D01*
X15695913Y-16329520D01*
X15689529Y-16325834D01*
X15604591Y-16276795D01*
X15604582Y-16276791D01*
X15502729Y-16249500D01*
X15502727Y-16249500D01*
X15397273Y-16249500D01*
X15397271Y-16249500D01*
X15295417Y-16276791D01*
X15295408Y-16276795D01*
X15204086Y-16329520D01*
X15129520Y-16404086D01*
X15076795Y-16495408D01*
X15076791Y-16495417D01*
X15049500Y-16597270D01*
X15049500Y-16702729D01*
X15076791Y-16804582D01*
X15076795Y-16804591D01*
X15129520Y-16895913D01*
X15202826Y-16969219D01*
X15224500Y-17021545D01*
X15224500Y-17475942D01*
X15202826Y-17528268D01*
X15001826Y-17729268D01*
X14949500Y-17750942D01*
X14897174Y-17729268D01*
X14875500Y-17676942D01*
X14875500Y-17571545D01*
X14897174Y-17519219D01*
X14909799Y-17506594D01*
X14970480Y-17445913D01*
X15023207Y-17354587D01*
X15050499Y-17252729D01*
X15050500Y-17252729D01*
X15050500Y-17147271D01*
X15050499Y-17147270D01*
X15029389Y-17068487D01*
X15023207Y-17045413D01*
X14970480Y-16954087D01*
X14895913Y-16879520D01*
X14804591Y-16826795D01*
X14804582Y-16826791D01*
X14702729Y-16799500D01*
X14702727Y-16799500D01*
X14597273Y-16799500D01*
X14597271Y-16799500D01*
X14495417Y-16826791D01*
X14495408Y-16826795D01*
X14404086Y-16879520D01*
X14329520Y-16954086D01*
X14276795Y-17045408D01*
X14276791Y-17045417D01*
X14249500Y-17147270D01*
X14249500Y-17252729D01*
X14276791Y-17354582D01*
X14276795Y-17354591D01*
X14329520Y-17445913D01*
X14402826Y-17519219D01*
X14424500Y-17571545D01*
X14424500Y-17851678D01*
X14402826Y-17904004D01*
X13746769Y-18560061D01*
X13072265Y-19234565D01*
X13072264Y-19234566D01*
X13008830Y-19298000D01*
X13008830Y-19298001D01*
X12974499Y-19380881D01*
X11046515Y-19380881D01*
X11046515Y-17313745D01*
X11056430Y-17276744D01*
X11069220Y-17254591D01*
X11069219Y-17254591D01*
X11069222Y-17254588D01*
X11096515Y-17152728D01*
X11096515Y-17047274D01*
X11096515Y-17047272D01*
X11096514Y-17047271D01*
X11069223Y-16945418D01*
X11069222Y-16945414D01*
X11016495Y-16854088D01*
X10941928Y-16779521D01*
X10860347Y-16732420D01*
X10850606Y-16726796D01*
X10850597Y-16726792D01*
X10748744Y-16699501D01*
X10748742Y-16699501D01*
X10643288Y-16699501D01*
X10643286Y-16699501D01*
X10541432Y-16726792D01*
X10541423Y-16726796D01*
X10450101Y-16779521D01*
X10375535Y-16854087D01*
X10322810Y-16945409D01*
X10322806Y-16945418D01*
X10295515Y-17047271D01*
X8875500Y-17047271D01*
X8875500Y-15671545D01*
X8897174Y-15619219D01*
X8970480Y-15545913D01*
X9023207Y-15454587D01*
X9050499Y-15352729D01*
X9050500Y-15352729D01*
X9050500Y-15247271D01*
X9050499Y-15247270D01*
X9050135Y-15245913D01*
X9023207Y-15145413D01*
X8970480Y-15054087D01*
X8895913Y-14979520D01*
X8851860Y-14954086D01*
X8804591Y-14926795D01*
X8804582Y-14926791D01*
X8702729Y-14899500D01*
X8702727Y-14899500D01*
X8597273Y-14899500D01*
X8597271Y-14899500D01*
X8495417Y-14926791D01*
X8495406Y-14926796D01*
X8491973Y-14928778D01*
X8435819Y-14936163D01*
X8390890Y-14901679D01*
X8383505Y-14883846D01*
X8373207Y-14845413D01*
X8320480Y-14754087D01*
X8245913Y-14679520D01*
X8199506Y-14652727D01*
X8154591Y-14626795D01*
X8154582Y-14626791D01*
X8052729Y-14599500D01*
X8052727Y-14599500D01*
X7947273Y-14599500D01*
X7947271Y-14599500D01*
X7845417Y-14626791D01*
X7845408Y-14626795D01*
X7754086Y-14679520D01*
X7679520Y-14754086D01*
X7626795Y-14845408D01*
X7626791Y-14845417D01*
X7599500Y-14947270D01*
X5621633Y-14947270D01*
X5678806Y-14890097D01*
X6271729Y-14297174D01*
X6324055Y-14275500D01*
X19398820Y-14275500D01*
X19451146Y-14297174D01*
X19465591Y-14317599D01*
X19468530Y-14323752D01*
X19476793Y-14354587D01*
X19514299Y-14419549D01*
X19515542Y-14422151D01*
X19516901Y-14447772D01*
X19520249Y-14473205D01*
X19518379Y-14475641D01*
X19518542Y-14478709D01*
X19501387Y-14497785D01*
X19485771Y-14518138D01*
X19482234Y-14519085D01*
X19480672Y-14520823D01*
X19474535Y-14521148D01*
X19448771Y-14528052D01*
X19377328Y-14528052D01*
X19330926Y-14547273D01*
X19294447Y-14562382D01*
X19294446Y-14562384D01*
X19231013Y-14625817D01*
X19231012Y-14625818D01*
X18920668Y-14936163D01*
X18629005Y-15227826D01*
X18576679Y-15249500D01*
X17224500Y-15249500D01*
X17172174Y-15227826D01*
X17150500Y-15175500D01*
X17150500Y-15147271D01*
X17150499Y-15147270D01*
X17150002Y-15145417D01*
X17123207Y-15045413D01*
X17070480Y-14954087D01*
X16995913Y-14879520D01*
X16936838Y-14845413D01*
X16904591Y-14826795D01*
X16904582Y-14826791D01*
X16802729Y-14799500D01*
X16802727Y-14799500D01*
X16697273Y-14799500D01*
X16697271Y-14799500D01*
X16595417Y-14826791D01*
X16595408Y-14826795D01*
X16504086Y-14879520D01*
X16429520Y-14954086D01*
X16376795Y-15045408D01*
X16376791Y-15045417D01*
X16349500Y-15147270D01*
X16349500Y-15228991D01*
X16327826Y-15281317D01*
X16275500Y-15302991D01*
X16256350Y-15300470D01*
X16252729Y-15299500D01*
X16252727Y-15299500D01*
X16147273Y-15299500D01*
X16147271Y-15299500D01*
X16045417Y-15326791D01*
X16045408Y-15326795D01*
X15954086Y-15379520D01*
X15879520Y-15454086D01*
X15826795Y-15545408D01*
X15826791Y-15545417D01*
X15799500Y-15647270D01*
X15799500Y-15752729D01*
X15826791Y-15854582D01*
X15826795Y-15854591D01*
X15864835Y-15920478D01*
X15879520Y-15945913D01*
X15954087Y-16020480D01*
X16045413Y-16073207D01*
X16147270Y-16100499D01*
X16147271Y-16100500D01*
X16147273Y-16100500D01*
X16252729Y-16100500D01*
X16252729Y-16100499D01*
X16354587Y-16073207D01*
X16445913Y-16020480D01*
X16445915Y-16020478D01*
X16449762Y-16017527D01*
X16451130Y-16019311D01*
X16496545Y-16000500D01*
X18771525Y-16000500D01*
X18771533Y-16000501D01*
X18780145Y-16000501D01*
X18869854Y-16000501D01*
X18869855Y-16000501D01*
X18935747Y-15973207D01*
X18952736Y-15966170D01*
X19016170Y-15902736D01*
X19016170Y-15902735D01*
X19026575Y-15892330D01*
X19026576Y-15892327D01*
X19618178Y-15300727D01*
X19670504Y-15279053D01*
X19938034Y-15279053D01*
X19990360Y-15300727D01*
X20012034Y-15353053D01*
X19990360Y-15405379D01*
X14297695Y-21098043D01*
X14237637Y-21158101D01*
X14237634Y-21158105D01*
X14199500Y-21250170D01*
X14199500Y-21703455D01*
X14177826Y-21755781D01*
X14129520Y-21804086D01*
X14076795Y-21895408D01*
X14076791Y-21895417D01*
X14049500Y-21997270D01*
X14049500Y-22102729D01*
X14076791Y-22204582D01*
X14076792Y-22204585D01*
X14076793Y-22204587D01*
X14129520Y-22295913D01*
X14204087Y-22370480D01*
X14295413Y-22423207D01*
X14397270Y-22450499D01*
X14397271Y-22450500D01*
X14397273Y-22450500D01*
X14502729Y-22450500D01*
X14502729Y-22450499D01*
X14604587Y-22423207D01*
X14695913Y-22370480D01*
X14770480Y-22295913D01*
X14823207Y-22204587D01*
X14850499Y-22102729D01*
X14850500Y-22102729D01*
X14850500Y-21997271D01*
X14850499Y-21997270D01*
X14823208Y-21895417D01*
X14823207Y-21895413D01*
X14770480Y-21804087D01*
X14722174Y-21755781D01*
X14700500Y-21703455D01*
X14700500Y-21434411D01*
X14722173Y-21382086D01*
X17884257Y-18220001D01*
X27202156Y-18220001D01*
X27202157Y-18220002D01*
X27561212Y-18220002D01*
X27545000Y-18280506D01*
X27545000Y-18359498D01*
X27561212Y-18420002D01*
X27202156Y-18420002D01*
X27219977Y-18509593D01*
X27219979Y-18509600D01*
X27268978Y-18627892D01*
X27340111Y-18734352D01*
X27430649Y-18824890D01*
X27537109Y-18896023D01*
X27655401Y-18945022D01*
X27655408Y-18945024D01*
X27780982Y-18970002D01*
X28295000Y-18970002D01*
X28295000Y-18620002D01*
X28495000Y-18620002D01*
X28495000Y-18970002D01*
X29009018Y-18970002D01*
X29134591Y-18945024D01*
X29134598Y-18945022D01*
X29252890Y-18896023D01*
X29359350Y-18824890D01*
X29359352Y-18824889D01*
X29449887Y-18734354D01*
X29449888Y-18734352D01*
X29521021Y-18627892D01*
X29570020Y-18509600D01*
X29570022Y-18509593D01*
X29587843Y-18420002D01*
X29228788Y-18420002D01*
X29245000Y-18359498D01*
X29245000Y-18280506D01*
X29228788Y-18220002D01*
X29587843Y-18220002D01*
X29587843Y-18220001D01*
X29570022Y-18130409D01*
X29570020Y-18130403D01*
X29521021Y-18012111D01*
X29449888Y-17905651D01*
X29359350Y-17815113D01*
X29252890Y-17743980D01*
X29134598Y-17694981D01*
X29134591Y-17694979D01*
X29009018Y-17670002D01*
X28495000Y-17670002D01*
X28495000Y-18020002D01*
X28295000Y-18020002D01*
X28295000Y-17670002D01*
X27780982Y-17670002D01*
X27655408Y-17694979D01*
X27655401Y-17694981D01*
X27537109Y-17743980D01*
X27430649Y-17815113D01*
X27430648Y-17815115D01*
X27340113Y-17905650D01*
X27340111Y-17905651D01*
X27268978Y-18012111D01*
X27219979Y-18130403D01*
X27219977Y-18130410D01*
X27202156Y-18220001D01*
X17884257Y-18220001D01*
X20206808Y-15897450D01*
X20259133Y-15875777D01*
X20296133Y-15885691D01*
X20316503Y-15897451D01*
X20323966Y-15901760D01*
X20425823Y-15929052D01*
X20425824Y-15929053D01*
X20425826Y-15929053D01*
X20531282Y-15929053D01*
X20531282Y-15929052D01*
X20633140Y-15901760D01*
X20724466Y-15849033D01*
X20772772Y-15800727D01*
X20825098Y-15779053D01*
X21196132Y-15779053D01*
X21248458Y-15800727D01*
X22127826Y-16680094D01*
X22149500Y-16732420D01*
X22149500Y-16800737D01*
X22176791Y-16902590D01*
X22176795Y-16902599D01*
X22201517Y-16945418D01*
X22229520Y-16993921D01*
X22304087Y-17068488D01*
X22395413Y-17121215D01*
X22497270Y-17148507D01*
X22497271Y-17148508D01*
X22497273Y-17148508D01*
X22602729Y-17148508D01*
X22602729Y-17148507D01*
X22704587Y-17121215D01*
X22795913Y-17068488D01*
X22870480Y-16993921D01*
X22923207Y-16902595D01*
X22945120Y-16820814D01*
X28369500Y-16820814D01*
X28369500Y-16959185D01*
X28405310Y-17092831D01*
X28405312Y-17092836D01*
X28474495Y-17212665D01*
X28572335Y-17310505D01*
X28692164Y-17379688D01*
X28825814Y-17415499D01*
X28825815Y-17415500D01*
X28825817Y-17415500D01*
X28964185Y-17415500D01*
X28964185Y-17415499D01*
X29097836Y-17379688D01*
X29217665Y-17310505D01*
X29315505Y-17212665D01*
X29384688Y-17092836D01*
X29420499Y-16959185D01*
X29420500Y-16959185D01*
X29420500Y-16820815D01*
X29420499Y-16820814D01*
X29415119Y-16800737D01*
X29384688Y-16687164D01*
X29315505Y-16567335D01*
X29217665Y-16469495D01*
X29097836Y-16400312D01*
X29097831Y-16400310D01*
X28964185Y-16364500D01*
X28964183Y-16364500D01*
X28825817Y-16364500D01*
X28825815Y-16364500D01*
X28692168Y-16400310D01*
X28692163Y-16400312D01*
X28572334Y-16469495D01*
X28474495Y-16567334D01*
X28405312Y-16687163D01*
X28405310Y-16687168D01*
X28369500Y-16820814D01*
X22945120Y-16820814D01*
X22950500Y-16800735D01*
X22950500Y-16695281D01*
X22950500Y-16695279D01*
X22950499Y-16695278D01*
X22923208Y-16593425D01*
X22923207Y-16593421D01*
X22870480Y-16502095D01*
X22795913Y-16427528D01*
X22755310Y-16404086D01*
X22704591Y-16374803D01*
X22704582Y-16374799D01*
X22602729Y-16347508D01*
X22602727Y-16347508D01*
X22534412Y-16347508D01*
X22482086Y-16325834D01*
X21561632Y-15405379D01*
X21539958Y-15353053D01*
X21561632Y-15300727D01*
X21613958Y-15279053D01*
X26867236Y-15279053D01*
X26867244Y-15279054D01*
X26875856Y-15279054D01*
X26965565Y-15279054D01*
X26965566Y-15279054D01*
X27036914Y-15249500D01*
X27048447Y-15244723D01*
X27111881Y-15181289D01*
X27111881Y-15181287D01*
X27445995Y-14847174D01*
X27498321Y-14825500D01*
X28878455Y-14825500D01*
X28930781Y-14847174D01*
X29004087Y-14920480D01*
X29095413Y-14973207D01*
X29197270Y-15000499D01*
X29197271Y-15000500D01*
X29197273Y-15000500D01*
X29302729Y-15000500D01*
X29302729Y-15000499D01*
X29404587Y-14973207D01*
X29495913Y-14920480D01*
X29570480Y-14845913D01*
X29623207Y-14754587D01*
X29650499Y-14652729D01*
X29650500Y-14652729D01*
X29650500Y-14547271D01*
X29650499Y-14547270D01*
X29639542Y-14506379D01*
X29623207Y-14445413D01*
X29570480Y-14354087D01*
X29495913Y-14279520D01*
X29441620Y-14248174D01*
X29404591Y-14226795D01*
X29404582Y-14226791D01*
X29302729Y-14199500D01*
X29302727Y-14199500D01*
X29197273Y-14199500D01*
X29197271Y-14199500D01*
X29095417Y-14226791D01*
X29095408Y-14226795D01*
X29004086Y-14279520D01*
X28930781Y-14352826D01*
X28878455Y-14374500D01*
X28573057Y-14374500D01*
X28520731Y-14352826D01*
X28499057Y-14300500D01*
X28520731Y-14248174D01*
X29146730Y-13622174D01*
X29199056Y-13600500D01*
X29302729Y-13600500D01*
X29302729Y-13600499D01*
X29404587Y-13573207D01*
X29495913Y-13520480D01*
X29570480Y-13445913D01*
X29623207Y-13354587D01*
X29650499Y-13252729D01*
X29650500Y-13252729D01*
X29650500Y-13147271D01*
X29650499Y-13147270D01*
X29623208Y-13045417D01*
X29623207Y-13045413D01*
X29570480Y-12954087D01*
X29495913Y-12879520D01*
X29452612Y-12854520D01*
X29404591Y-12826795D01*
X29404582Y-12826791D01*
X29302729Y-12799500D01*
X29302727Y-12799500D01*
X29197273Y-12799500D01*
X29197271Y-12799500D01*
X29095417Y-12826791D01*
X29095408Y-12826795D01*
X29004086Y-12879520D01*
X28929520Y-12954086D01*
X28876795Y-13045408D01*
X28876791Y-13045417D01*
X28849500Y-13147270D01*
X28849500Y-13250942D01*
X28827826Y-13303268D01*
X28078269Y-14052826D01*
X28025943Y-14074500D01*
X27303475Y-14074500D01*
X27303467Y-14074499D01*
X27294855Y-14074499D01*
X27205146Y-14074499D01*
X27156594Y-14094608D01*
X27156595Y-14094609D01*
X27122267Y-14108828D01*
X27122265Y-14108829D01*
X27058829Y-14172265D01*
X26724716Y-14506379D01*
X26672390Y-14528053D01*
X20251228Y-14528053D01*
X20198902Y-14506379D01*
X20177228Y-14454053D01*
X20187142Y-14417053D01*
X20211710Y-14374500D01*
X20223207Y-14354587D01*
X20250499Y-14252729D01*
X20250500Y-14252729D01*
X20250500Y-14147271D01*
X20250499Y-14147270D01*
X20236388Y-14094608D01*
X20223207Y-14045413D01*
X20170480Y-13954087D01*
X20170479Y-13954086D01*
X20170478Y-13954084D01*
X20118138Y-13901745D01*
X20096463Y-13849420D01*
X20118137Y-13797094D01*
X20141203Y-13774028D01*
X20193930Y-13682702D01*
X20221222Y-13580844D01*
X20221223Y-13580844D01*
X20221223Y-13475386D01*
X20221222Y-13475385D01*
X20193931Y-13373532D01*
X20193930Y-13373528D01*
X20141203Y-13282202D01*
X20066636Y-13207635D01*
X20058307Y-13202826D01*
X19975314Y-13154910D01*
X19975305Y-13154906D01*
X19873452Y-13127615D01*
X19873450Y-13127615D01*
X19767996Y-13127615D01*
X19754505Y-13131229D01*
X19698353Y-13123833D01*
X19663878Y-13078902D01*
X19648207Y-13020413D01*
X19595480Y-12929087D01*
X19520913Y-12854520D01*
X19472892Y-12826795D01*
X19429591Y-12801795D01*
X19429582Y-12801791D01*
X19343359Y-12778687D01*
X19298426Y-12744208D01*
X19291034Y-12688056D01*
X19300499Y-12652729D01*
X19300500Y-12652729D01*
X19300500Y-12547271D01*
X19300499Y-12547270D01*
X19291450Y-12513500D01*
X19273207Y-12445413D01*
X19220480Y-12354087D01*
X19145913Y-12279520D01*
X19098372Y-12252072D01*
X19054591Y-12226795D01*
X19054582Y-12226791D01*
X18952729Y-12199500D01*
X18952727Y-12199500D01*
X18847273Y-12199500D01*
X18847271Y-12199500D01*
X18745417Y-12226791D01*
X18745408Y-12226795D01*
X18654086Y-12279520D01*
X18627326Y-12306281D01*
X18575000Y-12327955D01*
X18522674Y-12306281D01*
X18445913Y-12229520D01*
X18354591Y-12176795D01*
X18354582Y-12176791D01*
X18252729Y-12149500D01*
X18252727Y-12149500D01*
X18147273Y-12149500D01*
X18147271Y-12149500D01*
X18045417Y-12176791D01*
X18045408Y-12176795D01*
X17954086Y-12229520D01*
X17879520Y-12304086D01*
X17826795Y-12395408D01*
X17826791Y-12395417D01*
X17799500Y-12497270D01*
X17799500Y-12550500D01*
X17777826Y-12602826D01*
X17725500Y-12624500D01*
X17503275Y-12624500D01*
X17450949Y-12602826D01*
X17429275Y-12550500D01*
X17439189Y-12513500D01*
X17448037Y-12498174D01*
X17473207Y-12454579D01*
X17500499Y-12352721D01*
X17500500Y-12352721D01*
X17500500Y-12247263D01*
X17500499Y-12247262D01*
X17495014Y-12226793D01*
X17473207Y-12145405D01*
X17420480Y-12054079D01*
X17345913Y-11979512D01*
X17254591Y-11926787D01*
X17254582Y-11926783D01*
X17152729Y-11899492D01*
X17152727Y-11899492D01*
X17047273Y-11899492D01*
X17047271Y-11899492D01*
X16945417Y-11926783D01*
X16945408Y-11926787D01*
X16854086Y-11979512D01*
X16779520Y-12054078D01*
X16726795Y-12145400D01*
X16726791Y-12145409D01*
X16699500Y-12247262D01*
X16699500Y-12250500D01*
X16698875Y-12252007D01*
X16698867Y-12252072D01*
X16698849Y-12252069D01*
X16677826Y-12302826D01*
X16625500Y-12324500D01*
X7274057Y-12324500D01*
X7221731Y-12302826D01*
X6322174Y-11403269D01*
X6300500Y-11350943D01*
X6300500Y-11247271D01*
X6300499Y-11247270D01*
X6299463Y-11243405D01*
X6273207Y-11145413D01*
X6220480Y-11054087D01*
X6207207Y-11040814D01*
X28369501Y-11040814D01*
X28369501Y-11179185D01*
X28405311Y-11312831D01*
X28405313Y-11312836D01*
X28474496Y-11432665D01*
X28572336Y-11530505D01*
X28692165Y-11599688D01*
X28825815Y-11635499D01*
X28825816Y-11635500D01*
X28825818Y-11635500D01*
X28964186Y-11635500D01*
X28964186Y-11635499D01*
X29097837Y-11599688D01*
X29217666Y-11530505D01*
X29315506Y-11432665D01*
X29384689Y-11312836D01*
X29420500Y-11179185D01*
X29420501Y-11179185D01*
X29420501Y-11040815D01*
X29420500Y-11040814D01*
X29416128Y-11024499D01*
X29384689Y-10907164D01*
X29315506Y-10787335D01*
X29217666Y-10689495D01*
X29097837Y-10620312D01*
X29097832Y-10620310D01*
X28964186Y-10584500D01*
X28964184Y-10584500D01*
X28825818Y-10584500D01*
X28825816Y-10584500D01*
X28692169Y-10620310D01*
X28692164Y-10620312D01*
X28572335Y-10689495D01*
X28474496Y-10787334D01*
X28405313Y-10907163D01*
X28405311Y-10907168D01*
X28369501Y-11040814D01*
X6207207Y-11040814D01*
X6145913Y-10979520D01*
X6110075Y-10958829D01*
X6054591Y-10926795D01*
X6054582Y-10926791D01*
X5952729Y-10899500D01*
X5952727Y-10899500D01*
X5849057Y-10899500D01*
X5796731Y-10877826D01*
X5201578Y-10282673D01*
X5201578Y-10282672D01*
X5127738Y-10208832D01*
X5127736Y-10208830D01*
X5127732Y-10208828D01*
X5103458Y-10198773D01*
X5103458Y-10198772D01*
X5044855Y-10174499D01*
X4955145Y-10174499D01*
X4946533Y-10174499D01*
X4946525Y-10174500D01*
X1955145Y-10174500D01*
X1872266Y-10208828D01*
X1058829Y-11022265D01*
X1051146Y-11040814D01*
X1051145Y-11040817D01*
X1024499Y-11105145D01*
X500500Y-11105145D01*
X500500Y-5947270D01*
X5199500Y-5947270D01*
X5199500Y-6052729D01*
X5226791Y-6154582D01*
X5226792Y-6154585D01*
X5226793Y-6154587D01*
X5279520Y-6245913D01*
X5354087Y-6320480D01*
X5445413Y-6373207D01*
X5547270Y-6400499D01*
X5547271Y-6400500D01*
X5547273Y-6400500D01*
X5652729Y-6400500D01*
X5652729Y-6400499D01*
X5754587Y-6373207D01*
X5768623Y-6365103D01*
X5776746Y-6360414D01*
X5813745Y-6350500D01*
X10549166Y-6350500D01*
X10601492Y-6372174D01*
X13951018Y-9721700D01*
X13970170Y-9754872D01*
X13976792Y-9779584D01*
X13976793Y-9779588D01*
X13976795Y-9779591D01*
X14029520Y-9870913D01*
X14104087Y-9945480D01*
X14195413Y-9998207D01*
X14297270Y-10025499D01*
X14297271Y-10025500D01*
X14297273Y-10025500D01*
X14402729Y-10025500D01*
X14402729Y-10025499D01*
X14504587Y-9998207D01*
X14595913Y-9945480D01*
X14670480Y-9870913D01*
X14723207Y-9779587D01*
X14750499Y-9677729D01*
X14750500Y-9677729D01*
X14750500Y-9579999D01*
X27202154Y-9579999D01*
X27202155Y-9580000D01*
X27561210Y-9580000D01*
X27544998Y-9640504D01*
X27544998Y-9719496D01*
X27561210Y-9780000D01*
X27202154Y-9780000D01*
X27219975Y-9869591D01*
X27219977Y-9869598D01*
X27268976Y-9987890D01*
X27340109Y-10094350D01*
X27430647Y-10184888D01*
X27537107Y-10256021D01*
X27655399Y-10305020D01*
X27655406Y-10305022D01*
X27780980Y-10330000D01*
X28294998Y-10330000D01*
X28294998Y-9980000D01*
X28494998Y-9980000D01*
X28494998Y-10330000D01*
X29009016Y-10330000D01*
X29134589Y-10305022D01*
X29134596Y-10305020D01*
X29252888Y-10256021D01*
X29359348Y-10184888D01*
X29359350Y-10184887D01*
X29449885Y-10094352D01*
X29449886Y-10094350D01*
X29521019Y-9987890D01*
X29570018Y-9869598D01*
X29570020Y-9869591D01*
X29587841Y-9780000D01*
X29228786Y-9780000D01*
X29244998Y-9719496D01*
X29244998Y-9640504D01*
X29228786Y-9580000D01*
X29587841Y-9580000D01*
X29587841Y-9579999D01*
X29570020Y-9490408D01*
X29570018Y-9490401D01*
X29521019Y-9372109D01*
X29449886Y-9265649D01*
X29359348Y-9175111D01*
X29252888Y-9103978D01*
X29134596Y-9054979D01*
X29134589Y-9054977D01*
X29009016Y-9030000D01*
X28494998Y-9030000D01*
X28494998Y-9380000D01*
X28294998Y-9380000D01*
X28294998Y-9030000D01*
X27780980Y-9030000D01*
X27655406Y-9054977D01*
X27655399Y-9054979D01*
X27537107Y-9103978D01*
X27430647Y-9175111D01*
X27430646Y-9175113D01*
X27340111Y-9265648D01*
X27340109Y-9265649D01*
X27268976Y-9372109D01*
X27219977Y-9490401D01*
X27219975Y-9490408D01*
X27202154Y-9579999D01*
X14750500Y-9579999D01*
X14750500Y-9572271D01*
X14750499Y-9572270D01*
X14728564Y-9490408D01*
X14723207Y-9470413D01*
X14670480Y-9379087D01*
X14595913Y-9304520D01*
X14554498Y-9280609D01*
X14504588Y-9251793D01*
X14504584Y-9251792D01*
X14479872Y-9245170D01*
X14446700Y-9226018D01*
X10940212Y-5719530D01*
X10860289Y-5673386D01*
X10860284Y-5673384D01*
X10771146Y-5649500D01*
X10771144Y-5649500D01*
X5813745Y-5649500D01*
X5776746Y-5639586D01*
X5754591Y-5626795D01*
X5754582Y-5626791D01*
X5652729Y-5599500D01*
X5652727Y-5599500D01*
X5547273Y-5599500D01*
X5547271Y-5599500D01*
X5445417Y-5626791D01*
X5445408Y-5626795D01*
X5354086Y-5679520D01*
X5279520Y-5754086D01*
X5226795Y-5845408D01*
X5226791Y-5845417D01*
X5199500Y-5947270D01*
X500500Y-5947270D01*
X500500Y-3002236D01*
X500635Y-2997768D01*
X510902Y-2828031D01*
X518454Y-2703176D01*
X519528Y-2694328D01*
X572328Y-2406211D01*
X574458Y-2397568D01*
X661597Y-2117931D01*
X664754Y-2109604D01*
X784971Y-1842493D01*
X789115Y-1834599D01*
X940636Y-1583952D01*
X945712Y-1576599D01*
X1126343Y-1346039D01*
X1132254Y-1339367D01*
X1339367Y-1132254D01*
X1346039Y-1126343D01*
X1576599Y-945711D01*
X1583953Y-940636D01*
X1630926Y-912240D01*
X1834599Y-789115D01*
X1842493Y-784971D01*
X2109604Y-664754D01*
X2117931Y-661597D01*
X2397568Y-574458D01*
X2406211Y-572328D01*
X2694328Y-519528D01*
X2703176Y-518454D01*
X2997768Y-500634D01*
X3002236Y-500500D01*
X3065892Y-500500D01*
X30934108Y-500500D01*
X30997764Y-500500D01*
X31002231Y-500634D01*
G37*
%TD.AperFunction*%
%TD*%
M02*
