%TF.GenerationSoftware,KiCad,Pcbnew,8.99.0-3110-g1838b2656d*%
%TF.CreationDate,2024-11-19T22:26:19+01:00*%
%TF.ProjectId,dmm_sao,646d6d5f-7361-46f2-9e6b-696361645f70,1.1*%
%TF.SameCoordinates,PX4f27ac0PY3ef1480*%
%TF.FileFunction,Legend,Top*%
%TF.FilePolarity,Positive*%
%FSLAX46Y46*%
G04 Gerber Fmt 4.6, Leading zero omitted, Abs format (unit mm)*
G04 Created by KiCad (PCBNEW 8.99.0-3110-g1838b2656d) date 2024-11-19 22:26:19*
%MOMM*%
%LPD*%
G01*
G04 APERTURE LIST*
G04 Aperture macros list*
%AMRoundRect*
0 Rectangle with rounded corners*
0 $1 Rounding radius*
0 $2 $3 $4 $5 $6 $7 $8 $9 X,Y pos of 4 corners*
0 Add a 4 corners polygon primitive as box body*
4,1,4,$2,$3,$4,$5,$6,$7,$8,$9,$2,$3,0*
0 Add four circle primitives for the rounded corners*
1,1,$1+$1,$2,$3*
1,1,$1+$1,$4,$5*
1,1,$1+$1,$6,$7*
1,1,$1+$1,$8,$9*
0 Add four rect primitives between the rounded corners*
20,1,$1+$1,$2,$3,$4,$5,0*
20,1,$1+$1,$4,$5,$6,$7,0*
20,1,$1+$1,$6,$7,$8,$9,0*
20,1,$1+$1,$8,$9,$2,$3,0*%
%AMHorizOval*
0 Thick line with rounded ends*
0 $1 width*
0 $2 $3 position (X,Y) of the first rounded end (center of the circle)*
0 $4 $5 position (X,Y) of the second rounded end (center of the circle)*
0 Add line between two ends*
20,1,$1,$2,$3,$4,$5,0*
0 Add two circle primitives to create the rounded ends*
1,1,$1,$2,$3*
1,1,$1,$4,$5*%
%AMRotRect*
0 Rectangle, with rotation*
0 The origin of the aperture is its center*
0 $1 length*
0 $2 width*
0 $3 Rotation angle, in degrees counterclockwise*
0 Add horizontal line*
21,1,$1,$2,0,0,$3*%
G04 Aperture macros list end*
%ADD10C,0.280000*%
%ADD11C,0.400000*%
%ADD12C,0.120000*%
%ADD13C,0.500000*%
%ADD14C,0.127000*%
%ADD15C,0.650000*%
%ADD16R,1.150000X0.300000*%
%ADD17R,1.100000X0.300000*%
%ADD18O,2.100000X1.000000*%
%ADD19O,1.600000X1.000000*%
%ADD20RoundRect,0.200000X0.275000X-0.200000X0.275000X0.200000X-0.275000X0.200000X-0.275000X-0.200000X0*%
%ADD21RoundRect,0.225000X-0.017678X0.335876X-0.335876X0.017678X0.017678X-0.335876X0.335876X-0.017678X0*%
%ADD22RoundRect,0.225000X0.017678X-0.335876X0.335876X-0.017678X-0.017678X0.335876X-0.335876X0.017678X0*%
%ADD23RoundRect,0.225000X0.225000X0.250000X-0.225000X0.250000X-0.225000X-0.250000X0.225000X-0.250000X0*%
%ADD24RoundRect,0.225000X-0.250000X0.225000X-0.250000X-0.225000X0.250000X-0.225000X0.250000X0.225000X0*%
%ADD25RoundRect,0.150000X-0.587500X-0.150000X0.587500X-0.150000X0.587500X0.150000X-0.587500X0.150000X0*%
%ADD26R,1.000000X1.700000*%
%ADD27RoundRect,0.200000X0.200000X0.275000X-0.200000X0.275000X-0.200000X-0.275000X0.200000X-0.275000X0*%
%ADD28RoundRect,0.250000X0.650000X-0.325000X0.650000X0.325000X-0.650000X0.325000X-0.650000X-0.325000X0*%
%ADD29RoundRect,0.250000X-0.650000X0.325000X-0.650000X-0.325000X0.650000X-0.325000X0.650000X0.325000X0*%
%ADD30RoundRect,0.200000X-0.275000X0.200000X-0.275000X-0.200000X0.275000X-0.200000X0.275000X0.200000X0*%
%ADD31RoundRect,0.150000X0.150000X-0.512500X0.150000X0.512500X-0.150000X0.512500X-0.150000X-0.512500X0*%
%ADD32RoundRect,0.225000X0.335876X0.017678X0.017678X0.335876X-0.335876X-0.017678X-0.017678X-0.335876X0*%
%ADD33RoundRect,0.200000X-0.200000X-0.275000X0.200000X-0.275000X0.200000X0.275000X-0.200000X0.275000X0*%
%ADD34RoundRect,0.200000X-0.053033X0.335876X-0.335876X0.053033X0.053033X-0.335876X0.335876X-0.053033X0*%
%ADD35R,4.200000X2.000000*%
%ADD36RoundRect,0.250000X1.075000X-0.375000X1.075000X0.375000X-1.075000X0.375000X-1.075000X-0.375000X0*%
%ADD37C,2.082800*%
%ADD38RoundRect,0.150000X-0.150000X0.650000X-0.150000X-0.650000X0.150000X-0.650000X0.150000X0.650000X0*%
%ADD39C,1.300000*%
%ADD40C,1.100000*%
%ADD41R,1.400000X1.800000*%
%ADD42R,3.000000X1.800000*%
%ADD43O,1.727200X1.727200*%
%ADD44R,1.727200X1.727200*%
%ADD45C,1.727200*%
%ADD46RoundRect,0.225000X-0.335876X-0.017678X-0.017678X-0.335876X0.335876X0.017678X0.017678X0.335876X0*%
%ADD47RoundRect,0.225000X0.250000X-0.225000X0.250000X0.225000X-0.250000X0.225000X-0.250000X-0.225000X0*%
%ADD48RoundRect,0.150000X-0.150000X0.587500X-0.150000X-0.587500X0.150000X-0.587500X0.150000X0.587500X0*%
%ADD49HorizOval,0.200000X-0.238649X0.238649X0.238649X-0.238649X0*%
%ADD50HorizOval,0.200000X-0.238649X-0.238649X0.238649X0.238649X0*%
%ADD51RotRect,0.800000X0.800000X315.000000*%
%ADD52R,0.400000X2.540000*%
%ADD53RoundRect,0.150000X0.587500X0.150000X-0.587500X0.150000X-0.587500X-0.150000X0.587500X-0.150000X0*%
%ADD54RoundRect,0.225000X-0.225000X-0.250000X0.225000X-0.250000X0.225000X0.250000X-0.225000X0.250000X0*%
%ADD55RotRect,1.600000X1.300000X135.000000*%
G04 APERTURE END LIST*
D10*
G36*
X7511302Y-52374700D02*
G01*
X7583070Y-52396120D01*
X7645331Y-52430758D01*
X7693688Y-52473997D01*
X7730516Y-52526272D01*
X7755237Y-52586068D01*
X7769176Y-52650299D01*
X7773873Y-52717544D01*
X7773873Y-52768236D01*
X7771466Y-52822464D01*
X7765068Y-52863638D01*
X7753925Y-52900872D01*
X7738995Y-52931855D01*
X7698594Y-52981295D01*
X7638208Y-53025375D01*
X7681148Y-53051580D01*
X7715021Y-53084216D01*
X7740876Y-53123854D01*
X7758106Y-53168478D01*
X7769610Y-53226488D01*
X7773873Y-53301064D01*
X7773873Y-53379882D01*
X7767454Y-53473008D01*
X7749622Y-53549464D01*
X7721877Y-53612186D01*
X7684798Y-53663521D01*
X7637413Y-53704150D01*
X7576477Y-53734756D01*
X7498796Y-53754703D01*
X7400218Y-53762000D01*
X7128290Y-53762000D01*
X7128290Y-53561879D01*
X7328240Y-53561879D01*
X7414750Y-53561879D01*
X7471974Y-53556881D01*
X7510152Y-53544098D01*
X7540582Y-53522590D01*
X7562298Y-53494602D01*
X7576296Y-53460883D01*
X7583925Y-53419461D01*
X7587858Y-53324487D01*
X7581959Y-53231565D01*
X7572813Y-53194136D01*
X7558365Y-53164374D01*
X7535361Y-53140455D01*
X7505194Y-53123769D01*
X7468934Y-53114531D01*
X7416717Y-53110946D01*
X7328240Y-53110946D01*
X7328240Y-53561879D01*
X7128290Y-53561879D01*
X7128290Y-52935872D01*
X7328240Y-52935872D01*
X7418683Y-52935872D01*
X7483443Y-52929154D01*
X7526199Y-52911844D01*
X7553407Y-52886035D01*
X7571345Y-52851021D01*
X7583357Y-52803665D01*
X7587858Y-52740454D01*
X7582865Y-52678868D01*
X7569538Y-52633202D01*
X7549475Y-52599745D01*
X7520295Y-52575502D01*
X7476034Y-52559190D01*
X7410818Y-52552900D01*
X7328240Y-52552900D01*
X7328240Y-52935872D01*
X7128290Y-52935872D01*
X7128290Y-52366884D01*
X7419794Y-52366884D01*
X7511302Y-52374700D01*
G37*
G36*
X8347090Y-52358125D02*
G01*
X8407488Y-52374407D01*
X8464571Y-52400840D01*
X8516310Y-52437153D01*
X8558458Y-52484950D01*
X8592734Y-52545035D01*
X8614472Y-52613056D01*
X8622140Y-52694035D01*
X8622140Y-53431685D01*
X8614333Y-53515791D01*
X8592734Y-53582652D01*
X8558481Y-53640715D01*
X8516310Y-53686602D01*
X8464443Y-53724487D01*
X8407488Y-53751399D01*
X8347094Y-53767617D01*
X8286954Y-53772942D01*
X8226740Y-53767615D01*
X8166334Y-53751399D01*
X8109721Y-53724399D01*
X8059478Y-53686602D01*
X8015781Y-53640573D01*
X7981089Y-53582652D01*
X7959489Y-53515791D01*
X7951682Y-53431685D01*
X7951682Y-52694035D01*
X8151631Y-52694035D01*
X8151631Y-53431685D01*
X8156678Y-53478280D01*
X8170370Y-53512917D01*
X8191809Y-53538542D01*
X8235443Y-53564164D01*
X8286954Y-53572821D01*
X8338391Y-53564168D01*
X8382013Y-53538542D01*
X8403452Y-53512917D01*
X8417144Y-53478280D01*
X8422191Y-53431685D01*
X8422191Y-52694035D01*
X8417142Y-52647443D01*
X8403449Y-52612838D01*
X8382013Y-52587265D01*
X8338385Y-52561573D01*
X8286954Y-52552900D01*
X8235449Y-52561576D01*
X8191809Y-52587265D01*
X8170373Y-52612838D01*
X8156680Y-52647443D01*
X8151631Y-52694035D01*
X7951682Y-52694035D01*
X7959350Y-52613056D01*
X7981089Y-52545035D01*
X8015807Y-52485092D01*
X8059478Y-52437153D01*
X8109590Y-52400930D01*
X8166334Y-52374407D01*
X8226743Y-52358127D01*
X8286954Y-52352779D01*
X8347090Y-52358125D01*
G37*
G36*
X9181424Y-52358125D02*
G01*
X9241821Y-52374407D01*
X9298904Y-52400840D01*
X9350644Y-52437153D01*
X9392792Y-52484950D01*
X9427067Y-52545035D01*
X9448806Y-52613056D01*
X9456474Y-52694035D01*
X9456474Y-53431685D01*
X9448667Y-53515791D01*
X9427067Y-53582652D01*
X9392814Y-53640715D01*
X9350644Y-53686602D01*
X9298777Y-53724487D01*
X9241821Y-53751399D01*
X9181427Y-53767617D01*
X9121287Y-53772942D01*
X9061073Y-53767615D01*
X9000668Y-53751399D01*
X8944055Y-53724399D01*
X8893812Y-53686602D01*
X8850114Y-53640573D01*
X8815422Y-53582652D01*
X8793822Y-53515791D01*
X8786015Y-53431685D01*
X8786015Y-52694035D01*
X8985965Y-52694035D01*
X8985965Y-53431685D01*
X8991011Y-53478280D01*
X9004704Y-53512917D01*
X9026143Y-53538542D01*
X9069776Y-53564164D01*
X9121287Y-53572821D01*
X9172725Y-53564168D01*
X9216347Y-53538542D01*
X9237786Y-53512917D01*
X9251478Y-53478280D01*
X9256525Y-53431685D01*
X9256525Y-52694035D01*
X9251476Y-52647443D01*
X9237782Y-52612838D01*
X9216347Y-52587265D01*
X9172718Y-52561573D01*
X9121287Y-52552900D01*
X9069783Y-52561576D01*
X9026143Y-52587265D01*
X9004707Y-52612838D01*
X8991013Y-52647443D01*
X8985965Y-52694035D01*
X8786015Y-52694035D01*
X8793684Y-52613056D01*
X8815422Y-52545035D01*
X8850141Y-52485092D01*
X8893812Y-52437153D01*
X8943923Y-52400930D01*
X9000668Y-52374407D01*
X9061077Y-52358127D01*
X9121287Y-52352779D01*
X9181424Y-52358125D01*
G37*
G36*
X9741823Y-53762000D02*
G01*
X9741823Y-52552900D01*
X9509560Y-52552900D01*
X9509560Y-52366884D01*
X10171556Y-52366884D01*
X10171556Y-52552900D01*
X9941772Y-52552900D01*
X9941772Y-53762000D01*
X9741823Y-53762000D01*
G37*
G36*
X7545897Y-61275809D02*
G01*
X7622503Y-61300506D01*
X7683598Y-61339373D01*
X7731972Y-61392949D01*
X7768660Y-61463823D01*
X7792788Y-61556320D01*
X7801689Y-61676101D01*
X7797027Y-61757791D01*
X7783942Y-61827038D01*
X7763477Y-61885710D01*
X7732400Y-61938375D01*
X7688312Y-61984560D01*
X7629180Y-62024794D01*
X7844774Y-62662000D01*
X7633113Y-62662000D01*
X7447696Y-62065656D01*
X7328701Y-62065656D01*
X7328701Y-62662000D01*
X7128751Y-62662000D01*
X7128751Y-61890583D01*
X7328701Y-61890583D01*
X7441797Y-61890583D01*
X7491413Y-61886462D01*
X7525658Y-61875794D01*
X7553686Y-61857599D01*
X7574470Y-61833393D01*
X7587305Y-61803677D01*
X7595927Y-61765347D01*
X7601740Y-61671741D01*
X7595927Y-61578135D01*
X7586915Y-61539654D01*
X7572504Y-61508038D01*
X7543233Y-61479191D01*
X7498475Y-61460186D01*
X7432052Y-61452900D01*
X7328701Y-61452900D01*
X7328701Y-61890583D01*
X7128751Y-61890583D01*
X7128751Y-61266884D01*
X7449576Y-61266884D01*
X7545897Y-61275809D01*
G37*
G36*
X7963085Y-62662000D02*
G01*
X7963085Y-61266884D01*
X8559428Y-61266884D01*
X8559428Y-61452900D01*
X8163034Y-61452900D01*
X8163034Y-61863228D01*
X8507453Y-61863228D01*
X8507453Y-62049243D01*
X8163034Y-62049243D01*
X8163034Y-62461879D01*
X8559428Y-62461879D01*
X8559428Y-62662000D01*
X7963085Y-62662000D01*
G37*
G36*
X9336572Y-61666698D02*
G01*
X9136623Y-61666698D01*
X9136623Y-61621562D01*
X9128253Y-61556518D01*
X9104309Y-61502908D01*
X9079025Y-61475927D01*
X9043950Y-61459086D01*
X8995658Y-61452900D01*
X8957165Y-61457159D01*
X8929151Y-61468629D01*
X8905991Y-61486375D01*
X8888032Y-61507781D01*
X8874946Y-61534705D01*
X8866490Y-61565654D01*
X8860592Y-61633273D01*
X8863498Y-61702003D01*
X8878287Y-61751071D01*
X8892454Y-61770901D01*
X8912481Y-61788343D01*
X8974201Y-61819630D01*
X9126963Y-61880496D01*
X9189184Y-61909310D01*
X9234674Y-61940335D01*
X9271639Y-61977583D01*
X9299301Y-62019751D01*
X9317140Y-62069013D01*
X9328708Y-62126692D01*
X9336572Y-62262956D01*
X9332004Y-62349405D01*
X9318877Y-62426830D01*
X9295281Y-62497972D01*
X9262029Y-62555229D01*
X9214849Y-62603872D01*
X9153976Y-62641569D01*
X9082698Y-62664553D01*
X8991127Y-62672942D01*
X8920426Y-62666467D01*
X8855719Y-62647467D01*
X8796969Y-62616760D01*
X8747752Y-62576771D01*
X8707455Y-62528193D01*
X8676201Y-62471881D01*
X8656449Y-62409954D01*
X8649700Y-62341431D01*
X8649700Y-62266888D01*
X8849650Y-62266888D01*
X8849650Y-62329719D01*
X8857749Y-62381865D01*
X8882048Y-62428711D01*
X8906940Y-62452180D01*
X8942089Y-62467217D01*
X8991127Y-62472821D01*
X9039103Y-62468674D01*
X9070799Y-62458118D01*
X9096117Y-62440196D01*
X9114995Y-62415974D01*
X9127295Y-62386558D01*
X9133631Y-62350236D01*
X9136623Y-62264922D01*
X9132690Y-62174735D01*
X9126430Y-62141479D01*
X9117047Y-62117802D01*
X9101168Y-62098288D01*
X9080801Y-62082582D01*
X9021047Y-62053090D01*
X8878116Y-61994191D01*
X8796816Y-61952177D01*
X8740753Y-61905439D01*
X8704667Y-61853995D01*
X8681175Y-61794203D01*
X8666067Y-61722098D01*
X8660642Y-61635239D01*
X8666106Y-61558253D01*
X8682185Y-61486239D01*
X8709523Y-61419731D01*
X8746811Y-61364679D01*
X8793096Y-61319166D01*
X8851616Y-61283212D01*
X8919282Y-61260822D01*
X9003437Y-61252779D01*
X9075520Y-61259826D01*
X9139615Y-61280306D01*
X9197596Y-61312433D01*
X9246386Y-61352882D01*
X9297183Y-61419874D01*
X9326681Y-61491058D01*
X9336572Y-61568561D01*
X9336572Y-61666698D01*
G37*
G36*
X9482666Y-62662000D02*
G01*
X9482666Y-61266884D01*
X10079009Y-61266884D01*
X10079009Y-61452900D01*
X9682615Y-61452900D01*
X9682615Y-61863228D01*
X10027034Y-61863228D01*
X10027034Y-62049243D01*
X9682615Y-62049243D01*
X9682615Y-62461879D01*
X10079009Y-62461879D01*
X10079009Y-62662000D01*
X9482666Y-62662000D01*
G37*
G36*
X10341363Y-62662000D02*
G01*
X10341363Y-61452900D01*
X10109100Y-61452900D01*
X10109100Y-61266884D01*
X10771096Y-61266884D01*
X10771096Y-61452900D01*
X10541312Y-61452900D01*
X10541312Y-62662000D01*
X10341363Y-62662000D01*
G37*
D11*
G36*
X12980027Y-64978143D02*
G01*
X13082554Y-65008743D01*
X13171497Y-65058226D01*
X13240579Y-65119996D01*
X13293191Y-65194674D01*
X13328506Y-65280097D01*
X13348419Y-65371856D01*
X13355129Y-65467920D01*
X13355129Y-65540338D01*
X13351690Y-65617807D01*
X13342550Y-65676625D01*
X13326632Y-65729817D01*
X13305303Y-65774078D01*
X13247588Y-65844708D01*
X13161322Y-65907679D01*
X13222665Y-65945114D01*
X13271054Y-65991738D01*
X13307990Y-66048363D01*
X13332604Y-66112112D01*
X13349039Y-66194983D01*
X13355129Y-66301521D01*
X13355129Y-66414117D01*
X13345959Y-66547155D01*
X13320485Y-66656378D01*
X13280849Y-66745980D01*
X13227878Y-66819316D01*
X13160186Y-66877358D01*
X13073134Y-66921080D01*
X12962161Y-66949577D01*
X12821336Y-66960000D01*
X12432868Y-66960000D01*
X12432868Y-66674113D01*
X12718510Y-66674113D01*
X12842096Y-66674113D01*
X12923844Y-66666973D01*
X12978384Y-66648712D01*
X13021856Y-66617986D01*
X13052878Y-66578004D01*
X13072876Y-66529833D01*
X13083775Y-66470659D01*
X13089392Y-66334982D01*
X13080966Y-66202236D01*
X13067901Y-66148767D01*
X13047260Y-66106249D01*
X13014397Y-66072079D01*
X12971301Y-66048241D01*
X12919501Y-66035045D01*
X12844905Y-66029923D01*
X12718510Y-66029923D01*
X12718510Y-66674113D01*
X12432868Y-66674113D01*
X12432868Y-65779818D01*
X12718510Y-65779818D01*
X12847714Y-65779818D01*
X12940229Y-65770220D01*
X13001309Y-65745492D01*
X13040177Y-65708621D01*
X13065803Y-65658601D01*
X13082963Y-65590951D01*
X13089392Y-65500648D01*
X13082261Y-65412669D01*
X13063221Y-65347432D01*
X13034560Y-65299637D01*
X12992875Y-65265003D01*
X12929645Y-65241700D01*
X12836479Y-65232714D01*
X12718510Y-65232714D01*
X12718510Y-65779818D01*
X12432868Y-65779818D01*
X12432868Y-64966978D01*
X12849302Y-64966978D01*
X12980027Y-64978143D01*
G37*
G36*
X13624773Y-66964518D02*
G01*
X13624773Y-64966978D01*
X13910415Y-64966978D01*
X13910415Y-66678632D01*
X14476692Y-66678632D01*
X14476692Y-66964518D01*
X13624773Y-66964518D01*
G37*
G36*
X15661514Y-66963907D02*
G01*
X15375872Y-66963907D01*
X15291852Y-66530132D01*
X14902651Y-66530132D01*
X14818754Y-66963907D01*
X14533112Y-66963907D01*
X14689039Y-66264396D01*
X14953087Y-66264396D01*
X15238729Y-66264396D01*
X15098656Y-65541437D01*
X15093039Y-65541437D01*
X14953087Y-66264396D01*
X14689039Y-66264396D01*
X14978244Y-64966978D01*
X15216259Y-64966978D01*
X15661514Y-66963907D01*
G37*
G36*
X16706140Y-66389937D02*
G01*
X16706140Y-66513279D01*
X16697346Y-66603597D01*
X16671214Y-66688401D01*
X16629611Y-66766576D01*
X16574860Y-66835436D01*
X16508222Y-66893145D01*
X16430757Y-66937773D01*
X16345697Y-66966062D01*
X16253436Y-66975631D01*
X16172333Y-66970107D01*
X16088450Y-66953161D01*
X16008927Y-66922330D01*
X15937630Y-66874637D01*
X15877322Y-66811673D01*
X15827233Y-66730411D01*
X15795678Y-66634744D01*
X15783879Y-66504853D01*
X15783879Y-65406371D01*
X15792411Y-65310919D01*
X15817341Y-65224288D01*
X15858147Y-65145440D01*
X15912473Y-65078597D01*
X15979344Y-65023918D01*
X16059141Y-64981877D01*
X16147681Y-64955835D01*
X16247819Y-64946828D01*
X16346426Y-64955558D01*
X16432322Y-64980629D01*
X16507898Y-65021391D01*
X16574860Y-65078597D01*
X16629280Y-65148334D01*
X16671214Y-65231249D01*
X16697220Y-65322358D01*
X16706140Y-65423224D01*
X16706140Y-65535331D01*
X16420498Y-65535331D01*
X16420498Y-65439954D01*
X16408425Y-65360918D01*
X16373115Y-65294385D01*
X16337767Y-65260085D01*
X16295795Y-65239767D01*
X16245010Y-65232714D01*
X16178139Y-65241200D01*
X16133350Y-65263565D01*
X16104326Y-65298538D01*
X16078925Y-65369777D01*
X16069521Y-65465233D01*
X16069521Y-66485314D01*
X16079448Y-66567052D01*
X16107135Y-66630882D01*
X16136923Y-66662235D01*
X16180265Y-66682248D01*
X16242201Y-66689745D01*
X16302041Y-66679975D01*
X16362002Y-66647735D01*
X16384232Y-66622019D01*
X16403646Y-66586064D01*
X16415927Y-66544009D01*
X16420498Y-66488122D01*
X16420498Y-66389937D01*
X16706140Y-66389937D01*
G37*
G36*
X16938660Y-66960000D02*
G01*
X16938660Y-64966978D01*
X17224302Y-64966978D01*
X17224302Y-65876660D01*
X17229919Y-65876660D01*
X17647086Y-64966978D01*
X17932728Y-64966978D01*
X17543527Y-65764797D01*
X18005512Y-66960000D01*
X17703140Y-66960000D01*
X17378297Y-66075474D01*
X17224302Y-66363803D01*
X17224302Y-66960000D01*
X16938660Y-66960000D01*
G37*
G36*
X25028790Y-64979727D02*
G01*
X25138227Y-65015008D01*
X25225505Y-65070533D01*
X25294612Y-65147070D01*
X25347023Y-65248319D01*
X25381492Y-65380457D01*
X25394207Y-65551573D01*
X25387547Y-65668274D01*
X25368855Y-65767198D01*
X25339619Y-65851015D01*
X25295223Y-65926251D01*
X25232241Y-65992229D01*
X25147766Y-66049706D01*
X25455757Y-66960000D01*
X25153384Y-66960000D01*
X24888503Y-66108080D01*
X24718510Y-66108080D01*
X24718510Y-66960000D01*
X24432868Y-66960000D01*
X24432868Y-65857976D01*
X24718510Y-65857976D01*
X24880076Y-65857976D01*
X24950956Y-65852089D01*
X24999877Y-65836849D01*
X25039917Y-65810856D01*
X25069609Y-65776277D01*
X25087945Y-65733825D01*
X25100261Y-65679068D01*
X25108565Y-65545345D01*
X25100261Y-65411622D01*
X25087388Y-65356648D01*
X25066800Y-65311482D01*
X25024984Y-65270274D01*
X24961045Y-65243122D01*
X24866154Y-65232714D01*
X24718510Y-65232714D01*
X24718510Y-65857976D01*
X24432868Y-65857976D01*
X24432868Y-64966978D01*
X24891189Y-64966978D01*
X25028790Y-64979727D01*
G37*
G36*
X25624773Y-66960000D02*
G01*
X25624773Y-64966978D01*
X26476692Y-64966978D01*
X26476692Y-65232714D01*
X25910415Y-65232714D01*
X25910415Y-65818897D01*
X26402442Y-65818897D01*
X26402442Y-66084633D01*
X25910415Y-66084633D01*
X25910415Y-66674113D01*
X26476692Y-66674113D01*
X26476692Y-66960000D01*
X25624773Y-66960000D01*
G37*
G36*
X27205072Y-64976537D02*
G01*
X27305525Y-65003162D01*
X27387913Y-65044902D01*
X27455373Y-65101434D01*
X27508807Y-65171838D01*
X27548381Y-65256669D01*
X27573600Y-65358844D01*
X27582623Y-65482086D01*
X27582623Y-66414239D01*
X27572608Y-66555489D01*
X27545146Y-66667878D01*
X27502959Y-66756936D01*
X27447069Y-66827009D01*
X27375771Y-66882806D01*
X27289255Y-66924148D01*
X27184390Y-66950537D01*
X27057135Y-66960000D01*
X26660362Y-66960000D01*
X26660362Y-66694263D01*
X26946004Y-66694263D01*
X27076919Y-66694263D01*
X27154361Y-66686378D01*
X27208967Y-66665528D01*
X27246789Y-66633813D01*
X27272772Y-66590461D01*
X27290318Y-66529183D01*
X27296981Y-66444159D01*
X27296981Y-65480010D01*
X27283898Y-65370672D01*
X27249598Y-65297316D01*
X27212925Y-65263558D01*
X27157757Y-65241247D01*
X27076919Y-65232714D01*
X26946004Y-65232714D01*
X26946004Y-66694263D01*
X26660362Y-66694263D01*
X26660362Y-64966978D01*
X27082414Y-64966978D01*
X27205072Y-64976537D01*
G37*
D10*
G36*
X7155600Y-28762000D02*
G01*
X7155600Y-27366884D01*
X7751944Y-27366884D01*
X7751944Y-27552900D01*
X7355550Y-27552900D01*
X7355550Y-27979641D01*
X7699969Y-27979641D01*
X7699969Y-28165656D01*
X7355550Y-28165656D01*
X7355550Y-28762000D01*
X7155600Y-28762000D01*
G37*
G36*
X7875042Y-28762000D02*
G01*
X7875042Y-27366884D01*
X8065246Y-27366884D01*
X8372907Y-28207458D01*
X8372907Y-27366884D01*
X8572856Y-27366884D01*
X8572856Y-28762000D01*
X8386499Y-28762000D01*
X8074991Y-27923392D01*
X8074991Y-28762000D01*
X7875042Y-28762000D01*
G37*
D12*
%TO.C,J3*%
X29650000Y-18580001D02*
X31570001Y-18580000D01*
X31570000Y-9419999D02*
X29649998Y-9420000D01*
X33579999Y-9420000D02*
X35285000Y-9420000D01*
X35285000Y-9420000D02*
X35285000Y-18580000D01*
X35285000Y-18580000D02*
X33580000Y-18580000D01*
%TO.C,R7*%
X14677500Y-9037258D02*
X14677500Y-8562742D01*
X15722500Y-9037258D02*
X15722500Y-8562742D01*
%TO.C,C14*%
X19138782Y-23139970D02*
X18939970Y-23338782D01*
X19860030Y-23861218D02*
X19661218Y-24060030D01*
%TO.C,C22*%
X12639970Y-24938782D02*
X12838782Y-24739970D01*
X13361218Y-25660030D02*
X13560030Y-25461218D01*
%TO.C,C18*%
X20912978Y-12365774D02*
X21111789Y-12166962D01*
X21634227Y-13087022D02*
X21833038Y-12888210D01*
%TO.C,C13*%
X4140581Y-18890001D02*
X3859419Y-18890000D01*
X4140581Y-19910000D02*
X3859419Y-19909999D01*
%TO.C,R1*%
X19077500Y-48337258D02*
X19077500Y-47862742D01*
X20122500Y-48337258D02*
X20122500Y-47862742D01*
%TO.C,C7*%
X10640001Y-50859419D02*
X10640001Y-51140581D01*
X11659999Y-50859419D02*
X11659999Y-51140581D01*
%TO.C,Q2*%
X12400000Y-36590003D02*
X11750000Y-36590003D01*
X12400000Y-36590003D02*
X13049999Y-36590003D01*
X12400000Y-39710003D02*
X11750001Y-39710003D01*
X12400000Y-39710003D02*
X13050000Y-39710003D01*
X11477499Y-36310004D02*
X11237500Y-36640003D01*
X10997500Y-36310003D01*
X11477499Y-36310004D01*
G36*
X11477499Y-36310004D02*
G01*
X11237500Y-36640003D01*
X10997500Y-36310003D01*
X11477499Y-36310004D01*
G37*
%TO.C,SW1*%
X1250000Y-29250000D02*
X1250000Y-26750000D01*
X1699999Y-26300000D02*
X1250000Y-26750000D01*
X1700001Y-29700000D02*
X1250000Y-29250000D01*
X3000000Y-30750000D02*
X4999999Y-30749999D01*
X3000001Y-25250001D02*
X5000000Y-25250000D01*
X6299999Y-26300000D02*
X6750000Y-26750000D01*
X6300001Y-29700000D02*
X6750000Y-29250000D01*
X6750000Y-29250000D02*
X6750000Y-26750000D01*
%TO.C,R9*%
X12187258Y-33377500D02*
X11712742Y-33377500D01*
X12187258Y-34422500D02*
X11712742Y-34422500D01*
%TO.C,C8*%
X1290000Y-46711252D02*
X1290000Y-45288748D01*
X3110000Y-46711252D02*
X3110000Y-45288748D01*
%TO.C,C10*%
X8190000Y-49388748D02*
X8190000Y-50811252D01*
X10010000Y-49388748D02*
X10010000Y-50811252D01*
%TO.C,R3*%
X15677500Y-47862742D02*
X15677500Y-48337258D01*
X16722500Y-47862742D02*
X16722500Y-48337258D01*
%TO.C,U1*%
X10540000Y-47400000D02*
X10540000Y-46600000D01*
X10540000Y-47400000D02*
X10540000Y-48200000D01*
X13660000Y-47400000D02*
X13660000Y-46600000D01*
X13660000Y-47400000D02*
X13660000Y-48200000D01*
X10590000Y-48700000D02*
X10260000Y-48940000D01*
X10260000Y-48460000D01*
X10590000Y-48700000D01*
G36*
X10590000Y-48700000D02*
G01*
X10260000Y-48940000D01*
X10260000Y-48460000D01*
X10590000Y-48700000D01*
G37*
%TO.C,C17*%
X10638782Y-16260030D02*
X10439970Y-16061218D01*
X11360030Y-15538782D02*
X11161218Y-15339970D01*
%TO.C,R17*%
X3977500Y-6562742D02*
X3977500Y-7037258D01*
X5022500Y-6562742D02*
X5022500Y-7037258D01*
%TO.C,R10*%
X11712742Y-35027500D02*
X12187258Y-35027500D01*
X11712742Y-36072500D02*
X12187258Y-36072500D01*
%TO.C,R6*%
X13077500Y-9037258D02*
X13077500Y-8562742D01*
X14122500Y-9037258D02*
X14122500Y-8562742D01*
%TO.C,R15*%
X21798303Y-13562770D02*
X21462770Y-13898303D01*
X22537230Y-14301697D02*
X22201697Y-14637230D01*
%TO.C,LS1*%
X650000Y-33400000D02*
X2850000Y-33400000D01*
X650000Y-42600000D02*
X650000Y-33400000D01*
X650000Y-42600000D02*
X2850000Y-42600000D01*
X2850000Y-42600000D02*
X2850000Y-43000000D01*
X7650000Y-33400000D02*
X9850000Y-33400000D01*
X7650000Y-42600000D02*
X9850000Y-42600000D01*
X9850000Y-33400000D02*
X9850000Y-42600000D01*
%TO.C,C21*%
X7638782Y-19439970D02*
X7439970Y-19638782D01*
X8360030Y-20161218D02*
X8161218Y-20360030D01*
%TO.C,C20*%
X23639970Y-15938782D02*
X23838781Y-15739970D01*
X24361219Y-16660030D02*
X24560030Y-16461218D01*
%TO.C,L1*%
X3840000Y-46602064D02*
X3840000Y-45397935D01*
X6560000Y-46602065D02*
X6560000Y-45397936D01*
%TO.C,R14*%
X22848303Y-14612770D02*
X22512770Y-14948303D01*
X23587230Y-15351697D02*
X23251697Y-15687230D01*
%TO.C,R2*%
X14077500Y-48337258D02*
X14077500Y-47862742D01*
X15122500Y-48337258D02*
X15122500Y-47862742D01*
%TO.C,R16*%
X7377500Y-59437258D02*
X7377500Y-58962742D01*
X8422500Y-59437258D02*
X8422500Y-58962742D01*
%TO.C,R4*%
X17277500Y-47862742D02*
X17277500Y-48337258D01*
X18322500Y-47862742D02*
X18322500Y-48337258D01*
%TO.C,R5*%
X16277500Y-9037258D02*
X16277500Y-8562742D01*
X17322500Y-9037258D02*
X17322500Y-8562742D01*
%TO.C,R19*%
X27977500Y-50662742D02*
X27977500Y-51137258D01*
X29022500Y-50662742D02*
X29022500Y-51137258D01*
%TO.C,J2*%
X11950000Y-65500000D02*
G75*
G02*
X9050000Y-65500000I-1450000J0D01*
G01*
X9050000Y-65500000D02*
G75*
G02*
X11950000Y-65500000I1450000J0D01*
G01*
%TO.C,U3*%
X1275000Y-10775000D02*
X1534996Y-10775001D01*
X1275000Y-13500000D02*
X1275000Y-10775000D01*
X1275000Y-13500000D02*
X1275000Y-16225000D01*
X1275000Y-16225000D02*
X1535000Y-16225000D01*
X6725000Y-10775000D02*
X6465000Y-10775000D01*
X6725000Y-13500000D02*
X6725000Y-10775000D01*
X6725000Y-13500000D02*
X6725000Y-16225000D01*
X6725000Y-16225000D02*
X6465004Y-16224999D01*
X6795000Y-10232500D02*
X6464999Y-9992499D01*
X6795000Y-9752500D01*
X6795000Y-10232500D01*
G36*
X6795000Y-10232500D02*
G01*
X6464999Y-9992499D01*
X6795000Y-9752500D01*
X6795000Y-10232500D01*
G37*
D13*
%TO.C,X1*%
X15510800Y-52780800D02*
G75*
G02*
X13510800Y-52780800I-1000000J0D01*
G01*
X13510800Y-52780800D02*
G75*
G02*
X15510800Y-52780800I1000000J0D01*
G01*
D12*
%TO.C,C11*%
X23539970Y-19861218D02*
X23738782Y-20060030D01*
X24261218Y-19139970D02*
X24460030Y-19338782D01*
%TO.C,C1*%
X25490000Y-8940581D02*
X25490000Y-8659419D01*
X26510000Y-8940581D02*
X26510000Y-8659419D01*
%TO.C,J1*%
X23950000Y-65500000D02*
G75*
G02*
X21050000Y-65500000I-1450000J0D01*
G01*
X21050000Y-65500000D02*
G75*
G02*
X23950000Y-65500000I1450000J0D01*
G01*
%TO.C,C12*%
X22439970Y-20961218D02*
X22638782Y-21160030D01*
X23161218Y-20239970D02*
X23360030Y-20438782D01*
%TO.C,R18*%
X22877500Y-50662742D02*
X22877500Y-51137258D01*
X23922500Y-50662742D02*
X23922500Y-51137258D01*
%TO.C,C6*%
X8690001Y-8659419D02*
X8690000Y-8940581D01*
X9710000Y-8659419D02*
X9709999Y-8940581D01*
%TO.C,C16*%
X12838782Y-14060030D02*
X12639970Y-13861218D01*
X13560030Y-13338782D02*
X13361218Y-13139970D01*
%TO.C,C24*%
X13938782Y-12960030D02*
X13739970Y-12761218D01*
X14660030Y-12238782D02*
X14461218Y-12039970D01*
%TO.C,U2*%
X6995000Y-45740000D02*
X6995000Y-45090000D01*
X6995000Y-45740000D02*
X6995000Y-46389999D01*
X10115000Y-45740000D02*
X10115000Y-45090001D01*
X10115000Y-45740000D02*
X10115000Y-46390000D01*
X10394999Y-44817499D02*
X10065000Y-44577500D01*
X10395000Y-44337500D01*
X10394999Y-44817499D01*
G36*
X10394999Y-44817499D02*
G01*
X10065000Y-44577500D01*
X10395000Y-44337500D01*
X10394999Y-44817499D01*
G37*
%TO.C,R8*%
X10277500Y-8562742D02*
X10277500Y-9037258D01*
X11322500Y-8562742D02*
X11322500Y-9037258D01*
%TO.C,R12*%
X25477500Y-11562742D02*
X25477500Y-12037258D01*
X26522500Y-11562742D02*
X26522500Y-12037258D01*
%TO.C,C5*%
X17790000Y-8940581D02*
X17790000Y-8659419D01*
X18810000Y-8940581D02*
X18810000Y-8659419D01*
%TO.C,C3*%
X19290000Y-8940581D02*
X19290000Y-8659419D01*
X20310000Y-8940581D02*
X20310000Y-8659419D01*
%TO.C,U4*%
X11838120Y-18300000D02*
X12297741Y-17840381D01*
X12297740Y-18759621D02*
X11838120Y-18300000D01*
X16540381Y-23002259D02*
X17000000Y-23461880D01*
X17000000Y-23461880D02*
X17459621Y-23002260D01*
X17459619Y-13597741D02*
X16796706Y-12934828D01*
X21702260Y-17840379D02*
X22161880Y-18300000D01*
X22161880Y-18300000D02*
X21702259Y-18759619D01*
%TO.C,SW4*%
X1250000Y-54250000D02*
X1250000Y-51750000D01*
X1699999Y-51300000D02*
X1250000Y-51750000D01*
X1700001Y-54700000D02*
X1250000Y-54250000D01*
X3000000Y-55750000D02*
X4999999Y-55749999D01*
X3000001Y-50250001D02*
X5000000Y-50250000D01*
X6299999Y-51300000D02*
X6750000Y-51750000D01*
X6300001Y-54700000D02*
X6750000Y-54250000D01*
X6750000Y-54250000D02*
X6750000Y-51750000D01*
%TO.C,R11*%
X25477500Y-17837258D02*
X25477500Y-17362742D01*
X26522500Y-17837258D02*
X26522500Y-17362742D01*
%TO.C,C15*%
X14038782Y-25939970D02*
X13839970Y-26138782D01*
X14760030Y-26661218D02*
X14561218Y-26860030D01*
%TO.C,C4*%
X7090001Y-8659419D02*
X7090000Y-8940581D01*
X8110000Y-8659419D02*
X8109999Y-8940581D01*
%TO.C,R13*%
X7377500Y-56037258D02*
X7377500Y-55562742D01*
X8422500Y-56037258D02*
X8422500Y-55562742D01*
D14*
%TO.C,OLEDM1*%
X5999998Y-7539999D02*
X6000000Y-4999999D01*
X6099999Y-5000001D02*
X6400001Y-5000000D01*
X27921998Y-7540000D02*
X6077999Y-7539997D01*
X28000000Y-5000001D02*
X27599999Y-5000000D01*
X28000000Y-5000001D02*
X28000000Y-7540001D01*
D12*
%TO.C,Q1*%
X12400000Y-40090000D02*
X11750000Y-40090000D01*
X12400000Y-40090000D02*
X13049999Y-40090000D01*
X12400000Y-43210000D02*
X11750001Y-43210000D01*
X12400000Y-43210000D02*
X13050000Y-43210000D01*
X13802500Y-43490000D02*
X13322499Y-43490000D01*
X13562500Y-43160000D01*
X13802500Y-43490000D01*
G36*
X13802500Y-43490000D02*
G01*
X13322499Y-43490000D01*
X13562500Y-43160000D01*
X13802500Y-43490000D01*
G37*
%TO.C,C19*%
X19862978Y-11315774D02*
X20061789Y-11116962D01*
X20584227Y-12037022D02*
X20783038Y-11838210D01*
%TO.C,C9*%
X11859419Y-43990001D02*
X12140581Y-43990000D01*
X11859419Y-45010000D02*
X12140581Y-45009999D01*
%TO.C,SW3*%
X1250000Y-63250000D02*
X1250000Y-60750000D01*
X1699999Y-60300000D02*
X1250000Y-60750000D01*
X1700001Y-63700000D02*
X1250000Y-63250000D01*
X3000000Y-64750000D02*
X4999999Y-64749999D01*
X3000001Y-59250001D02*
X5000000Y-59250000D01*
X6299999Y-60300000D02*
X6750000Y-60750000D01*
X6300001Y-63700000D02*
X6750000Y-63250000D01*
X6750000Y-63250000D02*
X6750000Y-60750000D01*
%TO.C,Y1*%
X11065687Y-25681982D02*
X13681979Y-23065684D01*
X13681979Y-23065684D02*
X9934313Y-19318018D01*
%TO.C,C23*%
X11738782Y-15160030D02*
X11539970Y-14961218D01*
X12460030Y-14438782D02*
X12261218Y-14239970D01*
%TO.C,C2*%
X23890000Y-8940581D02*
X23890000Y-8659419D01*
X24910000Y-8940581D02*
X24910000Y-8659419D01*
%TD*%
%LPC*%
D15*
%TO.C,J3*%
X28895000Y-16890000D03*
X28895001Y-11110000D03*
D16*
X27830000Y-17349999D03*
X27830000Y-16550000D03*
X27830000Y-15250001D03*
X27830000Y-14249999D03*
X27830000Y-13749999D03*
X27829999Y-12750000D03*
X27830000Y-11450000D03*
X27830000Y-10649999D03*
D17*
X27805000Y-10950000D03*
D16*
X27829999Y-11749999D03*
X27830000Y-12250000D03*
X27830001Y-13250000D03*
X27830000Y-14750000D03*
X27830001Y-15749999D03*
X27830001Y-16250001D03*
D17*
X27805000Y-17050001D03*
D18*
X28395000Y-18320002D03*
D19*
X32575000Y-18320001D03*
D18*
X28394998Y-9680000D03*
D19*
X32575000Y-9680000D03*
%TD*%
D20*
%TO.C,R7*%
X15200000Y-9625000D03*
X15200000Y-7975000D03*
%TD*%
D21*
%TO.C,C14*%
X19948008Y-23051992D03*
X18851992Y-24148008D03*
%TD*%
D22*
%TO.C,C22*%
X12551992Y-25748008D03*
X13648008Y-24651992D03*
%TD*%
%TO.C,C18*%
X20825000Y-13175000D03*
X21921016Y-12078984D03*
%TD*%
D23*
%TO.C,C13*%
X4775001Y-19400000D03*
X3224999Y-19400000D03*
%TD*%
D20*
%TO.C,R1*%
X19600000Y-48925000D03*
X19600000Y-47275000D03*
%TD*%
D24*
%TO.C,C7*%
X11150000Y-50224999D03*
X11150000Y-51775001D03*
%TD*%
D25*
%TO.C,Q2*%
X11462499Y-37200004D03*
X11462499Y-39100002D03*
X13337500Y-38150003D03*
%TD*%
D26*
%TO.C,SW1*%
X2100000Y-31150000D03*
X2100000Y-24850000D03*
X5900000Y-31150000D03*
X5900000Y-24850000D03*
%TD*%
D27*
%TO.C,R9*%
X12775000Y-33900000D03*
X11125000Y-33900000D03*
%TD*%
D28*
%TO.C,C8*%
X2200000Y-47475000D03*
X2200000Y-44525000D03*
%TD*%
D29*
%TO.C,C10*%
X9100000Y-48625000D03*
X9100000Y-51575000D03*
%TD*%
D30*
%TO.C,R3*%
X16200000Y-47275000D03*
X16200000Y-48925000D03*
%TD*%
D31*
%TO.C,U1*%
X11150000Y-48537500D03*
X12100000Y-48537500D03*
X13050000Y-48537500D03*
X13050000Y-46262500D03*
X11150000Y-46262500D03*
%TD*%
D32*
%TO.C,C17*%
X11448008Y-16348008D03*
X10351992Y-15251992D03*
%TD*%
D30*
%TO.C,R17*%
X4500000Y-5975000D03*
X4500000Y-7625000D03*
%TD*%
D33*
%TO.C,R10*%
X11125000Y-35550000D03*
X12775000Y-35550000D03*
%TD*%
D20*
%TO.C,R6*%
X13600000Y-9625000D03*
X13600000Y-7975000D03*
%TD*%
D34*
%TO.C,R15*%
X22583363Y-13516637D03*
X21416637Y-14683363D03*
%TD*%
D35*
%TO.C,LS1*%
X5250000Y-42000000D03*
X5250000Y-34000000D03*
%TD*%
D21*
%TO.C,C21*%
X8448008Y-19351992D03*
X7351992Y-20448008D03*
%TD*%
D22*
%TO.C,C20*%
X23551992Y-16748008D03*
X24648008Y-15651992D03*
%TD*%
D36*
%TO.C,L1*%
X5200000Y-47400000D03*
X5200000Y-44600000D03*
%TD*%
D34*
%TO.C,R14*%
X23633363Y-14566637D03*
X22466637Y-15733363D03*
%TD*%
D20*
%TO.C,R2*%
X14600000Y-48925000D03*
X14600000Y-47275000D03*
%TD*%
%TO.C,R16*%
X7900000Y-60025000D03*
X7900000Y-58375000D03*
%TD*%
D30*
%TO.C,R4*%
X17800000Y-47275000D03*
X17800000Y-48925000D03*
%TD*%
D20*
%TO.C,R5*%
X16800000Y-9625000D03*
X16800000Y-7975000D03*
%TD*%
D30*
%TO.C,R19*%
X28500000Y-50075000D03*
X28500000Y-51725000D03*
%TD*%
D37*
%TO.C,J2*%
X10500000Y-65500000D03*
%TD*%
D38*
%TO.C,U3*%
X5905000Y-9900003D03*
X4635000Y-9900000D03*
X3365000Y-9900000D03*
X2095001Y-9899999D03*
X2095000Y-17099997D03*
X3365000Y-17100000D03*
X4635000Y-17100000D03*
X5904999Y-17100001D03*
%TD*%
D39*
%TO.C,SW2*%
X22000000Y-36000000D03*
D40*
X30000000Y-36000000D03*
D41*
X23500000Y-44100000D03*
X28500000Y-44100000D03*
D42*
X26000000Y-29900000D03*
D41*
X26000000Y-44100000D03*
%TD*%
D43*
%TO.C,X1*%
X14520000Y-52750000D03*
D44*
X14520000Y-55290000D03*
D43*
X17060000Y-52750000D03*
X17060000Y-55290000D03*
D45*
X19600000Y-52750000D03*
X19600000Y-55290000D03*
%TD*%
D46*
%TO.C,C11*%
X23451992Y-19051992D03*
X24548008Y-20148008D03*
%TD*%
D47*
%TO.C,C1*%
X26000000Y-9575001D03*
X26000000Y-8024999D03*
%TD*%
D37*
%TO.C,J1*%
X22500000Y-65500000D03*
%TD*%
D46*
%TO.C,C12*%
X22351992Y-20151992D03*
X23448008Y-21248008D03*
%TD*%
D30*
%TO.C,R18*%
X23400000Y-50075000D03*
X23400000Y-51725000D03*
%TD*%
D24*
%TO.C,C6*%
X9200000Y-8024999D03*
X9200000Y-9575001D03*
%TD*%
D32*
%TO.C,C16*%
X13648008Y-14148008D03*
X12551992Y-13051992D03*
%TD*%
%TO.C,C24*%
X14748008Y-13048008D03*
X13651992Y-11951992D03*
%TD*%
D48*
%TO.C,U2*%
X9505000Y-44802500D03*
X7605001Y-44802499D03*
X8555000Y-46677500D03*
%TD*%
D30*
%TO.C,R8*%
X10800000Y-7975000D03*
X10800000Y-9625000D03*
%TD*%
%TO.C,R12*%
X26000000Y-10975000D03*
X26000000Y-12625000D03*
%TD*%
D47*
%TO.C,C5*%
X18300000Y-9575001D03*
X18300000Y-8024999D03*
%TD*%
%TO.C,C3*%
X19800000Y-9575001D03*
X19800000Y-8024999D03*
%TD*%
D49*
%TO.C,U4*%
X16407797Y-14030841D03*
X16124956Y-14313685D03*
X15842112Y-14596528D03*
X15559270Y-14879371D03*
X15276427Y-15162214D03*
X14993584Y-15445056D03*
X14710743Y-15727898D03*
X14427900Y-16010743D03*
X14145055Y-16293583D03*
X13862214Y-16576427D03*
X13579371Y-16859269D03*
X13296529Y-17142111D03*
X13013683Y-17424956D03*
X12730840Y-17707797D03*
D50*
X12730841Y-18892203D03*
X13013685Y-19175044D03*
X13296528Y-19457888D03*
X13579371Y-19740730D03*
X13862214Y-20023573D03*
X14145056Y-20306416D03*
X14427898Y-20589257D03*
X14710743Y-20872100D03*
X14993583Y-21154945D03*
X15276427Y-21437786D03*
X15559269Y-21720629D03*
X15842111Y-22003471D03*
X16124956Y-22286317D03*
X16407797Y-22569160D03*
D49*
X17592203Y-22569159D03*
X17875044Y-22286315D03*
X18157888Y-22003472D03*
X18440730Y-21720629D03*
X18723573Y-21437786D03*
X19006416Y-21154944D03*
X19289257Y-20872102D03*
X19572100Y-20589257D03*
X19854945Y-20306417D03*
X20137786Y-20023573D03*
X20420629Y-19740731D03*
X20703471Y-19457889D03*
X20986317Y-19175044D03*
X21269160Y-18892203D03*
D50*
X21269159Y-17707797D03*
X20986315Y-17424956D03*
X20703472Y-17142112D03*
X20420629Y-16859270D03*
X20137786Y-16576427D03*
X19854944Y-16293584D03*
X19572102Y-16010743D03*
X19289257Y-15727900D03*
X19006417Y-15445055D03*
X18723573Y-15162214D03*
X18440731Y-14879371D03*
X18157889Y-14596529D03*
X17875044Y-14313683D03*
X17592203Y-14030840D03*
D51*
X16434312Y-17168627D03*
X15868628Y-17734314D03*
X15302943Y-18299999D03*
X17000001Y-16602943D03*
X17565686Y-17168628D03*
X17000000Y-17734315D03*
X16434315Y-18300000D03*
X15868627Y-18865688D03*
X18131373Y-17734312D03*
X17565685Y-18300000D03*
X17000000Y-18865685D03*
X16434314Y-19431372D03*
X16999999Y-19997057D03*
X18697057Y-18300001D03*
X18131372Y-18865686D03*
X17565688Y-19431373D03*
%TD*%
D26*
%TO.C,SW4*%
X2100000Y-56150000D03*
X2100000Y-49850000D03*
X5900000Y-56150000D03*
X5900000Y-49850000D03*
%TD*%
D20*
%TO.C,R11*%
X26000000Y-18425000D03*
X26000000Y-16775000D03*
%TD*%
D21*
%TO.C,C15*%
X14848008Y-25851992D03*
X13751992Y-26948008D03*
%TD*%
D24*
%TO.C,C4*%
X7600000Y-8024999D03*
X7600000Y-9575001D03*
%TD*%
D20*
%TO.C,R13*%
X7900000Y-56625000D03*
X7900000Y-54975000D03*
%TD*%
D52*
%TO.C,OLEDM1*%
X27150000Y-5700000D03*
X26450000Y-5700000D03*
X25750000Y-5700000D03*
X25050000Y-5700000D03*
X24350000Y-5700000D03*
X23650002Y-5700001D03*
X22949999Y-5700001D03*
X22249998Y-5699998D03*
X21550002Y-5700002D03*
X20849998Y-5700000D03*
X20149998Y-5700001D03*
X19450001Y-5700000D03*
X18749998Y-5700000D03*
X18050000Y-5699998D03*
X17350000Y-5699999D03*
X16649998Y-5700000D03*
X15950000Y-5699998D03*
X15250001Y-5699999D03*
X14550000Y-5700002D03*
X13849999Y-5699998D03*
X13150002Y-5699999D03*
X12449998Y-5700002D03*
X11750001Y-5700001D03*
X11050001Y-5699998D03*
X10350000Y-5700002D03*
X9650000Y-5700002D03*
X8949998Y-5700000D03*
X8250000Y-5700000D03*
X7550000Y-5700000D03*
X6850002Y-5700001D03*
%TD*%
D53*
%TO.C,Q1*%
X13337502Y-42599997D03*
X13337501Y-40700001D03*
X11462500Y-41650000D03*
%TD*%
D22*
%TO.C,C19*%
X19775000Y-12125000D03*
X20871016Y-11028984D03*
%TD*%
D54*
%TO.C,C9*%
X11224999Y-44500000D03*
X12775001Y-44500000D03*
%TD*%
D26*
%TO.C,SW3*%
X2100000Y-65150000D03*
X2100000Y-58850000D03*
X5900000Y-65150000D03*
X5900000Y-58850000D03*
%TD*%
D55*
%TO.C,Y1*%
X12373833Y-22959619D03*
X10040381Y-20626167D03*
X8626167Y-22040381D03*
X10959619Y-24373833D03*
%TD*%
D32*
%TO.C,C23*%
X12548008Y-15248008D03*
X11451992Y-14151992D03*
%TD*%
D47*
%TO.C,C2*%
X24400000Y-9575001D03*
X24400000Y-8024999D03*
%TD*%
%LPD*%
M02*
