%TF.GenerationSoftware,KiCad,Pcbnew,8.99.0-3110-g1838b2656d*%
%TF.CreationDate,2024-11-19T22:26:19+01:00*%
%TF.ProjectId,dmm_sao,646d6d5f-7361-46f2-9e6b-696361645f70,1.1*%
%TF.SameCoordinates,PX4f27ac0PY3ef1480*%
%TF.FileFunction,Legend,Bot*%
%TF.FilePolarity,Positive*%
%FSLAX46Y46*%
G04 Gerber Fmt 4.6, Leading zero omitted, Abs format (unit mm)*
G04 Created by KiCad (PCBNEW 8.99.0-3110-g1838b2656d) date 2024-11-19 22:26:19*
%MOMM*%
%LPD*%
G01*
G04 APERTURE LIST*
%ADD10C,0.200000*%
%ADD11C,0.600000*%
%ADD12C,0.150000*%
%ADD13C,0.700000*%
%ADD14C,0.010000*%
%ADD15C,0.650000*%
%ADD16O,2.100000X1.000000*%
%ADD17O,1.600000X1.000000*%
%ADD18C,1.300000*%
%ADD19C,1.100000*%
%ADD20O,1.727200X1.727200*%
%ADD21R,1.727200X1.727200*%
%ADD22C,1.727200*%
G04 APERTURE END LIST*
D10*
G36*
X28134821Y-27692440D02*
G01*
X28271462Y-27718731D01*
X28401692Y-27762177D01*
X28525477Y-27821708D01*
X28636934Y-27893633D01*
X28737159Y-27978210D01*
X28827588Y-28075027D01*
X28904138Y-28181870D01*
X28967358Y-28299633D01*
X29013918Y-28424497D01*
X29041996Y-28555466D01*
X29051500Y-28693963D01*
X29042080Y-28838157D01*
X29014377Y-28973343D01*
X28968702Y-29100994D01*
X28906210Y-29221426D01*
X28831061Y-29328577D01*
X28742899Y-29423639D01*
X28642554Y-29508194D01*
X28531138Y-29579700D01*
X28407554Y-29638450D01*
X28277467Y-29681068D01*
X28140858Y-29706879D01*
X27996493Y-29715631D01*
X27854749Y-29707495D01*
X27717323Y-29683269D01*
X27584648Y-29643373D01*
X27460624Y-29589113D01*
X27347431Y-29520279D01*
X27243126Y-29437316D01*
X27151330Y-29341379D01*
X27076186Y-29234717D01*
X27294173Y-29234717D01*
X27349137Y-29291057D01*
X27418736Y-29347923D01*
X27496033Y-29398190D01*
X27582379Y-29441468D01*
X27673919Y-29476411D01*
X27772522Y-29504239D01*
X27873511Y-29522134D01*
X27974023Y-29528053D01*
X28095719Y-29520643D01*
X28208083Y-29499016D01*
X28312421Y-29463695D01*
X28457643Y-29387139D01*
X28583775Y-29287351D01*
X28656233Y-29210195D01*
X28717148Y-29124181D01*
X28766957Y-29028454D01*
X28803298Y-28926878D01*
X28825233Y-28820422D01*
X28832658Y-28708007D01*
X28825525Y-28601017D01*
X28804199Y-28496819D01*
X28768422Y-28394521D01*
X28719641Y-28297520D01*
X28659207Y-28208185D01*
X28586584Y-28125854D01*
X28460456Y-28020583D01*
X28316695Y-27939741D01*
X28213111Y-27901822D01*
X28103924Y-27878889D01*
X27987944Y-27871109D01*
X27840074Y-27883187D01*
X27702669Y-27918736D01*
X27575455Y-27977031D01*
X27464898Y-28055512D01*
X27371888Y-28153333D01*
X27299790Y-28268004D01*
X27265794Y-28351858D01*
X27245232Y-28440940D01*
X27238241Y-28536427D01*
X27246479Y-28636877D01*
X27271946Y-28741835D01*
X27311346Y-28843265D01*
X27361461Y-28936008D01*
X27421774Y-29018868D01*
X27484682Y-29081454D01*
X27554045Y-29124234D01*
X27619016Y-29137264D01*
X27650926Y-29131172D01*
X27669452Y-29114916D01*
X27679595Y-29090283D01*
X27683374Y-29056175D01*
X27676413Y-29003175D01*
X27655408Y-28930268D01*
X27534540Y-28548883D01*
X27764584Y-28548883D01*
X27772536Y-28633977D01*
X27798168Y-28730966D01*
X27837629Y-28825244D01*
X27887805Y-28910118D01*
X27948857Y-28987734D01*
X28017864Y-29050069D01*
X28094788Y-29092622D01*
X28170394Y-29106001D01*
X28238714Y-29098480D01*
X28294226Y-29077296D01*
X28339776Y-29042986D01*
X28373586Y-28997205D01*
X28395010Y-28938329D01*
X28402791Y-28862491D01*
X28394739Y-28775208D01*
X28369207Y-28679187D01*
X28329129Y-28586216D01*
X28276762Y-28501378D01*
X28214818Y-28427135D01*
X28142428Y-28368387D01*
X28060360Y-28329497D01*
X27971702Y-28316608D01*
X27907770Y-28324626D01*
X27857575Y-28347089D01*
X27817829Y-28383775D01*
X27778350Y-28457239D01*
X27764584Y-28548883D01*
X27534540Y-28548883D01*
X27411775Y-28161514D01*
X27588241Y-28161514D01*
X27644173Y-28333461D01*
X27649790Y-28333461D01*
X27684771Y-28259671D01*
X27729132Y-28204276D01*
X27783147Y-28164200D01*
X27876846Y-28125911D01*
X27972679Y-28113398D01*
X28071843Y-28121333D01*
X28161568Y-28144416D01*
X28243545Y-28182274D01*
X28354011Y-28261176D01*
X28446877Y-28360450D01*
X28523797Y-28476396D01*
X28581699Y-28607501D01*
X28617675Y-28745958D01*
X28629448Y-28882519D01*
X28616873Y-28996236D01*
X28580434Y-29095264D01*
X28519905Y-29182937D01*
X28461499Y-29235357D01*
X28392166Y-29275505D01*
X28314764Y-29300585D01*
X28227669Y-29309211D01*
X28165221Y-29305103D01*
X28112630Y-29293579D01*
X28019818Y-29252180D01*
X27948255Y-29195150D01*
X27884996Y-29129448D01*
X27879378Y-29129448D01*
X27855780Y-29211240D01*
X27811967Y-29265003D01*
X27748692Y-29297318D01*
X27660170Y-29309211D01*
X27569305Y-29296038D01*
X27459281Y-29251692D01*
X27353175Y-29183923D01*
X27249842Y-29090247D01*
X27160810Y-28980074D01*
X27085467Y-28844539D01*
X27049228Y-28746195D01*
X27027024Y-28639539D01*
X27019399Y-28523115D01*
X27028086Y-28401339D01*
X27053494Y-28289069D01*
X27095237Y-28184717D01*
X27152096Y-28087494D01*
X27221999Y-27999272D01*
X27305774Y-27919347D01*
X27399233Y-27850745D01*
X27502694Y-27792751D01*
X27617184Y-27745324D01*
X27736438Y-27711178D01*
X27860594Y-27690517D01*
X27990509Y-27683531D01*
X28134821Y-27692440D01*
G37*
G36*
X26840003Y-28277529D02*
G01*
X26840003Y-27847662D01*
X26554361Y-27847662D01*
X26554361Y-28277529D01*
X26382414Y-28277529D01*
X26382414Y-28504187D01*
X26554361Y-28504187D01*
X26554361Y-29293824D01*
X26544836Y-29372470D01*
X26531967Y-29397424D01*
X26513450Y-29414724D01*
X26460205Y-29431454D01*
X26382414Y-29434263D01*
X26382414Y-29700000D01*
X26498918Y-29700000D01*
X26591036Y-29691706D01*
X26661095Y-29669225D01*
X26720748Y-29633453D01*
X26765143Y-29590823D01*
X26798709Y-29540199D01*
X26822051Y-29482990D01*
X26835645Y-29422912D01*
X26840003Y-29366730D01*
X26840003Y-28504187D01*
X26984228Y-28504187D01*
X26984228Y-28277529D01*
X26840003Y-28277529D01*
G37*
G36*
X26272993Y-29700000D02*
G01*
X26272993Y-27706978D01*
X25987351Y-27706978D01*
X25987351Y-28416015D01*
X25981856Y-28416015D01*
X25932379Y-28354407D01*
X25874511Y-28305373D01*
X25805429Y-28273459D01*
X25713921Y-28261898D01*
X25661384Y-28266383D01*
X25608042Y-28280094D01*
X25558159Y-28304058D01*
X25513154Y-28340422D01*
X25476206Y-28387249D01*
X25446231Y-28448377D01*
X25427867Y-28518406D01*
X25421074Y-28609455D01*
X25421074Y-29700000D01*
X25706716Y-29700000D01*
X25706716Y-28716067D01*
X25716498Y-28643492D01*
X25742864Y-28592725D01*
X25785658Y-28559456D01*
X25845690Y-28547784D01*
X25896706Y-28554184D01*
X25932359Y-28571314D01*
X25956821Y-28598342D01*
X25978716Y-28655393D01*
X25987351Y-28744033D01*
X25987351Y-29700000D01*
X26272993Y-29700000D01*
G37*
G36*
X24870369Y-28268604D02*
G01*
X24945801Y-28287619D01*
X25010624Y-28317951D01*
X25093914Y-28383360D01*
X25154972Y-28466451D01*
X25180487Y-28525454D01*
X25196981Y-28595167D01*
X25208094Y-28754902D01*
X25208094Y-29222627D01*
X25196981Y-29382362D01*
X25180487Y-29452074D01*
X25154972Y-29511078D01*
X25093920Y-29594193D01*
X25010624Y-29659699D01*
X24945809Y-29689963D01*
X24870376Y-29708938D01*
X24782135Y-29715631D01*
X24693977Y-29708938D01*
X24618626Y-29689963D01*
X24553890Y-29659699D01*
X24470494Y-29594185D01*
X24409420Y-29511078D01*
X24383905Y-29452074D01*
X24367411Y-29382362D01*
X24356175Y-29222627D01*
X24356175Y-28754902D01*
X24359319Y-28710205D01*
X24641817Y-28710205D01*
X24641817Y-29267445D01*
X24652261Y-29341537D01*
X24679675Y-29389200D01*
X24723185Y-29419206D01*
X24782013Y-29429745D01*
X24841052Y-29419196D01*
X24884595Y-29389200D01*
X24912008Y-29341537D01*
X24922452Y-29267445D01*
X24922452Y-28710205D01*
X24912008Y-28636114D01*
X24884595Y-28588450D01*
X24841041Y-28558360D01*
X24782013Y-28547784D01*
X24723195Y-28558350D01*
X24679675Y-28588450D01*
X24652261Y-28636114D01*
X24641817Y-28710205D01*
X24359319Y-28710205D01*
X24367411Y-28595167D01*
X24383905Y-28525454D01*
X24409420Y-28466451D01*
X24470499Y-28383369D01*
X24553890Y-28317951D01*
X24618634Y-28287619D01*
X24693984Y-28268604D01*
X24782135Y-28261898D01*
X24870369Y-28268604D01*
G37*
G36*
X24149057Y-29700000D02*
G01*
X24149057Y-28277529D01*
X23863415Y-28277529D01*
X23863415Y-28415526D01*
X23857920Y-28415526D01*
X23808454Y-28354144D01*
X23750575Y-28305251D01*
X23681607Y-28273434D01*
X23590108Y-28261898D01*
X23503943Y-28273625D01*
X23436845Y-28306594D01*
X23380118Y-28354139D01*
X23336339Y-28404169D01*
X23280234Y-28349563D01*
X23219103Y-28303785D01*
X23147085Y-28273504D01*
X23040561Y-28261898D01*
X22987540Y-28266333D01*
X22931751Y-28280094D01*
X22878998Y-28304107D01*
X22831245Y-28340422D01*
X22791461Y-28387380D01*
X22758705Y-28448377D01*
X22738349Y-28518575D01*
X22730861Y-28609455D01*
X22730861Y-29700000D01*
X23016503Y-29700000D01*
X23016503Y-28716067D01*
X23026285Y-28643492D01*
X23052651Y-28592725D01*
X23095362Y-28559466D01*
X23155478Y-28547784D01*
X23206493Y-28554184D01*
X23242146Y-28571314D01*
X23266608Y-28598342D01*
X23288504Y-28655393D01*
X23297138Y-28744033D01*
X23297138Y-29700000D01*
X23582780Y-29700000D01*
X23582780Y-28716067D01*
X23592562Y-28643492D01*
X23618928Y-28592725D01*
X23661722Y-28559456D01*
X23721755Y-28547784D01*
X23772770Y-28554184D01*
X23808423Y-28571314D01*
X23832885Y-28598342D01*
X23854781Y-28655393D01*
X23863415Y-28744033D01*
X23863415Y-29700000D01*
X24149057Y-29700000D01*
G37*
G36*
X22187782Y-28270249D02*
G01*
X22269731Y-28294138D01*
X22343198Y-28332700D01*
X22404309Y-28382431D01*
X22470011Y-28467204D01*
X22513162Y-28568558D01*
X22533391Y-28690666D01*
X22256175Y-28690666D01*
X22233194Y-28627680D01*
X22195603Y-28584176D01*
X22146423Y-28556776D01*
X22092899Y-28547784D01*
X22040820Y-28553913D01*
X22004755Y-28570169D01*
X21980303Y-28595411D01*
X21957541Y-28647446D01*
X21949284Y-28715945D01*
X21949284Y-28864323D01*
X21991416Y-28861514D01*
X22025122Y-28858705D01*
X22056018Y-28855896D01*
X22086793Y-28855896D01*
X22215276Y-28864020D01*
X22308688Y-28885327D01*
X22388091Y-28923059D01*
X22446318Y-28973621D01*
X22490645Y-29041283D01*
X22519347Y-29126273D01*
X22533754Y-29221010D01*
X22539009Y-29337543D01*
X22530880Y-29449181D01*
X22509577Y-29529396D01*
X22474198Y-29596740D01*
X22432274Y-29642847D01*
X22382493Y-29678678D01*
X22332623Y-29700122D01*
X22230163Y-29715631D01*
X22133730Y-29704151D01*
X22068597Y-29673988D01*
X22013572Y-29625535D01*
X21954902Y-29554431D01*
X21949284Y-29554431D01*
X21949284Y-29698900D01*
X21663642Y-29698900D01*
X21663642Y-29090980D01*
X21949284Y-29090980D01*
X21949284Y-29283810D01*
X21960390Y-29363459D01*
X21990195Y-29418021D01*
X22037909Y-29453158D01*
X22104134Y-29465526D01*
X22167447Y-29452627D01*
X22213921Y-29415212D01*
X22242901Y-29359119D01*
X22253367Y-29283810D01*
X22244839Y-29210636D01*
X22222261Y-29160079D01*
X22187299Y-29125907D01*
X22116032Y-29093835D01*
X22028175Y-29082554D01*
X21949284Y-29090980D01*
X21663642Y-29090980D01*
X21663642Y-28710083D01*
X21672530Y-28602449D01*
X21697348Y-28514078D01*
X21737386Y-28435798D01*
X21787107Y-28373883D01*
X21850767Y-28325071D01*
X21924616Y-28289986D01*
X22005196Y-28269046D01*
X22092899Y-28261898D01*
X22187782Y-28270249D01*
G37*
G36*
X20940683Y-28674180D02*
G01*
X20952252Y-28608113D01*
X20983914Y-28564270D01*
X21030284Y-28536761D01*
X21082833Y-28527634D01*
X21143125Y-28538984D01*
X21185903Y-28571109D01*
X21213029Y-28617800D01*
X21222051Y-28670760D01*
X21217233Y-28709454D01*
X21202390Y-28748185D01*
X21172001Y-28780936D01*
X21101151Y-28816817D01*
X20932501Y-28884228D01*
X20831567Y-28933669D01*
X20760003Y-28989948D01*
X20711950Y-29052878D01*
X20678434Y-29126029D01*
X20658315Y-29203345D01*
X20651500Y-29286008D01*
X20659726Y-29373352D01*
X20683862Y-29453070D01*
X20722253Y-29525911D01*
X20772400Y-29589235D01*
X20833809Y-29641615D01*
X20907344Y-29681926D01*
X20988696Y-29707034D01*
X21078925Y-29715631D01*
X21190757Y-29703078D01*
X21286996Y-29666851D01*
X21371161Y-29606821D01*
X21424149Y-29548093D01*
X21466905Y-29474563D01*
X21493847Y-29390688D01*
X21503419Y-29289183D01*
X21235851Y-29289183D01*
X21221282Y-29346240D01*
X21194574Y-29399214D01*
X21168768Y-29426297D01*
X21131745Y-29443489D01*
X21079413Y-29449895D01*
X21020177Y-29439792D01*
X20967062Y-29409228D01*
X20930111Y-29361325D01*
X20917236Y-29295411D01*
X20925202Y-29239887D01*
X20948133Y-29194417D01*
X20987919Y-29157573D01*
X21060607Y-29121266D01*
X21198360Y-29070708D01*
X21283760Y-29030506D01*
X21353789Y-28980520D01*
X21410484Y-28920621D01*
X21452828Y-28850590D01*
X21478754Y-28770401D01*
X21487787Y-28677477D01*
X21479289Y-28590202D01*
X21454326Y-28510537D01*
X21414345Y-28438226D01*
X21362124Y-28377058D01*
X21301700Y-28327685D01*
X21231088Y-28291451D01*
X21153505Y-28269403D01*
X21069155Y-28261898D01*
X20984970Y-28269710D01*
X20908688Y-28292550D01*
X20839594Y-28329671D01*
X20781559Y-28378890D01*
X20734511Y-28439251D01*
X20697906Y-28511270D01*
X20674910Y-28589835D01*
X20667131Y-28674180D01*
X20940683Y-28674180D01*
G37*
G36*
X20432658Y-29700000D02*
G01*
X20432658Y-28504187D01*
X20573342Y-28504187D01*
X20573342Y-28277529D01*
X20432658Y-28277529D01*
X20432658Y-28085432D01*
X20424354Y-27987287D01*
X20401762Y-27911531D01*
X20364829Y-27845884D01*
X20317498Y-27793196D01*
X20262944Y-27752863D01*
X20200872Y-27726517D01*
X20133906Y-27711887D01*
X20064462Y-27706978D01*
X19932449Y-27706978D01*
X19932449Y-27972714D01*
X20062264Y-27972714D01*
X20109219Y-27983508D01*
X20136468Y-28013690D01*
X20147016Y-28070533D01*
X20147016Y-28277529D01*
X19932449Y-28277529D01*
X19932449Y-28504187D01*
X20147016Y-28504187D01*
X20147016Y-29700000D01*
X20432658Y-29700000D01*
G37*
G36*
X19866015Y-27706978D02*
G01*
X19580373Y-27706978D01*
X19580373Y-29301884D01*
X19571615Y-29375175D01*
X19550942Y-29412648D01*
X19513365Y-29435068D01*
X19440055Y-29450505D01*
X19440055Y-29719539D01*
X19535584Y-29715452D01*
X19616643Y-29704030D01*
X19690348Y-29680884D01*
X19751099Y-29643824D01*
X19799615Y-29594272D01*
X19836584Y-29524755D01*
X19857808Y-29441000D01*
X19866015Y-29321423D01*
X19866015Y-27706978D01*
G37*
G36*
X18478715Y-28277529D02*
G01*
X18478715Y-29700000D01*
X18764357Y-29700000D01*
X18764357Y-29562002D01*
X18769853Y-29562002D01*
X18819350Y-29623476D01*
X18877320Y-29672400D01*
X18946279Y-29704125D01*
X19037787Y-29715631D01*
X19090324Y-29711146D01*
X19143667Y-29697435D01*
X19193562Y-29673401D01*
X19238555Y-29637107D01*
X19275536Y-29590302D01*
X19305600Y-29529274D01*
X19323874Y-29459131D01*
X19330635Y-29367951D01*
X19330635Y-28277529D01*
X19044993Y-28277529D01*
X19044993Y-29261584D01*
X19035211Y-29334159D01*
X19008845Y-29384926D01*
X18966062Y-29418100D01*
X18906018Y-29429745D01*
X18854991Y-29423357D01*
X18819339Y-29406264D01*
X18794888Y-29379309D01*
X18772995Y-29322244D01*
X18764357Y-29233496D01*
X18764357Y-28277529D01*
X18478715Y-28277529D01*
G37*
G36*
X18242288Y-29700000D02*
G01*
X18242288Y-28277529D01*
X17956646Y-28277529D01*
X17956646Y-28415526D01*
X17951151Y-28415526D01*
X17901684Y-28354144D01*
X17843806Y-28305251D01*
X17774838Y-28273434D01*
X17683339Y-28261898D01*
X17597174Y-28273625D01*
X17530076Y-28306594D01*
X17473349Y-28354139D01*
X17429570Y-28404169D01*
X17373465Y-28349563D01*
X17312334Y-28303785D01*
X17240316Y-28273504D01*
X17133792Y-28261898D01*
X17080771Y-28266333D01*
X17024982Y-28280094D01*
X16972229Y-28304107D01*
X16924476Y-28340422D01*
X16884692Y-28387380D01*
X16851936Y-28448377D01*
X16831580Y-28518575D01*
X16824092Y-28609455D01*
X16824092Y-29700000D01*
X17109734Y-29700000D01*
X17109734Y-28716067D01*
X17119516Y-28643492D01*
X17145882Y-28592725D01*
X17188593Y-28559466D01*
X17248709Y-28547784D01*
X17299724Y-28554184D01*
X17335377Y-28571314D01*
X17359839Y-28598342D01*
X17381735Y-28655393D01*
X17390369Y-28744033D01*
X17390369Y-29700000D01*
X17676011Y-29700000D01*
X17676011Y-28716067D01*
X17685793Y-28643492D01*
X17712159Y-28592725D01*
X17754953Y-28559456D01*
X17814986Y-28547784D01*
X17866001Y-28554184D01*
X17901654Y-28571314D01*
X17926116Y-28598342D01*
X17948012Y-28655393D01*
X17956646Y-28744033D01*
X17956646Y-29700000D01*
X18242288Y-29700000D01*
G37*
G36*
X16585345Y-29700000D02*
G01*
X16585345Y-28277529D01*
X16299703Y-28277529D01*
X16299703Y-28415526D01*
X16294207Y-28415526D01*
X16244741Y-28354144D01*
X16186863Y-28305251D01*
X16117894Y-28273434D01*
X16026395Y-28261898D01*
X15940230Y-28273625D01*
X15873133Y-28306594D01*
X15816405Y-28354139D01*
X15772627Y-28404169D01*
X15716522Y-28349563D01*
X15655390Y-28303785D01*
X15583372Y-28273504D01*
X15476849Y-28261898D01*
X15423828Y-28266333D01*
X15368039Y-28280094D01*
X15315285Y-28304107D01*
X15267533Y-28340422D01*
X15227748Y-28387380D01*
X15194993Y-28448377D01*
X15174637Y-28518575D01*
X15167149Y-28609455D01*
X15167149Y-29700000D01*
X15452791Y-29700000D01*
X15452791Y-28716067D01*
X15462573Y-28643492D01*
X15488939Y-28592725D01*
X15531649Y-28559466D01*
X15591765Y-28547784D01*
X15642780Y-28554184D01*
X15678434Y-28571314D01*
X15702896Y-28598342D01*
X15724791Y-28655393D01*
X15733426Y-28744033D01*
X15733426Y-29700000D01*
X16019068Y-29700000D01*
X16019068Y-28716067D01*
X16028850Y-28643492D01*
X16055216Y-28592725D01*
X16098009Y-28559456D01*
X16158042Y-28547784D01*
X16209057Y-28554184D01*
X16244711Y-28571314D01*
X16269173Y-28598342D01*
X16291068Y-28655393D01*
X16299703Y-28744033D01*
X16299703Y-29700000D01*
X16585345Y-29700000D01*
G37*
G36*
X14614124Y-28268604D02*
G01*
X14689555Y-28287619D01*
X14754378Y-28317951D01*
X14837669Y-28383360D01*
X14898726Y-28466451D01*
X14924241Y-28525454D01*
X14940736Y-28595167D01*
X14951849Y-28754902D01*
X14951849Y-29222627D01*
X14940736Y-29382362D01*
X14924241Y-29452074D01*
X14898726Y-29511078D01*
X14837674Y-29594193D01*
X14754378Y-29659699D01*
X14689563Y-29689963D01*
X14614131Y-29708938D01*
X14525889Y-29715631D01*
X14431216Y-29706942D01*
X14349424Y-29682048D01*
X14276104Y-29641891D01*
X14214846Y-29589724D01*
X14151972Y-29506947D01*
X14113489Y-29407843D01*
X14099930Y-29287718D01*
X14385572Y-29287718D01*
X14396182Y-29334338D01*
X14417812Y-29382484D01*
X14439749Y-29407374D01*
X14474043Y-29423549D01*
X14525767Y-29429745D01*
X14585175Y-29420174D01*
X14628349Y-29393475D01*
X14656135Y-29351221D01*
X14666207Y-29290526D01*
X14666207Y-29098185D01*
X14099930Y-29098185D01*
X14099930Y-28709717D01*
X14385572Y-28709717D01*
X14385572Y-28871528D01*
X14666207Y-28871528D01*
X14666207Y-28709717D01*
X14655766Y-28635860D01*
X14628349Y-28588328D01*
X14584806Y-28558333D01*
X14525767Y-28547784D01*
X14466939Y-28558322D01*
X14423429Y-28588328D01*
X14396012Y-28635860D01*
X14385572Y-28709717D01*
X14099930Y-28709717D01*
X14099930Y-28705321D01*
X14113037Y-28582342D01*
X14150554Y-28477960D01*
X14212037Y-28388171D01*
X14273511Y-28335962D01*
X14347958Y-28295603D01*
X14431022Y-28270582D01*
X14525889Y-28261898D01*
X14614124Y-28268604D01*
G37*
G36*
X13892812Y-29700000D02*
G01*
X13892812Y-28277529D01*
X13607170Y-28277529D01*
X13607170Y-28429570D01*
X13518755Y-28358161D01*
X13436200Y-28306716D01*
X13345543Y-28273852D01*
X13228471Y-28261898D01*
X13228471Y-28564637D01*
X13271340Y-28551984D01*
X13315422Y-28547784D01*
X13412264Y-28563293D01*
X13461542Y-28583849D01*
X13506175Y-28615073D01*
X13546365Y-28656474D01*
X13579204Y-28710450D01*
X13599651Y-28773618D01*
X13607170Y-28856140D01*
X13607170Y-29700000D01*
X13892812Y-29700000D01*
G37*
G36*
X28134821Y-31052440D02*
G01*
X28271462Y-31078731D01*
X28401692Y-31122177D01*
X28525477Y-31181708D01*
X28636934Y-31253633D01*
X28737159Y-31338210D01*
X28827588Y-31435027D01*
X28904138Y-31541870D01*
X28967358Y-31659633D01*
X29013918Y-31784497D01*
X29041996Y-31915466D01*
X29051500Y-32053963D01*
X29042080Y-32198157D01*
X29014377Y-32333343D01*
X28968702Y-32460994D01*
X28906210Y-32581426D01*
X28831061Y-32688577D01*
X28742899Y-32783639D01*
X28642554Y-32868194D01*
X28531138Y-32939700D01*
X28407554Y-32998450D01*
X28277467Y-33041068D01*
X28140858Y-33066879D01*
X27996493Y-33075631D01*
X27854749Y-33067495D01*
X27717323Y-33043269D01*
X27584648Y-33003373D01*
X27460624Y-32949113D01*
X27347431Y-32880279D01*
X27243126Y-32797316D01*
X27151330Y-32701379D01*
X27076186Y-32594717D01*
X27294173Y-32594717D01*
X27349137Y-32651057D01*
X27418736Y-32707923D01*
X27496033Y-32758190D01*
X27582379Y-32801468D01*
X27673919Y-32836411D01*
X27772522Y-32864239D01*
X27873511Y-32882134D01*
X27974023Y-32888053D01*
X28095719Y-32880643D01*
X28208083Y-32859016D01*
X28312421Y-32823695D01*
X28457643Y-32747139D01*
X28583775Y-32647351D01*
X28656233Y-32570195D01*
X28717148Y-32484181D01*
X28766957Y-32388454D01*
X28803298Y-32286878D01*
X28825233Y-32180422D01*
X28832658Y-32068007D01*
X28825525Y-31961017D01*
X28804199Y-31856819D01*
X28768422Y-31754521D01*
X28719641Y-31657520D01*
X28659207Y-31568185D01*
X28586584Y-31485854D01*
X28460456Y-31380583D01*
X28316695Y-31299741D01*
X28213111Y-31261822D01*
X28103924Y-31238889D01*
X27987944Y-31231109D01*
X27840074Y-31243187D01*
X27702669Y-31278736D01*
X27575455Y-31337031D01*
X27464898Y-31415512D01*
X27371888Y-31513333D01*
X27299790Y-31628004D01*
X27265794Y-31711858D01*
X27245232Y-31800940D01*
X27238241Y-31896427D01*
X27246479Y-31996877D01*
X27271946Y-32101835D01*
X27311346Y-32203265D01*
X27361461Y-32296008D01*
X27421774Y-32378868D01*
X27484682Y-32441454D01*
X27554045Y-32484234D01*
X27619016Y-32497264D01*
X27650926Y-32491172D01*
X27669452Y-32474916D01*
X27679595Y-32450283D01*
X27683374Y-32416175D01*
X27676413Y-32363175D01*
X27655408Y-32290268D01*
X27534540Y-31908883D01*
X27764584Y-31908883D01*
X27772536Y-31993977D01*
X27798168Y-32090966D01*
X27837629Y-32185244D01*
X27887805Y-32270118D01*
X27948857Y-32347734D01*
X28017864Y-32410069D01*
X28094788Y-32452622D01*
X28170394Y-32466001D01*
X28238714Y-32458480D01*
X28294226Y-32437296D01*
X28339776Y-32402986D01*
X28373586Y-32357205D01*
X28395010Y-32298329D01*
X28402791Y-32222491D01*
X28394739Y-32135208D01*
X28369207Y-32039187D01*
X28329129Y-31946216D01*
X28276762Y-31861378D01*
X28214818Y-31787135D01*
X28142428Y-31728387D01*
X28060360Y-31689497D01*
X27971702Y-31676608D01*
X27907770Y-31684626D01*
X27857575Y-31707089D01*
X27817829Y-31743775D01*
X27778350Y-31817239D01*
X27764584Y-31908883D01*
X27534540Y-31908883D01*
X27411775Y-31521514D01*
X27588241Y-31521514D01*
X27644173Y-31693461D01*
X27649790Y-31693461D01*
X27684771Y-31619671D01*
X27729132Y-31564276D01*
X27783147Y-31524200D01*
X27876846Y-31485911D01*
X27972679Y-31473398D01*
X28071843Y-31481333D01*
X28161568Y-31504416D01*
X28243545Y-31542274D01*
X28354011Y-31621176D01*
X28446877Y-31720450D01*
X28523797Y-31836396D01*
X28581699Y-31967501D01*
X28617675Y-32105958D01*
X28629448Y-32242519D01*
X28616873Y-32356236D01*
X28580434Y-32455264D01*
X28519905Y-32542937D01*
X28461499Y-32595357D01*
X28392166Y-32635505D01*
X28314764Y-32660585D01*
X28227669Y-32669211D01*
X28165221Y-32665103D01*
X28112630Y-32653579D01*
X28019818Y-32612180D01*
X27948255Y-32555150D01*
X27884996Y-32489448D01*
X27879378Y-32489448D01*
X27855780Y-32571240D01*
X27811967Y-32625003D01*
X27748692Y-32657318D01*
X27660170Y-32669211D01*
X27569305Y-32656038D01*
X27459281Y-32611692D01*
X27353175Y-32543923D01*
X27249842Y-32450247D01*
X27160810Y-32340074D01*
X27085467Y-32204539D01*
X27049228Y-32106195D01*
X27027024Y-31999539D01*
X27019399Y-31883115D01*
X27028086Y-31761339D01*
X27053494Y-31649069D01*
X27095237Y-31544717D01*
X27152096Y-31447494D01*
X27221999Y-31359272D01*
X27305774Y-31279347D01*
X27399233Y-31210745D01*
X27502694Y-31152751D01*
X27617184Y-31105324D01*
X27736438Y-31071178D01*
X27860594Y-31050517D01*
X27990509Y-31043531D01*
X28134821Y-31052440D01*
G37*
G36*
X26843545Y-33060000D02*
G01*
X26843545Y-31066978D01*
X26557903Y-31066978D01*
X26557903Y-31776015D01*
X26552407Y-31776015D01*
X26502930Y-31714407D01*
X26445062Y-31665373D01*
X26375980Y-31633459D01*
X26284473Y-31621898D01*
X26231936Y-31626383D01*
X26178593Y-31640094D01*
X26128711Y-31664058D01*
X26083705Y-31700422D01*
X26046758Y-31747249D01*
X26016782Y-31808377D01*
X25998419Y-31878406D01*
X25991625Y-31969455D01*
X25991625Y-33060000D01*
X26277267Y-33060000D01*
X26277267Y-32076067D01*
X26287049Y-32003492D01*
X26313415Y-31952725D01*
X26356209Y-31919456D01*
X26416242Y-31907784D01*
X26467257Y-31914184D01*
X26502910Y-31931314D01*
X26527372Y-31958342D01*
X26549268Y-32015393D01*
X26557903Y-32104033D01*
X26557903Y-33060000D01*
X26843545Y-33060000D01*
G37*
G36*
X25903210Y-33060000D02*
G01*
X25553210Y-32333377D01*
X25886479Y-31637529D01*
X25583984Y-31637529D01*
X25407641Y-32041507D01*
X25231175Y-31637529D01*
X24928803Y-31637529D01*
X25267690Y-32333377D01*
X24912072Y-33060000D01*
X25214445Y-33060000D01*
X25407641Y-32625125D01*
X25600837Y-33060000D01*
X25903210Y-33060000D01*
G37*
G36*
X24827076Y-33060000D02*
G01*
X24827076Y-31637529D01*
X24541434Y-31637529D01*
X24541434Y-31789570D01*
X24453019Y-31718161D01*
X24370464Y-31666716D01*
X24279807Y-31633852D01*
X24162735Y-31621898D01*
X24162735Y-31924637D01*
X24205604Y-31911984D01*
X24249685Y-31907784D01*
X24346528Y-31923293D01*
X24395806Y-31943849D01*
X24440439Y-31975073D01*
X24480629Y-32016474D01*
X24513468Y-32070450D01*
X24533915Y-32133618D01*
X24541434Y-32216140D01*
X24541434Y-33060000D01*
X24827076Y-33060000D01*
G37*
G36*
X24256524Y-33060000D02*
G01*
X24256524Y-32774113D01*
X23970882Y-32774113D01*
X23970882Y-33060000D01*
X24256524Y-33060000D01*
G37*
G36*
X23220935Y-32034180D02*
G01*
X23232504Y-31968113D01*
X23264166Y-31924270D01*
X23310535Y-31896761D01*
X23363084Y-31887634D01*
X23423376Y-31898984D01*
X23466154Y-31931109D01*
X23493280Y-31977800D01*
X23502302Y-32030760D01*
X23497484Y-32069454D01*
X23482641Y-32108185D01*
X23452252Y-32140936D01*
X23381402Y-32176817D01*
X23212752Y-32244228D01*
X23111818Y-32293669D01*
X23040254Y-32349948D01*
X22992201Y-32412878D01*
X22958685Y-32486029D01*
X22938566Y-32563345D01*
X22931751Y-32646008D01*
X22939978Y-32733352D01*
X22964113Y-32813070D01*
X23002504Y-32885911D01*
X23052651Y-32949235D01*
X23114061Y-33001615D01*
X23187595Y-33041926D01*
X23268947Y-33067034D01*
X23359176Y-33075631D01*
X23471009Y-33063078D01*
X23567247Y-33026851D01*
X23651413Y-32966821D01*
X23704400Y-32908093D01*
X23747156Y-32834563D01*
X23774098Y-32750688D01*
X23783670Y-32649183D01*
X23516102Y-32649183D01*
X23501533Y-32706240D01*
X23474825Y-32759214D01*
X23449019Y-32786297D01*
X23411996Y-32803489D01*
X23359665Y-32809895D01*
X23300429Y-32799792D01*
X23247313Y-32769228D01*
X23210362Y-32721325D01*
X23197487Y-32655411D01*
X23205453Y-32599887D01*
X23228384Y-32554417D01*
X23268170Y-32517573D01*
X23340858Y-32481266D01*
X23478611Y-32430708D01*
X23564011Y-32390506D01*
X23634041Y-32340520D01*
X23690736Y-32280621D01*
X23733079Y-32210590D01*
X23759006Y-32130401D01*
X23768039Y-32037477D01*
X23759540Y-31950202D01*
X23734577Y-31870537D01*
X23694596Y-31798226D01*
X23642376Y-31737058D01*
X23581951Y-31687685D01*
X23511339Y-31651451D01*
X23433757Y-31629403D01*
X23349406Y-31621898D01*
X23265222Y-31629710D01*
X23188939Y-31652550D01*
X23119845Y-31689671D01*
X23061810Y-31738890D01*
X23014762Y-31799251D01*
X22978157Y-31871270D01*
X22955161Y-31949835D01*
X22947383Y-32034180D01*
X23220935Y-32034180D01*
G37*
G36*
X22437710Y-31628604D02*
G01*
X22513142Y-31647619D01*
X22577965Y-31677951D01*
X22661256Y-31743360D01*
X22722313Y-31826451D01*
X22747828Y-31885454D01*
X22764323Y-31955167D01*
X22775436Y-32114902D01*
X22775436Y-32582627D01*
X22764323Y-32742362D01*
X22747828Y-32812074D01*
X22722313Y-32871078D01*
X22661261Y-32954193D01*
X22577965Y-33019699D01*
X22513150Y-33049963D01*
X22437718Y-33068938D01*
X22349476Y-33075631D01*
X22261318Y-33068938D01*
X22185967Y-33049963D01*
X22121231Y-33019699D01*
X22037835Y-32954185D01*
X21976762Y-32871078D01*
X21951246Y-32812074D01*
X21934752Y-32742362D01*
X21923517Y-32582627D01*
X21923517Y-32114902D01*
X21926661Y-32070205D01*
X22209159Y-32070205D01*
X22209159Y-32627445D01*
X22219603Y-32701537D01*
X22247016Y-32749200D01*
X22290526Y-32779206D01*
X22349354Y-32789745D01*
X22408393Y-32779196D01*
X22451936Y-32749200D01*
X22479350Y-32701537D01*
X22489794Y-32627445D01*
X22489794Y-32070205D01*
X22479350Y-31996114D01*
X22451936Y-31948450D01*
X22408383Y-31918360D01*
X22349354Y-31907784D01*
X22290536Y-31918350D01*
X22247016Y-31948450D01*
X22219603Y-31996114D01*
X22209159Y-32070205D01*
X21926661Y-32070205D01*
X21934752Y-31955167D01*
X21951246Y-31885454D01*
X21976762Y-31826451D01*
X22037840Y-31743369D01*
X22121231Y-31677951D01*
X22185975Y-31647619D01*
X22261325Y-31628604D01*
X22349476Y-31621898D01*
X22437710Y-31628604D01*
G37*
G36*
X21415125Y-32649794D02*
G01*
X21405039Y-32710933D01*
X21377267Y-32753353D01*
X21334082Y-32780145D01*
X21274685Y-32789745D01*
X21222988Y-32783525D01*
X21188690Y-32767274D01*
X21166730Y-32742240D01*
X21145103Y-32693853D01*
X21134490Y-32646985D01*
X20848848Y-32646985D01*
X20862411Y-32767362D01*
X20900899Y-32866668D01*
X20963764Y-32949602D01*
X21025017Y-33001796D01*
X21098342Y-33042048D01*
X21180134Y-33066942D01*
X21274808Y-33075631D01*
X21363049Y-33068938D01*
X21438481Y-33049963D01*
X21503297Y-33019699D01*
X21586592Y-32954193D01*
X21647644Y-32871078D01*
X21673159Y-32812074D01*
X21689654Y-32742362D01*
X21700767Y-32582627D01*
X21700767Y-32114902D01*
X21689654Y-31955167D01*
X21673159Y-31885454D01*
X21647644Y-31826451D01*
X21586587Y-31743360D01*
X21503297Y-31677951D01*
X21438474Y-31647619D01*
X21363042Y-31628604D01*
X21274808Y-31621898D01*
X21179940Y-31630582D01*
X21096877Y-31655603D01*
X21022425Y-31695842D01*
X20960956Y-31747927D01*
X20899957Y-31837850D01*
X20862205Y-31945556D01*
X20848848Y-32075823D01*
X21134490Y-32075823D01*
X21145120Y-31996800D01*
X21172348Y-31948450D01*
X21215868Y-31918350D01*
X21274685Y-31907784D01*
X21333714Y-31918360D01*
X21377267Y-31948450D01*
X21404681Y-31996114D01*
X21415125Y-32070205D01*
X21415125Y-32649794D01*
G37*
G36*
X20680809Y-33060000D02*
G01*
X20680809Y-31637529D01*
X20395167Y-31637529D01*
X20395167Y-33060000D01*
X20680809Y-33060000D01*
G37*
G36*
X20680809Y-31352864D02*
G01*
X20680809Y-31066978D01*
X20395167Y-31066978D01*
X20395167Y-31352864D01*
X20680809Y-31352864D01*
G37*
G36*
X19856728Y-31630249D02*
G01*
X19938677Y-31654138D01*
X20012144Y-31692700D01*
X20073255Y-31742431D01*
X20138957Y-31827204D01*
X20182108Y-31928558D01*
X20202337Y-32050666D01*
X19925122Y-32050666D01*
X19902140Y-31987680D01*
X19864549Y-31944176D01*
X19815370Y-31916776D01*
X19761845Y-31907784D01*
X19709766Y-31913913D01*
X19673701Y-31930169D01*
X19649249Y-31955411D01*
X19626487Y-32007446D01*
X19618230Y-32075945D01*
X19618230Y-32224323D01*
X19660362Y-32221514D01*
X19694068Y-32218705D01*
X19724965Y-32215896D01*
X19755739Y-32215896D01*
X19884222Y-32224020D01*
X19977634Y-32245327D01*
X20057037Y-32283059D01*
X20115265Y-32333621D01*
X20159592Y-32401283D01*
X20188293Y-32486273D01*
X20202701Y-32581010D01*
X20207955Y-32697543D01*
X20199826Y-32809181D01*
X20178524Y-32889396D01*
X20143145Y-32956740D01*
X20101221Y-33002847D01*
X20051439Y-33038678D01*
X20001570Y-33060122D01*
X19899110Y-33075631D01*
X19802676Y-33064151D01*
X19737543Y-33033988D01*
X19682518Y-32985535D01*
X19623848Y-32914431D01*
X19618230Y-32914431D01*
X19618230Y-33058900D01*
X19332588Y-33058900D01*
X19332588Y-32450980D01*
X19618230Y-32450980D01*
X19618230Y-32643810D01*
X19629336Y-32723459D01*
X19659141Y-32778021D01*
X19706855Y-32813158D01*
X19773080Y-32825526D01*
X19836393Y-32812627D01*
X19882868Y-32775212D01*
X19911848Y-32719119D01*
X19922313Y-32643810D01*
X19913785Y-32570636D01*
X19891208Y-32520079D01*
X19856245Y-32485907D01*
X19784978Y-32453835D01*
X19697121Y-32442554D01*
X19618230Y-32450980D01*
X19332588Y-32450980D01*
X19332588Y-32070083D01*
X19341476Y-31962449D01*
X19366294Y-31874078D01*
X19406333Y-31795798D01*
X19456053Y-31733883D01*
X19519713Y-31685071D01*
X19593562Y-31649986D01*
X19674143Y-31629046D01*
X19761845Y-31621898D01*
X19856728Y-31630249D01*
G37*
G36*
X19141102Y-31066978D02*
G01*
X18855460Y-31066978D01*
X18855460Y-32661884D01*
X18846702Y-32735175D01*
X18826029Y-32772648D01*
X18788452Y-32795068D01*
X18715143Y-32810505D01*
X18715143Y-33079539D01*
X18810671Y-33075452D01*
X18891730Y-33064030D01*
X18965436Y-33040884D01*
X19026186Y-33003824D01*
X19074703Y-32954272D01*
X19111671Y-32884755D01*
X19132895Y-32801000D01*
X19141102Y-32681423D01*
X19141102Y-31066978D01*
G37*
G36*
X28348377Y-38133489D02*
G01*
X28552808Y-39131953D01*
X28678777Y-39131953D01*
X28881803Y-38133489D01*
X28730617Y-38133489D01*
X28617227Y-38830436D01*
X28614419Y-38830436D01*
X28499624Y-38133489D01*
X28348377Y-38133489D01*
G37*
G36*
X28166447Y-38414302D02*
G01*
X28204163Y-38423809D01*
X28236575Y-38438975D01*
X28278220Y-38471680D01*
X28308749Y-38513225D01*
X28321506Y-38542727D01*
X28329754Y-38577583D01*
X28335310Y-38657451D01*
X28335310Y-38891313D01*
X28329754Y-38971181D01*
X28321506Y-39006037D01*
X28308749Y-39035539D01*
X28278223Y-39077096D01*
X28236575Y-39109849D01*
X28204167Y-39124981D01*
X28166451Y-39134469D01*
X28122330Y-39137815D01*
X28074994Y-39133471D01*
X28034098Y-39121024D01*
X27997437Y-39100945D01*
X27966809Y-39074862D01*
X27935372Y-39033473D01*
X27916130Y-38983921D01*
X27909351Y-38923859D01*
X28052172Y-38923859D01*
X28057477Y-38947169D01*
X28068292Y-38971242D01*
X28079260Y-38983687D01*
X28096407Y-38991774D01*
X28122269Y-38994872D01*
X28151973Y-38990087D01*
X28173560Y-38976737D01*
X28187453Y-38955610D01*
X28192489Y-38925263D01*
X28192489Y-38829092D01*
X27909351Y-38829092D01*
X27909351Y-38634858D01*
X28052172Y-38634858D01*
X28052172Y-38715764D01*
X28192489Y-38715764D01*
X28192489Y-38634858D01*
X28187269Y-38597930D01*
X28173560Y-38574164D01*
X28151789Y-38559166D01*
X28122269Y-38553892D01*
X28092855Y-38559161D01*
X28071100Y-38574164D01*
X28057392Y-38597930D01*
X28052172Y-38634858D01*
X27909351Y-38634858D01*
X27909351Y-38632660D01*
X27915904Y-38571171D01*
X27934663Y-38518980D01*
X27965404Y-38474085D01*
X27996141Y-38447981D01*
X28033365Y-38427801D01*
X28074897Y-38415291D01*
X28122330Y-38410949D01*
X28166447Y-38414302D01*
G37*
G36*
X27805792Y-39130000D02*
G01*
X27805792Y-38418764D01*
X27662971Y-38418764D01*
X27662971Y-38494785D01*
X27618763Y-38459080D01*
X27577486Y-38433358D01*
X27532157Y-38416926D01*
X27473621Y-38410949D01*
X27473621Y-38562318D01*
X27495056Y-38555992D01*
X27517096Y-38553892D01*
X27565518Y-38561646D01*
X27590157Y-38571924D01*
X27612473Y-38587536D01*
X27632568Y-38608237D01*
X27648988Y-38635225D01*
X27659211Y-38666809D01*
X27662971Y-38708070D01*
X27662971Y-39130000D01*
X27805792Y-39130000D01*
G37*
G36*
X27159036Y-38617090D02*
G01*
X27164821Y-38584056D01*
X27180652Y-38562135D01*
X27203837Y-38548380D01*
X27230111Y-38543817D01*
X27260257Y-38549492D01*
X27281646Y-38565554D01*
X27295209Y-38588900D01*
X27299720Y-38615380D01*
X27297311Y-38634727D01*
X27289890Y-38654092D01*
X27274695Y-38670468D01*
X27239270Y-38688408D01*
X27154945Y-38722114D01*
X27104478Y-38746834D01*
X27068696Y-38774974D01*
X27044670Y-38806439D01*
X27027912Y-38843014D01*
X27017852Y-38881672D01*
X27014445Y-38923004D01*
X27018558Y-38966676D01*
X27030626Y-39006535D01*
X27049821Y-39042955D01*
X27074895Y-39074617D01*
X27105600Y-39100807D01*
X27142367Y-39120963D01*
X27183043Y-39133517D01*
X27228157Y-39137815D01*
X27284073Y-39131539D01*
X27332193Y-39113425D01*
X27374275Y-39083410D01*
X27400769Y-39054046D01*
X27422147Y-39017281D01*
X27435618Y-38975344D01*
X27440404Y-38924591D01*
X27306620Y-38924591D01*
X27299336Y-38953120D01*
X27285982Y-38979607D01*
X27273079Y-38993148D01*
X27254567Y-39001744D01*
X27228401Y-39004947D01*
X27198783Y-38999896D01*
X27172226Y-38984614D01*
X27153750Y-38960662D01*
X27147313Y-38927705D01*
X27151296Y-38899943D01*
X27162761Y-38877208D01*
X27182654Y-38858786D01*
X27218998Y-38840633D01*
X27287875Y-38815354D01*
X27330575Y-38795253D01*
X27365590Y-38770260D01*
X27393937Y-38740310D01*
X27415109Y-38705295D01*
X27428072Y-38665200D01*
X27432588Y-38618738D01*
X27428339Y-38575101D01*
X27415858Y-38535268D01*
X27395867Y-38499113D01*
X27369757Y-38468529D01*
X27339545Y-38443842D01*
X27304239Y-38425725D01*
X27265448Y-38414701D01*
X27223272Y-38410949D01*
X27181180Y-38414855D01*
X27143039Y-38426275D01*
X27108492Y-38444835D01*
X27079474Y-38469445D01*
X27055950Y-38499625D01*
X27037648Y-38535635D01*
X27026150Y-38574917D01*
X27022260Y-38617090D01*
X27159036Y-38617090D01*
G37*
G36*
X26924563Y-39130000D02*
G01*
X26924563Y-38418764D01*
X26781742Y-38418764D01*
X26781742Y-39130000D01*
X26924563Y-39130000D01*
G37*
G36*
X26924563Y-38276432D02*
G01*
X26924563Y-38133489D01*
X26781742Y-38133489D01*
X26781742Y-38276432D01*
X26924563Y-38276432D01*
G37*
G36*
X26507550Y-38414302D02*
G01*
X26545266Y-38423809D01*
X26577677Y-38438975D01*
X26619323Y-38471680D01*
X26649851Y-38513225D01*
X26662609Y-38542727D01*
X26670856Y-38577583D01*
X26676413Y-38657451D01*
X26676413Y-38891313D01*
X26670856Y-38971181D01*
X26662609Y-39006037D01*
X26649851Y-39035539D01*
X26619325Y-39077096D01*
X26577677Y-39109849D01*
X26545270Y-39124981D01*
X26507554Y-39134469D01*
X26463433Y-39137815D01*
X26419354Y-39134469D01*
X26381679Y-39124981D01*
X26349310Y-39109849D01*
X26307612Y-39077092D01*
X26277076Y-39035539D01*
X26264318Y-39006037D01*
X26256071Y-38971181D01*
X26250453Y-38891313D01*
X26250453Y-38657451D01*
X26252025Y-38635102D01*
X26393274Y-38635102D01*
X26393274Y-38913722D01*
X26398496Y-38950768D01*
X26412203Y-38974600D01*
X26433958Y-38989603D01*
X26463372Y-38994872D01*
X26492891Y-38989598D01*
X26514663Y-38974600D01*
X26528370Y-38950768D01*
X26533592Y-38913722D01*
X26533592Y-38635102D01*
X26528370Y-38598057D01*
X26514663Y-38574225D01*
X26492886Y-38559180D01*
X26463372Y-38553892D01*
X26433963Y-38559175D01*
X26412203Y-38574225D01*
X26398496Y-38598057D01*
X26393274Y-38635102D01*
X26252025Y-38635102D01*
X26256071Y-38577583D01*
X26264318Y-38542727D01*
X26277076Y-38513225D01*
X26307615Y-38471684D01*
X26349310Y-38438975D01*
X26381682Y-38423809D01*
X26419357Y-38414302D01*
X26463433Y-38410949D01*
X26507550Y-38414302D01*
G37*
G36*
X26146894Y-39130000D02*
G01*
X26146894Y-38418764D01*
X26004073Y-38418764D01*
X26004073Y-38487763D01*
X26001325Y-38487763D01*
X25976592Y-38457072D01*
X25947653Y-38432625D01*
X25913117Y-38416715D01*
X25867358Y-38410949D01*
X25841090Y-38413191D01*
X25814419Y-38420047D01*
X25789477Y-38432029D01*
X25766974Y-38450211D01*
X25748501Y-38473624D01*
X25733513Y-38504188D01*
X25724331Y-38539203D01*
X25720935Y-38584727D01*
X25720935Y-39130000D01*
X25863756Y-39130000D01*
X25863756Y-38638033D01*
X25868647Y-38601746D01*
X25881830Y-38576362D01*
X25903226Y-38559728D01*
X25933243Y-38553892D01*
X25958750Y-38557092D01*
X25976577Y-38565657D01*
X25988808Y-38579171D01*
X25999756Y-38607696D01*
X26004073Y-38652016D01*
X26004073Y-39130000D01*
X26146894Y-39130000D01*
G37*
G36*
X28920279Y-26996000D02*
G01*
X28682215Y-26996000D01*
X28605862Y-26990322D01*
X28542943Y-26974488D01*
X28491034Y-26949683D01*
X28448255Y-26916205D01*
X28414721Y-26874162D01*
X28389409Y-26820727D01*
X28372931Y-26753293D01*
X28366922Y-26668543D01*
X28366922Y-26109251D01*
X28367013Y-26108006D01*
X28538307Y-26108006D01*
X28538307Y-26686495D01*
X28542305Y-26737510D01*
X28552833Y-26774277D01*
X28568422Y-26800288D01*
X28591116Y-26819317D01*
X28623879Y-26831826D01*
X28670345Y-26836558D01*
X28748893Y-26836558D01*
X28748893Y-25959628D01*
X28670345Y-25959628D01*
X28621842Y-25964748D01*
X28588741Y-25978135D01*
X28566737Y-25998390D01*
X28546157Y-26042403D01*
X28538307Y-26108006D01*
X28367013Y-26108006D01*
X28372336Y-26035306D01*
X28387467Y-25974001D01*
X28411212Y-25923102D01*
X28443272Y-25880860D01*
X28483748Y-25846941D01*
X28533181Y-25821897D01*
X28593453Y-25805922D01*
X28667048Y-25800187D01*
X28920279Y-25800187D01*
X28920279Y-26996000D01*
G37*
G36*
X28025948Y-26137162D02*
G01*
X28071207Y-26148571D01*
X28110101Y-26166771D01*
X28160075Y-26206016D01*
X28196709Y-26255870D01*
X28212018Y-26291272D01*
X28221915Y-26333100D01*
X28228583Y-26428941D01*
X28228583Y-26709576D01*
X28221915Y-26805417D01*
X28212018Y-26847244D01*
X28196709Y-26882646D01*
X28160078Y-26932516D01*
X28110101Y-26971819D01*
X28071211Y-26989977D01*
X28025952Y-27001363D01*
X27973007Y-27005378D01*
X27916203Y-27000165D01*
X27867128Y-26985228D01*
X27823136Y-26961134D01*
X27786381Y-26929834D01*
X27748657Y-26880168D01*
X27725567Y-26820706D01*
X27717431Y-26748630D01*
X27888817Y-26748630D01*
X27895183Y-26776603D01*
X27908161Y-26805490D01*
X27921323Y-26820424D01*
X27941899Y-26830129D01*
X27972934Y-26833847D01*
X28008578Y-26828104D01*
X28034483Y-26812085D01*
X28051155Y-26786732D01*
X28057198Y-26750316D01*
X28057198Y-26634911D01*
X27717431Y-26634911D01*
X27717431Y-26401830D01*
X27888817Y-26401830D01*
X27888817Y-26498916D01*
X28057198Y-26498916D01*
X28057198Y-26401830D01*
X28050933Y-26357516D01*
X28034483Y-26328997D01*
X28008357Y-26310999D01*
X27972934Y-26304670D01*
X27937637Y-26310993D01*
X27911531Y-26328997D01*
X27895081Y-26357516D01*
X27888817Y-26401830D01*
X27717431Y-26401830D01*
X27717431Y-26399192D01*
X27725296Y-26325405D01*
X27747806Y-26262776D01*
X27784696Y-26208903D01*
X27821580Y-26177577D01*
X27866249Y-26153362D01*
X27916087Y-26138349D01*
X27973007Y-26133138D01*
X28025948Y-26137162D01*
G37*
G36*
X27283656Y-26380508D02*
G01*
X27290598Y-26340868D01*
X27309595Y-26314562D01*
X27337416Y-26298057D01*
X27368946Y-26292580D01*
X27405121Y-26299390D01*
X27430788Y-26318665D01*
X27447063Y-26346680D01*
X27452477Y-26378456D01*
X27449586Y-26401672D01*
X27440680Y-26424911D01*
X27422447Y-26444561D01*
X27379937Y-26466090D01*
X27278747Y-26506537D01*
X27218186Y-26536201D01*
X27175248Y-26569968D01*
X27146416Y-26607727D01*
X27126307Y-26651617D01*
X27114235Y-26698007D01*
X27110146Y-26747605D01*
X27115082Y-26800011D01*
X27129563Y-26847842D01*
X27152598Y-26891547D01*
X27182686Y-26929541D01*
X27219532Y-26960969D01*
X27263653Y-26985155D01*
X27312464Y-27000220D01*
X27366601Y-27005378D01*
X27433701Y-26997847D01*
X27491444Y-26976110D01*
X27541943Y-26940092D01*
X27573735Y-26904855D01*
X27599389Y-26860738D01*
X27615554Y-26810413D01*
X27621297Y-26749510D01*
X27460757Y-26749510D01*
X27452015Y-26783744D01*
X27435990Y-26815528D01*
X27420507Y-26831778D01*
X27398293Y-26842093D01*
X27366894Y-26845937D01*
X27331353Y-26839875D01*
X27299483Y-26821537D01*
X27277313Y-26792795D01*
X27269588Y-26753247D01*
X27274367Y-26719932D01*
X27288126Y-26692650D01*
X27311998Y-26670544D01*
X27355610Y-26648759D01*
X27438262Y-26618424D01*
X27489502Y-26594303D01*
X27531520Y-26564312D01*
X27565537Y-26528372D01*
X27590943Y-26486354D01*
X27606499Y-26438240D01*
X27611919Y-26382486D01*
X27606820Y-26330121D01*
X27591842Y-26282322D01*
X27567853Y-26238936D01*
X27536521Y-26202235D01*
X27500266Y-26172611D01*
X27457899Y-26150870D01*
X27411349Y-26137641D01*
X27360739Y-26133138D01*
X27310228Y-26137826D01*
X27264459Y-26151530D01*
X27223002Y-26173803D01*
X27188182Y-26203334D01*
X27159953Y-26239550D01*
X27137990Y-26282762D01*
X27124192Y-26329901D01*
X27119525Y-26380508D01*
X27283656Y-26380508D01*
G37*
G36*
X27002288Y-26996000D02*
G01*
X27002288Y-26142517D01*
X26830903Y-26142517D01*
X26830903Y-26996000D01*
X27002288Y-26996000D01*
G37*
G36*
X27002288Y-25971718D02*
G01*
X27002288Y-25800187D01*
X26830903Y-25800187D01*
X26830903Y-25971718D01*
X27002288Y-25971718D01*
G37*
G36*
X26570148Y-26141692D02*
G01*
X26606762Y-26157318D01*
X26645978Y-26189984D01*
X26671892Y-26231286D01*
X26685383Y-26283421D01*
X26690439Y-26419562D01*
X26690439Y-26744161D01*
X26683771Y-26856781D01*
X26674583Y-26896717D01*
X26661936Y-26927343D01*
X26637377Y-26962242D01*
X26605529Y-26986966D01*
X26564951Y-27002486D01*
X26513046Y-27008090D01*
X26463479Y-27002237D01*
X26421748Y-26985448D01*
X26385594Y-26958340D01*
X26353970Y-26920675D01*
X26350673Y-26920675D01*
X26350673Y-27088543D01*
X26355587Y-27126254D01*
X26369211Y-27154855D01*
X26392457Y-27173864D01*
X26429808Y-27180867D01*
X26469268Y-27173770D01*
X26496339Y-27154049D01*
X26513590Y-27125824D01*
X26519054Y-27096969D01*
X26690439Y-27096969D01*
X26676873Y-27168339D01*
X26656074Y-27220434D01*
X26626783Y-27264252D01*
X26593206Y-27296931D01*
X26556080Y-27322873D01*
X26516123Y-27339722D01*
X26474417Y-27349329D01*
X26435669Y-27352399D01*
X26371671Y-27346395D01*
X26320118Y-27329684D01*
X26275192Y-27303050D01*
X26239591Y-27269967D01*
X26212146Y-27232251D01*
X26193576Y-27190026D01*
X26182802Y-27145318D01*
X26179288Y-27101732D01*
X26179288Y-26412674D01*
X26350673Y-26412674D01*
X26350673Y-26744087D01*
X26356917Y-26781429D01*
X26374853Y-26810546D01*
X26402024Y-26830002D01*
X26435669Y-26836558D01*
X26466306Y-26832702D01*
X26487409Y-26822438D01*
X26501615Y-26806296D01*
X26514535Y-26774145D01*
X26519054Y-26735661D01*
X26519054Y-26422713D01*
X26513625Y-26373899D01*
X26499050Y-26338669D01*
X26483399Y-26321097D01*
X26462820Y-26310460D01*
X26435669Y-26306648D01*
X26401021Y-26314052D01*
X26374047Y-26336104D01*
X26356860Y-26368869D01*
X26350673Y-26412674D01*
X26179288Y-26412674D01*
X26179288Y-26144862D01*
X26350673Y-26144862D01*
X26350673Y-26222385D01*
X26382473Y-26188166D01*
X26415959Y-26160542D01*
X26456992Y-26142224D01*
X26511360Y-26135483D01*
X26570148Y-26141692D01*
G37*
G36*
X26037431Y-26996000D02*
G01*
X26037431Y-26142517D01*
X25866046Y-26142517D01*
X25866046Y-26225316D01*
X25862749Y-26225316D01*
X25833069Y-26188486D01*
X25798342Y-26159150D01*
X25756899Y-26140058D01*
X25701988Y-26133138D01*
X25670466Y-26135830D01*
X25638461Y-26144056D01*
X25608531Y-26158435D01*
X25581528Y-26180253D01*
X25559359Y-26208349D01*
X25541374Y-26245026D01*
X25530356Y-26287043D01*
X25526280Y-26341673D01*
X25526280Y-26996000D01*
X25697665Y-26996000D01*
X25697665Y-26405640D01*
X25703534Y-26362095D01*
X25719354Y-26331635D01*
X25745030Y-26311673D01*
X25781050Y-26304670D01*
X25811659Y-26308510D01*
X25833051Y-26318788D01*
X25847728Y-26335005D01*
X25860865Y-26369236D01*
X25866046Y-26422420D01*
X25866046Y-26996000D01*
X26037431Y-26996000D01*
G37*
G36*
X25195857Y-26137162D02*
G01*
X25241116Y-26148571D01*
X25280010Y-26166771D01*
X25329984Y-26206016D01*
X25366618Y-26255870D01*
X25381928Y-26291272D01*
X25391824Y-26333100D01*
X25398492Y-26428941D01*
X25398492Y-26709576D01*
X25391824Y-26805417D01*
X25381928Y-26847244D01*
X25366618Y-26882646D01*
X25329987Y-26932516D01*
X25280010Y-26971819D01*
X25241121Y-26989977D01*
X25195861Y-27001363D01*
X25142916Y-27005378D01*
X25086113Y-27000165D01*
X25037037Y-26985228D01*
X24993045Y-26961134D01*
X24956290Y-26929834D01*
X24918566Y-26880168D01*
X24895476Y-26820706D01*
X24887341Y-26748630D01*
X25058726Y-26748630D01*
X25065092Y-26776603D01*
X25078070Y-26805490D01*
X25091232Y-26820424D01*
X25111809Y-26830129D01*
X25142843Y-26833847D01*
X25178488Y-26828104D01*
X25204392Y-26812085D01*
X25221064Y-26786732D01*
X25227107Y-26750316D01*
X25227107Y-26634911D01*
X24887341Y-26634911D01*
X24887341Y-26401830D01*
X25058726Y-26401830D01*
X25058726Y-26498916D01*
X25227107Y-26498916D01*
X25227107Y-26401830D01*
X25220843Y-26357516D01*
X25204392Y-26328997D01*
X25178267Y-26310999D01*
X25142843Y-26304670D01*
X25107546Y-26310993D01*
X25081441Y-26328997D01*
X25064990Y-26357516D01*
X25058726Y-26401830D01*
X24887341Y-26401830D01*
X24887341Y-26399192D01*
X24895205Y-26325405D01*
X24917715Y-26262776D01*
X24954605Y-26208903D01*
X24991490Y-26177577D01*
X25036158Y-26153362D01*
X25085996Y-26138349D01*
X25142916Y-26133138D01*
X25195857Y-26137162D01*
G37*
G36*
X24424989Y-26220553D02*
G01*
X24456773Y-26182914D01*
X24493133Y-26155853D01*
X24534855Y-26138958D01*
X24583112Y-26133138D01*
X24642190Y-26139347D01*
X24679026Y-26154974D01*
X24718428Y-26187616D01*
X24744456Y-26228896D01*
X24758014Y-26281003D01*
X24763070Y-26417144D01*
X24763070Y-26741523D01*
X24756402Y-26854143D01*
X24747219Y-26894025D01*
X24734567Y-26924705D01*
X24710012Y-26959567D01*
X24678168Y-26984270D01*
X24637588Y-26999778D01*
X24585676Y-27005378D01*
X24530429Y-26998711D01*
X24488590Y-26980319D01*
X24455104Y-26952842D01*
X24423304Y-26918623D01*
X24423304Y-26996000D01*
X24251919Y-26996000D01*
X24251919Y-26397214D01*
X24423304Y-26397214D01*
X24423304Y-26728554D01*
X24429491Y-26772359D01*
X24446678Y-26805124D01*
X24473645Y-26827118D01*
X24508300Y-26834506D01*
X24535458Y-26830701D01*
X24556035Y-26820086D01*
X24571681Y-26802559D01*
X24586253Y-26767320D01*
X24591685Y-26718442D01*
X24591685Y-26405640D01*
X24587166Y-26367156D01*
X24574246Y-26335005D01*
X24560034Y-26318819D01*
X24538929Y-26308533D01*
X24508300Y-26304670D01*
X24474661Y-26311242D01*
X24447484Y-26330755D01*
X24429547Y-26359872D01*
X24423304Y-26397214D01*
X24251919Y-26397214D01*
X24251919Y-25800187D01*
X24424989Y-25800187D01*
X24424989Y-26220553D01*
G37*
G36*
X23798213Y-26996000D02*
G01*
X23626828Y-26996000D01*
X23626828Y-26918330D01*
X23594043Y-26952786D01*
X23561615Y-26980246D01*
X23523247Y-26998381D01*
X23464455Y-27005378D01*
X23413459Y-26999841D01*
X23373066Y-26984415D01*
X23340878Y-26959705D01*
X23315565Y-26924705D01*
X23302913Y-26894025D01*
X23293729Y-26854143D01*
X23287062Y-26741523D01*
X23287062Y-26417144D01*
X23287495Y-26405494D01*
X23458447Y-26405494D01*
X23458447Y-26717929D01*
X23463876Y-26766743D01*
X23478450Y-26801973D01*
X23494091Y-26819456D01*
X23514668Y-26830048D01*
X23541831Y-26833847D01*
X23576500Y-26826461D01*
X23603527Y-26804464D01*
X23620658Y-26771776D01*
X23626828Y-26728041D01*
X23626828Y-26397067D01*
X23620585Y-26359801D01*
X23602648Y-26330755D01*
X23575471Y-26311242D01*
X23541831Y-26304670D01*
X23511198Y-26308528D01*
X23490122Y-26318793D01*
X23475959Y-26334932D01*
X23462982Y-26367078D01*
X23458447Y-26405494D01*
X23287495Y-26405494D01*
X23292117Y-26281003D01*
X23300517Y-26240034D01*
X23313879Y-26210441D01*
X23338724Y-26179808D01*
X23369933Y-26154974D01*
X23408487Y-26139219D01*
X23466140Y-26133138D01*
X23514237Y-26138960D01*
X23555753Y-26155853D01*
X23591903Y-26182903D01*
X23623531Y-26220553D01*
X23626828Y-26220553D01*
X23626828Y-25800187D01*
X23798213Y-25800187D01*
X23798213Y-26996000D01*
G37*
G36*
X23235331Y-26144862D02*
G01*
X23053907Y-26144862D01*
X22936304Y-26677702D01*
X22932934Y-26677702D01*
X22817016Y-26144862D01*
X22640575Y-26144862D01*
X22885893Y-27146136D01*
X22902746Y-27200027D01*
X22923702Y-27240364D01*
X22950319Y-27274466D01*
X22979975Y-27300961D01*
X23013223Y-27321033D01*
X23048046Y-27333714D01*
X23084583Y-27340672D01*
X23122784Y-27343020D01*
X23169825Y-27343020D01*
X23169825Y-27183578D01*
X23131137Y-27183578D01*
X23087466Y-27176837D01*
X23070623Y-27166576D01*
X23053907Y-27146502D01*
X23041684Y-27120193D01*
X23028702Y-27079897D01*
X23001810Y-26960975D01*
X23235331Y-26144862D01*
G37*
G36*
X28570132Y-41660000D02*
G01*
X28570132Y-39969351D01*
X28855408Y-40179277D01*
X28855408Y-39876905D01*
X28570132Y-39666978D01*
X28284490Y-39666978D01*
X28284490Y-41660000D01*
X28570132Y-41660000D01*
G37*
G36*
X27841311Y-41660000D02*
G01*
X27841311Y-41374113D01*
X27555669Y-41374113D01*
X27555669Y-41660000D01*
X27841311Y-41660000D01*
G37*
G36*
X27008932Y-41660000D02*
G01*
X27008932Y-39969351D01*
X27294207Y-40179277D01*
X27294207Y-39876905D01*
X27008932Y-39666978D01*
X26723290Y-39666978D01*
X26723290Y-41660000D01*
X27008932Y-41660000D01*
G37*
G36*
X26280111Y-41864187D02*
G01*
X26280111Y-41370816D01*
X25994469Y-41370816D01*
X25994469Y-41656702D01*
X26280111Y-41864187D01*
G37*
G36*
X25240614Y-41660000D02*
G01*
X25240614Y-40237529D01*
X24954972Y-40237529D01*
X24954972Y-40375526D01*
X24949476Y-40375526D01*
X24900010Y-40314144D01*
X24842131Y-40265251D01*
X24773163Y-40233434D01*
X24681664Y-40221898D01*
X24595499Y-40233625D01*
X24528401Y-40266594D01*
X24471674Y-40314139D01*
X24427896Y-40364169D01*
X24371791Y-40309563D01*
X24310659Y-40263785D01*
X24238641Y-40233504D01*
X24132117Y-40221898D01*
X24079096Y-40226333D01*
X24023307Y-40240094D01*
X23970554Y-40264107D01*
X23922801Y-40300422D01*
X23883017Y-40347380D01*
X23850261Y-40408377D01*
X23829906Y-40478575D01*
X23822418Y-40569455D01*
X23822418Y-41660000D01*
X24108060Y-41660000D01*
X24108060Y-40676067D01*
X24117841Y-40603492D01*
X24144207Y-40552725D01*
X24186918Y-40519466D01*
X24247034Y-40507784D01*
X24298049Y-40514184D01*
X24333702Y-40531314D01*
X24358164Y-40558342D01*
X24380060Y-40615393D01*
X24388695Y-40704033D01*
X24388695Y-41660000D01*
X24674337Y-41660000D01*
X24674337Y-40676067D01*
X24684118Y-40603492D01*
X24710484Y-40552725D01*
X24753278Y-40519456D01*
X24813311Y-40507784D01*
X24864326Y-40514184D01*
X24899979Y-40531314D01*
X24924441Y-40558342D01*
X24946337Y-40615393D01*
X24954972Y-40704033D01*
X24954972Y-41660000D01*
X25240614Y-41660000D01*
G37*
G36*
X23279338Y-40230249D02*
G01*
X23361287Y-40254138D01*
X23434754Y-40292700D01*
X23495865Y-40342431D01*
X23561567Y-40427204D01*
X23604718Y-40528558D01*
X23624947Y-40650666D01*
X23347732Y-40650666D01*
X23324750Y-40587680D01*
X23287159Y-40544176D01*
X23237979Y-40516776D01*
X23184455Y-40507784D01*
X23132376Y-40513913D01*
X23096311Y-40530169D01*
X23071859Y-40555411D01*
X23049097Y-40607446D01*
X23040840Y-40675945D01*
X23040840Y-40824323D01*
X23082972Y-40821514D01*
X23116678Y-40818705D01*
X23147575Y-40815896D01*
X23178349Y-40815896D01*
X23306832Y-40824020D01*
X23400244Y-40845327D01*
X23479647Y-40883059D01*
X23537875Y-40933621D01*
X23582201Y-41001283D01*
X23610903Y-41086273D01*
X23625311Y-41181010D01*
X23630565Y-41297543D01*
X23622436Y-41409181D01*
X23601133Y-41489396D01*
X23565755Y-41556740D01*
X23523831Y-41602847D01*
X23474049Y-41638678D01*
X23424180Y-41660122D01*
X23321720Y-41675631D01*
X23225286Y-41664151D01*
X23160153Y-41633988D01*
X23105128Y-41585535D01*
X23046458Y-41514431D01*
X23040840Y-41514431D01*
X23040840Y-41658900D01*
X22755198Y-41658900D01*
X22755198Y-41050980D01*
X23040840Y-41050980D01*
X23040840Y-41243810D01*
X23051946Y-41323459D01*
X23081751Y-41378021D01*
X23129465Y-41413158D01*
X23195690Y-41425526D01*
X23259003Y-41412627D01*
X23305478Y-41375212D01*
X23334457Y-41319119D01*
X23344923Y-41243810D01*
X23336395Y-41170636D01*
X23313818Y-41120079D01*
X23278855Y-41085907D01*
X23207588Y-41053835D01*
X23119731Y-41042554D01*
X23040840Y-41050980D01*
X22755198Y-41050980D01*
X22755198Y-40670083D01*
X22764086Y-40562449D01*
X22788904Y-40474078D01*
X22828943Y-40395798D01*
X22878663Y-40333883D01*
X22942323Y-40285071D01*
X23016172Y-40249986D01*
X23096752Y-40229046D01*
X23184455Y-40221898D01*
X23279338Y-40230249D01*
G37*
G36*
X22544539Y-40237529D02*
G01*
X22544539Y-39807662D01*
X22258897Y-39807662D01*
X22258897Y-40237529D01*
X22086950Y-40237529D01*
X22086950Y-40464187D01*
X22258897Y-40464187D01*
X22258897Y-41253824D01*
X22249371Y-41332470D01*
X22236503Y-41357424D01*
X22217986Y-41374724D01*
X22164741Y-41391454D01*
X22086950Y-41394263D01*
X22086950Y-41660000D01*
X22203454Y-41660000D01*
X22295572Y-41651706D01*
X22365631Y-41629225D01*
X22425284Y-41593453D01*
X22469678Y-41550823D01*
X22503245Y-41500199D01*
X22526587Y-41442990D01*
X22540181Y-41382912D01*
X22544539Y-41326730D01*
X22544539Y-40464187D01*
X22688764Y-40464187D01*
X22688764Y-40237529D01*
X22544539Y-40237529D01*
G37*
G36*
X21676256Y-41249794D02*
G01*
X21666169Y-41310933D01*
X21638398Y-41353353D01*
X21595213Y-41380145D01*
X21535816Y-41389745D01*
X21484119Y-41383525D01*
X21449820Y-41367274D01*
X21427861Y-41342240D01*
X21406234Y-41293853D01*
X21395621Y-41246985D01*
X21109979Y-41246985D01*
X21123541Y-41367362D01*
X21162030Y-41466668D01*
X21224895Y-41549602D01*
X21286148Y-41601796D01*
X21359473Y-41642048D01*
X21441265Y-41666942D01*
X21535938Y-41675631D01*
X21624180Y-41668938D01*
X21699612Y-41649963D01*
X21764427Y-41619699D01*
X21847723Y-41554193D01*
X21908775Y-41471078D01*
X21934290Y-41412074D01*
X21950785Y-41342362D01*
X21961898Y-41182627D01*
X21961898Y-40714902D01*
X21950785Y-40555167D01*
X21934290Y-40485454D01*
X21908775Y-40426451D01*
X21847718Y-40343360D01*
X21764427Y-40277951D01*
X21699604Y-40247619D01*
X21624172Y-40228604D01*
X21535938Y-40221898D01*
X21441071Y-40230582D01*
X21358007Y-40255603D01*
X21283555Y-40295842D01*
X21222086Y-40347927D01*
X21161088Y-40437850D01*
X21123336Y-40545556D01*
X21109979Y-40675823D01*
X21395621Y-40675823D01*
X21406250Y-40596800D01*
X21433478Y-40548450D01*
X21476998Y-40518350D01*
X21535816Y-40507784D01*
X21594845Y-40518360D01*
X21638398Y-40548450D01*
X21665812Y-40596114D01*
X21676256Y-40670205D01*
X21676256Y-41249794D01*
G37*
G36*
X20975157Y-41660000D02*
G01*
X20975157Y-39666978D01*
X20689515Y-39666978D01*
X20689515Y-40376015D01*
X20684019Y-40376015D01*
X20634542Y-40314407D01*
X20576674Y-40265373D01*
X20507592Y-40233459D01*
X20416085Y-40221898D01*
X20363548Y-40226383D01*
X20310205Y-40240094D01*
X20260323Y-40264058D01*
X20215317Y-40300422D01*
X20178370Y-40347249D01*
X20148394Y-40408377D01*
X20130031Y-40478406D01*
X20123237Y-40569455D01*
X20123237Y-41660000D01*
X20408879Y-41660000D01*
X20408879Y-40676067D01*
X20418661Y-40603492D01*
X20445027Y-40552725D01*
X20487821Y-40519456D01*
X20547854Y-40507784D01*
X20598869Y-40514184D01*
X20634522Y-40531314D01*
X20658984Y-40558342D01*
X20680880Y-40615393D01*
X20689515Y-40704033D01*
X20689515Y-41660000D01*
X20975157Y-41660000D01*
G37*
G36*
X19886810Y-41660000D02*
G01*
X19886810Y-40237529D01*
X19601168Y-40237529D01*
X19601168Y-41660000D01*
X19886810Y-41660000D01*
G37*
G36*
X19886810Y-39952864D02*
G01*
X19886810Y-39666978D01*
X19601168Y-39666978D01*
X19601168Y-39952864D01*
X19886810Y-39952864D01*
G37*
G36*
X19367062Y-41660000D02*
G01*
X19367062Y-40237529D01*
X19081420Y-40237529D01*
X19081420Y-40375526D01*
X19075924Y-40375526D01*
X19026458Y-40314144D01*
X18968579Y-40265251D01*
X18899507Y-40233430D01*
X18807990Y-40221898D01*
X18755453Y-40226383D01*
X18702110Y-40240094D01*
X18652228Y-40264058D01*
X18607222Y-40300422D01*
X18570275Y-40347249D01*
X18540300Y-40408377D01*
X18521936Y-40478406D01*
X18515143Y-40569455D01*
X18515143Y-41660000D01*
X18800785Y-41660000D01*
X18800785Y-40676067D01*
X18810566Y-40603492D01*
X18836933Y-40552725D01*
X18879726Y-40519456D01*
X18939759Y-40507784D01*
X18990774Y-40514184D01*
X19026427Y-40531314D01*
X19050889Y-40558342D01*
X19072785Y-40615393D01*
X19081420Y-40704033D01*
X19081420Y-41660000D01*
X19367062Y-41660000D01*
G37*
G36*
X18078230Y-40236154D02*
G01*
X18139253Y-40262198D01*
X18204613Y-40316640D01*
X18247803Y-40385478D01*
X18270289Y-40472369D01*
X18278715Y-40699270D01*
X18278715Y-41240268D01*
X18267602Y-41427969D01*
X18252288Y-41494529D01*
X18231210Y-41545572D01*
X18190278Y-41603737D01*
X18137199Y-41644944D01*
X18069568Y-41670810D01*
X17983060Y-41680150D01*
X17900449Y-41670396D01*
X17830896Y-41642414D01*
X17770640Y-41597234D01*
X17717934Y-41534459D01*
X17712438Y-41534459D01*
X17712438Y-41814239D01*
X17720629Y-41877090D01*
X17743335Y-41924759D01*
X17782079Y-41956440D01*
X17844330Y-41968112D01*
X17910096Y-41956284D01*
X17955216Y-41923415D01*
X17983968Y-41876374D01*
X17993073Y-41828283D01*
X18278715Y-41828283D01*
X18256105Y-41947232D01*
X18221441Y-42034057D01*
X18172621Y-42107087D01*
X18116660Y-42161552D01*
X18054784Y-42204788D01*
X17988189Y-42232871D01*
X17918678Y-42248882D01*
X17854099Y-42253998D01*
X17747436Y-42243993D01*
X17661514Y-42216140D01*
X17586637Y-42171750D01*
X17527302Y-42116612D01*
X17481561Y-42053753D01*
X17450610Y-41983377D01*
X17432653Y-41908863D01*
X17426796Y-41836221D01*
X17426796Y-40687791D01*
X17712438Y-40687791D01*
X17712438Y-41240146D01*
X17722845Y-41302383D01*
X17752739Y-41350910D01*
X17798024Y-41383337D01*
X17854099Y-41394263D01*
X17905160Y-41387837D01*
X17940332Y-41370730D01*
X17964009Y-41343827D01*
X17985542Y-41290242D01*
X17993073Y-41226102D01*
X17993073Y-40704521D01*
X17984025Y-40623165D01*
X17959734Y-40564448D01*
X17933648Y-40535162D01*
X17899351Y-40517434D01*
X17854099Y-40511081D01*
X17796352Y-40523420D01*
X17751395Y-40560174D01*
X17722750Y-40614782D01*
X17712438Y-40687791D01*
X17426796Y-40687791D01*
X17426796Y-40241437D01*
X17712438Y-40241437D01*
X17712438Y-40370642D01*
X17765439Y-40313611D01*
X17821249Y-40267571D01*
X17889637Y-40237041D01*
X17980251Y-40225806D01*
X18078230Y-40236154D01*
G37*
G36*
X15728454Y-40238140D02*
G01*
X16014096Y-40238140D01*
X16014096Y-40173660D01*
X16026052Y-40080741D01*
X16060258Y-40004155D01*
X16096378Y-39965610D01*
X16146485Y-39941552D01*
X16215474Y-39932714D01*
X16270464Y-39938799D01*
X16310484Y-39955184D01*
X16343570Y-39980536D01*
X16369225Y-40011116D01*
X16387920Y-40049579D01*
X16400000Y-40093792D01*
X16408426Y-40190390D01*
X16404274Y-40288576D01*
X16383147Y-40358674D01*
X16362908Y-40387002D01*
X16334298Y-40411919D01*
X16246127Y-40456615D01*
X16027896Y-40543565D01*
X15939008Y-40584729D01*
X15874023Y-40629050D01*
X15821215Y-40682262D01*
X15781699Y-40742501D01*
X15756214Y-40812876D01*
X15739689Y-40895275D01*
X15728454Y-41089937D01*
X15734980Y-41213436D01*
X15753733Y-41324043D01*
X15787442Y-41425675D01*
X15834944Y-41507470D01*
X15902344Y-41576960D01*
X15989305Y-41630812D01*
X16091131Y-41663648D01*
X16221946Y-41675631D01*
X16322949Y-41666381D01*
X16415387Y-41639239D01*
X16499315Y-41595372D01*
X16569626Y-41538244D01*
X16627193Y-41468848D01*
X16671842Y-41388401D01*
X16700058Y-41299935D01*
X16709699Y-41202044D01*
X16709699Y-41095554D01*
X16424057Y-41095554D01*
X16424057Y-41185314D01*
X16412487Y-41259807D01*
X16377773Y-41326730D01*
X16342213Y-41360258D01*
X16292001Y-41381739D01*
X16221946Y-41389745D01*
X16153410Y-41383820D01*
X16108129Y-41368740D01*
X16071961Y-41343138D01*
X16044993Y-41308534D01*
X16027422Y-41266512D01*
X16018370Y-41214623D01*
X16014096Y-41092745D01*
X16019713Y-40963907D01*
X16028657Y-40916399D01*
X16042062Y-40882575D01*
X16064746Y-40854698D01*
X16093841Y-40832260D01*
X16179204Y-40790129D01*
X16383391Y-40705987D01*
X16499534Y-40645968D01*
X16579624Y-40579198D01*
X16631175Y-40505708D01*
X16664736Y-40420291D01*
X16686318Y-40317283D01*
X16694068Y-40193199D01*
X16686262Y-40083219D01*
X16663293Y-39980341D01*
X16624239Y-39885330D01*
X16570969Y-39806685D01*
X16504849Y-39741666D01*
X16421249Y-39690303D01*
X16324583Y-39658317D01*
X16204361Y-39646828D01*
X16101386Y-39656894D01*
X16009822Y-39686151D01*
X15926991Y-39732047D01*
X15857292Y-39789832D01*
X15784725Y-39885535D01*
X15742583Y-39987226D01*
X15728454Y-40097944D01*
X15728454Y-40238140D01*
G37*
G36*
X15646999Y-41663907D02*
G01*
X15361357Y-41663907D01*
X15277459Y-41230132D01*
X14888258Y-41230132D01*
X14804239Y-41663907D01*
X14518597Y-41663907D01*
X14674567Y-40964396D01*
X14941381Y-40964396D01*
X15227023Y-40964396D01*
X15087072Y-40241437D01*
X15081454Y-40241437D01*
X14941381Y-40964396D01*
X14674567Y-40964396D01*
X14963852Y-39666978D01*
X15201866Y-39666978D01*
X15646999Y-41663907D01*
G37*
G36*
X14003286Y-39654467D02*
G01*
X14089584Y-39677725D01*
X14170648Y-39715614D01*
X14242236Y-39767362D01*
X14304623Y-39835846D01*
X14354221Y-39921479D01*
X14385276Y-40018651D01*
X14396231Y-40134337D01*
X14396231Y-41188122D01*
X14385078Y-41308273D01*
X14354221Y-41403789D01*
X14304661Y-41486533D01*
X14242236Y-41552288D01*
X14170460Y-41606284D01*
X14089584Y-41644856D01*
X14003291Y-41668022D01*
X13917271Y-41675631D01*
X13831357Y-41668024D01*
X13745080Y-41644856D01*
X13663715Y-41606411D01*
X13589619Y-41552288D01*
X13529375Y-41486736D01*
X13480443Y-41403789D01*
X13449586Y-41308273D01*
X13438433Y-41188122D01*
X13438433Y-40134337D01*
X13724075Y-40134337D01*
X13724075Y-41188122D01*
X13731284Y-41254686D01*
X13750845Y-41304167D01*
X13781472Y-41340774D01*
X13843789Y-41377382D01*
X13917271Y-41389745D01*
X13990858Y-41377378D01*
X14053192Y-41340774D01*
X14083819Y-41304167D01*
X14103380Y-41254686D01*
X14110589Y-41188122D01*
X14110589Y-40134337D01*
X14103377Y-40067775D01*
X14083814Y-40018341D01*
X14053192Y-39981807D01*
X13990849Y-39945109D01*
X13917271Y-39932714D01*
X13843798Y-39945104D01*
X13781472Y-39981807D01*
X13750850Y-40018341D01*
X13731288Y-40067775D01*
X13724075Y-40134337D01*
X13438433Y-40134337D01*
X13449388Y-40018651D01*
X13480443Y-39921479D01*
X13529407Y-39835642D01*
X13589619Y-39767362D01*
X13663532Y-39715486D01*
X13745080Y-39677725D01*
X13831362Y-39654464D01*
X13917271Y-39646828D01*
X14003286Y-39654467D01*
G37*
G36*
X11813363Y-40237529D02*
G01*
X12183025Y-41660000D01*
X12434961Y-41660000D01*
X12804623Y-40237529D01*
X12502250Y-40237529D01*
X12311863Y-41146601D01*
X12306245Y-41146601D01*
X12115858Y-40237529D01*
X11813363Y-40237529D01*
G37*
G36*
X11854152Y-41660000D02*
G01*
X11854152Y-41374113D01*
X11568510Y-41374113D01*
X11568510Y-41660000D01*
X11854152Y-41660000D01*
G37*
G36*
X10502023Y-41660000D02*
G01*
X10502023Y-39969351D01*
X10787299Y-40179277D01*
X10787299Y-39876905D01*
X10502023Y-39666978D01*
X10216381Y-39666978D01*
X10216381Y-41660000D01*
X10502023Y-41660000D01*
G37*
G36*
X9773203Y-41660000D02*
G01*
X9773203Y-41374113D01*
X9487561Y-41374113D01*
X9487561Y-41660000D01*
X9773203Y-41660000D01*
G37*
G36*
X9220969Y-40670694D02*
G01*
X9246371Y-40745066D01*
X9263468Y-40822124D01*
X9269085Y-40927393D01*
X9269085Y-41080045D01*
X9269085Y-41241367D01*
X9260537Y-41346392D01*
X9242219Y-41422229D01*
X9206803Y-41486709D01*
X9141139Y-41566848D01*
X9056960Y-41628248D01*
X8958684Y-41666828D01*
X8844836Y-41680150D01*
X8730705Y-41667219D01*
X8631367Y-41629713D01*
X8546274Y-41568734D01*
X8480181Y-41486587D01*
X8447575Y-41422107D01*
X8426325Y-41346392D01*
X8420708Y-41241245D01*
X8420708Y-41079923D01*
X8420708Y-40885139D01*
X8420901Y-40880743D01*
X8706350Y-40880743D01*
X8706350Y-41251259D01*
X8717084Y-41310249D01*
X8747993Y-41355062D01*
X8793161Y-41384543D01*
X8844836Y-41394263D01*
X8896635Y-41384541D01*
X8941922Y-41355062D01*
X8972736Y-41310260D01*
X8983443Y-41251259D01*
X8983443Y-40880743D01*
X8972741Y-40821848D01*
X8941922Y-40777062D01*
X8896626Y-40747487D01*
X8844836Y-40737739D01*
X8793171Y-40747486D01*
X8747993Y-40777062D01*
X8717079Y-40821858D01*
X8706350Y-40880743D01*
X8420901Y-40880743D01*
X8426325Y-40757400D01*
X8446231Y-40676189D01*
X8477250Y-40614396D01*
X8520422Y-40563867D01*
X8579099Y-40521950D01*
X8646804Y-40494615D01*
X8720516Y-40485436D01*
X8798185Y-40492519D01*
X8842027Y-40510715D01*
X8847644Y-40505097D01*
X8522557Y-39666978D01*
X8842149Y-39666978D01*
X9220969Y-40670694D01*
G37*
G36*
X7917533Y-39659755D02*
G01*
X8016974Y-39697264D01*
X8102054Y-39758169D01*
X8168161Y-39840390D01*
X8200767Y-39904870D01*
X8219085Y-39977777D01*
X8227634Y-40085732D01*
X8227634Y-40247055D01*
X8227634Y-40441960D01*
X8219085Y-40569455D01*
X8202233Y-40652254D01*
X8171092Y-40712581D01*
X8127945Y-40763143D01*
X8069364Y-40805150D01*
X8001667Y-40832392D01*
X7927948Y-40841542D01*
X7850279Y-40834581D01*
X7806315Y-40816263D01*
X7800697Y-40821880D01*
X8125785Y-41660000D01*
X7806193Y-41660000D01*
X7427372Y-40656161D01*
X7403314Y-40581912D01*
X7384874Y-40501922D01*
X7379256Y-40399706D01*
X7379256Y-40246933D01*
X7379256Y-40085732D01*
X7379777Y-40075718D01*
X7664898Y-40075718D01*
X7664898Y-40446113D01*
X7675633Y-40505103D01*
X7706542Y-40549916D01*
X7751719Y-40579492D01*
X7803384Y-40589239D01*
X7855175Y-40579490D01*
X7900471Y-40549916D01*
X7931284Y-40505113D01*
X7941992Y-40446113D01*
X7941992Y-40075718D01*
X7931280Y-40016739D01*
X7900471Y-39972037D01*
X7855175Y-39942463D01*
X7803384Y-39932714D01*
X7751719Y-39942461D01*
X7706542Y-39972037D01*
X7675637Y-40016749D01*
X7664898Y-40075718D01*
X7379777Y-40075718D01*
X7384874Y-39977655D01*
X7407588Y-39904748D01*
X7441538Y-39840268D01*
X7507216Y-39760055D01*
X7591381Y-39698729D01*
X7689553Y-39660153D01*
X7803384Y-39646828D01*
X7917533Y-39659755D01*
G37*
G36*
X7170551Y-41660000D02*
G01*
X6884909Y-41660000D01*
X6884909Y-41530551D01*
X6830267Y-41587977D01*
X6776221Y-41633743D01*
X6712273Y-41663968D01*
X6614288Y-41675631D01*
X6529294Y-41666401D01*
X6461973Y-41640693D01*
X6408326Y-41599509D01*
X6366137Y-41541175D01*
X6345050Y-41490042D01*
X6329745Y-41423572D01*
X6318632Y-41235872D01*
X6318632Y-40695240D01*
X6319353Y-40675823D01*
X6604274Y-40675823D01*
X6604274Y-41196549D01*
X6613323Y-41277905D01*
X6637613Y-41336622D01*
X6663680Y-41365760D01*
X6697975Y-41383414D01*
X6743248Y-41389745D01*
X6801028Y-41377436D01*
X6846074Y-41340774D01*
X6874626Y-41286294D01*
X6884909Y-41213401D01*
X6884909Y-40661779D01*
X6874503Y-40599669D01*
X6844609Y-40551259D01*
X6799313Y-40518736D01*
X6743248Y-40507784D01*
X6692192Y-40514213D01*
X6657066Y-40531321D01*
X6633461Y-40558220D01*
X6611832Y-40611797D01*
X6604274Y-40675823D01*
X6319353Y-40675823D01*
X6327058Y-40468339D01*
X6341058Y-40400058D01*
X6363328Y-40350736D01*
X6404735Y-40299680D01*
X6456751Y-40258290D01*
X6521007Y-40232032D01*
X6617096Y-40221898D01*
X6697258Y-40231601D01*
X6766451Y-40259755D01*
X6826701Y-40304839D01*
X6879413Y-40367588D01*
X6884909Y-40367588D01*
X6884909Y-39666978D01*
X7170551Y-39666978D01*
X7170551Y-41660000D01*
G37*
G36*
X6082205Y-41660000D02*
G01*
X6082205Y-40237529D01*
X5796563Y-40237529D01*
X5796563Y-41660000D01*
X6082205Y-41660000D01*
G37*
G36*
X6082205Y-39952864D02*
G01*
X6082205Y-39666978D01*
X5796563Y-39666978D01*
X5796563Y-39952864D01*
X6082205Y-39952864D01*
G37*
G36*
X5046615Y-40634180D02*
G01*
X5058184Y-40568113D01*
X5089846Y-40524270D01*
X5136215Y-40496761D01*
X5188764Y-40487634D01*
X5249056Y-40498984D01*
X5291835Y-40531109D01*
X5318961Y-40577800D01*
X5327983Y-40630760D01*
X5323165Y-40669454D01*
X5308321Y-40708185D01*
X5277933Y-40740936D01*
X5207083Y-40776817D01*
X5038433Y-40844228D01*
X4937498Y-40893669D01*
X4865935Y-40949948D01*
X4817882Y-41012878D01*
X4784366Y-41086029D01*
X4764247Y-41163345D01*
X4757431Y-41246008D01*
X4765658Y-41333352D01*
X4789794Y-41413070D01*
X4828185Y-41485911D01*
X4878332Y-41549235D01*
X4939741Y-41601615D01*
X5013276Y-41641926D01*
X5094628Y-41667034D01*
X5184856Y-41675631D01*
X5296689Y-41663078D01*
X5392928Y-41626851D01*
X5477093Y-41566821D01*
X5530080Y-41508093D01*
X5572836Y-41434563D01*
X5599779Y-41350688D01*
X5609351Y-41249183D01*
X5341782Y-41249183D01*
X5327214Y-41306240D01*
X5300505Y-41359214D01*
X5274699Y-41386297D01*
X5237676Y-41403489D01*
X5185345Y-41409895D01*
X5126109Y-41399792D01*
X5072993Y-41369228D01*
X5036042Y-41321325D01*
X5023168Y-41255411D01*
X5031134Y-41199887D01*
X5054064Y-41154417D01*
X5093851Y-41117573D01*
X5166538Y-41081266D01*
X5304291Y-41030708D01*
X5389691Y-40990506D01*
X5459721Y-40940520D01*
X5516416Y-40880621D01*
X5558760Y-40810590D01*
X5584686Y-40730401D01*
X5593719Y-40637477D01*
X5585221Y-40550202D01*
X5560258Y-40470537D01*
X5520277Y-40398226D01*
X5468056Y-40337058D01*
X5407632Y-40287685D01*
X5337020Y-40251451D01*
X5259437Y-40229403D01*
X5175087Y-40221898D01*
X5090902Y-40229710D01*
X5014619Y-40252550D01*
X4945525Y-40289671D01*
X4887491Y-40338890D01*
X4840443Y-40399251D01*
X4803838Y-40471270D01*
X4780841Y-40549835D01*
X4773063Y-40634180D01*
X5046615Y-40634180D01*
G37*
D11*
G36*
X28900697Y-24190000D02*
G01*
X28305539Y-24190000D01*
X28114657Y-24175805D01*
X27957358Y-24136222D01*
X27827585Y-24074209D01*
X27720638Y-23990514D01*
X27636802Y-23885405D01*
X27573523Y-23751817D01*
X27532328Y-23583234D01*
X27517306Y-23371359D01*
X27517306Y-21973129D01*
X27517534Y-21970015D01*
X27945769Y-21970015D01*
X27945769Y-23416238D01*
X27955763Y-23543775D01*
X27982083Y-23635692D01*
X28021057Y-23700720D01*
X28077790Y-23748292D01*
X28159699Y-23779567D01*
X28275863Y-23791395D01*
X28472234Y-23791395D01*
X28472234Y-21599071D01*
X28275863Y-21599071D01*
X28154605Y-21611870D01*
X28071854Y-21645337D01*
X28016844Y-21695975D01*
X27965394Y-21806008D01*
X27945769Y-21970015D01*
X27517534Y-21970015D01*
X27530841Y-21788266D01*
X27568669Y-21635004D01*
X27628030Y-21507757D01*
X27708182Y-21402151D01*
X27809371Y-21317353D01*
X27932954Y-21254743D01*
X28083632Y-21214806D01*
X28267620Y-21200467D01*
X28900697Y-21200467D01*
X28900697Y-24190000D01*
G37*
G36*
X27112840Y-24190000D02*
G01*
X27112840Y-21200467D01*
X26705259Y-21200467D01*
X26152049Y-22783344D01*
X26143623Y-22783344D01*
X25594260Y-21200467D01*
X25178436Y-21200467D01*
X25178436Y-24190000D01*
X25606899Y-24190000D01*
X25606899Y-22371917D01*
X25615326Y-22371917D01*
X26042140Y-23656756D01*
X26257562Y-23656756D01*
X26684377Y-22371917D01*
X26684377Y-24190000D01*
X27112840Y-24190000D01*
G37*
G36*
X24779832Y-24190000D02*
G01*
X24779832Y-21200467D01*
X24372252Y-21200467D01*
X23819042Y-22783344D01*
X23810615Y-22783344D01*
X23261252Y-21200467D01*
X22845429Y-21200467D01*
X22845429Y-24190000D01*
X23273892Y-24190000D01*
X23273892Y-22371917D01*
X23282318Y-22371917D01*
X23709132Y-23656756D01*
X23924555Y-23656756D01*
X24351369Y-22371917D01*
X24351369Y-24190000D01*
X24779832Y-24190000D01*
G37*
G36*
X20277398Y-22057210D02*
G01*
X20705861Y-22057210D01*
X20705861Y-21960490D01*
X20723796Y-21821111D01*
X20775104Y-21706233D01*
X20829284Y-21648415D01*
X20904445Y-21612328D01*
X21007929Y-21599071D01*
X21090414Y-21608199D01*
X21150444Y-21632777D01*
X21200073Y-21670805D01*
X21238555Y-21716674D01*
X21266597Y-21774368D01*
X21284717Y-21840689D01*
X21297356Y-21985586D01*
X21291128Y-22132864D01*
X21259438Y-22238011D01*
X21229079Y-22280503D01*
X21186165Y-22317878D01*
X21053907Y-22384923D01*
X20726561Y-22515348D01*
X20593229Y-22577094D01*
X20495751Y-22643576D01*
X20416540Y-22723393D01*
X20357266Y-22813752D01*
X20319038Y-22919314D01*
X20294251Y-23042913D01*
X20277398Y-23334905D01*
X20287188Y-23520154D01*
X20315317Y-23686065D01*
X20365880Y-23838513D01*
X20437133Y-23961205D01*
X20538233Y-24065440D01*
X20668675Y-24146219D01*
X20821414Y-24195472D01*
X21017637Y-24213447D01*
X21169141Y-24199572D01*
X21307798Y-24158859D01*
X21433691Y-24093059D01*
X21539157Y-24007367D01*
X21625507Y-23903272D01*
X21692480Y-23782602D01*
X21734805Y-23649902D01*
X21749267Y-23503066D01*
X21749267Y-23343332D01*
X21320804Y-23343332D01*
X21320804Y-23477971D01*
X21303448Y-23589711D01*
X21251378Y-23690095D01*
X21198038Y-23740387D01*
X21122720Y-23772608D01*
X21017637Y-23784617D01*
X20914833Y-23775731D01*
X20846912Y-23753110D01*
X20792660Y-23714707D01*
X20752206Y-23662801D01*
X20725850Y-23599768D01*
X20712273Y-23521934D01*
X20705861Y-23339118D01*
X20714288Y-23145861D01*
X20727702Y-23074599D01*
X20747810Y-23023862D01*
X20781836Y-22982047D01*
X20825479Y-22948391D01*
X20953524Y-22885193D01*
X21259804Y-22758981D01*
X21434018Y-22668952D01*
X21554154Y-22568797D01*
X21631481Y-22458562D01*
X21681821Y-22330437D01*
X21714195Y-22175925D01*
X21725819Y-21989799D01*
X21714111Y-21824829D01*
X21679658Y-21670512D01*
X21621075Y-21527996D01*
X21541172Y-21410027D01*
X21441991Y-21312499D01*
X21316591Y-21235455D01*
X21171592Y-21187476D01*
X20991259Y-21170242D01*
X20836796Y-21185341D01*
X20699450Y-21229227D01*
X20575203Y-21298071D01*
X20470655Y-21384748D01*
X20361805Y-21528302D01*
X20298593Y-21680839D01*
X20277398Y-21846917D01*
X20277398Y-22057210D01*
G37*
G36*
X20155216Y-24195861D02*
G01*
X19726753Y-24195861D01*
X19600907Y-23545198D01*
X19017105Y-23545198D01*
X18891076Y-24195861D01*
X18462613Y-24195861D01*
X18696568Y-23146594D01*
X19096789Y-23146594D01*
X19525252Y-23146594D01*
X19315326Y-22062156D01*
X19306899Y-22062156D01*
X19096789Y-23146594D01*
X18696568Y-23146594D01*
X19130495Y-21200467D01*
X19487517Y-21200467D01*
X20155216Y-24195861D01*
G37*
G36*
X17689647Y-21181700D02*
G01*
X17819094Y-21216587D01*
X17940690Y-21273422D01*
X18048072Y-21351043D01*
X18141652Y-21453769D01*
X18216050Y-21582219D01*
X18262632Y-21727977D01*
X18279064Y-21901505D01*
X18279064Y-23482184D01*
X18262335Y-23662410D01*
X18216050Y-23805683D01*
X18141710Y-23929799D01*
X18048072Y-24028433D01*
X17940408Y-24109426D01*
X17819094Y-24167285D01*
X17689654Y-24202033D01*
X17560624Y-24213447D01*
X17431753Y-24202037D01*
X17302337Y-24167285D01*
X17180290Y-24109616D01*
X17069146Y-24028433D01*
X16978781Y-23930104D01*
X16905382Y-23805683D01*
X16859096Y-23662410D01*
X16842367Y-23482184D01*
X16842367Y-21901505D01*
X17270830Y-21901505D01*
X17270830Y-23482184D01*
X17281644Y-23582030D01*
X17310985Y-23656251D01*
X17356926Y-23711161D01*
X17450402Y-23766074D01*
X17560624Y-23784617D01*
X17671005Y-23766067D01*
X17764506Y-23711161D01*
X17810446Y-23656251D01*
X17839787Y-23582030D01*
X17850601Y-23482184D01*
X17850601Y-21901505D01*
X17839782Y-21801663D01*
X17810439Y-21727511D01*
X17764506Y-21672711D01*
X17670991Y-21617664D01*
X17560624Y-21599071D01*
X17450415Y-21617656D01*
X17356926Y-21672711D01*
X17310992Y-21727511D01*
X17281649Y-21801663D01*
X17270830Y-21901505D01*
X16842367Y-21901505D01*
X16858799Y-21727977D01*
X16905382Y-21582219D01*
X16978829Y-21453464D01*
X17069146Y-21351043D01*
X17180016Y-21273230D01*
X17302337Y-21216587D01*
X17431760Y-21181696D01*
X17560624Y-21170242D01*
X17689647Y-21181700D01*
G37*
D12*
X15459999Y-50768295D02*
X15209999Y-51568295D01*
X15209999Y-51568295D02*
X14959999Y-50768295D01*
X14281428Y-51492104D02*
X14317142Y-51530200D01*
X14317142Y-51530200D02*
X14424285Y-51568295D01*
X14424285Y-51568295D02*
X14495713Y-51568295D01*
X14495713Y-51568295D02*
X14602856Y-51530200D01*
X14602856Y-51530200D02*
X14674285Y-51454009D01*
X14674285Y-51454009D02*
X14709999Y-51377819D01*
X14709999Y-51377819D02*
X14745713Y-51225438D01*
X14745713Y-51225438D02*
X14745713Y-51111152D01*
X14745713Y-51111152D02*
X14709999Y-50958771D01*
X14709999Y-50958771D02*
X14674285Y-50882580D01*
X14674285Y-50882580D02*
X14602856Y-50806390D01*
X14602856Y-50806390D02*
X14495713Y-50768295D01*
X14495713Y-50768295D02*
X14424285Y-50768295D01*
X14424285Y-50768295D02*
X14317142Y-50806390D01*
X14317142Y-50806390D02*
X14281428Y-50844485D01*
X13531428Y-51492104D02*
X13567142Y-51530200D01*
X13567142Y-51530200D02*
X13674285Y-51568295D01*
X13674285Y-51568295D02*
X13745713Y-51568295D01*
X13745713Y-51568295D02*
X13852856Y-51530200D01*
X13852856Y-51530200D02*
X13924285Y-51454009D01*
X13924285Y-51454009D02*
X13959999Y-51377819D01*
X13959999Y-51377819D02*
X13995713Y-51225438D01*
X13995713Y-51225438D02*
X13995713Y-51111152D01*
X13995713Y-51111152D02*
X13959999Y-50958771D01*
X13959999Y-50958771D02*
X13924285Y-50882580D01*
X13924285Y-50882580D02*
X13852856Y-50806390D01*
X13852856Y-50806390D02*
X13745713Y-50768295D01*
X13745713Y-50768295D02*
X13674285Y-50768295D01*
X13674285Y-50768295D02*
X13567142Y-50806390D01*
X13567142Y-50806390D02*
X13531428Y-50844485D01*
X22044142Y-56648390D02*
X22115571Y-56610295D01*
X22115571Y-56610295D02*
X22222713Y-56610295D01*
X22222713Y-56610295D02*
X22329856Y-56648390D01*
X22329856Y-56648390D02*
X22401285Y-56724580D01*
X22401285Y-56724580D02*
X22436999Y-56800771D01*
X22436999Y-56800771D02*
X22472713Y-56953152D01*
X22472713Y-56953152D02*
X22472713Y-57067438D01*
X22472713Y-57067438D02*
X22436999Y-57219819D01*
X22436999Y-57219819D02*
X22401285Y-57296009D01*
X22401285Y-57296009D02*
X22329856Y-57372200D01*
X22329856Y-57372200D02*
X22222713Y-57410295D01*
X22222713Y-57410295D02*
X22151285Y-57410295D01*
X22151285Y-57410295D02*
X22044142Y-57372200D01*
X22044142Y-57372200D02*
X22008428Y-57334104D01*
X22008428Y-57334104D02*
X22008428Y-57067438D01*
X22008428Y-57067438D02*
X22151285Y-57067438D01*
X21686999Y-57410295D02*
X21686999Y-56610295D01*
X21686999Y-56610295D02*
X21401285Y-56610295D01*
X21401285Y-56610295D02*
X21329856Y-56648390D01*
X21329856Y-56648390D02*
X21294142Y-56686485D01*
X21294142Y-56686485D02*
X21258428Y-56762676D01*
X21258428Y-56762676D02*
X21258428Y-56876961D01*
X21258428Y-56876961D02*
X21294142Y-56953152D01*
X21294142Y-56953152D02*
X21329856Y-56991247D01*
X21329856Y-56991247D02*
X21401285Y-57029342D01*
X21401285Y-57029342D02*
X21686999Y-57029342D01*
X20936999Y-57410295D02*
X20936999Y-56610295D01*
X20436999Y-56610295D02*
X20294142Y-56610295D01*
X20294142Y-56610295D02*
X20222713Y-56648390D01*
X20222713Y-56648390D02*
X20151285Y-56724580D01*
X20151285Y-56724580D02*
X20115570Y-56876961D01*
X20115570Y-56876961D02*
X20115570Y-57143628D01*
X20115570Y-57143628D02*
X20151285Y-57296009D01*
X20151285Y-57296009D02*
X20222713Y-57372200D01*
X20222713Y-57372200D02*
X20294142Y-57410295D01*
X20294142Y-57410295D02*
X20436999Y-57410295D01*
X20436999Y-57410295D02*
X20508428Y-57372200D01*
X20508428Y-57372200D02*
X20579856Y-57296009D01*
X20579856Y-57296009D02*
X20615570Y-57143628D01*
X20615570Y-57143628D02*
X20615570Y-56876961D01*
X20615570Y-56876961D02*
X20579856Y-56724580D01*
X20579856Y-56724580D02*
X20508428Y-56648390D01*
X20508428Y-56648390D02*
X20436999Y-56610295D01*
X19829856Y-56686485D02*
X19794142Y-56648390D01*
X19794142Y-56648390D02*
X19722714Y-56610295D01*
X19722714Y-56610295D02*
X19544142Y-56610295D01*
X19544142Y-56610295D02*
X19472714Y-56648390D01*
X19472714Y-56648390D02*
X19436999Y-56686485D01*
X19436999Y-56686485D02*
X19401285Y-56762676D01*
X19401285Y-56762676D02*
X19401285Y-56838866D01*
X19401285Y-56838866D02*
X19436999Y-56953152D01*
X19436999Y-56953152D02*
X19865571Y-57410295D01*
X19865571Y-57410295D02*
X19401285Y-57410295D01*
X17910713Y-51530200D02*
X17803571Y-51568295D01*
X17803571Y-51568295D02*
X17624999Y-51568295D01*
X17624999Y-51568295D02*
X17553571Y-51530200D01*
X17553571Y-51530200D02*
X17517856Y-51492104D01*
X17517856Y-51492104D02*
X17482142Y-51415914D01*
X17482142Y-51415914D02*
X17482142Y-51339723D01*
X17482142Y-51339723D02*
X17517856Y-51263533D01*
X17517856Y-51263533D02*
X17553571Y-51225438D01*
X17553571Y-51225438D02*
X17624999Y-51187342D01*
X17624999Y-51187342D02*
X17767856Y-51149247D01*
X17767856Y-51149247D02*
X17839285Y-51111152D01*
X17839285Y-51111152D02*
X17874999Y-51073057D01*
X17874999Y-51073057D02*
X17910713Y-50996866D01*
X17910713Y-50996866D02*
X17910713Y-50920676D01*
X17910713Y-50920676D02*
X17874999Y-50844485D01*
X17874999Y-50844485D02*
X17839285Y-50806390D01*
X17839285Y-50806390D02*
X17767856Y-50768295D01*
X17767856Y-50768295D02*
X17589285Y-50768295D01*
X17589285Y-50768295D02*
X17482142Y-50806390D01*
X17160713Y-51568295D02*
X17160713Y-50768295D01*
X17160713Y-50768295D02*
X16982142Y-50768295D01*
X16982142Y-50768295D02*
X16874999Y-50806390D01*
X16874999Y-50806390D02*
X16803570Y-50882580D01*
X16803570Y-50882580D02*
X16767856Y-50958771D01*
X16767856Y-50958771D02*
X16732142Y-51111152D01*
X16732142Y-51111152D02*
X16732142Y-51225438D01*
X16732142Y-51225438D02*
X16767856Y-51377819D01*
X16767856Y-51377819D02*
X16803570Y-51454009D01*
X16803570Y-51454009D02*
X16874999Y-51530200D01*
X16874999Y-51530200D02*
X16982142Y-51568295D01*
X16982142Y-51568295D02*
X17160713Y-51568295D01*
X16446427Y-51339723D02*
X16089285Y-51339723D01*
X16517856Y-51568295D02*
X16267856Y-50768295D01*
X16267856Y-50768295D02*
X16017856Y-51568295D01*
X22044142Y-50806390D02*
X22115571Y-50768295D01*
X22115571Y-50768295D02*
X22222713Y-50768295D01*
X22222713Y-50768295D02*
X22329856Y-50806390D01*
X22329856Y-50806390D02*
X22401285Y-50882580D01*
X22401285Y-50882580D02*
X22436999Y-50958771D01*
X22436999Y-50958771D02*
X22472713Y-51111152D01*
X22472713Y-51111152D02*
X22472713Y-51225438D01*
X22472713Y-51225438D02*
X22436999Y-51377819D01*
X22436999Y-51377819D02*
X22401285Y-51454009D01*
X22401285Y-51454009D02*
X22329856Y-51530200D01*
X22329856Y-51530200D02*
X22222713Y-51568295D01*
X22222713Y-51568295D02*
X22151285Y-51568295D01*
X22151285Y-51568295D02*
X22044142Y-51530200D01*
X22044142Y-51530200D02*
X22008428Y-51492104D01*
X22008428Y-51492104D02*
X22008428Y-51225438D01*
X22008428Y-51225438D02*
X22151285Y-51225438D01*
X21686999Y-51568295D02*
X21686999Y-50768295D01*
X21686999Y-50768295D02*
X21401285Y-50768295D01*
X21401285Y-50768295D02*
X21329856Y-50806390D01*
X21329856Y-50806390D02*
X21294142Y-50844485D01*
X21294142Y-50844485D02*
X21258428Y-50920676D01*
X21258428Y-50920676D02*
X21258428Y-51034961D01*
X21258428Y-51034961D02*
X21294142Y-51111152D01*
X21294142Y-51111152D02*
X21329856Y-51149247D01*
X21329856Y-51149247D02*
X21401285Y-51187342D01*
X21401285Y-51187342D02*
X21686999Y-51187342D01*
X20936999Y-51568295D02*
X20936999Y-50768295D01*
X20436999Y-50768295D02*
X20294142Y-50768295D01*
X20294142Y-50768295D02*
X20222713Y-50806390D01*
X20222713Y-50806390D02*
X20151285Y-50882580D01*
X20151285Y-50882580D02*
X20115570Y-51034961D01*
X20115570Y-51034961D02*
X20115570Y-51301628D01*
X20115570Y-51301628D02*
X20151285Y-51454009D01*
X20151285Y-51454009D02*
X20222713Y-51530200D01*
X20222713Y-51530200D02*
X20294142Y-51568295D01*
X20294142Y-51568295D02*
X20436999Y-51568295D01*
X20436999Y-51568295D02*
X20508428Y-51530200D01*
X20508428Y-51530200D02*
X20579856Y-51454009D01*
X20579856Y-51454009D02*
X20615570Y-51301628D01*
X20615570Y-51301628D02*
X20615570Y-51034961D01*
X20615570Y-51034961D02*
X20579856Y-50882580D01*
X20579856Y-50882580D02*
X20508428Y-50806390D01*
X20508428Y-50806390D02*
X20436999Y-50768295D01*
X19401285Y-51568295D02*
X19829856Y-51568295D01*
X19615571Y-51568295D02*
X19615571Y-50768295D01*
X19615571Y-50768295D02*
X19686999Y-50882580D01*
X19686999Y-50882580D02*
X19758428Y-50958771D01*
X19758428Y-50958771D02*
X19829856Y-50996866D01*
X15031428Y-56648390D02*
X15102857Y-56610295D01*
X15102857Y-56610295D02*
X15209999Y-56610295D01*
X15209999Y-56610295D02*
X15317142Y-56648390D01*
X15317142Y-56648390D02*
X15388571Y-56724580D01*
X15388571Y-56724580D02*
X15424285Y-56800771D01*
X15424285Y-56800771D02*
X15459999Y-56953152D01*
X15459999Y-56953152D02*
X15459999Y-57067438D01*
X15459999Y-57067438D02*
X15424285Y-57219819D01*
X15424285Y-57219819D02*
X15388571Y-57296009D01*
X15388571Y-57296009D02*
X15317142Y-57372200D01*
X15317142Y-57372200D02*
X15209999Y-57410295D01*
X15209999Y-57410295D02*
X15138571Y-57410295D01*
X15138571Y-57410295D02*
X15031428Y-57372200D01*
X15031428Y-57372200D02*
X14995714Y-57334104D01*
X14995714Y-57334104D02*
X14995714Y-57067438D01*
X14995714Y-57067438D02*
X15138571Y-57067438D01*
X14674285Y-57410295D02*
X14674285Y-56610295D01*
X14674285Y-56610295D02*
X14245714Y-57410295D01*
X14245714Y-57410295D02*
X14245714Y-56610295D01*
X13888571Y-57410295D02*
X13888571Y-56610295D01*
X13888571Y-56610295D02*
X13710000Y-56610295D01*
X13710000Y-56610295D02*
X13602857Y-56648390D01*
X13602857Y-56648390D02*
X13531428Y-56724580D01*
X13531428Y-56724580D02*
X13495714Y-56800771D01*
X13495714Y-56800771D02*
X13460000Y-56953152D01*
X13460000Y-56953152D02*
X13460000Y-57067438D01*
X13460000Y-57067438D02*
X13495714Y-57219819D01*
X13495714Y-57219819D02*
X13531428Y-57296009D01*
X13531428Y-57296009D02*
X13602857Y-57372200D01*
X13602857Y-57372200D02*
X13710000Y-57410295D01*
X13710000Y-57410295D02*
X13888571Y-57410295D01*
X17892856Y-57372200D02*
X17785714Y-57410295D01*
X17785714Y-57410295D02*
X17607142Y-57410295D01*
X17607142Y-57410295D02*
X17535714Y-57372200D01*
X17535714Y-57372200D02*
X17499999Y-57334104D01*
X17499999Y-57334104D02*
X17464285Y-57257914D01*
X17464285Y-57257914D02*
X17464285Y-57181723D01*
X17464285Y-57181723D02*
X17499999Y-57105533D01*
X17499999Y-57105533D02*
X17535714Y-57067438D01*
X17535714Y-57067438D02*
X17607142Y-57029342D01*
X17607142Y-57029342D02*
X17749999Y-56991247D01*
X17749999Y-56991247D02*
X17821428Y-56953152D01*
X17821428Y-56953152D02*
X17857142Y-56915057D01*
X17857142Y-56915057D02*
X17892856Y-56838866D01*
X17892856Y-56838866D02*
X17892856Y-56762676D01*
X17892856Y-56762676D02*
X17857142Y-56686485D01*
X17857142Y-56686485D02*
X17821428Y-56648390D01*
X17821428Y-56648390D02*
X17749999Y-56610295D01*
X17749999Y-56610295D02*
X17571428Y-56610295D01*
X17571428Y-56610295D02*
X17464285Y-56648390D01*
X16714285Y-57334104D02*
X16749999Y-57372200D01*
X16749999Y-57372200D02*
X16857142Y-57410295D01*
X16857142Y-57410295D02*
X16928570Y-57410295D01*
X16928570Y-57410295D02*
X17035713Y-57372200D01*
X17035713Y-57372200D02*
X17107142Y-57296009D01*
X17107142Y-57296009D02*
X17142856Y-57219819D01*
X17142856Y-57219819D02*
X17178570Y-57067438D01*
X17178570Y-57067438D02*
X17178570Y-56953152D01*
X17178570Y-56953152D02*
X17142856Y-56800771D01*
X17142856Y-56800771D02*
X17107142Y-56724580D01*
X17107142Y-56724580D02*
X17035713Y-56648390D01*
X17035713Y-56648390D02*
X16928570Y-56610295D01*
X16928570Y-56610295D02*
X16857142Y-56610295D01*
X16857142Y-56610295D02*
X16749999Y-56648390D01*
X16749999Y-56648390D02*
X16714285Y-56686485D01*
X16035713Y-57410295D02*
X16392856Y-57410295D01*
X16392856Y-57410295D02*
X16392856Y-56610295D01*
D13*
%TO.C,X1*%
X9634000Y-49936000D02*
X9634000Y-58318000D01*
X9634000Y-58318000D02*
X24366000Y-58318000D01*
X14460000Y-49936000D02*
X9634000Y-49936000D01*
X24279640Y-49885200D02*
X19540000Y-49885200D01*
X24366000Y-58318000D02*
X24366000Y-49936000D01*
D14*
%TO.C,G\u002A\u002A\u002A*%
X31498889Y-45916888D02*
X29382220Y-45916888D01*
X29382222Y-46734647D01*
X31484779Y-46749445D01*
X31500626Y-47440890D01*
X26727598Y-47440889D01*
X26735520Y-47095167D01*
X26743445Y-46749445D01*
X27752390Y-46742033D01*
X28761335Y-46734620D01*
X28761334Y-45916890D01*
X26729333Y-45916888D01*
X26729333Y-45239558D01*
X31498889Y-45239556D01*
X31498889Y-45916888D01*
G36*
X31498889Y-45916888D02*
G01*
X29382220Y-45916888D01*
X29382222Y-46734647D01*
X31484779Y-46749445D01*
X31500626Y-47440890D01*
X26727598Y-47440889D01*
X26735520Y-47095167D01*
X26743445Y-46749445D01*
X27752390Y-46742033D01*
X28761335Y-46734620D01*
X28761334Y-45916890D01*
X26729333Y-45916888D01*
X26729333Y-45239558D01*
X31498889Y-45239556D01*
X31498889Y-45916888D01*
G37*
X31498888Y-51363778D02*
X29466889Y-51363778D01*
X29466888Y-51755915D01*
X29869056Y-51882528D01*
X29885733Y-51887778D01*
X30045156Y-51937841D01*
X30240644Y-51999082D01*
X30456352Y-52066541D01*
X30676438Y-52135268D01*
X30885056Y-52200303D01*
X31498888Y-52391467D01*
X31498890Y-53117359D01*
X31435389Y-53097677D01*
X31433073Y-53096947D01*
X31386302Y-53081534D01*
X31293152Y-53050411D01*
X31159911Y-53005691D01*
X30992859Y-52949492D01*
X30798280Y-52883921D01*
X30582462Y-52811100D01*
X30351684Y-52733136D01*
X29331483Y-52388275D01*
X29228949Y-52525616D01*
X29226533Y-52528841D01*
X29088013Y-52681201D01*
X28925208Y-52798021D01*
X28731389Y-52882238D01*
X28499833Y-52936785D01*
X28223818Y-52964606D01*
X28046641Y-52968099D01*
X27750169Y-52945090D01*
X27488042Y-52885094D01*
X27263801Y-52789061D01*
X27080973Y-52657938D01*
X27029302Y-52608490D01*
X26943785Y-52513675D01*
X26875794Y-52413888D01*
X26823436Y-52301800D01*
X26784814Y-52170080D01*
X26758029Y-52011398D01*
X26741190Y-51818425D01*
X26732395Y-51583829D01*
X26730343Y-51363779D01*
X27371045Y-51363779D01*
X27384058Y-51656343D01*
X27385727Y-51690682D01*
X27400639Y-51859371D01*
X27428001Y-51984507D01*
X27472643Y-52076729D01*
X27539397Y-52146681D01*
X27633091Y-52205007D01*
X27683919Y-52229453D01*
X27736251Y-52247630D01*
X27797646Y-52258593D01*
X27879936Y-52263616D01*
X27994961Y-52263964D01*
X28154557Y-52260907D01*
X28210098Y-52259453D01*
X28388591Y-52251019D01*
X28522192Y-52235623D01*
X28619980Y-52210124D01*
X28691036Y-52171389D01*
X28744440Y-52116276D01*
X28789278Y-52041653D01*
X28789770Y-52040686D01*
X28817647Y-51973568D01*
X28834856Y-51895728D01*
X28843578Y-51791977D01*
X28845999Y-51647125D01*
X28846000Y-51363778D01*
X27371045Y-51363779D01*
X26730343Y-51363779D01*
X26729751Y-51300278D01*
X26729333Y-50658223D01*
X28846000Y-50658224D01*
X31498889Y-50658221D01*
X31498888Y-51363778D01*
G36*
X31498888Y-51363778D02*
G01*
X29466889Y-51363778D01*
X29466888Y-51755915D01*
X29869056Y-51882528D01*
X29885733Y-51887778D01*
X30045156Y-51937841D01*
X30240644Y-51999082D01*
X30456352Y-52066541D01*
X30676438Y-52135268D01*
X30885056Y-52200303D01*
X31498888Y-52391467D01*
X31498890Y-53117359D01*
X31435389Y-53097677D01*
X31433073Y-53096947D01*
X31386302Y-53081534D01*
X31293152Y-53050411D01*
X31159911Y-53005691D01*
X30992859Y-52949492D01*
X30798280Y-52883921D01*
X30582462Y-52811100D01*
X30351684Y-52733136D01*
X29331483Y-52388275D01*
X29228949Y-52525616D01*
X29226533Y-52528841D01*
X29088013Y-52681201D01*
X28925208Y-52798021D01*
X28731389Y-52882238D01*
X28499833Y-52936785D01*
X28223818Y-52964606D01*
X28046641Y-52968099D01*
X27750169Y-52945090D01*
X27488042Y-52885094D01*
X27263801Y-52789061D01*
X27080973Y-52657938D01*
X27029302Y-52608490D01*
X26943785Y-52513675D01*
X26875794Y-52413888D01*
X26823436Y-52301800D01*
X26784814Y-52170080D01*
X26758029Y-52011398D01*
X26741190Y-51818425D01*
X26732395Y-51583829D01*
X26730343Y-51363779D01*
X27371045Y-51363779D01*
X27384058Y-51656343D01*
X27385727Y-51690682D01*
X27400639Y-51859371D01*
X27428001Y-51984507D01*
X27472643Y-52076729D01*
X27539397Y-52146681D01*
X27633091Y-52205007D01*
X27683919Y-52229453D01*
X27736251Y-52247630D01*
X27797646Y-52258593D01*
X27879936Y-52263616D01*
X27994961Y-52263964D01*
X28154557Y-52260907D01*
X28210098Y-52259453D01*
X28388591Y-52251019D01*
X28522192Y-52235623D01*
X28619980Y-52210124D01*
X28691036Y-52171389D01*
X28744440Y-52116276D01*
X28789278Y-52041653D01*
X28789770Y-52040686D01*
X28817647Y-51973568D01*
X28834856Y-51895728D01*
X28843578Y-51791977D01*
X28845999Y-51647125D01*
X28846000Y-51363778D01*
X27371045Y-51363779D01*
X26730343Y-51363779D01*
X26729751Y-51300278D01*
X26729333Y-50658223D01*
X28846000Y-50658224D01*
X31498889Y-50658221D01*
X31498888Y-51363778D01*
G37*
X31476772Y-47751897D02*
X31485335Y-47785496D01*
X31491177Y-47863481D01*
X31493794Y-47975316D01*
X31492677Y-48110481D01*
X31484778Y-48469633D01*
X30715722Y-48751481D01*
X30664531Y-48770282D01*
X30472690Y-48841460D01*
X30300926Y-48906309D01*
X30155841Y-48962259D01*
X30044034Y-49006739D01*
X29972109Y-49037177D01*
X29946668Y-49051003D01*
X29947686Y-49052298D01*
X29982779Y-49069637D01*
X30062980Y-49103058D01*
X30181627Y-49149960D01*
X30332056Y-49207746D01*
X30507605Y-49273816D01*
X30701612Y-49345567D01*
X30737440Y-49358721D01*
X30930176Y-49429919D01*
X31104451Y-49495017D01*
X31253350Y-49551380D01*
X31369954Y-49596371D01*
X31447341Y-49627353D01*
X31478601Y-49641687D01*
X31479402Y-49642625D01*
X31486975Y-49681242D01*
X31492008Y-49763781D01*
X31494064Y-49878795D01*
X31492712Y-50014838D01*
X31484778Y-50368763D01*
X29001222Y-49388486D01*
X27900556Y-49829348D01*
X27779907Y-49877668D01*
X27551060Y-49969307D01*
X27340740Y-50053501D01*
X27154592Y-50127994D01*
X26998260Y-50190528D01*
X26877389Y-50238847D01*
X26797625Y-50270685D01*
X26764611Y-50283790D01*
X26754858Y-50282878D01*
X26742701Y-50256558D01*
X26734834Y-50193626D01*
X26730600Y-50087484D01*
X26729333Y-49931543D01*
X26729333Y-49565713D01*
X27406666Y-49317668D01*
X27566804Y-49258490D01*
X27734224Y-49195351D01*
X27876694Y-49140245D01*
X27987171Y-49095936D01*
X28058619Y-49065206D01*
X28084000Y-49050822D01*
X28070289Y-49041993D01*
X28010644Y-49015496D01*
X27910322Y-48974929D01*
X27776541Y-48923119D01*
X27616518Y-48862899D01*
X27437463Y-48797101D01*
X27308795Y-48750189D01*
X27138773Y-48687676D01*
X26991127Y-48632780D01*
X26873538Y-48588379D01*
X26793687Y-48557361D01*
X26759252Y-48542604D01*
X26750147Y-48528246D01*
X26738945Y-48461960D01*
X26734094Y-48342346D01*
X26735511Y-48168014D01*
X26743444Y-47812999D01*
X27853156Y-48247834D01*
X27979585Y-48297278D01*
X28209457Y-48386672D01*
X28420751Y-48468188D01*
X28607809Y-48539688D01*
X28764978Y-48599026D01*
X28886607Y-48644066D01*
X28967043Y-48672660D01*
X29000630Y-48682666D01*
X29025312Y-48675656D01*
X29098647Y-48650157D01*
X29214615Y-48607933D01*
X29367799Y-48551016D01*
X29552778Y-48481434D01*
X29764131Y-48401219D01*
X29996437Y-48312397D01*
X30244277Y-48217000D01*
X30454813Y-48135848D01*
X30688933Y-48045975D01*
X30902528Y-47964377D01*
X31090245Y-47893077D01*
X31246737Y-47834099D01*
X31366653Y-47789467D01*
X31444650Y-47761204D01*
X31475369Y-47751335D01*
X31476772Y-47751897D01*
G36*
X31476772Y-47751897D02*
G01*
X31485335Y-47785496D01*
X31491177Y-47863481D01*
X31493794Y-47975316D01*
X31492677Y-48110481D01*
X31484778Y-48469633D01*
X30715722Y-48751481D01*
X30664531Y-48770282D01*
X30472690Y-48841460D01*
X30300926Y-48906309D01*
X30155841Y-48962259D01*
X30044034Y-49006739D01*
X29972109Y-49037177D01*
X29946668Y-49051003D01*
X29947686Y-49052298D01*
X29982779Y-49069637D01*
X30062980Y-49103058D01*
X30181627Y-49149960D01*
X30332056Y-49207746D01*
X30507605Y-49273816D01*
X30701612Y-49345567D01*
X30737440Y-49358721D01*
X30930176Y-49429919D01*
X31104451Y-49495017D01*
X31253350Y-49551380D01*
X31369954Y-49596371D01*
X31447341Y-49627353D01*
X31478601Y-49641687D01*
X31479402Y-49642625D01*
X31486975Y-49681242D01*
X31492008Y-49763781D01*
X31494064Y-49878795D01*
X31492712Y-50014838D01*
X31484778Y-50368763D01*
X29001222Y-49388486D01*
X27900556Y-49829348D01*
X27779907Y-49877668D01*
X27551060Y-49969307D01*
X27340740Y-50053501D01*
X27154592Y-50127994D01*
X26998260Y-50190528D01*
X26877389Y-50238847D01*
X26797625Y-50270685D01*
X26764611Y-50283790D01*
X26754858Y-50282878D01*
X26742701Y-50256558D01*
X26734834Y-50193626D01*
X26730600Y-50087484D01*
X26729333Y-49931543D01*
X26729333Y-49565713D01*
X27406666Y-49317668D01*
X27566804Y-49258490D01*
X27734224Y-49195351D01*
X27876694Y-49140245D01*
X27987171Y-49095936D01*
X28058619Y-49065206D01*
X28084000Y-49050822D01*
X28070289Y-49041993D01*
X28010644Y-49015496D01*
X27910322Y-48974929D01*
X27776541Y-48923119D01*
X27616518Y-48862899D01*
X27437463Y-48797101D01*
X27308795Y-48750189D01*
X27138773Y-48687676D01*
X26991127Y-48632780D01*
X26873538Y-48588379D01*
X26793687Y-48557361D01*
X26759252Y-48542604D01*
X26750147Y-48528246D01*
X26738945Y-48461960D01*
X26734094Y-48342346D01*
X26735511Y-48168014D01*
X26743444Y-47812999D01*
X27853156Y-48247834D01*
X27979585Y-48297278D01*
X28209457Y-48386672D01*
X28420751Y-48468188D01*
X28607809Y-48539688D01*
X28764978Y-48599026D01*
X28886607Y-48644066D01*
X28967043Y-48672660D01*
X29000630Y-48682666D01*
X29025312Y-48675656D01*
X29098647Y-48650157D01*
X29214615Y-48607933D01*
X29367799Y-48551016D01*
X29552778Y-48481434D01*
X29764131Y-48401219D01*
X29996437Y-48312397D01*
X30244277Y-48217000D01*
X30454813Y-48135848D01*
X30688933Y-48045975D01*
X30902528Y-47964377D01*
X31090245Y-47893077D01*
X31246737Y-47834099D01*
X31366653Y-47789467D01*
X31444650Y-47761204D01*
X31475369Y-47751335D01*
X31476772Y-47751897D01*
G37*
%TD*%
%LPC*%
%TO.C,G\u002A\u002A\u002A*%
X30426445Y-54496446D02*
X30424852Y-54658721D01*
X30420222Y-54759828D01*
X30393512Y-54900942D01*
X30340258Y-55002775D01*
X30257112Y-55073608D01*
X30254977Y-55074850D01*
X30227184Y-55089624D01*
X30195907Y-55101576D01*
X30155259Y-55111009D01*
X30099359Y-55118217D01*
X30022322Y-55123499D01*
X29918262Y-55127155D01*
X29781295Y-55129478D01*
X29605538Y-55130769D01*
X29385104Y-55131325D01*
X29114111Y-55131445D01*
X28955468Y-55131393D01*
X28711652Y-55130933D01*
X28515194Y-55129779D01*
X28360259Y-55127668D01*
X28241012Y-55124336D01*
X28151622Y-55119522D01*
X28086255Y-55112961D01*
X28039074Y-55104395D01*
X28004250Y-55093555D01*
X27975945Y-55080181D01*
X27943550Y-55059748D01*
X27863751Y-54970422D01*
X27817013Y-54840630D01*
X27801777Y-54666684D01*
X27801777Y-54496444D01*
X30426445Y-54496446D01*
G36*
X30426445Y-54496446D02*
G01*
X30424852Y-54658721D01*
X30420222Y-54759828D01*
X30393512Y-54900942D01*
X30340258Y-55002775D01*
X30257112Y-55073608D01*
X30254977Y-55074850D01*
X30227184Y-55089624D01*
X30195907Y-55101576D01*
X30155259Y-55111009D01*
X30099359Y-55118217D01*
X30022322Y-55123499D01*
X29918262Y-55127155D01*
X29781295Y-55129478D01*
X29605538Y-55130769D01*
X29385104Y-55131325D01*
X29114111Y-55131445D01*
X28955468Y-55131393D01*
X28711652Y-55130933D01*
X28515194Y-55129779D01*
X28360259Y-55127668D01*
X28241012Y-55124336D01*
X28151622Y-55119522D01*
X28086255Y-55112961D01*
X28039074Y-55104395D01*
X28004250Y-55093555D01*
X27975945Y-55080181D01*
X27943550Y-55059748D01*
X27863751Y-54970422D01*
X27817013Y-54840630D01*
X27801777Y-54666684D01*
X27801777Y-54496444D01*
X30426445Y-54496446D01*
G37*
X30445023Y-53181642D02*
X30646345Y-53249378D01*
X30855177Y-53319818D01*
X31042576Y-53383214D01*
X31202124Y-53437385D01*
X31327405Y-53480156D01*
X31412002Y-53509344D01*
X31449500Y-53522770D01*
X31452586Y-53524277D01*
X31460766Y-53532140D01*
X31467922Y-53547932D01*
X31474128Y-53575124D01*
X31479447Y-53617175D01*
X31483950Y-53677556D01*
X31487702Y-53759728D01*
X31490772Y-53867157D01*
X31493227Y-54003309D01*
X31495134Y-54171649D01*
X31496564Y-54375642D01*
X31497582Y-54618752D01*
X31498255Y-54904448D01*
X31498651Y-55236192D01*
X31498840Y-55617449D01*
X31498889Y-56051686D01*
X31498890Y-58560446D01*
X26729334Y-58560445D01*
X26729334Y-56613111D01*
X27350222Y-56613111D01*
X28156221Y-56613111D01*
X28203318Y-56613153D01*
X28405212Y-56614295D01*
X28585151Y-56616853D01*
X28736242Y-56620614D01*
X28851582Y-56625377D01*
X28924274Y-56630926D01*
X28947422Y-56637055D01*
X28941072Y-56641837D01*
X28892380Y-56668219D01*
X28801375Y-56713507D01*
X28674416Y-56774667D01*
X28517864Y-56848646D01*
X28338078Y-56932402D01*
X28141424Y-57022889D01*
X27350222Y-57384780D01*
X27350223Y-57880282D01*
X28020500Y-57553944D01*
X28189893Y-57471748D01*
X28356924Y-57391287D01*
X28501930Y-57322050D01*
X28617737Y-57267438D01*
X28697188Y-57230851D01*
X28733111Y-57215690D01*
X28738852Y-57215881D01*
X28789313Y-57229352D01*
X28884568Y-57260675D01*
X29018757Y-57307736D01*
X29186022Y-57368421D01*
X29380510Y-57440610D01*
X29596357Y-57522190D01*
X29827709Y-57611045D01*
X30879972Y-58018311D01*
X30863889Y-57481201D01*
X30525222Y-57357400D01*
X30286709Y-57270200D01*
X30042899Y-57180916D01*
X29844170Y-57107747D01*
X29686183Y-57048898D01*
X29564599Y-57002569D01*
X29475076Y-56966958D01*
X29413276Y-56940267D01*
X29374858Y-56920696D01*
X29355488Y-56906445D01*
X29350824Y-56895719D01*
X29356521Y-56886715D01*
X29368249Y-56877632D01*
X29379525Y-56870026D01*
X29440486Y-56833836D01*
X29531441Y-56783400D01*
X29637266Y-56727175D01*
X29856508Y-56613111D01*
X30878002Y-56613111D01*
X30878000Y-56133334D01*
X27350222Y-56133334D01*
X27350222Y-56613111D01*
X26729334Y-56613111D01*
X26729334Y-54491416D01*
X27350222Y-54491416D01*
X27351296Y-54663733D01*
X27356896Y-54846700D01*
X27368914Y-54989617D01*
X27389163Y-55101725D01*
X27419447Y-55192267D01*
X27461579Y-55270492D01*
X27517364Y-55345642D01*
X27559748Y-55389476D01*
X27650586Y-55463518D01*
X27749411Y-55527505D01*
X27900556Y-55611222D01*
X30299445Y-55611222D01*
X30434075Y-55544344D01*
X30517712Y-55494571D01*
X30654875Y-55375634D01*
X30765817Y-55231717D01*
X30835797Y-55079868D01*
X30839346Y-55067262D01*
X30857008Y-54975034D01*
X30869004Y-54848479D01*
X30875834Y-54680276D01*
X30878000Y-54463100D01*
X30877999Y-53988445D01*
X27350223Y-53988445D01*
X27350222Y-54491416D01*
X26729334Y-54491416D01*
X26729334Y-52883380D01*
X26849278Y-52986186D01*
X26853983Y-52990200D01*
X27041688Y-53123581D01*
X27255219Y-53224483D01*
X27350222Y-53251645D01*
X27500724Y-53294676D01*
X27784341Y-53335930D01*
X28112222Y-53350016D01*
X28269312Y-53347980D01*
X28535894Y-53328610D01*
X28764879Y-53286330D01*
X28966665Y-53218079D01*
X29151653Y-53120799D01*
X29330245Y-52991421D01*
X29489935Y-52860673D01*
X30445023Y-53181642D01*
G36*
X30445023Y-53181642D02*
G01*
X30646345Y-53249378D01*
X30855177Y-53319818D01*
X31042576Y-53383214D01*
X31202124Y-53437385D01*
X31327405Y-53480156D01*
X31412002Y-53509344D01*
X31449500Y-53522770D01*
X31452586Y-53524277D01*
X31460766Y-53532140D01*
X31467922Y-53547932D01*
X31474128Y-53575124D01*
X31479447Y-53617175D01*
X31483950Y-53677556D01*
X31487702Y-53759728D01*
X31490772Y-53867157D01*
X31493227Y-54003309D01*
X31495134Y-54171649D01*
X31496564Y-54375642D01*
X31497582Y-54618752D01*
X31498255Y-54904448D01*
X31498651Y-55236192D01*
X31498840Y-55617449D01*
X31498889Y-56051686D01*
X31498890Y-58560446D01*
X26729334Y-58560445D01*
X26729334Y-56613111D01*
X27350222Y-56613111D01*
X28156221Y-56613111D01*
X28203318Y-56613153D01*
X28405212Y-56614295D01*
X28585151Y-56616853D01*
X28736242Y-56620614D01*
X28851582Y-56625377D01*
X28924274Y-56630926D01*
X28947422Y-56637055D01*
X28941072Y-56641837D01*
X28892380Y-56668219D01*
X28801375Y-56713507D01*
X28674416Y-56774667D01*
X28517864Y-56848646D01*
X28338078Y-56932402D01*
X28141424Y-57022889D01*
X27350222Y-57384780D01*
X27350223Y-57880282D01*
X28020500Y-57553944D01*
X28189893Y-57471748D01*
X28356924Y-57391287D01*
X28501930Y-57322050D01*
X28617737Y-57267438D01*
X28697188Y-57230851D01*
X28733111Y-57215690D01*
X28738852Y-57215881D01*
X28789313Y-57229352D01*
X28884568Y-57260675D01*
X29018757Y-57307736D01*
X29186022Y-57368421D01*
X29380510Y-57440610D01*
X29596357Y-57522190D01*
X29827709Y-57611045D01*
X30879972Y-58018311D01*
X30863889Y-57481201D01*
X30525222Y-57357400D01*
X30286709Y-57270200D01*
X30042899Y-57180916D01*
X29844170Y-57107747D01*
X29686183Y-57048898D01*
X29564599Y-57002569D01*
X29475076Y-56966958D01*
X29413276Y-56940267D01*
X29374858Y-56920696D01*
X29355488Y-56906445D01*
X29350824Y-56895719D01*
X29356521Y-56886715D01*
X29368249Y-56877632D01*
X29379525Y-56870026D01*
X29440486Y-56833836D01*
X29531441Y-56783400D01*
X29637266Y-56727175D01*
X29856508Y-56613111D01*
X30878002Y-56613111D01*
X30878000Y-56133334D01*
X27350222Y-56133334D01*
X27350222Y-56613111D01*
X26729334Y-56613111D01*
X26729334Y-54491416D01*
X27350222Y-54491416D01*
X27351296Y-54663733D01*
X27356896Y-54846700D01*
X27368914Y-54989617D01*
X27389163Y-55101725D01*
X27419447Y-55192267D01*
X27461579Y-55270492D01*
X27517364Y-55345642D01*
X27559748Y-55389476D01*
X27650586Y-55463518D01*
X27749411Y-55527505D01*
X27900556Y-55611222D01*
X30299445Y-55611222D01*
X30434075Y-55544344D01*
X30517712Y-55494571D01*
X30654875Y-55375634D01*
X30765817Y-55231717D01*
X30835797Y-55079868D01*
X30839346Y-55067262D01*
X30857008Y-54975034D01*
X30869004Y-54848479D01*
X30875834Y-54680276D01*
X30878000Y-54463100D01*
X30877999Y-53988445D01*
X27350223Y-53988445D01*
X27350222Y-54491416D01*
X26729334Y-54491416D01*
X26729334Y-52883380D01*
X26849278Y-52986186D01*
X26853983Y-52990200D01*
X27041688Y-53123581D01*
X27255219Y-53224483D01*
X27350222Y-53251645D01*
X27500724Y-53294676D01*
X27784341Y-53335930D01*
X28112222Y-53350016D01*
X28269312Y-53347980D01*
X28535894Y-53328610D01*
X28764879Y-53286330D01*
X28966665Y-53218079D01*
X29151653Y-53120799D01*
X29330245Y-52991421D01*
X29489935Y-52860673D01*
X30445023Y-53181642D01*
G37*
%TD*%
D15*
%TO.C,J3*%
X28895000Y-16890000D03*
X28895001Y-11110000D03*
D16*
X28395000Y-18320002D03*
D17*
X32575000Y-18320001D03*
D16*
X28394998Y-9680000D03*
D17*
X32575000Y-9680000D03*
%TD*%
D18*
%TO.C,SW2*%
X22000000Y-36000000D03*
D19*
X30000000Y-36000000D03*
%TD*%
D20*
%TO.C,X1*%
X14520000Y-52750000D03*
D21*
X14520000Y-55290000D03*
D20*
X17060000Y-52750000D03*
X17060000Y-55290000D03*
D22*
X19600000Y-52750000D03*
X19600000Y-55290000D03*
%TD*%
%LPD*%
M02*
