%TF.GenerationSoftware,KiCad,Pcbnew,8.99.0-3110-g1838b2656d*%
%TF.CreationDate,2025-01-19T16:03:57+01:00*%
%TF.ProjectId,panel_1x5,70616e65-6c5f-4317-9835-2e6b69636164,1.2*%
%TF.SameCoordinates,PX2faf080PY29f6300*%
%TF.FileFunction,Profile,NP*%
%FSLAX46Y46*%
G04 Gerber Fmt 4.6, Leading zero omitted, Abs format (unit mm)*
G04 Created by KiCad (PCBNEW 8.99.0-3110-g1838b2656d) date 2025-01-19 16:03:57*
%MOMM*%
%LPD*%
G01*
G04 APERTURE LIST*
%TA.AperFunction,Profile*%
%ADD10C,0.050000*%
%TD*%
G04 APERTURE END LIST*
D10*
X121500000Y-68000000D02*
G75*
G02*
X126500000Y-68000000I2500000J0D01*
G01*
X102500000Y-68000000D02*
G75*
G02*
X97500000Y-68000000I-2500000J1D01*
G01*
X106000000Y-71000000D02*
G75*
G02*
X103000000Y-74000000I-3000000J0D01*
G01*
X36000000Y-71000000D02*
X36000000Y-9000000D01*
X30500000Y-68000000D02*
G75*
G02*
X25500000Y-68000000I-2500000J1D01*
G01*
X3000000Y-74000000D02*
G75*
G02*
X0Y-71000000I0J3000000D01*
G01*
X147000000Y-5000000D02*
G75*
G02*
X147000000Y-6000000I0J-500000D01*
G01*
X133500000Y-68000000D02*
G75*
G02*
X138500000Y-68000000I2500000J0D01*
G01*
X102000000Y-34585786D02*
X102000000Y-31414214D01*
X75000000Y-5000000D02*
G75*
G02*
X75000000Y-6000000I0J-500000D01*
G01*
X142000000Y-26585786D02*
X142000000Y-9000000D01*
X142000000Y-71000000D02*
G75*
G02*
X139000000Y-74000000I-3000000J0D01*
G01*
X169500000Y-68000000D02*
G75*
G02*
X174500000Y-68000000I2500000J0D01*
G01*
X147000000Y-74000000D02*
G75*
G02*
X147000000Y-75000000I0J-500000D01*
G01*
X85500000Y-68000000D02*
G75*
G02*
X90500000Y-68000000I2500000J0D01*
G01*
X97500000Y-68000000D02*
G75*
G02*
X102500000Y-68000000I2500000J0D01*
G01*
X139000000Y-75000000D02*
G75*
G02*
X139000000Y-74000000I0J500000D01*
G01*
X106000000Y-39414214D02*
X106000000Y-71000000D01*
X175000000Y-6000000D02*
G75*
G02*
X178000000Y-9000000I0J-3000000D01*
G01*
X175000000Y-75000000D02*
G75*
G02*
X175000000Y-74000000I0J500000D01*
G01*
X138000000Y-34585786D02*
X138000000Y-31414214D01*
X178000000Y-26585786D02*
X178000000Y-9000000D01*
X142000000Y-26585786D02*
G75*
G02*
X141707093Y-27292879I-999900J-14D01*
G01*
X67000000Y-75000000D02*
G75*
G02*
X67000000Y-74000000I0J500000D01*
G01*
X66000000Y-34585786D02*
X66000000Y-31414214D01*
X106000000Y-26585786D02*
X106000000Y-9000000D01*
X103000000Y-75000000D02*
X111000000Y-75000000D01*
X103000000Y-75000000D02*
G75*
G02*
X103000000Y-74000000I0J500000D01*
G01*
X177707107Y-38707107D02*
X174292893Y-35292893D01*
X0Y0D02*
X178000000Y0D01*
X157500000Y-68000000D02*
G75*
G02*
X162500000Y-68000000I2500000J0D01*
G01*
X34000000Y-26585786D02*
G75*
G02*
X33707093Y-27292879I-999900J-14D01*
G01*
X139000000Y-6000000D02*
G75*
G02*
X139000000Y-5000000I0J500000D01*
G01*
X138292893Y-30707107D02*
X141707107Y-27292893D01*
X25500000Y-68000000D02*
G75*
G02*
X30500000Y-68000000I2500000J0D01*
G01*
X0Y-9000000D02*
G75*
G02*
X3000000Y-6000000I3000000J0D01*
G01*
X75000000Y-5000000D02*
X67000000Y-5000000D01*
X3000000Y-5000000D02*
G75*
G02*
X3000000Y-6000000I0J-500000D01*
G01*
X144000000Y-71000000D02*
X144000000Y-9000000D01*
X75000000Y-74000000D02*
G75*
G02*
X72000000Y-71000000I0J3000000D01*
G01*
X178000000Y-39414214D02*
X178000000Y-71000000D01*
X178000000Y-80000000D02*
X178000000Y-75000000D01*
X162500000Y-68000000D02*
G75*
G02*
X157500000Y-68000000I-2500000J1D01*
G01*
X178000000Y-5000000D02*
X175000000Y-5000000D01*
X18500000Y-68000000D02*
G75*
G02*
X13500000Y-68000000I-2500000J1D01*
G01*
X102000000Y-31414214D02*
G75*
G02*
X102292907Y-30707121I999900J14D01*
G01*
X39000000Y-74000000D02*
G75*
G02*
X36000000Y-71000000I0J3000000D01*
G01*
X102292893Y-30707107D02*
X105707107Y-27292893D01*
X108000000Y-71000000D02*
X108000000Y-9000000D01*
X34000000Y-39414214D02*
X34000000Y-71000000D01*
X34000000Y-71000000D02*
G75*
G02*
X31000000Y-74000000I-3000000J0D01*
G01*
X142000000Y-39414214D02*
X142000000Y-71000000D01*
X178000000Y-75000000D02*
X175000000Y-75000000D01*
X105707107Y-38707107D02*
X102292893Y-35292893D01*
X111000000Y-74000000D02*
G75*
G02*
X108000000Y-71000000I0J3000000D01*
G01*
X174292893Y-35292893D02*
G75*
G02*
X174000015Y-34585786I707607J707293D01*
G01*
X70000000Y-26585786D02*
G75*
G02*
X69707093Y-27292879I-999900J-14D01*
G01*
X66000000Y-31414214D02*
G75*
G02*
X66292907Y-30707121I999900J14D01*
G01*
X174500000Y-68000000D02*
G75*
G02*
X169500000Y-68000000I-2500000J1D01*
G01*
X54500000Y-68000000D02*
G75*
G02*
X49500000Y-68000000I-2500000J1D01*
G01*
X144000000Y-9000000D02*
G75*
G02*
X147000000Y-6000000I3000000J0D01*
G01*
X139000000Y-75000000D02*
X147000000Y-75000000D01*
X72000000Y-9000000D02*
G75*
G02*
X75000000Y-6000000I3000000J0D01*
G01*
X138500000Y-68000000D02*
G75*
G02*
X133500000Y-68000000I-2500000J1D01*
G01*
X67000000Y-6000000D02*
G75*
G02*
X67000000Y-5000000I0J500000D01*
G01*
X49500000Y-68000000D02*
G75*
G02*
X54500000Y-68000000I2500000J0D01*
G01*
X31000000Y-6000000D02*
G75*
G02*
X34000000Y-9000000I0J-3000000D01*
G01*
X33707107Y-38707107D02*
X30292893Y-35292893D01*
X30292893Y-35292893D02*
G75*
G02*
X30000015Y-34585786I707607J707293D01*
G01*
X61500000Y-68000000D02*
G75*
G02*
X66500000Y-68000000I2500000J0D01*
G01*
X70000000Y-71000000D02*
G75*
G02*
X67000000Y-74000000I-3000000J0D01*
G01*
X174000000Y-34585786D02*
X174000000Y-31414214D01*
X108000000Y-9000000D02*
G75*
G02*
X111000000Y-6000000I3000000J0D01*
G01*
X66500000Y-68000000D02*
G75*
G02*
X61500000Y-68000000I-2500000J1D01*
G01*
X174292893Y-30707107D02*
X177707107Y-27292893D01*
X39000000Y-5000000D02*
G75*
G02*
X39000000Y-6000000I0J-500000D01*
G01*
X141707107Y-38707107D02*
X138292893Y-35292893D01*
X105707107Y-38707107D02*
G75*
G02*
X105999985Y-39414214I-707607J-707293D01*
G01*
X31000000Y-75000000D02*
X39000000Y-75000000D01*
X0Y-80000000D02*
X178000000Y-80000000D01*
X139000000Y-6000000D02*
G75*
G02*
X142000000Y-9000000I0J-3000000D01*
G01*
X69707107Y-38707107D02*
G75*
G02*
X69999985Y-39414214I-707607J-707293D01*
G01*
X126500000Y-68000000D02*
G75*
G02*
X121500000Y-68000000I-2500000J1D01*
G01*
X39000000Y-74000000D02*
G75*
G02*
X39000000Y-75000000I0J-500000D01*
G01*
X103000000Y-6000000D02*
G75*
G02*
X106000000Y-9000000I0J-3000000D01*
G01*
X70000000Y-39414214D02*
X70000000Y-71000000D01*
X178000000Y-26585786D02*
G75*
G02*
X177707093Y-27292879I-999900J-14D01*
G01*
X175000000Y-6000000D02*
G75*
G02*
X175000000Y-5000000I0J500000D01*
G01*
X177707107Y-38707107D02*
G75*
G02*
X177999985Y-39414214I-707607J-707293D01*
G01*
X66292893Y-30707107D02*
X69707107Y-27292893D01*
X67000000Y-6000000D02*
G75*
G02*
X70000000Y-9000000I0J-3000000D01*
G01*
X138292893Y-35292893D02*
G75*
G02*
X138000015Y-34585786I707607J707293D01*
G01*
X178000000Y0D02*
X178000000Y-5000000D01*
X75000000Y-74000000D02*
G75*
G02*
X75000000Y-75000000I0J-500000D01*
G01*
X0Y-71000000D02*
X0Y-9000000D01*
X138000000Y-31414214D02*
G75*
G02*
X138292907Y-30707121I999900J14D01*
G01*
X31000000Y-75000000D02*
G75*
G02*
X31000000Y-74000000I0J500000D01*
G01*
X72000000Y-71000000D02*
X72000000Y-9000000D01*
X174000000Y-31414214D02*
G75*
G02*
X174292907Y-30707121I999900J14D01*
G01*
X33707107Y-38707107D02*
G75*
G02*
X33999985Y-39414214I-707607J-707293D01*
G01*
X3000000Y-75000000D02*
X0Y-75000000D01*
X13500000Y-68000000D02*
G75*
G02*
X18500000Y-68000000I2500000J0D01*
G01*
X30292893Y-30707107D02*
X33707107Y-27292893D01*
X147000000Y-5000000D02*
X139000000Y-5000000D01*
X36000000Y-9000000D02*
G75*
G02*
X39000000Y-6000000I3000000J0D01*
G01*
X66292893Y-35292893D02*
G75*
G02*
X66000015Y-34585786I707607J707293D01*
G01*
X0Y-5000000D02*
X3000000Y-5000000D01*
X30000000Y-34585786D02*
X30000000Y-31414214D01*
X178000000Y-71000000D02*
G75*
G02*
X175000000Y-74000000I-3000000J0D01*
G01*
X103000000Y-6000000D02*
G75*
G02*
X103000000Y-5000000I0J500000D01*
G01*
X111000000Y-74000000D02*
G75*
G02*
X111000000Y-75000000I0J-500000D01*
G01*
X69707107Y-38707107D02*
X66292893Y-35292893D01*
X141707107Y-38707107D02*
G75*
G02*
X141999985Y-39414214I-707607J-707293D01*
G01*
X30000000Y-31414214D02*
G75*
G02*
X30292907Y-30707121I999900J14D01*
G01*
X3000000Y-74000000D02*
G75*
G02*
X3000000Y-75000000I0J-500000D01*
G01*
X67000000Y-75000000D02*
X75000000Y-75000000D01*
X106000000Y-26585786D02*
G75*
G02*
X105707093Y-27292879I-999900J-14D01*
G01*
X70000000Y-26585786D02*
X70000000Y-9000000D01*
X39000000Y-5000000D02*
X31000000Y-5000000D01*
X0Y-5000000D02*
X0Y0D01*
X0Y-75000000D02*
X0Y-80000000D01*
X147000000Y-74000000D02*
G75*
G02*
X144000000Y-71000000I0J3000000D01*
G01*
X102292893Y-35292893D02*
G75*
G02*
X102000015Y-34585786I707607J707293D01*
G01*
X111000000Y-5000000D02*
X103000000Y-5000000D01*
X34000000Y-26585786D02*
X34000000Y-9000000D01*
X31000000Y-6000000D02*
G75*
G02*
X31000000Y-5000000I0J500000D01*
G01*
X90500000Y-68000000D02*
G75*
G02*
X85500000Y-68000000I-2500000J1D01*
G01*
X111000000Y-5000000D02*
G75*
G02*
X111000000Y-6000000I0J-500000D01*
G01*
M02*
