M48
; DRILL file {KiCad 8.99.0-3110-g1838b2656d} date 2024-11-19T22:18:15+0100
; FORMAT={-:-/ absolute / inch / decimal}
; #@! TF.CreationDate,2024-11-19T22:18:15+01:00
; #@! TF.GenerationSoftware,Kicad,Pcbnew,8.99.0-3110-g1838b2656d
; #@! TF.FileFunction,NonPlated,1,2,NPTH
FMAT,2
INCH
; #@! TA.AperFunction,NonPlated,NPTH,ComponentDrill
T1C0.0256
; #@! TA.AperFunction,NonPlated,NPTH,ComponentDrill
T2C0.0591
; #@! TA.AperFunction,NonPlated,NPTH,ComponentDrill
T3C0.0787
%
G90
G05
T1
X1.1376Y-0.9012
X1.1376Y-0.6736
X2.5549Y-0.9012
X2.5549Y-0.6736
X3.9722Y-0.9012
X3.9722Y-0.6736
X5.3896Y-0.9012
X5.3896Y-0.6736
X6.8069Y-0.9012
X6.8069Y-0.6736
T2
X0.8661Y-1.6535
X1.1811Y-1.6535
X2.2835Y-1.6535
X2.5984Y-1.6535
X3.7008Y-1.6535
X4.0157Y-1.6535
X5.1181Y-1.6535
X5.4331Y-1.6535
X6.5354Y-1.6535
X6.8504Y-1.6535
T3
X0.1969Y-0.0984
X0.1969Y-3.0512
X6.811Y-0.0984
M30
