%TF.GenerationSoftware,KiCad,Pcbnew,8.99.0-3110-g1838b2656d*%
%TF.CreationDate,2024-11-19T22:18:04+01:00*%
%TF.ProjectId,panel_1x5,70616e65-6c5f-4317-9835-2e6b69636164,1.1*%
%TF.SameCoordinates,PX2faf080PY29f6300*%
%TF.FileFunction,Soldermask,Top*%
%TF.FilePolarity,Negative*%
%FSLAX46Y46*%
G04 Gerber Fmt 4.6, Leading zero omitted, Abs format (unit mm)*
G04 Created by KiCad (PCBNEW 8.99.0-3110-g1838b2656d) date 2024-11-19 22:18:04*
%MOMM*%
%LPD*%
G01*
G04 APERTURE LIST*
G04 Aperture macros list*
%AMRoundRect*
0 Rectangle with rounded corners*
0 $1 Rounding radius*
0 $2 $3 $4 $5 $6 $7 $8 $9 X,Y pos of 4 corners*
0 Add a 4 corners polygon primitive as box body*
4,1,4,$2,$3,$4,$5,$6,$7,$8,$9,$2,$3,0*
0 Add four circle primitives for the rounded corners*
1,1,$1+$1,$2,$3*
1,1,$1+$1,$4,$5*
1,1,$1+$1,$6,$7*
1,1,$1+$1,$8,$9*
0 Add four rect primitives between the rounded corners*
20,1,$1+$1,$2,$3,$4,$5,0*
20,1,$1+$1,$4,$5,$6,$7,0*
20,1,$1+$1,$6,$7,$8,$9,0*
20,1,$1+$1,$8,$9,$2,$3,0*%
%AMHorizOval*
0 Thick line with rounded ends*
0 $1 width*
0 $2 $3 position (X,Y) of the first rounded end (center of the circle)*
0 $4 $5 position (X,Y) of the second rounded end (center of the circle)*
0 Add line between two ends*
20,1,$1,$2,$3,$4,$5,0*
0 Add two circle primitives to create the rounded ends*
1,1,$1,$2,$3*
1,1,$1,$4,$5*%
%AMRotRect*
0 Rectangle, with rotation*
0 The origin of the aperture is its center*
0 $1 length*
0 $2 width*
0 $3 Rotation angle, in degrees counterclockwise*
0 Add horizontal line*
21,1,$1,$2,0,0,$3*%
G04 Aperture macros list end*
%ADD10C,2.000000*%
%ADD11C,3.000000*%
%ADD12C,0.650000*%
%ADD13R,1.150000X0.300000*%
%ADD14R,1.100000X0.300000*%
%ADD15O,2.100000X1.000000*%
%ADD16O,1.600000X1.000000*%
%ADD17RoundRect,0.225000X0.250000X-0.225000X0.250000X0.225000X-0.250000X0.225000X-0.250000X-0.225000X0*%
%ADD18RoundRect,0.225000X0.335876X0.017678X0.017678X0.335876X-0.335876X-0.017678X-0.017678X-0.335876X0*%
%ADD19RotRect,1.600000X1.300000X135.000000*%
%ADD20R,1.000000X1.700000*%
%ADD21RoundRect,0.225000X-0.225000X-0.250000X0.225000X-0.250000X0.225000X0.250000X-0.225000X0.250000X0*%
%ADD22RoundRect,0.225000X0.017678X-0.335876X0.335876X-0.017678X-0.017678X0.335876X-0.335876X0.017678X0*%
%ADD23RoundRect,0.150000X0.587500X0.150000X-0.587500X0.150000X-0.587500X-0.150000X0.587500X-0.150000X0*%
%ADD24R,0.400000X2.540000*%
%ADD25RoundRect,0.200000X0.275000X-0.200000X0.275000X0.200000X-0.275000X0.200000X-0.275000X-0.200000X0*%
%ADD26RoundRect,0.225000X-0.250000X0.225000X-0.250000X-0.225000X0.250000X-0.225000X0.250000X0.225000X0*%
%ADD27RoundRect,0.225000X-0.017678X0.335876X-0.335876X0.017678X0.017678X-0.335876X0.335876X-0.017678X0*%
%ADD28HorizOval,0.200000X-0.238649X0.238649X0.238649X-0.238649X0*%
%ADD29HorizOval,0.200000X-0.238649X-0.238649X0.238649X0.238649X0*%
%ADD30RotRect,0.800000X0.800000X315.000000*%
%ADD31RoundRect,0.200000X-0.275000X0.200000X-0.275000X-0.200000X0.275000X-0.200000X0.275000X0.200000X0*%
%ADD32RoundRect,0.150000X-0.150000X0.587500X-0.150000X-0.587500X0.150000X-0.587500X0.150000X0.587500X0*%
%ADD33RoundRect,0.225000X-0.335876X-0.017678X-0.017678X-0.335876X0.335876X0.017678X0.017678X0.335876X0*%
%ADD34C,2.082800*%
%ADD35RoundRect,0.150000X0.150000X-0.512500X0.150000X0.512500X-0.150000X0.512500X-0.150000X-0.512500X0*%
%ADD36R,4.200000X2.000000*%
%ADD37O,1.727200X1.727200*%
%ADD38R,1.727200X1.727200*%
%ADD39C,1.727200*%
%ADD40C,1.300000*%
%ADD41C,1.100000*%
%ADD42R,1.400000X1.800000*%
%ADD43R,3.000000X1.800000*%
%ADD44RoundRect,0.150000X-0.150000X0.650000X-0.150000X-0.650000X0.150000X-0.650000X0.150000X0.650000X0*%
%ADD45RoundRect,0.200000X0.200000X0.275000X-0.200000X0.275000X-0.200000X-0.275000X0.200000X-0.275000X0*%
%ADD46RoundRect,0.225000X0.225000X0.250000X-0.225000X0.250000X-0.225000X-0.250000X0.225000X-0.250000X0*%
%ADD47RoundRect,0.200000X-0.053033X0.335876X-0.335876X0.053033X0.053033X-0.335876X0.335876X-0.053033X0*%
%ADD48RoundRect,0.250000X1.075000X-0.375000X1.075000X0.375000X-1.075000X0.375000X-1.075000X-0.375000X0*%
%ADD49RoundRect,0.250000X-0.650000X0.325000X-0.650000X-0.325000X0.650000X-0.325000X0.650000X0.325000X0*%
%ADD50RoundRect,0.250000X0.650000X-0.325000X0.650000X0.325000X-0.650000X0.325000X-0.650000X-0.325000X0*%
%ADD51RoundRect,0.200000X-0.200000X-0.275000X0.200000X-0.275000X0.200000X0.275000X-0.200000X0.275000X0*%
%ADD52RoundRect,0.150000X-0.587500X-0.150000X0.587500X-0.150000X0.587500X0.150000X-0.587500X0.150000X0*%
G04 APERTURE END LIST*
D10*
%TO.C,REF\u002A\u002A*%
X5000000Y-77500000D03*
%TD*%
%TO.C,REF\u002A\u002A*%
X173000000Y-2500000D03*
%TD*%
%TO.C,REF\u002A\u002A*%
X5000000Y-2500000D03*
%TD*%
D11*
%TO.C,REF\u002A\u002A*%
X10000000Y-77500000D03*
%TD*%
%TO.C,REF\u002A\u002A*%
X168000000Y-2500000D03*
%TD*%
%TO.C,REF\u002A\u002A*%
X10000000Y-2500000D03*
%TD*%
D12*
%TO.C,J3*%
X172895000Y-22890000D03*
X172895001Y-17110000D03*
D13*
X171830000Y-23349999D03*
X171830000Y-22550000D03*
X171830000Y-21250001D03*
X171830000Y-20249999D03*
X171830000Y-19749999D03*
X171829999Y-18750000D03*
X171830000Y-17450000D03*
X171830000Y-16649999D03*
D14*
X171805000Y-16950000D03*
D13*
X171829999Y-17749999D03*
X171830000Y-18250000D03*
X171830001Y-19250000D03*
X171830000Y-20750000D03*
X171830001Y-21749999D03*
X171830001Y-22250001D03*
D14*
X171805000Y-23050001D03*
D15*
X172395000Y-24320002D03*
D16*
X176575000Y-24320001D03*
D15*
X172394998Y-15680000D03*
D16*
X176575000Y-15680000D03*
%TD*%
D17*
%TO.C,C2*%
X168400000Y-15575001D03*
X168400000Y-14024999D03*
%TD*%
D18*
%TO.C,C23*%
X156548008Y-21248008D03*
X155451992Y-20151992D03*
%TD*%
D19*
%TO.C,Y1*%
X156373833Y-28959619D03*
X154040381Y-26626167D03*
X152626167Y-28040381D03*
X154959619Y-30373833D03*
%TD*%
D20*
%TO.C,SW3*%
X146100000Y-71150000D03*
X146100000Y-64850000D03*
X149900000Y-71150000D03*
X149900000Y-64850000D03*
%TD*%
D21*
%TO.C,C9*%
X155224999Y-50500000D03*
X156775001Y-50500000D03*
%TD*%
D22*
%TO.C,C19*%
X163775000Y-18125000D03*
X164871016Y-17028984D03*
%TD*%
D23*
%TO.C,Q1*%
X157337502Y-48599997D03*
X157337501Y-46700001D03*
X155462500Y-47650000D03*
%TD*%
D24*
%TO.C,OLEDM1*%
X171150000Y-11700000D03*
X170450000Y-11700000D03*
X169750000Y-11700000D03*
X169050000Y-11700000D03*
X168350000Y-11700000D03*
X167650002Y-11700001D03*
X166949999Y-11700001D03*
X166249998Y-11699998D03*
X165550002Y-11700002D03*
X164849998Y-11700000D03*
X164149998Y-11700001D03*
X163450001Y-11700000D03*
X162749998Y-11700000D03*
X162050000Y-11699998D03*
X161350000Y-11699999D03*
X160649998Y-11700000D03*
X159950000Y-11699998D03*
X159250001Y-11699999D03*
X158550000Y-11700002D03*
X157849999Y-11699998D03*
X157150002Y-11699999D03*
X156449998Y-11700002D03*
X155750001Y-11700001D03*
X155050001Y-11699998D03*
X154350000Y-11700002D03*
X153650000Y-11700002D03*
X152949998Y-11700000D03*
X152250000Y-11700000D03*
X151550000Y-11700000D03*
X150850002Y-11700001D03*
%TD*%
D25*
%TO.C,R13*%
X151900000Y-62625000D03*
X151900000Y-60975000D03*
%TD*%
D26*
%TO.C,C4*%
X151600000Y-14024999D03*
X151600000Y-15575001D03*
%TD*%
D27*
%TO.C,C15*%
X158848008Y-31851992D03*
X157751992Y-32948008D03*
%TD*%
D25*
%TO.C,R11*%
X170000000Y-24425000D03*
X170000000Y-22775000D03*
%TD*%
D20*
%TO.C,SW4*%
X146100000Y-62150000D03*
X146100000Y-55850000D03*
X149900000Y-62150000D03*
X149900000Y-55850000D03*
%TD*%
D28*
%TO.C,U4*%
X160407797Y-20030841D03*
X160124956Y-20313685D03*
X159842112Y-20596528D03*
X159559270Y-20879371D03*
X159276427Y-21162214D03*
X158993584Y-21445056D03*
X158710743Y-21727898D03*
X158427900Y-22010743D03*
X158145055Y-22293583D03*
X157862214Y-22576427D03*
X157579371Y-22859269D03*
X157296529Y-23142111D03*
X157013683Y-23424956D03*
X156730840Y-23707797D03*
D29*
X156730841Y-24892203D03*
X157013685Y-25175044D03*
X157296528Y-25457888D03*
X157579371Y-25740730D03*
X157862214Y-26023573D03*
X158145056Y-26306416D03*
X158427898Y-26589257D03*
X158710743Y-26872100D03*
X158993583Y-27154945D03*
X159276427Y-27437786D03*
X159559269Y-27720629D03*
X159842111Y-28003471D03*
X160124956Y-28286317D03*
X160407797Y-28569160D03*
D28*
X161592203Y-28569159D03*
X161875044Y-28286315D03*
X162157888Y-28003472D03*
X162440730Y-27720629D03*
X162723573Y-27437786D03*
X163006416Y-27154944D03*
X163289257Y-26872102D03*
X163572100Y-26589257D03*
X163854945Y-26306417D03*
X164137786Y-26023573D03*
X164420629Y-25740731D03*
X164703471Y-25457889D03*
X164986317Y-25175044D03*
X165269160Y-24892203D03*
D29*
X165269159Y-23707797D03*
X164986315Y-23424956D03*
X164703472Y-23142112D03*
X164420629Y-22859270D03*
X164137786Y-22576427D03*
X163854944Y-22293584D03*
X163572102Y-22010743D03*
X163289257Y-21727900D03*
X163006417Y-21445055D03*
X162723573Y-21162214D03*
X162440731Y-20879371D03*
X162157889Y-20596529D03*
X161875044Y-20313683D03*
X161592203Y-20030840D03*
D30*
X160434312Y-23168627D03*
X159868628Y-23734314D03*
X159302943Y-24299999D03*
X161000001Y-22602943D03*
X161565686Y-23168628D03*
X161000000Y-23734315D03*
X160434315Y-24300000D03*
X159868627Y-24865688D03*
X162131373Y-23734312D03*
X161565685Y-24300000D03*
X161000000Y-24865685D03*
X160434314Y-25431372D03*
X160999999Y-25997057D03*
X162697057Y-24300001D03*
X162131372Y-24865686D03*
X161565688Y-25431373D03*
%TD*%
D17*
%TO.C,C3*%
X163800000Y-15575001D03*
X163800000Y-14024999D03*
%TD*%
%TO.C,C5*%
X162300000Y-15575001D03*
X162300000Y-14024999D03*
%TD*%
D31*
%TO.C,R12*%
X170000000Y-16975000D03*
X170000000Y-18625000D03*
%TD*%
%TO.C,R8*%
X154800000Y-13975000D03*
X154800000Y-15625000D03*
%TD*%
D32*
%TO.C,U2*%
X153505000Y-50802500D03*
X151605001Y-50802499D03*
X152555000Y-52677500D03*
%TD*%
D18*
%TO.C,C24*%
X158748008Y-19048008D03*
X157651992Y-17951992D03*
%TD*%
%TO.C,C16*%
X157648008Y-20148008D03*
X156551992Y-19051992D03*
%TD*%
D26*
%TO.C,C6*%
X153200000Y-14024999D03*
X153200000Y-15575001D03*
%TD*%
D33*
%TO.C,C12*%
X166351992Y-26151992D03*
X167448008Y-27248008D03*
%TD*%
D34*
%TO.C,J1*%
X166500000Y-71500000D03*
%TD*%
D20*
%TO.C,SW1*%
X146100000Y-37150000D03*
X146100000Y-30850000D03*
X149900000Y-37150000D03*
X149900000Y-30850000D03*
%TD*%
D25*
%TO.C,R1*%
X163600000Y-54925000D03*
X163600000Y-53275000D03*
%TD*%
%TO.C,R16*%
X151900000Y-66025000D03*
X151900000Y-64375000D03*
%TD*%
%TO.C,R7*%
X159200000Y-15625000D03*
X159200000Y-13975000D03*
%TD*%
D18*
%TO.C,C17*%
X155448008Y-22348008D03*
X154351992Y-21251992D03*
%TD*%
D35*
%TO.C,U1*%
X155150000Y-54537500D03*
X156100000Y-54537500D03*
X157050000Y-54537500D03*
X157050000Y-52262500D03*
X155150000Y-52262500D03*
%TD*%
D27*
%TO.C,C14*%
X163948008Y-29051992D03*
X162851992Y-30148008D03*
%TD*%
%TO.C,C21*%
X152448008Y-25351992D03*
X151351992Y-26448008D03*
%TD*%
D36*
%TO.C,LS1*%
X149250000Y-48000000D03*
X149250000Y-40000000D03*
%TD*%
D17*
%TO.C,C1*%
X170000000Y-15575001D03*
X170000000Y-14024999D03*
%TD*%
D33*
%TO.C,C11*%
X167451992Y-25051992D03*
X168548008Y-26148008D03*
%TD*%
D37*
%TO.C,X1*%
X158520000Y-58750000D03*
D38*
X158520000Y-61290000D03*
D37*
X161060000Y-58750000D03*
X161060000Y-61290000D03*
D39*
X163600000Y-58750000D03*
X163600000Y-61290000D03*
%TD*%
D40*
%TO.C,SW2*%
X166000000Y-42000000D03*
D41*
X174000000Y-42000000D03*
D42*
X167500000Y-50100000D03*
X172500000Y-50100000D03*
D43*
X170000000Y-35900000D03*
D42*
X170000000Y-50100000D03*
%TD*%
D44*
%TO.C,U3*%
X149905000Y-15900003D03*
X148635000Y-15900000D03*
X147365000Y-15900000D03*
X146095001Y-15899999D03*
X146095000Y-23099997D03*
X147365000Y-23100000D03*
X148635000Y-23100000D03*
X149904999Y-23100001D03*
%TD*%
D25*
%TO.C,R5*%
X160800000Y-15625000D03*
X160800000Y-13975000D03*
%TD*%
D31*
%TO.C,R4*%
X161800000Y-53275000D03*
X161800000Y-54925000D03*
%TD*%
D45*
%TO.C,R9*%
X156775000Y-39900000D03*
X155125000Y-39900000D03*
%TD*%
D26*
%TO.C,C7*%
X155150000Y-56224999D03*
X155150000Y-57775001D03*
%TD*%
D46*
%TO.C,C13*%
X148775001Y-25400000D03*
X147224999Y-25400000D03*
%TD*%
D47*
%TO.C,R15*%
X166583363Y-19516637D03*
X165416637Y-20683363D03*
%TD*%
D34*
%TO.C,J2*%
X154500000Y-71500000D03*
%TD*%
D31*
%TO.C,R19*%
X172500000Y-56075000D03*
X172500000Y-57725000D03*
%TD*%
D48*
%TO.C,L1*%
X149200000Y-53400000D03*
X149200000Y-50600000D03*
%TD*%
D22*
%TO.C,C20*%
X167551992Y-22748008D03*
X168648008Y-21651992D03*
%TD*%
D31*
%TO.C,R3*%
X160200000Y-53275000D03*
X160200000Y-54925000D03*
%TD*%
D49*
%TO.C,C10*%
X153100000Y-54625000D03*
X153100000Y-57575000D03*
%TD*%
D50*
%TO.C,C8*%
X146200000Y-53475000D03*
X146200000Y-50525000D03*
%TD*%
D25*
%TO.C,R6*%
X157600000Y-15625000D03*
X157600000Y-13975000D03*
%TD*%
D51*
%TO.C,R10*%
X155125000Y-41550000D03*
X156775000Y-41550000D03*
%TD*%
D31*
%TO.C,R17*%
X148500000Y-11975000D03*
X148500000Y-13625000D03*
%TD*%
%TO.C,R18*%
X167400000Y-56075000D03*
X167400000Y-57725000D03*
%TD*%
D22*
%TO.C,C18*%
X164825000Y-19175000D03*
X165921016Y-18078984D03*
%TD*%
D52*
%TO.C,Q2*%
X155462499Y-43200004D03*
X155462499Y-45100002D03*
X157337500Y-44150003D03*
%TD*%
D25*
%TO.C,R2*%
X158600000Y-54925000D03*
X158600000Y-53275000D03*
%TD*%
D47*
%TO.C,R14*%
X167633363Y-20566637D03*
X166466637Y-21733363D03*
%TD*%
D22*
%TO.C,C22*%
X156551992Y-31748008D03*
X157648008Y-30651992D03*
%TD*%
D12*
%TO.C,J3*%
X136895000Y-22890000D03*
X136895001Y-17110000D03*
D13*
X135830000Y-23349999D03*
X135830000Y-22550000D03*
X135830000Y-21250001D03*
X135830000Y-20249999D03*
X135830000Y-19749999D03*
X135829999Y-18750000D03*
X135830000Y-17450000D03*
X135830000Y-16649999D03*
D14*
X135805000Y-16950000D03*
D13*
X135829999Y-17749999D03*
X135830000Y-18250000D03*
X135830001Y-19250000D03*
X135830000Y-20750000D03*
X135830001Y-21749999D03*
X135830001Y-22250001D03*
D14*
X135805000Y-23050001D03*
D15*
X136395000Y-24320002D03*
D16*
X140575000Y-24320001D03*
D15*
X136394998Y-15680000D03*
D16*
X140575000Y-15680000D03*
%TD*%
D17*
%TO.C,C2*%
X132400000Y-15575001D03*
X132400000Y-14024999D03*
%TD*%
D18*
%TO.C,C23*%
X120548008Y-21248008D03*
X119451992Y-20151992D03*
%TD*%
D19*
%TO.C,Y1*%
X120373833Y-28959619D03*
X118040381Y-26626167D03*
X116626167Y-28040381D03*
X118959619Y-30373833D03*
%TD*%
D20*
%TO.C,SW3*%
X110100000Y-71150000D03*
X110100000Y-64850000D03*
X113900000Y-71150000D03*
X113900000Y-64850000D03*
%TD*%
D21*
%TO.C,C9*%
X119224999Y-50500000D03*
X120775001Y-50500000D03*
%TD*%
D22*
%TO.C,C19*%
X127775000Y-18125000D03*
X128871016Y-17028984D03*
%TD*%
D23*
%TO.C,Q1*%
X121337502Y-48599997D03*
X121337501Y-46700001D03*
X119462500Y-47650000D03*
%TD*%
D24*
%TO.C,OLEDM1*%
X135150000Y-11700000D03*
X134450000Y-11700000D03*
X133750000Y-11700000D03*
X133050000Y-11700000D03*
X132350000Y-11700000D03*
X131650002Y-11700001D03*
X130949999Y-11700001D03*
X130249998Y-11699998D03*
X129550002Y-11700002D03*
X128849998Y-11700000D03*
X128149998Y-11700001D03*
X127450001Y-11700000D03*
X126749998Y-11700000D03*
X126050000Y-11699998D03*
X125350000Y-11699999D03*
X124649998Y-11700000D03*
X123950000Y-11699998D03*
X123250001Y-11699999D03*
X122550000Y-11700002D03*
X121849999Y-11699998D03*
X121150002Y-11699999D03*
X120449998Y-11700002D03*
X119750001Y-11700001D03*
X119050001Y-11699998D03*
X118350000Y-11700002D03*
X117650000Y-11700002D03*
X116949998Y-11700000D03*
X116250000Y-11700000D03*
X115550000Y-11700000D03*
X114850002Y-11700001D03*
%TD*%
D25*
%TO.C,R13*%
X115900000Y-62625000D03*
X115900000Y-60975000D03*
%TD*%
D26*
%TO.C,C4*%
X115600000Y-14024999D03*
X115600000Y-15575001D03*
%TD*%
D27*
%TO.C,C15*%
X122848008Y-31851992D03*
X121751992Y-32948008D03*
%TD*%
D25*
%TO.C,R11*%
X134000000Y-24425000D03*
X134000000Y-22775000D03*
%TD*%
D20*
%TO.C,SW4*%
X110100000Y-62150000D03*
X110100000Y-55850000D03*
X113900000Y-62150000D03*
X113900000Y-55850000D03*
%TD*%
D28*
%TO.C,U4*%
X124407797Y-20030841D03*
X124124956Y-20313685D03*
X123842112Y-20596528D03*
X123559270Y-20879371D03*
X123276427Y-21162214D03*
X122993584Y-21445056D03*
X122710743Y-21727898D03*
X122427900Y-22010743D03*
X122145055Y-22293583D03*
X121862214Y-22576427D03*
X121579371Y-22859269D03*
X121296529Y-23142111D03*
X121013683Y-23424956D03*
X120730840Y-23707797D03*
D29*
X120730841Y-24892203D03*
X121013685Y-25175044D03*
X121296528Y-25457888D03*
X121579371Y-25740730D03*
X121862214Y-26023573D03*
X122145056Y-26306416D03*
X122427898Y-26589257D03*
X122710743Y-26872100D03*
X122993583Y-27154945D03*
X123276427Y-27437786D03*
X123559269Y-27720629D03*
X123842111Y-28003471D03*
X124124956Y-28286317D03*
X124407797Y-28569160D03*
D28*
X125592203Y-28569159D03*
X125875044Y-28286315D03*
X126157888Y-28003472D03*
X126440730Y-27720629D03*
X126723573Y-27437786D03*
X127006416Y-27154944D03*
X127289257Y-26872102D03*
X127572100Y-26589257D03*
X127854945Y-26306417D03*
X128137786Y-26023573D03*
X128420629Y-25740731D03*
X128703471Y-25457889D03*
X128986317Y-25175044D03*
X129269160Y-24892203D03*
D29*
X129269159Y-23707797D03*
X128986315Y-23424956D03*
X128703472Y-23142112D03*
X128420629Y-22859270D03*
X128137786Y-22576427D03*
X127854944Y-22293584D03*
X127572102Y-22010743D03*
X127289257Y-21727900D03*
X127006417Y-21445055D03*
X126723573Y-21162214D03*
X126440731Y-20879371D03*
X126157889Y-20596529D03*
X125875044Y-20313683D03*
X125592203Y-20030840D03*
D30*
X124434312Y-23168627D03*
X123868628Y-23734314D03*
X123302943Y-24299999D03*
X125000001Y-22602943D03*
X125565686Y-23168628D03*
X125000000Y-23734315D03*
X124434315Y-24300000D03*
X123868627Y-24865688D03*
X126131373Y-23734312D03*
X125565685Y-24300000D03*
X125000000Y-24865685D03*
X124434314Y-25431372D03*
X124999999Y-25997057D03*
X126697057Y-24300001D03*
X126131372Y-24865686D03*
X125565688Y-25431373D03*
%TD*%
D17*
%TO.C,C3*%
X127800000Y-15575001D03*
X127800000Y-14024999D03*
%TD*%
%TO.C,C5*%
X126300000Y-15575001D03*
X126300000Y-14024999D03*
%TD*%
D31*
%TO.C,R12*%
X134000000Y-16975000D03*
X134000000Y-18625000D03*
%TD*%
%TO.C,R8*%
X118800000Y-13975000D03*
X118800000Y-15625000D03*
%TD*%
D32*
%TO.C,U2*%
X117505000Y-50802500D03*
X115605001Y-50802499D03*
X116555000Y-52677500D03*
%TD*%
D18*
%TO.C,C24*%
X122748008Y-19048008D03*
X121651992Y-17951992D03*
%TD*%
%TO.C,C16*%
X121648008Y-20148008D03*
X120551992Y-19051992D03*
%TD*%
D26*
%TO.C,C6*%
X117200000Y-14024999D03*
X117200000Y-15575001D03*
%TD*%
D33*
%TO.C,C12*%
X130351992Y-26151992D03*
X131448008Y-27248008D03*
%TD*%
D34*
%TO.C,J1*%
X130500000Y-71500000D03*
%TD*%
D20*
%TO.C,SW1*%
X110100000Y-37150000D03*
X110100000Y-30850000D03*
X113900000Y-37150000D03*
X113900000Y-30850000D03*
%TD*%
D25*
%TO.C,R1*%
X127600000Y-54925000D03*
X127600000Y-53275000D03*
%TD*%
%TO.C,R16*%
X115900000Y-66025000D03*
X115900000Y-64375000D03*
%TD*%
%TO.C,R7*%
X123200000Y-15625000D03*
X123200000Y-13975000D03*
%TD*%
D18*
%TO.C,C17*%
X119448008Y-22348008D03*
X118351992Y-21251992D03*
%TD*%
D35*
%TO.C,U1*%
X119150000Y-54537500D03*
X120100000Y-54537500D03*
X121050000Y-54537500D03*
X121050000Y-52262500D03*
X119150000Y-52262500D03*
%TD*%
D27*
%TO.C,C14*%
X127948008Y-29051992D03*
X126851992Y-30148008D03*
%TD*%
%TO.C,C21*%
X116448008Y-25351992D03*
X115351992Y-26448008D03*
%TD*%
D36*
%TO.C,LS1*%
X113250000Y-48000000D03*
X113250000Y-40000000D03*
%TD*%
D17*
%TO.C,C1*%
X134000000Y-15575001D03*
X134000000Y-14024999D03*
%TD*%
D33*
%TO.C,C11*%
X131451992Y-25051992D03*
X132548008Y-26148008D03*
%TD*%
D37*
%TO.C,X1*%
X122520000Y-58750000D03*
D38*
X122520000Y-61290000D03*
D37*
X125060000Y-58750000D03*
X125060000Y-61290000D03*
D39*
X127600000Y-58750000D03*
X127600000Y-61290000D03*
%TD*%
D40*
%TO.C,SW2*%
X130000000Y-42000000D03*
D41*
X138000000Y-42000000D03*
D42*
X131500000Y-50100000D03*
X136500000Y-50100000D03*
D43*
X134000000Y-35900000D03*
D42*
X134000000Y-50100000D03*
%TD*%
D44*
%TO.C,U3*%
X113905000Y-15900003D03*
X112635000Y-15900000D03*
X111365000Y-15900000D03*
X110095001Y-15899999D03*
X110095000Y-23099997D03*
X111365000Y-23100000D03*
X112635000Y-23100000D03*
X113904999Y-23100001D03*
%TD*%
D25*
%TO.C,R5*%
X124800000Y-15625000D03*
X124800000Y-13975000D03*
%TD*%
D31*
%TO.C,R4*%
X125800000Y-53275000D03*
X125800000Y-54925000D03*
%TD*%
D45*
%TO.C,R9*%
X120775000Y-39900000D03*
X119125000Y-39900000D03*
%TD*%
D26*
%TO.C,C7*%
X119150000Y-56224999D03*
X119150000Y-57775001D03*
%TD*%
D46*
%TO.C,C13*%
X112775001Y-25400000D03*
X111224999Y-25400000D03*
%TD*%
D47*
%TO.C,R15*%
X130583363Y-19516637D03*
X129416637Y-20683363D03*
%TD*%
D34*
%TO.C,J2*%
X118500000Y-71500000D03*
%TD*%
D31*
%TO.C,R19*%
X136500000Y-56075000D03*
X136500000Y-57725000D03*
%TD*%
D48*
%TO.C,L1*%
X113200000Y-53400000D03*
X113200000Y-50600000D03*
%TD*%
D22*
%TO.C,C20*%
X131551992Y-22748008D03*
X132648008Y-21651992D03*
%TD*%
D31*
%TO.C,R3*%
X124200000Y-53275000D03*
X124200000Y-54925000D03*
%TD*%
D49*
%TO.C,C10*%
X117100000Y-54625000D03*
X117100000Y-57575000D03*
%TD*%
D50*
%TO.C,C8*%
X110200000Y-53475000D03*
X110200000Y-50525000D03*
%TD*%
D25*
%TO.C,R6*%
X121600000Y-15625000D03*
X121600000Y-13975000D03*
%TD*%
D51*
%TO.C,R10*%
X119125000Y-41550000D03*
X120775000Y-41550000D03*
%TD*%
D31*
%TO.C,R17*%
X112500000Y-11975000D03*
X112500000Y-13625000D03*
%TD*%
%TO.C,R18*%
X131400000Y-56075000D03*
X131400000Y-57725000D03*
%TD*%
D22*
%TO.C,C18*%
X128825000Y-19175000D03*
X129921016Y-18078984D03*
%TD*%
D52*
%TO.C,Q2*%
X119462499Y-43200004D03*
X119462499Y-45100002D03*
X121337500Y-44150003D03*
%TD*%
D25*
%TO.C,R2*%
X122600000Y-54925000D03*
X122600000Y-53275000D03*
%TD*%
D47*
%TO.C,R14*%
X131633363Y-20566637D03*
X130466637Y-21733363D03*
%TD*%
D22*
%TO.C,C22*%
X120551992Y-31748008D03*
X121648008Y-30651992D03*
%TD*%
D12*
%TO.C,J3*%
X100895000Y-22890000D03*
X100895001Y-17110000D03*
D13*
X99830000Y-23349999D03*
X99830000Y-22550000D03*
X99830000Y-21250001D03*
X99830000Y-20249999D03*
X99830000Y-19749999D03*
X99829999Y-18750000D03*
X99830000Y-17450000D03*
X99830000Y-16649999D03*
D14*
X99805000Y-16950000D03*
D13*
X99829999Y-17749999D03*
X99830000Y-18250000D03*
X99830001Y-19250000D03*
X99830000Y-20750000D03*
X99830001Y-21749999D03*
X99830001Y-22250001D03*
D14*
X99805000Y-23050001D03*
D15*
X100395000Y-24320002D03*
D16*
X104575000Y-24320001D03*
D15*
X100394998Y-15680000D03*
D16*
X104575000Y-15680000D03*
%TD*%
D17*
%TO.C,C2*%
X96400000Y-15575001D03*
X96400000Y-14024999D03*
%TD*%
D18*
%TO.C,C23*%
X84548008Y-21248008D03*
X83451992Y-20151992D03*
%TD*%
D19*
%TO.C,Y1*%
X84373833Y-28959619D03*
X82040381Y-26626167D03*
X80626167Y-28040381D03*
X82959619Y-30373833D03*
%TD*%
D20*
%TO.C,SW3*%
X74100000Y-71150000D03*
X74100000Y-64850000D03*
X77900000Y-71150000D03*
X77900000Y-64850000D03*
%TD*%
D21*
%TO.C,C9*%
X83224999Y-50500000D03*
X84775001Y-50500000D03*
%TD*%
D22*
%TO.C,C19*%
X91775000Y-18125000D03*
X92871016Y-17028984D03*
%TD*%
D23*
%TO.C,Q1*%
X85337502Y-48599997D03*
X85337501Y-46700001D03*
X83462500Y-47650000D03*
%TD*%
D24*
%TO.C,OLEDM1*%
X99150000Y-11700000D03*
X98450000Y-11700000D03*
X97750000Y-11700000D03*
X97050000Y-11700000D03*
X96350000Y-11700000D03*
X95650002Y-11700001D03*
X94949999Y-11700001D03*
X94249998Y-11699998D03*
X93550002Y-11700002D03*
X92849998Y-11700000D03*
X92149998Y-11700001D03*
X91450001Y-11700000D03*
X90749998Y-11700000D03*
X90050000Y-11699998D03*
X89350000Y-11699999D03*
X88649998Y-11700000D03*
X87950000Y-11699998D03*
X87250001Y-11699999D03*
X86550000Y-11700002D03*
X85849999Y-11699998D03*
X85150002Y-11699999D03*
X84449998Y-11700002D03*
X83750001Y-11700001D03*
X83050001Y-11699998D03*
X82350000Y-11700002D03*
X81650000Y-11700002D03*
X80949998Y-11700000D03*
X80250000Y-11700000D03*
X79550000Y-11700000D03*
X78850002Y-11700001D03*
%TD*%
D25*
%TO.C,R13*%
X79900000Y-62625000D03*
X79900000Y-60975000D03*
%TD*%
D26*
%TO.C,C4*%
X79600000Y-14024999D03*
X79600000Y-15575001D03*
%TD*%
D27*
%TO.C,C15*%
X86848008Y-31851992D03*
X85751992Y-32948008D03*
%TD*%
D25*
%TO.C,R11*%
X98000000Y-24425000D03*
X98000000Y-22775000D03*
%TD*%
D20*
%TO.C,SW4*%
X74100000Y-62150000D03*
X74100000Y-55850000D03*
X77900000Y-62150000D03*
X77900000Y-55850000D03*
%TD*%
D28*
%TO.C,U4*%
X88407797Y-20030841D03*
X88124956Y-20313685D03*
X87842112Y-20596528D03*
X87559270Y-20879371D03*
X87276427Y-21162214D03*
X86993584Y-21445056D03*
X86710743Y-21727898D03*
X86427900Y-22010743D03*
X86145055Y-22293583D03*
X85862214Y-22576427D03*
X85579371Y-22859269D03*
X85296529Y-23142111D03*
X85013683Y-23424956D03*
X84730840Y-23707797D03*
D29*
X84730841Y-24892203D03*
X85013685Y-25175044D03*
X85296528Y-25457888D03*
X85579371Y-25740730D03*
X85862214Y-26023573D03*
X86145056Y-26306416D03*
X86427898Y-26589257D03*
X86710743Y-26872100D03*
X86993583Y-27154945D03*
X87276427Y-27437786D03*
X87559269Y-27720629D03*
X87842111Y-28003471D03*
X88124956Y-28286317D03*
X88407797Y-28569160D03*
D28*
X89592203Y-28569159D03*
X89875044Y-28286315D03*
X90157888Y-28003472D03*
X90440730Y-27720629D03*
X90723573Y-27437786D03*
X91006416Y-27154944D03*
X91289257Y-26872102D03*
X91572100Y-26589257D03*
X91854945Y-26306417D03*
X92137786Y-26023573D03*
X92420629Y-25740731D03*
X92703471Y-25457889D03*
X92986317Y-25175044D03*
X93269160Y-24892203D03*
D29*
X93269159Y-23707797D03*
X92986315Y-23424956D03*
X92703472Y-23142112D03*
X92420629Y-22859270D03*
X92137786Y-22576427D03*
X91854944Y-22293584D03*
X91572102Y-22010743D03*
X91289257Y-21727900D03*
X91006417Y-21445055D03*
X90723573Y-21162214D03*
X90440731Y-20879371D03*
X90157889Y-20596529D03*
X89875044Y-20313683D03*
X89592203Y-20030840D03*
D30*
X88434312Y-23168627D03*
X87868628Y-23734314D03*
X87302943Y-24299999D03*
X89000001Y-22602943D03*
X89565686Y-23168628D03*
X89000000Y-23734315D03*
X88434315Y-24300000D03*
X87868627Y-24865688D03*
X90131373Y-23734312D03*
X89565685Y-24300000D03*
X89000000Y-24865685D03*
X88434314Y-25431372D03*
X88999999Y-25997057D03*
X90697057Y-24300001D03*
X90131372Y-24865686D03*
X89565688Y-25431373D03*
%TD*%
D17*
%TO.C,C3*%
X91800000Y-15575001D03*
X91800000Y-14024999D03*
%TD*%
%TO.C,C5*%
X90300000Y-15575001D03*
X90300000Y-14024999D03*
%TD*%
D31*
%TO.C,R12*%
X98000000Y-16975000D03*
X98000000Y-18625000D03*
%TD*%
%TO.C,R8*%
X82800000Y-13975000D03*
X82800000Y-15625000D03*
%TD*%
D32*
%TO.C,U2*%
X81505000Y-50802500D03*
X79605001Y-50802499D03*
X80555000Y-52677500D03*
%TD*%
D18*
%TO.C,C24*%
X86748008Y-19048008D03*
X85651992Y-17951992D03*
%TD*%
%TO.C,C16*%
X85648008Y-20148008D03*
X84551992Y-19051992D03*
%TD*%
D26*
%TO.C,C6*%
X81200000Y-14024999D03*
X81200000Y-15575001D03*
%TD*%
D33*
%TO.C,C12*%
X94351992Y-26151992D03*
X95448008Y-27248008D03*
%TD*%
D34*
%TO.C,J1*%
X94500000Y-71500000D03*
%TD*%
D20*
%TO.C,SW1*%
X74100000Y-37150000D03*
X74100000Y-30850000D03*
X77900000Y-37150000D03*
X77900000Y-30850000D03*
%TD*%
D25*
%TO.C,R1*%
X91600000Y-54925000D03*
X91600000Y-53275000D03*
%TD*%
%TO.C,R16*%
X79900000Y-66025000D03*
X79900000Y-64375000D03*
%TD*%
%TO.C,R7*%
X87200000Y-15625000D03*
X87200000Y-13975000D03*
%TD*%
D18*
%TO.C,C17*%
X83448008Y-22348008D03*
X82351992Y-21251992D03*
%TD*%
D35*
%TO.C,U1*%
X83150000Y-54537500D03*
X84100000Y-54537500D03*
X85050000Y-54537500D03*
X85050000Y-52262500D03*
X83150000Y-52262500D03*
%TD*%
D27*
%TO.C,C14*%
X91948008Y-29051992D03*
X90851992Y-30148008D03*
%TD*%
%TO.C,C21*%
X80448008Y-25351992D03*
X79351992Y-26448008D03*
%TD*%
D36*
%TO.C,LS1*%
X77250000Y-48000000D03*
X77250000Y-40000000D03*
%TD*%
D17*
%TO.C,C1*%
X98000000Y-15575001D03*
X98000000Y-14024999D03*
%TD*%
D33*
%TO.C,C11*%
X95451992Y-25051992D03*
X96548008Y-26148008D03*
%TD*%
D37*
%TO.C,X1*%
X86520000Y-58750000D03*
D38*
X86520000Y-61290000D03*
D37*
X89060000Y-58750000D03*
X89060000Y-61290000D03*
D39*
X91600000Y-58750000D03*
X91600000Y-61290000D03*
%TD*%
D40*
%TO.C,SW2*%
X94000000Y-42000000D03*
D41*
X102000000Y-42000000D03*
D42*
X95500000Y-50100000D03*
X100500000Y-50100000D03*
D43*
X98000000Y-35900000D03*
D42*
X98000000Y-50100000D03*
%TD*%
D44*
%TO.C,U3*%
X77905000Y-15900003D03*
X76635000Y-15900000D03*
X75365000Y-15900000D03*
X74095001Y-15899999D03*
X74095000Y-23099997D03*
X75365000Y-23100000D03*
X76635000Y-23100000D03*
X77904999Y-23100001D03*
%TD*%
D25*
%TO.C,R5*%
X88800000Y-15625000D03*
X88800000Y-13975000D03*
%TD*%
D31*
%TO.C,R4*%
X89800000Y-53275000D03*
X89800000Y-54925000D03*
%TD*%
D45*
%TO.C,R9*%
X84775000Y-39900000D03*
X83125000Y-39900000D03*
%TD*%
D26*
%TO.C,C7*%
X83150000Y-56224999D03*
X83150000Y-57775001D03*
%TD*%
D46*
%TO.C,C13*%
X76775001Y-25400000D03*
X75224999Y-25400000D03*
%TD*%
D47*
%TO.C,R15*%
X94583363Y-19516637D03*
X93416637Y-20683363D03*
%TD*%
D34*
%TO.C,J2*%
X82500000Y-71500000D03*
%TD*%
D31*
%TO.C,R19*%
X100500000Y-56075000D03*
X100500000Y-57725000D03*
%TD*%
D48*
%TO.C,L1*%
X77200000Y-53400000D03*
X77200000Y-50600000D03*
%TD*%
D22*
%TO.C,C20*%
X95551992Y-22748008D03*
X96648008Y-21651992D03*
%TD*%
D31*
%TO.C,R3*%
X88200000Y-53275000D03*
X88200000Y-54925000D03*
%TD*%
D49*
%TO.C,C10*%
X81100000Y-54625000D03*
X81100000Y-57575000D03*
%TD*%
D50*
%TO.C,C8*%
X74200000Y-53475000D03*
X74200000Y-50525000D03*
%TD*%
D25*
%TO.C,R6*%
X85600000Y-15625000D03*
X85600000Y-13975000D03*
%TD*%
D51*
%TO.C,R10*%
X83125000Y-41550000D03*
X84775000Y-41550000D03*
%TD*%
D31*
%TO.C,R17*%
X76500000Y-11975000D03*
X76500000Y-13625000D03*
%TD*%
%TO.C,R18*%
X95400000Y-56075000D03*
X95400000Y-57725000D03*
%TD*%
D22*
%TO.C,C18*%
X92825000Y-19175000D03*
X93921016Y-18078984D03*
%TD*%
D52*
%TO.C,Q2*%
X83462499Y-43200004D03*
X83462499Y-45100002D03*
X85337500Y-44150003D03*
%TD*%
D25*
%TO.C,R2*%
X86600000Y-54925000D03*
X86600000Y-53275000D03*
%TD*%
D47*
%TO.C,R14*%
X95633363Y-20566637D03*
X94466637Y-21733363D03*
%TD*%
D22*
%TO.C,C22*%
X84551992Y-31748008D03*
X85648008Y-30651992D03*
%TD*%
D12*
%TO.C,J3*%
X64895000Y-22890000D03*
X64895001Y-17110000D03*
D13*
X63830000Y-23349999D03*
X63830000Y-22550000D03*
X63830000Y-21250001D03*
X63830000Y-20249999D03*
X63830000Y-19749999D03*
X63829999Y-18750000D03*
X63830000Y-17450000D03*
X63830000Y-16649999D03*
D14*
X63805000Y-16950000D03*
D13*
X63829999Y-17749999D03*
X63830000Y-18250000D03*
X63830001Y-19250000D03*
X63830000Y-20750000D03*
X63830001Y-21749999D03*
X63830001Y-22250001D03*
D14*
X63805000Y-23050001D03*
D15*
X64395000Y-24320002D03*
D16*
X68575000Y-24320001D03*
D15*
X64394998Y-15680000D03*
D16*
X68575000Y-15680000D03*
%TD*%
D17*
%TO.C,C2*%
X60400000Y-15575001D03*
X60400000Y-14024999D03*
%TD*%
D18*
%TO.C,C23*%
X48548008Y-21248008D03*
X47451992Y-20151992D03*
%TD*%
D19*
%TO.C,Y1*%
X48373833Y-28959619D03*
X46040381Y-26626167D03*
X44626167Y-28040381D03*
X46959619Y-30373833D03*
%TD*%
D20*
%TO.C,SW3*%
X38100000Y-71150000D03*
X38100000Y-64850000D03*
X41900000Y-71150000D03*
X41900000Y-64850000D03*
%TD*%
D21*
%TO.C,C9*%
X47224999Y-50500000D03*
X48775001Y-50500000D03*
%TD*%
D22*
%TO.C,C19*%
X55775000Y-18125000D03*
X56871016Y-17028984D03*
%TD*%
D23*
%TO.C,Q1*%
X49337502Y-48599997D03*
X49337501Y-46700001D03*
X47462500Y-47650000D03*
%TD*%
D24*
%TO.C,OLEDM1*%
X63150000Y-11700000D03*
X62450000Y-11700000D03*
X61750000Y-11700000D03*
X61050000Y-11700000D03*
X60350000Y-11700000D03*
X59650002Y-11700001D03*
X58949999Y-11700001D03*
X58249998Y-11699998D03*
X57550002Y-11700002D03*
X56849998Y-11700000D03*
X56149998Y-11700001D03*
X55450001Y-11700000D03*
X54749998Y-11700000D03*
X54050000Y-11699998D03*
X53350000Y-11699999D03*
X52649998Y-11700000D03*
X51950000Y-11699998D03*
X51250001Y-11699999D03*
X50550000Y-11700002D03*
X49849999Y-11699998D03*
X49150002Y-11699999D03*
X48449998Y-11700002D03*
X47750001Y-11700001D03*
X47050001Y-11699998D03*
X46350000Y-11700002D03*
X45650000Y-11700002D03*
X44949998Y-11700000D03*
X44250000Y-11700000D03*
X43550000Y-11700000D03*
X42850002Y-11700001D03*
%TD*%
D25*
%TO.C,R13*%
X43900000Y-62625000D03*
X43900000Y-60975000D03*
%TD*%
D26*
%TO.C,C4*%
X43600000Y-14024999D03*
X43600000Y-15575001D03*
%TD*%
D27*
%TO.C,C15*%
X50848008Y-31851992D03*
X49751992Y-32948008D03*
%TD*%
D25*
%TO.C,R11*%
X62000000Y-24425000D03*
X62000000Y-22775000D03*
%TD*%
D20*
%TO.C,SW4*%
X38100000Y-62150000D03*
X38100000Y-55850000D03*
X41900000Y-62150000D03*
X41900000Y-55850000D03*
%TD*%
D28*
%TO.C,U4*%
X52407797Y-20030841D03*
X52124956Y-20313685D03*
X51842112Y-20596528D03*
X51559270Y-20879371D03*
X51276427Y-21162214D03*
X50993584Y-21445056D03*
X50710743Y-21727898D03*
X50427900Y-22010743D03*
X50145055Y-22293583D03*
X49862214Y-22576427D03*
X49579371Y-22859269D03*
X49296529Y-23142111D03*
X49013683Y-23424956D03*
X48730840Y-23707797D03*
D29*
X48730841Y-24892203D03*
X49013685Y-25175044D03*
X49296528Y-25457888D03*
X49579371Y-25740730D03*
X49862214Y-26023573D03*
X50145056Y-26306416D03*
X50427898Y-26589257D03*
X50710743Y-26872100D03*
X50993583Y-27154945D03*
X51276427Y-27437786D03*
X51559269Y-27720629D03*
X51842111Y-28003471D03*
X52124956Y-28286317D03*
X52407797Y-28569160D03*
D28*
X53592203Y-28569159D03*
X53875044Y-28286315D03*
X54157888Y-28003472D03*
X54440730Y-27720629D03*
X54723573Y-27437786D03*
X55006416Y-27154944D03*
X55289257Y-26872102D03*
X55572100Y-26589257D03*
X55854945Y-26306417D03*
X56137786Y-26023573D03*
X56420629Y-25740731D03*
X56703471Y-25457889D03*
X56986317Y-25175044D03*
X57269160Y-24892203D03*
D29*
X57269159Y-23707797D03*
X56986315Y-23424956D03*
X56703472Y-23142112D03*
X56420629Y-22859270D03*
X56137786Y-22576427D03*
X55854944Y-22293584D03*
X55572102Y-22010743D03*
X55289257Y-21727900D03*
X55006417Y-21445055D03*
X54723573Y-21162214D03*
X54440731Y-20879371D03*
X54157889Y-20596529D03*
X53875044Y-20313683D03*
X53592203Y-20030840D03*
D30*
X52434312Y-23168627D03*
X51868628Y-23734314D03*
X51302943Y-24299999D03*
X53000001Y-22602943D03*
X53565686Y-23168628D03*
X53000000Y-23734315D03*
X52434315Y-24300000D03*
X51868627Y-24865688D03*
X54131373Y-23734312D03*
X53565685Y-24300000D03*
X53000000Y-24865685D03*
X52434314Y-25431372D03*
X52999999Y-25997057D03*
X54697057Y-24300001D03*
X54131372Y-24865686D03*
X53565688Y-25431373D03*
%TD*%
D17*
%TO.C,C3*%
X55800000Y-15575001D03*
X55800000Y-14024999D03*
%TD*%
%TO.C,C5*%
X54300000Y-15575001D03*
X54300000Y-14024999D03*
%TD*%
D31*
%TO.C,R12*%
X62000000Y-16975000D03*
X62000000Y-18625000D03*
%TD*%
%TO.C,R8*%
X46800000Y-13975000D03*
X46800000Y-15625000D03*
%TD*%
D32*
%TO.C,U2*%
X45505000Y-50802500D03*
X43605001Y-50802499D03*
X44555000Y-52677500D03*
%TD*%
D18*
%TO.C,C24*%
X50748008Y-19048008D03*
X49651992Y-17951992D03*
%TD*%
%TO.C,C16*%
X49648008Y-20148008D03*
X48551992Y-19051992D03*
%TD*%
D26*
%TO.C,C6*%
X45200000Y-14024999D03*
X45200000Y-15575001D03*
%TD*%
D33*
%TO.C,C12*%
X58351992Y-26151992D03*
X59448008Y-27248008D03*
%TD*%
D34*
%TO.C,J1*%
X58500000Y-71500000D03*
%TD*%
D20*
%TO.C,SW1*%
X38100000Y-37150000D03*
X38100000Y-30850000D03*
X41900000Y-37150000D03*
X41900000Y-30850000D03*
%TD*%
D25*
%TO.C,R1*%
X55600000Y-54925000D03*
X55600000Y-53275000D03*
%TD*%
%TO.C,R16*%
X43900000Y-66025000D03*
X43900000Y-64375000D03*
%TD*%
%TO.C,R7*%
X51200000Y-15625000D03*
X51200000Y-13975000D03*
%TD*%
D18*
%TO.C,C17*%
X47448008Y-22348008D03*
X46351992Y-21251992D03*
%TD*%
D35*
%TO.C,U1*%
X47150000Y-54537500D03*
X48100000Y-54537500D03*
X49050000Y-54537500D03*
X49050000Y-52262500D03*
X47150000Y-52262500D03*
%TD*%
D27*
%TO.C,C14*%
X55948008Y-29051992D03*
X54851992Y-30148008D03*
%TD*%
%TO.C,C21*%
X44448008Y-25351992D03*
X43351992Y-26448008D03*
%TD*%
D36*
%TO.C,LS1*%
X41250000Y-48000000D03*
X41250000Y-40000000D03*
%TD*%
D17*
%TO.C,C1*%
X62000000Y-15575001D03*
X62000000Y-14024999D03*
%TD*%
D33*
%TO.C,C11*%
X59451992Y-25051992D03*
X60548008Y-26148008D03*
%TD*%
D37*
%TO.C,X1*%
X50520000Y-58750000D03*
D38*
X50520000Y-61290000D03*
D37*
X53060000Y-58750000D03*
X53060000Y-61290000D03*
D39*
X55600000Y-58750000D03*
X55600000Y-61290000D03*
%TD*%
D40*
%TO.C,SW2*%
X58000000Y-42000000D03*
D41*
X66000000Y-42000000D03*
D42*
X59500000Y-50100000D03*
X64500000Y-50100000D03*
D43*
X62000000Y-35900000D03*
D42*
X62000000Y-50100000D03*
%TD*%
D44*
%TO.C,U3*%
X41905000Y-15900003D03*
X40635000Y-15900000D03*
X39365000Y-15900000D03*
X38095001Y-15899999D03*
X38095000Y-23099997D03*
X39365000Y-23100000D03*
X40635000Y-23100000D03*
X41904999Y-23100001D03*
%TD*%
D25*
%TO.C,R5*%
X52800000Y-15625000D03*
X52800000Y-13975000D03*
%TD*%
D31*
%TO.C,R4*%
X53800000Y-53275000D03*
X53800000Y-54925000D03*
%TD*%
D45*
%TO.C,R9*%
X48775000Y-39900000D03*
X47125000Y-39900000D03*
%TD*%
D26*
%TO.C,C7*%
X47150000Y-56224999D03*
X47150000Y-57775001D03*
%TD*%
D46*
%TO.C,C13*%
X40775001Y-25400000D03*
X39224999Y-25400000D03*
%TD*%
D47*
%TO.C,R15*%
X58583363Y-19516637D03*
X57416637Y-20683363D03*
%TD*%
D34*
%TO.C,J2*%
X46500000Y-71500000D03*
%TD*%
D31*
%TO.C,R19*%
X64500000Y-56075000D03*
X64500000Y-57725000D03*
%TD*%
D48*
%TO.C,L1*%
X41200000Y-53400000D03*
X41200000Y-50600000D03*
%TD*%
D22*
%TO.C,C20*%
X59551992Y-22748008D03*
X60648008Y-21651992D03*
%TD*%
D31*
%TO.C,R3*%
X52200000Y-53275000D03*
X52200000Y-54925000D03*
%TD*%
D49*
%TO.C,C10*%
X45100000Y-54625000D03*
X45100000Y-57575000D03*
%TD*%
D50*
%TO.C,C8*%
X38200000Y-53475000D03*
X38200000Y-50525000D03*
%TD*%
D25*
%TO.C,R6*%
X49600000Y-15625000D03*
X49600000Y-13975000D03*
%TD*%
D51*
%TO.C,R10*%
X47125000Y-41550000D03*
X48775000Y-41550000D03*
%TD*%
D31*
%TO.C,R17*%
X40500000Y-11975000D03*
X40500000Y-13625000D03*
%TD*%
%TO.C,R18*%
X59400000Y-56075000D03*
X59400000Y-57725000D03*
%TD*%
D22*
%TO.C,C18*%
X56825000Y-19175000D03*
X57921016Y-18078984D03*
%TD*%
D52*
%TO.C,Q2*%
X47462499Y-43200004D03*
X47462499Y-45100002D03*
X49337500Y-44150003D03*
%TD*%
D25*
%TO.C,R2*%
X50600000Y-54925000D03*
X50600000Y-53275000D03*
%TD*%
D47*
%TO.C,R14*%
X59633363Y-20566637D03*
X58466637Y-21733363D03*
%TD*%
D22*
%TO.C,C22*%
X48551992Y-31748008D03*
X49648008Y-30651992D03*
%TD*%
D12*
%TO.C,J3*%
X28895000Y-22890000D03*
X28895001Y-17110000D03*
D13*
X27830000Y-23349999D03*
X27830000Y-22550000D03*
X27830000Y-21250001D03*
X27830000Y-20249999D03*
X27830000Y-19749999D03*
X27829999Y-18750000D03*
X27830000Y-17450000D03*
X27830000Y-16649999D03*
D14*
X27805000Y-16950000D03*
D13*
X27829999Y-17749999D03*
X27830000Y-18250000D03*
X27830001Y-19250000D03*
X27830000Y-20750000D03*
X27830001Y-21749999D03*
X27830001Y-22250001D03*
D14*
X27805000Y-23050001D03*
D15*
X28395000Y-24320002D03*
D16*
X32575000Y-24320001D03*
D15*
X28394998Y-15680000D03*
D16*
X32575000Y-15680000D03*
%TD*%
D17*
%TO.C,C2*%
X24400000Y-15575001D03*
X24400000Y-14024999D03*
%TD*%
D18*
%TO.C,C23*%
X12548008Y-21248008D03*
X11451992Y-20151992D03*
%TD*%
D19*
%TO.C,Y1*%
X12373833Y-28959619D03*
X10040381Y-26626167D03*
X8626167Y-28040381D03*
X10959619Y-30373833D03*
%TD*%
D20*
%TO.C,SW3*%
X2100000Y-71150000D03*
X2100000Y-64850000D03*
X5900000Y-71150000D03*
X5900000Y-64850000D03*
%TD*%
D21*
%TO.C,C9*%
X11224999Y-50500000D03*
X12775001Y-50500000D03*
%TD*%
D22*
%TO.C,C19*%
X19775000Y-18125000D03*
X20871016Y-17028984D03*
%TD*%
D23*
%TO.C,Q1*%
X13337502Y-48599997D03*
X13337501Y-46700001D03*
X11462500Y-47650000D03*
%TD*%
D24*
%TO.C,OLEDM1*%
X27150000Y-11700000D03*
X26450000Y-11700000D03*
X25750000Y-11700000D03*
X25050000Y-11700000D03*
X24350000Y-11700000D03*
X23650002Y-11700001D03*
X22949999Y-11700001D03*
X22249998Y-11699998D03*
X21550002Y-11700002D03*
X20849998Y-11700000D03*
X20149998Y-11700001D03*
X19450001Y-11700000D03*
X18749998Y-11700000D03*
X18050000Y-11699998D03*
X17350000Y-11699999D03*
X16649998Y-11700000D03*
X15950000Y-11699998D03*
X15250001Y-11699999D03*
X14550000Y-11700002D03*
X13849999Y-11699998D03*
X13150002Y-11699999D03*
X12449998Y-11700002D03*
X11750001Y-11700001D03*
X11050001Y-11699998D03*
X10350000Y-11700002D03*
X9650000Y-11700002D03*
X8949998Y-11700000D03*
X8250000Y-11700000D03*
X7550000Y-11700000D03*
X6850002Y-11700001D03*
%TD*%
D25*
%TO.C,R13*%
X7900000Y-62625000D03*
X7900000Y-60975000D03*
%TD*%
D26*
%TO.C,C4*%
X7600000Y-14024999D03*
X7600000Y-15575001D03*
%TD*%
D27*
%TO.C,C15*%
X14848008Y-31851992D03*
X13751992Y-32948008D03*
%TD*%
D25*
%TO.C,R11*%
X26000000Y-24425000D03*
X26000000Y-22775000D03*
%TD*%
D20*
%TO.C,SW4*%
X2100000Y-62150000D03*
X2100000Y-55850000D03*
X5900000Y-62150000D03*
X5900000Y-55850000D03*
%TD*%
D28*
%TO.C,U4*%
X16407797Y-20030841D03*
X16124956Y-20313685D03*
X15842112Y-20596528D03*
X15559270Y-20879371D03*
X15276427Y-21162214D03*
X14993584Y-21445056D03*
X14710743Y-21727898D03*
X14427900Y-22010743D03*
X14145055Y-22293583D03*
X13862214Y-22576427D03*
X13579371Y-22859269D03*
X13296529Y-23142111D03*
X13013683Y-23424956D03*
X12730840Y-23707797D03*
D29*
X12730841Y-24892203D03*
X13013685Y-25175044D03*
X13296528Y-25457888D03*
X13579371Y-25740730D03*
X13862214Y-26023573D03*
X14145056Y-26306416D03*
X14427898Y-26589257D03*
X14710743Y-26872100D03*
X14993583Y-27154945D03*
X15276427Y-27437786D03*
X15559269Y-27720629D03*
X15842111Y-28003471D03*
X16124956Y-28286317D03*
X16407797Y-28569160D03*
D28*
X17592203Y-28569159D03*
X17875044Y-28286315D03*
X18157888Y-28003472D03*
X18440730Y-27720629D03*
X18723573Y-27437786D03*
X19006416Y-27154944D03*
X19289257Y-26872102D03*
X19572100Y-26589257D03*
X19854945Y-26306417D03*
X20137786Y-26023573D03*
X20420629Y-25740731D03*
X20703471Y-25457889D03*
X20986317Y-25175044D03*
X21269160Y-24892203D03*
D29*
X21269159Y-23707797D03*
X20986315Y-23424956D03*
X20703472Y-23142112D03*
X20420629Y-22859270D03*
X20137786Y-22576427D03*
X19854944Y-22293584D03*
X19572102Y-22010743D03*
X19289257Y-21727900D03*
X19006417Y-21445055D03*
X18723573Y-21162214D03*
X18440731Y-20879371D03*
X18157889Y-20596529D03*
X17875044Y-20313683D03*
X17592203Y-20030840D03*
D30*
X16434312Y-23168627D03*
X15868628Y-23734314D03*
X15302943Y-24299999D03*
X17000001Y-22602943D03*
X17565686Y-23168628D03*
X17000000Y-23734315D03*
X16434315Y-24300000D03*
X15868627Y-24865688D03*
X18131373Y-23734312D03*
X17565685Y-24300000D03*
X17000000Y-24865685D03*
X16434314Y-25431372D03*
X16999999Y-25997057D03*
X18697057Y-24300001D03*
X18131372Y-24865686D03*
X17565688Y-25431373D03*
%TD*%
D17*
%TO.C,C3*%
X19800000Y-15575001D03*
X19800000Y-14024999D03*
%TD*%
%TO.C,C5*%
X18300000Y-15575001D03*
X18300000Y-14024999D03*
%TD*%
D31*
%TO.C,R12*%
X26000000Y-16975000D03*
X26000000Y-18625000D03*
%TD*%
%TO.C,R8*%
X10800000Y-13975000D03*
X10800000Y-15625000D03*
%TD*%
D32*
%TO.C,U2*%
X9505000Y-50802500D03*
X7605001Y-50802499D03*
X8555000Y-52677500D03*
%TD*%
D18*
%TO.C,C24*%
X14748008Y-19048008D03*
X13651992Y-17951992D03*
%TD*%
%TO.C,C16*%
X13648008Y-20148008D03*
X12551992Y-19051992D03*
%TD*%
D26*
%TO.C,C6*%
X9200000Y-14024999D03*
X9200000Y-15575001D03*
%TD*%
D33*
%TO.C,C12*%
X22351992Y-26151992D03*
X23448008Y-27248008D03*
%TD*%
D34*
%TO.C,J1*%
X22500000Y-71500000D03*
%TD*%
D20*
%TO.C,SW1*%
X2100000Y-37150000D03*
X2100000Y-30850000D03*
X5900000Y-37150000D03*
X5900000Y-30850000D03*
%TD*%
D25*
%TO.C,R1*%
X19600000Y-54925000D03*
X19600000Y-53275000D03*
%TD*%
%TO.C,R16*%
X7900000Y-66025000D03*
X7900000Y-64375000D03*
%TD*%
%TO.C,R7*%
X15200000Y-15625000D03*
X15200000Y-13975000D03*
%TD*%
D18*
%TO.C,C17*%
X11448008Y-22348008D03*
X10351992Y-21251992D03*
%TD*%
D35*
%TO.C,U1*%
X11150000Y-54537500D03*
X12100000Y-54537500D03*
X13050000Y-54537500D03*
X13050000Y-52262500D03*
X11150000Y-52262500D03*
%TD*%
D27*
%TO.C,C14*%
X19948008Y-29051992D03*
X18851992Y-30148008D03*
%TD*%
%TO.C,C21*%
X8448008Y-25351992D03*
X7351992Y-26448008D03*
%TD*%
D36*
%TO.C,LS1*%
X5250000Y-48000000D03*
X5250000Y-40000000D03*
%TD*%
D17*
%TO.C,C1*%
X26000000Y-15575001D03*
X26000000Y-14024999D03*
%TD*%
D33*
%TO.C,C11*%
X23451992Y-25051992D03*
X24548008Y-26148008D03*
%TD*%
D37*
%TO.C,X1*%
X14520000Y-58750000D03*
D38*
X14520000Y-61290000D03*
D37*
X17060000Y-58750000D03*
X17060000Y-61290000D03*
D39*
X19600000Y-58750000D03*
X19600000Y-61290000D03*
%TD*%
D40*
%TO.C,SW2*%
X22000000Y-42000000D03*
D41*
X30000000Y-42000000D03*
D42*
X23500000Y-50100000D03*
X28500000Y-50100000D03*
D43*
X26000000Y-35900000D03*
D42*
X26000000Y-50100000D03*
%TD*%
D44*
%TO.C,U3*%
X5905000Y-15900003D03*
X4635000Y-15900000D03*
X3365000Y-15900000D03*
X2095001Y-15899999D03*
X2095000Y-23099997D03*
X3365000Y-23100000D03*
X4635000Y-23100000D03*
X5904999Y-23100001D03*
%TD*%
D25*
%TO.C,R5*%
X16800000Y-15625000D03*
X16800000Y-13975000D03*
%TD*%
D31*
%TO.C,R4*%
X17800000Y-53275000D03*
X17800000Y-54925000D03*
%TD*%
D45*
%TO.C,R9*%
X12775000Y-39900000D03*
X11125000Y-39900000D03*
%TD*%
D26*
%TO.C,C7*%
X11150000Y-56224999D03*
X11150000Y-57775001D03*
%TD*%
D46*
%TO.C,C13*%
X4775001Y-25400000D03*
X3224999Y-25400000D03*
%TD*%
D47*
%TO.C,R15*%
X22583363Y-19516637D03*
X21416637Y-20683363D03*
%TD*%
D34*
%TO.C,J2*%
X10500000Y-71500000D03*
%TD*%
D31*
%TO.C,R19*%
X28500000Y-56075000D03*
X28500000Y-57725000D03*
%TD*%
D48*
%TO.C,L1*%
X5200000Y-53400000D03*
X5200000Y-50600000D03*
%TD*%
D22*
%TO.C,C20*%
X23551992Y-22748008D03*
X24648008Y-21651992D03*
%TD*%
D31*
%TO.C,R3*%
X16200000Y-53275000D03*
X16200000Y-54925000D03*
%TD*%
D49*
%TO.C,C10*%
X9100000Y-54625000D03*
X9100000Y-57575000D03*
%TD*%
D50*
%TO.C,C8*%
X2200000Y-53475000D03*
X2200000Y-50525000D03*
%TD*%
D25*
%TO.C,R6*%
X13600000Y-15625000D03*
X13600000Y-13975000D03*
%TD*%
D51*
%TO.C,R10*%
X11125000Y-41550000D03*
X12775000Y-41550000D03*
%TD*%
D31*
%TO.C,R17*%
X4500000Y-11975000D03*
X4500000Y-13625000D03*
%TD*%
%TO.C,R18*%
X23400000Y-56075000D03*
X23400000Y-57725000D03*
%TD*%
D22*
%TO.C,C18*%
X20825000Y-19175000D03*
X21921016Y-18078984D03*
%TD*%
D52*
%TO.C,Q2*%
X11462499Y-43200004D03*
X11462499Y-45100002D03*
X13337500Y-44150003D03*
%TD*%
D25*
%TO.C,R2*%
X14600000Y-54925000D03*
X14600000Y-53275000D03*
%TD*%
D47*
%TO.C,R14*%
X23633363Y-20566637D03*
X22466637Y-21733363D03*
%TD*%
D22*
%TO.C,C22*%
X12551992Y-31748008D03*
X13648008Y-30651992D03*
%TD*%
M02*
