%TF.GenerationSoftware,KiCad,Pcbnew,8.99.0-3110-g1838b2656d*%
%TF.CreationDate,2024-11-19T22:18:04+01:00*%
%TF.ProjectId,panel_1x5,70616e65-6c5f-4317-9835-2e6b69636164,1.1*%
%TF.SameCoordinates,PX2faf080PY29f6300*%
%TF.FileFunction,Legend,Top*%
%TF.FilePolarity,Positive*%
%FSLAX46Y46*%
G04 Gerber Fmt 4.6, Leading zero omitted, Abs format (unit mm)*
G04 Created by KiCad (PCBNEW 8.99.0-3110-g1838b2656d) date 2024-11-19 22:18:04*
%MOMM*%
%LPD*%
G01*
G04 APERTURE LIST*
%ADD10C,0.200000*%
%ADD11C,0.280000*%
%ADD12C,0.400000*%
%ADD13C,0.120000*%
%ADD14C,0.127000*%
%ADD15C,0.500000*%
G04 APERTURE END LIST*
D10*
G36*
X69459962Y-1908140D02*
G01*
X69174320Y-1908140D01*
X69174320Y-1843660D01*
X69162364Y-1750741D01*
X69128158Y-1674155D01*
X69092038Y-1635610D01*
X69041931Y-1611552D01*
X68972942Y-1602714D01*
X68917951Y-1608799D01*
X68877931Y-1625184D01*
X68844846Y-1650536D01*
X68819191Y-1681116D01*
X68800496Y-1719579D01*
X68788416Y-1763792D01*
X68779990Y-1860390D01*
X68784142Y-1958576D01*
X68805269Y-2028674D01*
X68825508Y-2057002D01*
X68854117Y-2081919D01*
X68942289Y-2126615D01*
X69160520Y-2213565D01*
X69249408Y-2254729D01*
X69314393Y-2299050D01*
X69367200Y-2352262D01*
X69406717Y-2412501D01*
X69432202Y-2482876D01*
X69448727Y-2565275D01*
X69459962Y-2759937D01*
X69453435Y-2883436D01*
X69434683Y-2994043D01*
X69400974Y-3095675D01*
X69353472Y-3177470D01*
X69286072Y-3246960D01*
X69199110Y-3300812D01*
X69097284Y-3333648D01*
X68966469Y-3345631D01*
X68865467Y-3336381D01*
X68773029Y-3309239D01*
X68689100Y-3265372D01*
X68618789Y-3208244D01*
X68561223Y-3138848D01*
X68516574Y-3058401D01*
X68488357Y-2969935D01*
X68478716Y-2872044D01*
X68478716Y-2765554D01*
X68764358Y-2765554D01*
X68764358Y-2855314D01*
X68775929Y-2929807D01*
X68810642Y-2996730D01*
X68846202Y-3030258D01*
X68896414Y-3051739D01*
X68966469Y-3059745D01*
X69035005Y-3053820D01*
X69080286Y-3038740D01*
X69116454Y-3013138D01*
X69143423Y-2978534D01*
X69160994Y-2936512D01*
X69170046Y-2884623D01*
X69174320Y-2762745D01*
X69168702Y-2633907D01*
X69159759Y-2586399D01*
X69146354Y-2552575D01*
X69123670Y-2524698D01*
X69094575Y-2502260D01*
X69009212Y-2460129D01*
X68805025Y-2375987D01*
X68688882Y-2315968D01*
X68608791Y-2249198D01*
X68557240Y-2175708D01*
X68523680Y-2090291D01*
X68502098Y-1987283D01*
X68494348Y-1863199D01*
X68502154Y-1753219D01*
X68525122Y-1650341D01*
X68564177Y-1555330D01*
X68617446Y-1476685D01*
X68683567Y-1411666D01*
X68767167Y-1360303D01*
X68863832Y-1328317D01*
X68984055Y-1316828D01*
X69087030Y-1326894D01*
X69178594Y-1356151D01*
X69261425Y-1402047D01*
X69331124Y-1459832D01*
X69403691Y-1555535D01*
X69445832Y-1657226D01*
X69459962Y-1767944D01*
X69459962Y-1908140D01*
G37*
G36*
X70669819Y-3333907D02*
G01*
X70384177Y-3333907D01*
X70300157Y-2900132D01*
X69910956Y-2900132D01*
X69827059Y-3333907D01*
X69541417Y-3333907D01*
X69697344Y-2634396D01*
X69961392Y-2634396D01*
X70247034Y-2634396D01*
X70106961Y-1911437D01*
X70101344Y-1911437D01*
X69961392Y-2634396D01*
X69697344Y-2634396D01*
X69986549Y-1336978D01*
X70224564Y-1336978D01*
X70669819Y-3333907D01*
G37*
G36*
X71357054Y-1324464D02*
G01*
X71443336Y-1347725D01*
X71524883Y-1385486D01*
X71598796Y-1437362D01*
X71659008Y-1505642D01*
X71707973Y-1591479D01*
X71739028Y-1688651D01*
X71749983Y-1804337D01*
X71749983Y-2858122D01*
X71738830Y-2978273D01*
X71707973Y-3073789D01*
X71659040Y-3156736D01*
X71598796Y-3222288D01*
X71524701Y-3276411D01*
X71443336Y-3314856D01*
X71357059Y-3338024D01*
X71271145Y-3345631D01*
X71185125Y-3338022D01*
X71098831Y-3314856D01*
X71017955Y-3276284D01*
X70946180Y-3222288D01*
X70883754Y-3156533D01*
X70834194Y-3073789D01*
X70803337Y-2978273D01*
X70792184Y-2858122D01*
X70792184Y-1804337D01*
X71077826Y-1804337D01*
X71077826Y-2858122D01*
X71085036Y-2924686D01*
X71104596Y-2974167D01*
X71135224Y-3010774D01*
X71197558Y-3047378D01*
X71271145Y-3059745D01*
X71344626Y-3047382D01*
X71406944Y-3010774D01*
X71437571Y-2974167D01*
X71457131Y-2924686D01*
X71464341Y-2858122D01*
X71464341Y-1804337D01*
X71457128Y-1737775D01*
X71437566Y-1688341D01*
X71406944Y-1651807D01*
X71344617Y-1615104D01*
X71271145Y-1602714D01*
X71197567Y-1615109D01*
X71135224Y-1651807D01*
X71104601Y-1688341D01*
X71085039Y-1737775D01*
X71077826Y-1804337D01*
X70792184Y-1804337D01*
X70803139Y-1688651D01*
X70834194Y-1591479D01*
X70883793Y-1505846D01*
X70946180Y-1437362D01*
X71017768Y-1385614D01*
X71098831Y-1347725D01*
X71185130Y-1324467D01*
X71271145Y-1316828D01*
X71357054Y-1324464D01*
G37*
G36*
X73064180Y-1346537D02*
G01*
X73164632Y-1373162D01*
X73247021Y-1414902D01*
X73314480Y-1471434D01*
X73367915Y-1541838D01*
X73407489Y-1626669D01*
X73432708Y-1728844D01*
X73441731Y-1852086D01*
X73441731Y-2784239D01*
X73431716Y-2925489D01*
X73404253Y-3037878D01*
X73362067Y-3126936D01*
X73306176Y-3197009D01*
X73234878Y-3252806D01*
X73148363Y-3294148D01*
X73043497Y-3320537D01*
X72916242Y-3330000D01*
X72519470Y-3330000D01*
X72519470Y-3064263D01*
X72805112Y-3064263D01*
X72936026Y-3064263D01*
X73013469Y-3056378D01*
X73068075Y-3035528D01*
X73105897Y-3003813D01*
X73131880Y-2960461D01*
X73149426Y-2899183D01*
X73156089Y-2814159D01*
X73156089Y-1850010D01*
X73143005Y-1740672D01*
X73108706Y-1667316D01*
X73072032Y-1633558D01*
X73016865Y-1611247D01*
X72936026Y-1602714D01*
X72805112Y-1602714D01*
X72805112Y-3064263D01*
X72519470Y-3064263D01*
X72519470Y-1336978D01*
X72941522Y-1336978D01*
X73064180Y-1346537D01*
G37*
G36*
X73695743Y-3330000D02*
G01*
X73695743Y-1907529D01*
X73981385Y-1907529D01*
X73981385Y-3330000D01*
X73695743Y-3330000D01*
G37*
G36*
X73695743Y-1622864D02*
G01*
X73695743Y-1336978D01*
X73981385Y-1336978D01*
X73981385Y-1622864D01*
X73695743Y-1622864D01*
G37*
G36*
X74604571Y-1907041D02*
G01*
X74672959Y-1937571D01*
X74728769Y-1983611D01*
X74781769Y-2040642D01*
X74781769Y-1911437D01*
X75067411Y-1911437D01*
X75067411Y-3506221D01*
X75061555Y-3578863D01*
X75043598Y-3653377D01*
X75012647Y-3723753D01*
X74966905Y-3786612D01*
X74907571Y-3841750D01*
X74832694Y-3886140D01*
X74746772Y-3913993D01*
X74640108Y-3923998D01*
X74575530Y-3918882D01*
X74506019Y-3902871D01*
X74439424Y-3874788D01*
X74377547Y-3831552D01*
X74321586Y-3777087D01*
X74272767Y-3704057D01*
X74238103Y-3617232D01*
X74215492Y-3498283D01*
X74501134Y-3498283D01*
X74510240Y-3546374D01*
X74538992Y-3593415D01*
X74584112Y-3626284D01*
X74649878Y-3638112D01*
X74712128Y-3626440D01*
X74750873Y-3594759D01*
X74773579Y-3547090D01*
X74781769Y-3484239D01*
X74781769Y-3204459D01*
X74776274Y-3204459D01*
X74723567Y-3267234D01*
X74663311Y-3312414D01*
X74593758Y-3340396D01*
X74511148Y-3350150D01*
X74424639Y-3340810D01*
X74357008Y-3314944D01*
X74303929Y-3273737D01*
X74262997Y-3215572D01*
X74241920Y-3164529D01*
X74226605Y-3097969D01*
X74215492Y-2910268D01*
X74215492Y-2374521D01*
X74501134Y-2374521D01*
X74501134Y-2896102D01*
X74508666Y-2960242D01*
X74530199Y-3013827D01*
X74553875Y-3040730D01*
X74589048Y-3057837D01*
X74640108Y-3064263D01*
X74696184Y-3053337D01*
X74741469Y-3020910D01*
X74771363Y-2972383D01*
X74781769Y-2910146D01*
X74781769Y-2357791D01*
X74771458Y-2284782D01*
X74742813Y-2230174D01*
X74697856Y-2193420D01*
X74640108Y-2181081D01*
X74594857Y-2187434D01*
X74560560Y-2205162D01*
X74534473Y-2234448D01*
X74510183Y-2293165D01*
X74501134Y-2374521D01*
X74215492Y-2374521D01*
X74215492Y-2369270D01*
X74223919Y-2142369D01*
X74246405Y-2055478D01*
X74289595Y-1986640D01*
X74354955Y-1932198D01*
X74415978Y-1906154D01*
X74513957Y-1895806D01*
X74604571Y-1907041D01*
G37*
G36*
X75303838Y-3330000D02*
G01*
X75303838Y-1907529D01*
X75589480Y-1907529D01*
X75589480Y-3330000D01*
X75303838Y-3330000D01*
G37*
G36*
X75303838Y-1622864D02*
G01*
X75303838Y-1336978D01*
X75589480Y-1336978D01*
X75589480Y-1622864D01*
X75303838Y-1622864D01*
G37*
G36*
X75827129Y-1907529D02*
G01*
X75827129Y-1477662D01*
X76112771Y-1477662D01*
X76112771Y-1907529D01*
X76284718Y-1907529D01*
X76284718Y-2134187D01*
X76112771Y-2134187D01*
X76112771Y-2923824D01*
X76122296Y-3002470D01*
X76135165Y-3027424D01*
X76153681Y-3044724D01*
X76206926Y-3061454D01*
X76284718Y-3064263D01*
X76284718Y-3330000D01*
X76168214Y-3330000D01*
X76076095Y-3321706D01*
X76006037Y-3299225D01*
X75946383Y-3263453D01*
X75901989Y-3220823D01*
X75868423Y-3170199D01*
X75845080Y-3112990D01*
X75831486Y-3052912D01*
X75827129Y-2996730D01*
X75827129Y-2134187D01*
X75682903Y-2134187D01*
X75682903Y-1907529D01*
X75827129Y-1907529D01*
G37*
G36*
X76881056Y-1899046D02*
G01*
X76961637Y-1919986D01*
X77035486Y-1955071D01*
X77099145Y-2003883D01*
X77148866Y-2065798D01*
X77188905Y-2144078D01*
X77213723Y-2232449D01*
X77222610Y-2340083D01*
X77222610Y-3328900D01*
X76936968Y-3328900D01*
X76936968Y-3184431D01*
X76931351Y-3184431D01*
X76872681Y-3255535D01*
X76817655Y-3303988D01*
X76752523Y-3334151D01*
X76656089Y-3345631D01*
X76553629Y-3330122D01*
X76503759Y-3308678D01*
X76453978Y-3272847D01*
X76412054Y-3226740D01*
X76376675Y-3159396D01*
X76355373Y-3079181D01*
X76347244Y-2967543D01*
X76349667Y-2913810D01*
X76632886Y-2913810D01*
X76643351Y-2989119D01*
X76672331Y-3045212D01*
X76718805Y-3082627D01*
X76782118Y-3095526D01*
X76848343Y-3083158D01*
X76896057Y-3048021D01*
X76925862Y-2993459D01*
X76936968Y-2913810D01*
X76936968Y-2720980D01*
X76858078Y-2712554D01*
X76770220Y-2723835D01*
X76698953Y-2755907D01*
X76663991Y-2790079D01*
X76641413Y-2840636D01*
X76632886Y-2913810D01*
X76349667Y-2913810D01*
X76352498Y-2851010D01*
X76366905Y-2756273D01*
X76395607Y-2671283D01*
X76439934Y-2603621D01*
X76498162Y-2553059D01*
X76577565Y-2515327D01*
X76670977Y-2494020D01*
X76799459Y-2485896D01*
X76830234Y-2485896D01*
X76861131Y-2488705D01*
X76894836Y-2491514D01*
X76936968Y-2494323D01*
X76936968Y-2345945D01*
X76928712Y-2277446D01*
X76905949Y-2225411D01*
X76881497Y-2200169D01*
X76845432Y-2183913D01*
X76793353Y-2177784D01*
X76739829Y-2186776D01*
X76690649Y-2214176D01*
X76653059Y-2257680D01*
X76630077Y-2320666D01*
X76352861Y-2320666D01*
X76373090Y-2198558D01*
X76416241Y-2097204D01*
X76481944Y-2012431D01*
X76543054Y-1962700D01*
X76616522Y-1924138D01*
X76698471Y-1900249D01*
X76793353Y-1891898D01*
X76881056Y-1899046D01*
G37*
G36*
X77414097Y-1336978D02*
G01*
X77699739Y-1336978D01*
X77699739Y-2931884D01*
X77708497Y-3005175D01*
X77729170Y-3042648D01*
X77766747Y-3065068D01*
X77840056Y-3080505D01*
X77840056Y-3349539D01*
X77744528Y-3345452D01*
X77663468Y-3334030D01*
X77589763Y-3310884D01*
X77529013Y-3273824D01*
X77480496Y-3224272D01*
X77443528Y-3154755D01*
X77422304Y-3071000D01*
X77414097Y-2951423D01*
X77414097Y-1336978D01*
G37*
G36*
X78484857Y-3330000D02*
G01*
X78484857Y-1336978D01*
X78756577Y-1336978D01*
X79125384Y-2392229D01*
X79131002Y-2392229D01*
X79497244Y-1336978D01*
X79774459Y-1336978D01*
X79774459Y-3330000D01*
X79488817Y-3330000D01*
X79488817Y-2117944D01*
X79483200Y-2117944D01*
X79198657Y-2974504D01*
X79055042Y-2974504D01*
X78770499Y-2117944D01*
X78770499Y-3330000D01*
X78484857Y-3330000D01*
G37*
G36*
X80876483Y-1907529D02*
G01*
X80876483Y-3330000D01*
X80590841Y-3330000D01*
X80590841Y-3192002D01*
X80585346Y-3192002D01*
X80535849Y-3253476D01*
X80477879Y-3302400D01*
X80408920Y-3334125D01*
X80317411Y-3345631D01*
X80264874Y-3341146D01*
X80211532Y-3327435D01*
X80161636Y-3303401D01*
X80116644Y-3267107D01*
X80079663Y-3220302D01*
X80049599Y-3159274D01*
X80031325Y-3089131D01*
X80024564Y-2997951D01*
X80024564Y-1907529D01*
X80310206Y-1907529D01*
X80310206Y-2891584D01*
X80319988Y-2964159D01*
X80346354Y-3014926D01*
X80389137Y-3048100D01*
X80449180Y-3059745D01*
X80500208Y-3053357D01*
X80535859Y-3036264D01*
X80560311Y-3009309D01*
X80582203Y-2952244D01*
X80590841Y-2863496D01*
X80590841Y-1907529D01*
X80876483Y-1907529D01*
G37*
G36*
X81097279Y-1336978D02*
G01*
X81382921Y-1336978D01*
X81382921Y-2931884D01*
X81391679Y-3005175D01*
X81412352Y-3042648D01*
X81449929Y-3065068D01*
X81523238Y-3080505D01*
X81523238Y-3349539D01*
X81427710Y-3345452D01*
X81346651Y-3334030D01*
X81272945Y-3310884D01*
X81212195Y-3273824D01*
X81163678Y-3224272D01*
X81126710Y-3154755D01*
X81105486Y-3071000D01*
X81097279Y-2951423D01*
X81097279Y-1336978D01*
G37*
G36*
X81636201Y-1907529D02*
G01*
X81636201Y-1477662D01*
X81921843Y-1477662D01*
X81921843Y-1907529D01*
X82093789Y-1907529D01*
X82093789Y-2134187D01*
X81921843Y-2134187D01*
X81921843Y-2923824D01*
X81931368Y-3002470D01*
X81944236Y-3027424D01*
X81962753Y-3044724D01*
X82015998Y-3061454D01*
X82093789Y-3064263D01*
X82093789Y-3330000D01*
X81977286Y-3330000D01*
X81885167Y-3321706D01*
X81815108Y-3299225D01*
X81755455Y-3263453D01*
X81711061Y-3220823D01*
X81677495Y-3170199D01*
X81654152Y-3112990D01*
X81640558Y-3052912D01*
X81636201Y-2996730D01*
X81636201Y-2134187D01*
X81491975Y-2134187D01*
X81491975Y-1907529D01*
X81636201Y-1907529D01*
G37*
G36*
X82203210Y-3330000D02*
G01*
X82203210Y-1907529D01*
X82488852Y-1907529D01*
X82488852Y-3330000D01*
X82203210Y-3330000D01*
G37*
G36*
X82203210Y-1622864D02*
G01*
X82203210Y-1336978D01*
X82488852Y-1336978D01*
X82488852Y-1622864D01*
X82203210Y-1622864D01*
G37*
G36*
X82722959Y-3330000D02*
G01*
X82722959Y-1907529D01*
X83008601Y-1907529D01*
X83008601Y-2045526D01*
X83014097Y-2045526D01*
X83063563Y-1984144D01*
X83121441Y-1935251D01*
X83190410Y-1903434D01*
X83281909Y-1891898D01*
X83368074Y-1903625D01*
X83435171Y-1936594D01*
X83491899Y-1984139D01*
X83535677Y-2034169D01*
X83591782Y-1979563D01*
X83652914Y-1933785D01*
X83724932Y-1903504D01*
X83831455Y-1891898D01*
X83884476Y-1896333D01*
X83940265Y-1910094D01*
X83993019Y-1934107D01*
X84040771Y-1970422D01*
X84080556Y-2017380D01*
X84113311Y-2078377D01*
X84133667Y-2148575D01*
X84141155Y-2239455D01*
X84141155Y-3330000D01*
X83855513Y-3330000D01*
X83855513Y-2346067D01*
X83845731Y-2273492D01*
X83819365Y-2222725D01*
X83776655Y-2189466D01*
X83716539Y-2177784D01*
X83665524Y-2184184D01*
X83629870Y-2201314D01*
X83605408Y-2228342D01*
X83583513Y-2285393D01*
X83574878Y-2374033D01*
X83574878Y-3330000D01*
X83289236Y-3330000D01*
X83289236Y-2346067D01*
X83279454Y-2273492D01*
X83253088Y-2222725D01*
X83210295Y-2189456D01*
X83150262Y-2177784D01*
X83099247Y-2184184D01*
X83063593Y-2201314D01*
X83039131Y-2228342D01*
X83017236Y-2285393D01*
X83008601Y-2374033D01*
X83008601Y-3330000D01*
X82722959Y-3330000D01*
G37*
G36*
X84877282Y-1900582D02*
G01*
X84960346Y-1925603D01*
X85034793Y-1965962D01*
X85096267Y-2018171D01*
X85157750Y-2107960D01*
X85195267Y-2212342D01*
X85208374Y-2335321D01*
X85208374Y-2728185D01*
X84642097Y-2728185D01*
X84642097Y-2920526D01*
X84652169Y-2981221D01*
X84679955Y-3023475D01*
X84723129Y-3050174D01*
X84782537Y-3059745D01*
X84834261Y-3053549D01*
X84868555Y-3037374D01*
X84890492Y-3012484D01*
X84912122Y-2964338D01*
X84922732Y-2917718D01*
X85208374Y-2917718D01*
X85194815Y-3037843D01*
X85156332Y-3136947D01*
X85093458Y-3219724D01*
X85032200Y-3271891D01*
X84958880Y-3312048D01*
X84877088Y-3336942D01*
X84782415Y-3345631D01*
X84694173Y-3338938D01*
X84618741Y-3319963D01*
X84553926Y-3289699D01*
X84470630Y-3224193D01*
X84409578Y-3141078D01*
X84384063Y-3082074D01*
X84367568Y-3012362D01*
X84356455Y-2852627D01*
X84356455Y-2384902D01*
X84359599Y-2339717D01*
X84642097Y-2339717D01*
X84642097Y-2501528D01*
X84922732Y-2501528D01*
X84922732Y-2339717D01*
X84912292Y-2265860D01*
X84884875Y-2218328D01*
X84841365Y-2188322D01*
X84782537Y-2177784D01*
X84723498Y-2188333D01*
X84679955Y-2218328D01*
X84652538Y-2265860D01*
X84642097Y-2339717D01*
X84359599Y-2339717D01*
X84367568Y-2225167D01*
X84384063Y-2155454D01*
X84409578Y-2096451D01*
X84470635Y-2013360D01*
X84553926Y-1947951D01*
X84618749Y-1917619D01*
X84694180Y-1898604D01*
X84782415Y-1891898D01*
X84877282Y-1900582D01*
G37*
G36*
X85419034Y-1907529D02*
G01*
X85419034Y-1477662D01*
X85704676Y-1477662D01*
X85704676Y-1907529D01*
X85876623Y-1907529D01*
X85876623Y-2134187D01*
X85704676Y-2134187D01*
X85704676Y-2923824D01*
X85714201Y-3002470D01*
X85727070Y-3027424D01*
X85745586Y-3044724D01*
X85798831Y-3061454D01*
X85876623Y-3064263D01*
X85876623Y-3330000D01*
X85760119Y-3330000D01*
X85668000Y-3321706D01*
X85597942Y-3299225D01*
X85538288Y-3263453D01*
X85493894Y-3220823D01*
X85460328Y-3170199D01*
X85436986Y-3112990D01*
X85423392Y-3052912D01*
X85419034Y-2996730D01*
X85419034Y-2134187D01*
X85274808Y-2134187D01*
X85274808Y-1907529D01*
X85419034Y-1907529D01*
G37*
G36*
X86483423Y-1900582D02*
G01*
X86566487Y-1925603D01*
X86640934Y-1965962D01*
X86702408Y-2018171D01*
X86763891Y-2107960D01*
X86801408Y-2212342D01*
X86814515Y-2335321D01*
X86814515Y-2728185D01*
X86248238Y-2728185D01*
X86248238Y-2920526D01*
X86258310Y-2981221D01*
X86286096Y-3023475D01*
X86329270Y-3050174D01*
X86388678Y-3059745D01*
X86440402Y-3053549D01*
X86474696Y-3037374D01*
X86496633Y-3012484D01*
X86518263Y-2964338D01*
X86528873Y-2917718D01*
X86814515Y-2917718D01*
X86800956Y-3037843D01*
X86762473Y-3136947D01*
X86699599Y-3219724D01*
X86638341Y-3271891D01*
X86565021Y-3312048D01*
X86483229Y-3336942D01*
X86388556Y-3345631D01*
X86300314Y-3338938D01*
X86224882Y-3319963D01*
X86160067Y-3289699D01*
X86076771Y-3224193D01*
X86015719Y-3141078D01*
X85990204Y-3082074D01*
X85973709Y-3012362D01*
X85962596Y-2852627D01*
X85962596Y-2384902D01*
X85965740Y-2339717D01*
X86248238Y-2339717D01*
X86248238Y-2501528D01*
X86528873Y-2501528D01*
X86528873Y-2339717D01*
X86518433Y-2265860D01*
X86491016Y-2218328D01*
X86447506Y-2188322D01*
X86388678Y-2177784D01*
X86329639Y-2188333D01*
X86286096Y-2218328D01*
X86258679Y-2265860D01*
X86248238Y-2339717D01*
X85965740Y-2339717D01*
X85973709Y-2225167D01*
X85990204Y-2155454D01*
X86015719Y-2096451D01*
X86076776Y-2013360D01*
X86160067Y-1947951D01*
X86224890Y-1917619D01*
X86300321Y-1898604D01*
X86388556Y-1891898D01*
X86483423Y-1900582D01*
G37*
G36*
X87021633Y-3330000D02*
G01*
X87021633Y-1907529D01*
X87307275Y-1907529D01*
X87307275Y-2059570D01*
X87395689Y-1988161D01*
X87478245Y-1936716D01*
X87568902Y-1903852D01*
X87685974Y-1891898D01*
X87685974Y-2194637D01*
X87643105Y-2181984D01*
X87599023Y-2177784D01*
X87502181Y-2193293D01*
X87452903Y-2213849D01*
X87408270Y-2245073D01*
X87368080Y-2286474D01*
X87335241Y-2340450D01*
X87314794Y-2403618D01*
X87307275Y-2486140D01*
X87307275Y-3330000D01*
X87021633Y-3330000D01*
G37*
G36*
X89190265Y-1907529D02*
G01*
X88820604Y-3330000D01*
X88568667Y-3330000D01*
X88199006Y-1907529D01*
X88501378Y-1907529D01*
X88691766Y-2816601D01*
X88697383Y-2816601D01*
X88887771Y-1907529D01*
X89190265Y-1907529D01*
G37*
G36*
X89616469Y-3330000D02*
G01*
X89616469Y-1639351D01*
X89331194Y-1849277D01*
X89331194Y-1546905D01*
X89616469Y-1336978D01*
X89902111Y-1336978D01*
X89902111Y-3330000D01*
X89616469Y-3330000D01*
G37*
G36*
X90345290Y-3330000D02*
G01*
X90345290Y-3044113D01*
X90630932Y-3044113D01*
X90630932Y-3330000D01*
X90345290Y-3330000D01*
G37*
G36*
X91177669Y-3330000D02*
G01*
X91177669Y-1639351D01*
X90892394Y-1849277D01*
X90892394Y-1546905D01*
X91177669Y-1336978D01*
X91463311Y-1336978D01*
X91463311Y-3330000D01*
X91177669Y-3330000D01*
G37*
G36*
X91906490Y-3534187D02*
G01*
X91906490Y-3040816D01*
X92192132Y-3040816D01*
X92192132Y-3326702D01*
X91906490Y-3534187D01*
G37*
G36*
X93505414Y-1345106D02*
G01*
X93599459Y-1367752D01*
X93683925Y-1409481D01*
X93762369Y-1476563D01*
X93824071Y-1561118D01*
X93863486Y-1659378D01*
X93883688Y-1773328D01*
X93891696Y-1942700D01*
X93887447Y-2071505D01*
X93876187Y-2168869D01*
X93852068Y-2257930D01*
X93810119Y-2341915D01*
X93740918Y-2428940D01*
X93652338Y-2494078D01*
X93584506Y-2522821D01*
X93499530Y-2541584D01*
X93393563Y-2548422D01*
X93247261Y-2548422D01*
X93247261Y-3330000D01*
X92961619Y-3330000D01*
X92961619Y-2282686D01*
X93247261Y-2282686D01*
X93387090Y-2282686D01*
X93469740Y-2275537D01*
X93523866Y-2257407D01*
X93566391Y-2226824D01*
X93595307Y-2187065D01*
X93612058Y-2141700D01*
X93618144Y-2083140D01*
X93618144Y-1945509D01*
X93618144Y-1812030D01*
X93612207Y-1751403D01*
X93595429Y-1701022D01*
X93567082Y-1658808D01*
X93527530Y-1627993D01*
X93476529Y-1609890D01*
X93397226Y-1602714D01*
X93247261Y-1602714D01*
X93247261Y-2282686D01*
X92961619Y-2282686D01*
X92961619Y-1336978D01*
X93391487Y-1336978D01*
X93505414Y-1345106D01*
G37*
G36*
X94538837Y-1899046D02*
G01*
X94619418Y-1919986D01*
X94693267Y-1955071D01*
X94756926Y-2003883D01*
X94806647Y-2065798D01*
X94846686Y-2144078D01*
X94871504Y-2232449D01*
X94880391Y-2340083D01*
X94880391Y-3328900D01*
X94594749Y-3328900D01*
X94594749Y-3184431D01*
X94589131Y-3184431D01*
X94530462Y-3255535D01*
X94475436Y-3303988D01*
X94410304Y-3334151D01*
X94313870Y-3345631D01*
X94211410Y-3330122D01*
X94161540Y-3308678D01*
X94111759Y-3272847D01*
X94069835Y-3226740D01*
X94034456Y-3159396D01*
X94013154Y-3079181D01*
X94005025Y-2967543D01*
X94007448Y-2913810D01*
X94290667Y-2913810D01*
X94301132Y-2989119D01*
X94330112Y-3045212D01*
X94376586Y-3082627D01*
X94439899Y-3095526D01*
X94506124Y-3083158D01*
X94553838Y-3048021D01*
X94583643Y-2993459D01*
X94594749Y-2913810D01*
X94594749Y-2720980D01*
X94515859Y-2712554D01*
X94428001Y-2723835D01*
X94356734Y-2755907D01*
X94321772Y-2790079D01*
X94299194Y-2840636D01*
X94290667Y-2913810D01*
X94007448Y-2913810D01*
X94010279Y-2851010D01*
X94024686Y-2756273D01*
X94053388Y-2671283D01*
X94097715Y-2603621D01*
X94155942Y-2553059D01*
X94235346Y-2515327D01*
X94328758Y-2494020D01*
X94457240Y-2485896D01*
X94488015Y-2485896D01*
X94518912Y-2488705D01*
X94552617Y-2491514D01*
X94594749Y-2494323D01*
X94594749Y-2345945D01*
X94586493Y-2277446D01*
X94563730Y-2225411D01*
X94539278Y-2200169D01*
X94503213Y-2183913D01*
X94451134Y-2177784D01*
X94397610Y-2186776D01*
X94348430Y-2214176D01*
X94310840Y-2257680D01*
X94287858Y-2320666D01*
X94010642Y-2320666D01*
X94030871Y-2198558D01*
X94074022Y-2097204D01*
X94139725Y-2012431D01*
X94200835Y-1962700D01*
X94274302Y-1924138D01*
X94356252Y-1900249D01*
X94451134Y-1891898D01*
X94538837Y-1899046D01*
G37*
G36*
X95087509Y-3330000D02*
G01*
X95087509Y-1907529D01*
X95373151Y-1907529D01*
X95373151Y-2045526D01*
X95378646Y-2045526D01*
X95428113Y-1984144D01*
X95485991Y-1935251D01*
X95555064Y-1903430D01*
X95646581Y-1891898D01*
X95699118Y-1896383D01*
X95752460Y-1910094D01*
X95802343Y-1934058D01*
X95847348Y-1970422D01*
X95884296Y-2017249D01*
X95914271Y-2078377D01*
X95932635Y-2148406D01*
X95939428Y-2239455D01*
X95939428Y-3330000D01*
X95653786Y-3330000D01*
X95653786Y-2346067D01*
X95644004Y-2273492D01*
X95617638Y-2222725D01*
X95574844Y-2189456D01*
X95514812Y-2177784D01*
X95463796Y-2184184D01*
X95428143Y-2201314D01*
X95403681Y-2228342D01*
X95381786Y-2285393D01*
X95373151Y-2374033D01*
X95373151Y-3330000D01*
X95087509Y-3330000D01*
G37*
G36*
X96673235Y-1900582D02*
G01*
X96756298Y-1925603D01*
X96830746Y-1965962D01*
X96892219Y-2018171D01*
X96953703Y-2107960D01*
X96991220Y-2212342D01*
X97004327Y-2335321D01*
X97004327Y-2728185D01*
X96438050Y-2728185D01*
X96438050Y-2920526D01*
X96448121Y-2981221D01*
X96475907Y-3023475D01*
X96519082Y-3050174D01*
X96578489Y-3059745D01*
X96630213Y-3053549D01*
X96664507Y-3037374D01*
X96686445Y-3012484D01*
X96708074Y-2964338D01*
X96718685Y-2917718D01*
X97004327Y-2917718D01*
X96990768Y-3037843D01*
X96952284Y-3136947D01*
X96889411Y-3219724D01*
X96828153Y-3271891D01*
X96754833Y-3312048D01*
X96673040Y-3336942D01*
X96578367Y-3345631D01*
X96490126Y-3338938D01*
X96414694Y-3319963D01*
X96349878Y-3289699D01*
X96266583Y-3224193D01*
X96205531Y-3141078D01*
X96180015Y-3082074D01*
X96163521Y-3012362D01*
X96152408Y-2852627D01*
X96152408Y-2384902D01*
X96155552Y-2339717D01*
X96438050Y-2339717D01*
X96438050Y-2501528D01*
X96718685Y-2501528D01*
X96718685Y-2339717D01*
X96708244Y-2265860D01*
X96680827Y-2218328D01*
X96637318Y-2188322D01*
X96578489Y-2177784D01*
X96519450Y-2188333D01*
X96475907Y-2218328D01*
X96448490Y-2265860D01*
X96438050Y-2339717D01*
X96155552Y-2339717D01*
X96163521Y-2225167D01*
X96180015Y-2155454D01*
X96205531Y-2096451D01*
X96266588Y-2013360D01*
X96349878Y-1947951D01*
X96414701Y-1917619D01*
X96490133Y-1898604D01*
X96578367Y-1891898D01*
X96673235Y-1900582D01*
G37*
G36*
X97195813Y-1336978D02*
G01*
X97481455Y-1336978D01*
X97481455Y-2931884D01*
X97490213Y-3005175D01*
X97510886Y-3042648D01*
X97548463Y-3065068D01*
X97621773Y-3080505D01*
X97621773Y-3349539D01*
X97526244Y-3345452D01*
X97445185Y-3334030D01*
X97371480Y-3310884D01*
X97310729Y-3273824D01*
X97262213Y-3224272D01*
X97225244Y-3154755D01*
X97204020Y-3071000D01*
X97195813Y-2951423D01*
X97195813Y-1336978D01*
G37*
G36*
X98563573Y-3330000D02*
G01*
X98563573Y-1639351D01*
X98278298Y-1849277D01*
X98278298Y-1546905D01*
X98563573Y-1336978D01*
X98849215Y-1336978D01*
X98849215Y-3330000D01*
X98563573Y-3330000D01*
G37*
G36*
X99664131Y-3330000D02*
G01*
X100014131Y-2603377D01*
X99680862Y-1907529D01*
X99983357Y-1907529D01*
X100159700Y-2311507D01*
X100336166Y-1907529D01*
X100638538Y-1907529D01*
X100299651Y-2603377D01*
X100655269Y-3330000D01*
X100352896Y-3330000D01*
X100159700Y-2895125D01*
X99966504Y-3330000D01*
X99664131Y-3330000D01*
G37*
G36*
X102088486Y-1336978D02*
G01*
X102088486Y-1602714D01*
X101517935Y-1602714D01*
X101517935Y-2139926D01*
X101561868Y-2105013D01*
X101619540Y-2074713D01*
X101684201Y-2055039D01*
X101758025Y-2048213D01*
X101852329Y-2058618D01*
X101930703Y-2088198D01*
X101996651Y-2136507D01*
X102045553Y-2201185D01*
X102076939Y-2287257D01*
X102088486Y-2401388D01*
X102088486Y-2916985D01*
X102079344Y-3013939D01*
X102053315Y-3096259D01*
X102012023Y-3169532D01*
X101959526Y-3230715D01*
X101896235Y-3280037D01*
X101823605Y-3316200D01*
X101744985Y-3338240D01*
X101662526Y-3345631D01*
X101579962Y-3338238D01*
X101501326Y-3316200D01*
X101428704Y-3280011D01*
X101365405Y-3230593D01*
X101312812Y-3169282D01*
X101271494Y-3095893D01*
X101245654Y-3013556D01*
X101236567Y-2916374D01*
X101236567Y-2832233D01*
X101517935Y-2832233D01*
X101517935Y-2905261D01*
X101528893Y-2972020D01*
X101559212Y-3019078D01*
X101605795Y-3049259D01*
X101666068Y-3059745D01*
X101725560Y-3049383D01*
X101767184Y-3020544D01*
X101793262Y-2975471D01*
X101802844Y-2910879D01*
X101802844Y-2441688D01*
X101793227Y-2386674D01*
X101764742Y-2340572D01*
X101721731Y-2308991D01*
X101667655Y-2298318D01*
X101632862Y-2301799D01*
X101605740Y-2311385D01*
X101563486Y-2341671D01*
X101538207Y-2379162D01*
X101521232Y-2405174D01*
X101267830Y-2405174D01*
X101267830Y-1336978D01*
X102088486Y-1336978D01*
G37*
G36*
X102301466Y-3534187D02*
G01*
X102301466Y-3040816D01*
X102587108Y-3040816D01*
X102587108Y-3326702D01*
X102301466Y-3534187D01*
G37*
G36*
X103356595Y-3330000D02*
G01*
X103356595Y-1336978D01*
X103642237Y-1336978D01*
X103642237Y-2188897D01*
X103993214Y-2188897D01*
X103993214Y-1336978D01*
X104278856Y-1336978D01*
X104278856Y-3330000D01*
X103993214Y-3330000D01*
X103993214Y-2439002D01*
X103642237Y-2439002D01*
X103642237Y-3330000D01*
X103356595Y-3330000D01*
G37*
G36*
X104410014Y-3330000D02*
G01*
X104813259Y-2285861D01*
X104440789Y-1336978D01*
X104743284Y-1336978D01*
X104958828Y-1927557D01*
X105177181Y-1336978D01*
X105479676Y-1336978D01*
X105098779Y-2285861D01*
X105510450Y-3330000D01*
X105208078Y-3330000D01*
X104958828Y-2658210D01*
X104712387Y-3330000D01*
X104410014Y-3330000D01*
G37*
G36*
X106232768Y-1349727D02*
G01*
X106342205Y-1385008D01*
X106429484Y-1440533D01*
X106498591Y-1517070D01*
X106551001Y-1618319D01*
X106585470Y-1750457D01*
X106598186Y-1921573D01*
X106591525Y-2038274D01*
X106572833Y-2137198D01*
X106543598Y-2221015D01*
X106499201Y-2296251D01*
X106436219Y-2362229D01*
X106351745Y-2419706D01*
X106659735Y-3330000D01*
X106357362Y-3330000D01*
X106092481Y-2478080D01*
X105922488Y-2478080D01*
X105922488Y-3330000D01*
X105636846Y-3330000D01*
X105636846Y-2227976D01*
X105922488Y-2227976D01*
X106084055Y-2227976D01*
X106154934Y-2222089D01*
X106203856Y-2206849D01*
X106243895Y-2180856D01*
X106273587Y-2146277D01*
X106291923Y-2103825D01*
X106304240Y-2049068D01*
X106312544Y-1915345D01*
X106304240Y-1781622D01*
X106291366Y-1726648D01*
X106270778Y-1681482D01*
X106228963Y-1640274D01*
X106165023Y-1613122D01*
X106070133Y-1602714D01*
X105922488Y-1602714D01*
X105922488Y-2227976D01*
X105636846Y-2227976D01*
X105636846Y-1336978D01*
X106095168Y-1336978D01*
X106232768Y-1349727D01*
G37*
G36*
X106813120Y-3330000D02*
G01*
X106813120Y-3044113D01*
X107098762Y-3044113D01*
X107098762Y-3330000D01*
X106813120Y-3330000D01*
G37*
G36*
X107893210Y-1346537D02*
G01*
X107993662Y-1373162D01*
X108076051Y-1414902D01*
X108143510Y-1471434D01*
X108196945Y-1541838D01*
X108236519Y-1626669D01*
X108261738Y-1728844D01*
X108270761Y-1852086D01*
X108270761Y-2784239D01*
X108260746Y-2925489D01*
X108233283Y-3037878D01*
X108191097Y-3126936D01*
X108135206Y-3197009D01*
X108063908Y-3252806D01*
X107977393Y-3294148D01*
X107872527Y-3320537D01*
X107745272Y-3330000D01*
X107348500Y-3330000D01*
X107348500Y-3064263D01*
X107634142Y-3064263D01*
X107765056Y-3064263D01*
X107842499Y-3056378D01*
X107897105Y-3035528D01*
X107934927Y-3003813D01*
X107960910Y-2960461D01*
X107978456Y-2899183D01*
X107985119Y-2814159D01*
X107985119Y-1850010D01*
X107972035Y-1740672D01*
X107937736Y-1667316D01*
X107901062Y-1633558D01*
X107845895Y-1611247D01*
X107765056Y-1602714D01*
X107634142Y-1602714D01*
X107634142Y-3064263D01*
X107348500Y-3064263D01*
X107348500Y-1336978D01*
X107770552Y-1336978D01*
X107893210Y-1346537D01*
G37*
G36*
X108540405Y-3330000D02*
G01*
X108540405Y-1336978D01*
X108826047Y-1336978D01*
X108826047Y-2246660D01*
X108831665Y-2246660D01*
X109248831Y-1336978D01*
X109534473Y-1336978D01*
X109145272Y-2134797D01*
X109607258Y-3330000D01*
X109304885Y-3330000D01*
X108980042Y-2445474D01*
X108826047Y-2733803D01*
X108826047Y-3330000D01*
X108540405Y-3330000D01*
G37*
D11*
G36*
X151155600Y-34762000D02*
G01*
X151155600Y-33366884D01*
X151751944Y-33366884D01*
X151751944Y-33552900D01*
X151355550Y-33552900D01*
X151355550Y-33979641D01*
X151699969Y-33979641D01*
X151699969Y-34165656D01*
X151355550Y-34165656D01*
X151355550Y-34762000D01*
X151155600Y-34762000D01*
G37*
G36*
X151875042Y-34762000D02*
G01*
X151875042Y-33366884D01*
X152065246Y-33366884D01*
X152372907Y-34207458D01*
X152372907Y-33366884D01*
X152572856Y-33366884D01*
X152572856Y-34762000D01*
X152386499Y-34762000D01*
X152074991Y-33923392D01*
X152074991Y-34762000D01*
X151875042Y-34762000D01*
G37*
D12*
G36*
X169028790Y-70979727D02*
G01*
X169138227Y-71015008D01*
X169225505Y-71070533D01*
X169294612Y-71147070D01*
X169347023Y-71248319D01*
X169381492Y-71380457D01*
X169394207Y-71551573D01*
X169387547Y-71668274D01*
X169368855Y-71767198D01*
X169339619Y-71851015D01*
X169295223Y-71926251D01*
X169232241Y-71992229D01*
X169147766Y-72049706D01*
X169455757Y-72960000D01*
X169153384Y-72960000D01*
X168888503Y-72108080D01*
X168718510Y-72108080D01*
X168718510Y-72960000D01*
X168432868Y-72960000D01*
X168432868Y-71857976D01*
X168718510Y-71857976D01*
X168880076Y-71857976D01*
X168950956Y-71852089D01*
X168999877Y-71836849D01*
X169039917Y-71810856D01*
X169069609Y-71776277D01*
X169087945Y-71733825D01*
X169100261Y-71679068D01*
X169108565Y-71545345D01*
X169100261Y-71411622D01*
X169087388Y-71356648D01*
X169066800Y-71311482D01*
X169024984Y-71270274D01*
X168961045Y-71243122D01*
X168866154Y-71232714D01*
X168718510Y-71232714D01*
X168718510Y-71857976D01*
X168432868Y-71857976D01*
X168432868Y-70966978D01*
X168891189Y-70966978D01*
X169028790Y-70979727D01*
G37*
G36*
X169624773Y-72960000D02*
G01*
X169624773Y-70966978D01*
X170476692Y-70966978D01*
X170476692Y-71232714D01*
X169910415Y-71232714D01*
X169910415Y-71818897D01*
X170402442Y-71818897D01*
X170402442Y-72084633D01*
X169910415Y-72084633D01*
X169910415Y-72674113D01*
X170476692Y-72674113D01*
X170476692Y-72960000D01*
X169624773Y-72960000D01*
G37*
G36*
X171205072Y-70976537D02*
G01*
X171305525Y-71003162D01*
X171387913Y-71044902D01*
X171455373Y-71101434D01*
X171508807Y-71171838D01*
X171548381Y-71256669D01*
X171573600Y-71358844D01*
X171582623Y-71482086D01*
X171582623Y-72414239D01*
X171572608Y-72555489D01*
X171545146Y-72667878D01*
X171502959Y-72756936D01*
X171447069Y-72827009D01*
X171375771Y-72882806D01*
X171289255Y-72924148D01*
X171184390Y-72950537D01*
X171057135Y-72960000D01*
X170660362Y-72960000D01*
X170660362Y-72694263D01*
X170946004Y-72694263D01*
X171076919Y-72694263D01*
X171154361Y-72686378D01*
X171208967Y-72665528D01*
X171246789Y-72633813D01*
X171272772Y-72590461D01*
X171290318Y-72529183D01*
X171296981Y-72444159D01*
X171296981Y-71480010D01*
X171283898Y-71370672D01*
X171249598Y-71297316D01*
X171212925Y-71263558D01*
X171157757Y-71241247D01*
X171076919Y-71232714D01*
X170946004Y-71232714D01*
X170946004Y-72694263D01*
X170660362Y-72694263D01*
X170660362Y-70966978D01*
X171082414Y-70966978D01*
X171205072Y-70976537D01*
G37*
G36*
X156980027Y-70978143D02*
G01*
X157082554Y-71008743D01*
X157171497Y-71058226D01*
X157240579Y-71119996D01*
X157293191Y-71194674D01*
X157328506Y-71280097D01*
X157348419Y-71371856D01*
X157355129Y-71467920D01*
X157355129Y-71540338D01*
X157351690Y-71617807D01*
X157342550Y-71676625D01*
X157326632Y-71729817D01*
X157305303Y-71774078D01*
X157247588Y-71844708D01*
X157161322Y-71907679D01*
X157222665Y-71945114D01*
X157271054Y-71991738D01*
X157307990Y-72048363D01*
X157332604Y-72112112D01*
X157349039Y-72194983D01*
X157355129Y-72301521D01*
X157355129Y-72414117D01*
X157345959Y-72547155D01*
X157320485Y-72656378D01*
X157280849Y-72745980D01*
X157227878Y-72819316D01*
X157160186Y-72877358D01*
X157073134Y-72921080D01*
X156962161Y-72949577D01*
X156821336Y-72960000D01*
X156432868Y-72960000D01*
X156432868Y-72674113D01*
X156718510Y-72674113D01*
X156842096Y-72674113D01*
X156923844Y-72666973D01*
X156978384Y-72648712D01*
X157021856Y-72617986D01*
X157052878Y-72578004D01*
X157072876Y-72529833D01*
X157083775Y-72470659D01*
X157089392Y-72334982D01*
X157080966Y-72202236D01*
X157067901Y-72148767D01*
X157047260Y-72106249D01*
X157014397Y-72072079D01*
X156971301Y-72048241D01*
X156919501Y-72035045D01*
X156844905Y-72029923D01*
X156718510Y-72029923D01*
X156718510Y-72674113D01*
X156432868Y-72674113D01*
X156432868Y-71779818D01*
X156718510Y-71779818D01*
X156847714Y-71779818D01*
X156940229Y-71770220D01*
X157001309Y-71745492D01*
X157040177Y-71708621D01*
X157065803Y-71658601D01*
X157082963Y-71590951D01*
X157089392Y-71500648D01*
X157082261Y-71412669D01*
X157063221Y-71347432D01*
X157034560Y-71299637D01*
X156992875Y-71265003D01*
X156929645Y-71241700D01*
X156836479Y-71232714D01*
X156718510Y-71232714D01*
X156718510Y-71779818D01*
X156432868Y-71779818D01*
X156432868Y-70966978D01*
X156849302Y-70966978D01*
X156980027Y-70978143D01*
G37*
G36*
X157624773Y-72964518D02*
G01*
X157624773Y-70966978D01*
X157910415Y-70966978D01*
X157910415Y-72678632D01*
X158476692Y-72678632D01*
X158476692Y-72964518D01*
X157624773Y-72964518D01*
G37*
G36*
X159661514Y-72963907D02*
G01*
X159375872Y-72963907D01*
X159291852Y-72530132D01*
X158902651Y-72530132D01*
X158818754Y-72963907D01*
X158533112Y-72963907D01*
X158689039Y-72264396D01*
X158953087Y-72264396D01*
X159238729Y-72264396D01*
X159098656Y-71541437D01*
X159093039Y-71541437D01*
X158953087Y-72264396D01*
X158689039Y-72264396D01*
X158978244Y-70966978D01*
X159216259Y-70966978D01*
X159661514Y-72963907D01*
G37*
G36*
X160706140Y-72389937D02*
G01*
X160706140Y-72513279D01*
X160697346Y-72603597D01*
X160671214Y-72688401D01*
X160629611Y-72766576D01*
X160574860Y-72835436D01*
X160508222Y-72893145D01*
X160430757Y-72937773D01*
X160345697Y-72966062D01*
X160253436Y-72975631D01*
X160172333Y-72970107D01*
X160088450Y-72953161D01*
X160008927Y-72922330D01*
X159937630Y-72874637D01*
X159877322Y-72811673D01*
X159827233Y-72730411D01*
X159795678Y-72634744D01*
X159783879Y-72504853D01*
X159783879Y-71406371D01*
X159792411Y-71310919D01*
X159817341Y-71224288D01*
X159858147Y-71145440D01*
X159912473Y-71078597D01*
X159979344Y-71023918D01*
X160059141Y-70981877D01*
X160147681Y-70955835D01*
X160247819Y-70946828D01*
X160346426Y-70955558D01*
X160432322Y-70980629D01*
X160507898Y-71021391D01*
X160574860Y-71078597D01*
X160629280Y-71148334D01*
X160671214Y-71231249D01*
X160697220Y-71322358D01*
X160706140Y-71423224D01*
X160706140Y-71535331D01*
X160420498Y-71535331D01*
X160420498Y-71439954D01*
X160408425Y-71360918D01*
X160373115Y-71294385D01*
X160337767Y-71260085D01*
X160295795Y-71239767D01*
X160245010Y-71232714D01*
X160178139Y-71241200D01*
X160133350Y-71263565D01*
X160104326Y-71298538D01*
X160078925Y-71369777D01*
X160069521Y-71465233D01*
X160069521Y-72485314D01*
X160079448Y-72567052D01*
X160107135Y-72630882D01*
X160136923Y-72662235D01*
X160180265Y-72682248D01*
X160242201Y-72689745D01*
X160302041Y-72679975D01*
X160362002Y-72647735D01*
X160384232Y-72622019D01*
X160403646Y-72586064D01*
X160415927Y-72544009D01*
X160420498Y-72488122D01*
X160420498Y-72389937D01*
X160706140Y-72389937D01*
G37*
G36*
X160938660Y-72960000D02*
G01*
X160938660Y-70966978D01*
X161224302Y-70966978D01*
X161224302Y-71876660D01*
X161229919Y-71876660D01*
X161647086Y-70966978D01*
X161932728Y-70966978D01*
X161543527Y-71764797D01*
X162005512Y-72960000D01*
X161703140Y-72960000D01*
X161378297Y-72075474D01*
X161224302Y-72363803D01*
X161224302Y-72960000D01*
X160938660Y-72960000D01*
G37*
D11*
G36*
X151545897Y-67275809D02*
G01*
X151622503Y-67300506D01*
X151683598Y-67339373D01*
X151731972Y-67392949D01*
X151768660Y-67463823D01*
X151792788Y-67556320D01*
X151801689Y-67676101D01*
X151797027Y-67757791D01*
X151783942Y-67827038D01*
X151763477Y-67885710D01*
X151732400Y-67938375D01*
X151688312Y-67984560D01*
X151629180Y-68024794D01*
X151844774Y-68662000D01*
X151633113Y-68662000D01*
X151447696Y-68065656D01*
X151328701Y-68065656D01*
X151328701Y-68662000D01*
X151128751Y-68662000D01*
X151128751Y-67890583D01*
X151328701Y-67890583D01*
X151441797Y-67890583D01*
X151491413Y-67886462D01*
X151525658Y-67875794D01*
X151553686Y-67857599D01*
X151574470Y-67833393D01*
X151587305Y-67803677D01*
X151595927Y-67765347D01*
X151601740Y-67671741D01*
X151595927Y-67578135D01*
X151586915Y-67539654D01*
X151572504Y-67508038D01*
X151543233Y-67479191D01*
X151498475Y-67460186D01*
X151432052Y-67452900D01*
X151328701Y-67452900D01*
X151328701Y-67890583D01*
X151128751Y-67890583D01*
X151128751Y-67266884D01*
X151449576Y-67266884D01*
X151545897Y-67275809D01*
G37*
G36*
X151963085Y-68662000D02*
G01*
X151963085Y-67266884D01*
X152559428Y-67266884D01*
X152559428Y-67452900D01*
X152163034Y-67452900D01*
X152163034Y-67863228D01*
X152507453Y-67863228D01*
X152507453Y-68049243D01*
X152163034Y-68049243D01*
X152163034Y-68461879D01*
X152559428Y-68461879D01*
X152559428Y-68662000D01*
X151963085Y-68662000D01*
G37*
G36*
X153336572Y-67666698D02*
G01*
X153136623Y-67666698D01*
X153136623Y-67621562D01*
X153128253Y-67556518D01*
X153104309Y-67502908D01*
X153079025Y-67475927D01*
X153043950Y-67459086D01*
X152995658Y-67452900D01*
X152957165Y-67457159D01*
X152929151Y-67468629D01*
X152905991Y-67486375D01*
X152888032Y-67507781D01*
X152874946Y-67534705D01*
X152866490Y-67565654D01*
X152860592Y-67633273D01*
X152863498Y-67702003D01*
X152878287Y-67751071D01*
X152892454Y-67770901D01*
X152912481Y-67788343D01*
X152974201Y-67819630D01*
X153126963Y-67880496D01*
X153189184Y-67909310D01*
X153234674Y-67940335D01*
X153271639Y-67977583D01*
X153299301Y-68019751D01*
X153317140Y-68069013D01*
X153328708Y-68126692D01*
X153336572Y-68262956D01*
X153332004Y-68349405D01*
X153318877Y-68426830D01*
X153295281Y-68497972D01*
X153262029Y-68555229D01*
X153214849Y-68603872D01*
X153153976Y-68641569D01*
X153082698Y-68664553D01*
X152991127Y-68672942D01*
X152920426Y-68666467D01*
X152855719Y-68647467D01*
X152796969Y-68616760D01*
X152747752Y-68576771D01*
X152707455Y-68528193D01*
X152676201Y-68471881D01*
X152656449Y-68409954D01*
X152649700Y-68341431D01*
X152649700Y-68266888D01*
X152849650Y-68266888D01*
X152849650Y-68329719D01*
X152857749Y-68381865D01*
X152882048Y-68428711D01*
X152906940Y-68452180D01*
X152942089Y-68467217D01*
X152991127Y-68472821D01*
X153039103Y-68468674D01*
X153070799Y-68458118D01*
X153096117Y-68440196D01*
X153114995Y-68415974D01*
X153127295Y-68386558D01*
X153133631Y-68350236D01*
X153136623Y-68264922D01*
X153132690Y-68174735D01*
X153126430Y-68141479D01*
X153117047Y-68117802D01*
X153101168Y-68098288D01*
X153080801Y-68082582D01*
X153021047Y-68053090D01*
X152878116Y-67994191D01*
X152796816Y-67952177D01*
X152740753Y-67905439D01*
X152704667Y-67853995D01*
X152681175Y-67794203D01*
X152666067Y-67722098D01*
X152660642Y-67635239D01*
X152666106Y-67558253D01*
X152682185Y-67486239D01*
X152709523Y-67419731D01*
X152746811Y-67364679D01*
X152793096Y-67319166D01*
X152851616Y-67283212D01*
X152919282Y-67260822D01*
X153003437Y-67252779D01*
X153075520Y-67259826D01*
X153139615Y-67280306D01*
X153197596Y-67312433D01*
X153246386Y-67352882D01*
X153297183Y-67419874D01*
X153326681Y-67491058D01*
X153336572Y-67568561D01*
X153336572Y-67666698D01*
G37*
G36*
X153482666Y-68662000D02*
G01*
X153482666Y-67266884D01*
X154079009Y-67266884D01*
X154079009Y-67452900D01*
X153682615Y-67452900D01*
X153682615Y-67863228D01*
X154027034Y-67863228D01*
X154027034Y-68049243D01*
X153682615Y-68049243D01*
X153682615Y-68461879D01*
X154079009Y-68461879D01*
X154079009Y-68662000D01*
X153482666Y-68662000D01*
G37*
G36*
X154341363Y-68662000D02*
G01*
X154341363Y-67452900D01*
X154109100Y-67452900D01*
X154109100Y-67266884D01*
X154771096Y-67266884D01*
X154771096Y-67452900D01*
X154541312Y-67452900D01*
X154541312Y-68662000D01*
X154341363Y-68662000D01*
G37*
G36*
X151511302Y-58374700D02*
G01*
X151583070Y-58396120D01*
X151645331Y-58430758D01*
X151693688Y-58473997D01*
X151730516Y-58526272D01*
X151755237Y-58586068D01*
X151769176Y-58650299D01*
X151773873Y-58717544D01*
X151773873Y-58768236D01*
X151771466Y-58822464D01*
X151765068Y-58863638D01*
X151753925Y-58900872D01*
X151738995Y-58931855D01*
X151698594Y-58981295D01*
X151638208Y-59025375D01*
X151681148Y-59051580D01*
X151715021Y-59084216D01*
X151740876Y-59123854D01*
X151758106Y-59168478D01*
X151769610Y-59226488D01*
X151773873Y-59301064D01*
X151773873Y-59379882D01*
X151767454Y-59473008D01*
X151749622Y-59549464D01*
X151721877Y-59612186D01*
X151684798Y-59663521D01*
X151637413Y-59704150D01*
X151576477Y-59734756D01*
X151498796Y-59754703D01*
X151400218Y-59762000D01*
X151128290Y-59762000D01*
X151128290Y-59561879D01*
X151328240Y-59561879D01*
X151414750Y-59561879D01*
X151471974Y-59556881D01*
X151510152Y-59544098D01*
X151540582Y-59522590D01*
X151562298Y-59494602D01*
X151576296Y-59460883D01*
X151583925Y-59419461D01*
X151587858Y-59324487D01*
X151581959Y-59231565D01*
X151572813Y-59194136D01*
X151558365Y-59164374D01*
X151535361Y-59140455D01*
X151505194Y-59123769D01*
X151468934Y-59114531D01*
X151416717Y-59110946D01*
X151328240Y-59110946D01*
X151328240Y-59561879D01*
X151128290Y-59561879D01*
X151128290Y-58935872D01*
X151328240Y-58935872D01*
X151418683Y-58935872D01*
X151483443Y-58929154D01*
X151526199Y-58911844D01*
X151553407Y-58886035D01*
X151571345Y-58851021D01*
X151583357Y-58803665D01*
X151587858Y-58740454D01*
X151582865Y-58678868D01*
X151569538Y-58633202D01*
X151549475Y-58599745D01*
X151520295Y-58575502D01*
X151476034Y-58559190D01*
X151410818Y-58552900D01*
X151328240Y-58552900D01*
X151328240Y-58935872D01*
X151128290Y-58935872D01*
X151128290Y-58366884D01*
X151419794Y-58366884D01*
X151511302Y-58374700D01*
G37*
G36*
X152347090Y-58358125D02*
G01*
X152407488Y-58374407D01*
X152464571Y-58400840D01*
X152516310Y-58437153D01*
X152558458Y-58484950D01*
X152592734Y-58545035D01*
X152614472Y-58613056D01*
X152622140Y-58694035D01*
X152622140Y-59431685D01*
X152614333Y-59515791D01*
X152592734Y-59582652D01*
X152558481Y-59640715D01*
X152516310Y-59686602D01*
X152464443Y-59724487D01*
X152407488Y-59751399D01*
X152347094Y-59767617D01*
X152286954Y-59772942D01*
X152226740Y-59767615D01*
X152166334Y-59751399D01*
X152109721Y-59724399D01*
X152059478Y-59686602D01*
X152015781Y-59640573D01*
X151981089Y-59582652D01*
X151959489Y-59515791D01*
X151951682Y-59431685D01*
X151951682Y-58694035D01*
X152151631Y-58694035D01*
X152151631Y-59431685D01*
X152156678Y-59478280D01*
X152170370Y-59512917D01*
X152191809Y-59538542D01*
X152235443Y-59564164D01*
X152286954Y-59572821D01*
X152338391Y-59564168D01*
X152382013Y-59538542D01*
X152403452Y-59512917D01*
X152417144Y-59478280D01*
X152422191Y-59431685D01*
X152422191Y-58694035D01*
X152417142Y-58647443D01*
X152403449Y-58612838D01*
X152382013Y-58587265D01*
X152338385Y-58561573D01*
X152286954Y-58552900D01*
X152235449Y-58561576D01*
X152191809Y-58587265D01*
X152170373Y-58612838D01*
X152156680Y-58647443D01*
X152151631Y-58694035D01*
X151951682Y-58694035D01*
X151959350Y-58613056D01*
X151981089Y-58545035D01*
X152015807Y-58485092D01*
X152059478Y-58437153D01*
X152109590Y-58400930D01*
X152166334Y-58374407D01*
X152226743Y-58358127D01*
X152286954Y-58352779D01*
X152347090Y-58358125D01*
G37*
G36*
X153181424Y-58358125D02*
G01*
X153241821Y-58374407D01*
X153298904Y-58400840D01*
X153350644Y-58437153D01*
X153392792Y-58484950D01*
X153427067Y-58545035D01*
X153448806Y-58613056D01*
X153456474Y-58694035D01*
X153456474Y-59431685D01*
X153448667Y-59515791D01*
X153427067Y-59582652D01*
X153392814Y-59640715D01*
X153350644Y-59686602D01*
X153298777Y-59724487D01*
X153241821Y-59751399D01*
X153181427Y-59767617D01*
X153121287Y-59772942D01*
X153061073Y-59767615D01*
X153000668Y-59751399D01*
X152944055Y-59724399D01*
X152893812Y-59686602D01*
X152850114Y-59640573D01*
X152815422Y-59582652D01*
X152793822Y-59515791D01*
X152786015Y-59431685D01*
X152786015Y-58694035D01*
X152985965Y-58694035D01*
X152985965Y-59431685D01*
X152991011Y-59478280D01*
X153004704Y-59512917D01*
X153026143Y-59538542D01*
X153069776Y-59564164D01*
X153121287Y-59572821D01*
X153172725Y-59564168D01*
X153216347Y-59538542D01*
X153237786Y-59512917D01*
X153251478Y-59478280D01*
X153256525Y-59431685D01*
X153256525Y-58694035D01*
X153251476Y-58647443D01*
X153237782Y-58612838D01*
X153216347Y-58587265D01*
X153172718Y-58561573D01*
X153121287Y-58552900D01*
X153069783Y-58561576D01*
X153026143Y-58587265D01*
X153004707Y-58612838D01*
X152991013Y-58647443D01*
X152985965Y-58694035D01*
X152786015Y-58694035D01*
X152793684Y-58613056D01*
X152815422Y-58545035D01*
X152850141Y-58485092D01*
X152893812Y-58437153D01*
X152943923Y-58400930D01*
X153000668Y-58374407D01*
X153061077Y-58358127D01*
X153121287Y-58352779D01*
X153181424Y-58358125D01*
G37*
G36*
X153741823Y-59762000D02*
G01*
X153741823Y-58552900D01*
X153509560Y-58552900D01*
X153509560Y-58366884D01*
X154171556Y-58366884D01*
X154171556Y-58552900D01*
X153941772Y-58552900D01*
X153941772Y-59762000D01*
X153741823Y-59762000D01*
G37*
G36*
X115155600Y-34762000D02*
G01*
X115155600Y-33366884D01*
X115751944Y-33366884D01*
X115751944Y-33552900D01*
X115355550Y-33552900D01*
X115355550Y-33979641D01*
X115699969Y-33979641D01*
X115699969Y-34165656D01*
X115355550Y-34165656D01*
X115355550Y-34762000D01*
X115155600Y-34762000D01*
G37*
G36*
X115875042Y-34762000D02*
G01*
X115875042Y-33366884D01*
X116065246Y-33366884D01*
X116372907Y-34207458D01*
X116372907Y-33366884D01*
X116572856Y-33366884D01*
X116572856Y-34762000D01*
X116386499Y-34762000D01*
X116074991Y-33923392D01*
X116074991Y-34762000D01*
X115875042Y-34762000D01*
G37*
D12*
G36*
X133028790Y-70979727D02*
G01*
X133138227Y-71015008D01*
X133225505Y-71070533D01*
X133294612Y-71147070D01*
X133347023Y-71248319D01*
X133381492Y-71380457D01*
X133394207Y-71551573D01*
X133387547Y-71668274D01*
X133368855Y-71767198D01*
X133339619Y-71851015D01*
X133295223Y-71926251D01*
X133232241Y-71992229D01*
X133147766Y-72049706D01*
X133455757Y-72960000D01*
X133153384Y-72960000D01*
X132888503Y-72108080D01*
X132718510Y-72108080D01*
X132718510Y-72960000D01*
X132432868Y-72960000D01*
X132432868Y-71857976D01*
X132718510Y-71857976D01*
X132880076Y-71857976D01*
X132950956Y-71852089D01*
X132999877Y-71836849D01*
X133039917Y-71810856D01*
X133069609Y-71776277D01*
X133087945Y-71733825D01*
X133100261Y-71679068D01*
X133108565Y-71545345D01*
X133100261Y-71411622D01*
X133087388Y-71356648D01*
X133066800Y-71311482D01*
X133024984Y-71270274D01*
X132961045Y-71243122D01*
X132866154Y-71232714D01*
X132718510Y-71232714D01*
X132718510Y-71857976D01*
X132432868Y-71857976D01*
X132432868Y-70966978D01*
X132891189Y-70966978D01*
X133028790Y-70979727D01*
G37*
G36*
X133624773Y-72960000D02*
G01*
X133624773Y-70966978D01*
X134476692Y-70966978D01*
X134476692Y-71232714D01*
X133910415Y-71232714D01*
X133910415Y-71818897D01*
X134402442Y-71818897D01*
X134402442Y-72084633D01*
X133910415Y-72084633D01*
X133910415Y-72674113D01*
X134476692Y-72674113D01*
X134476692Y-72960000D01*
X133624773Y-72960000D01*
G37*
G36*
X135205072Y-70976537D02*
G01*
X135305525Y-71003162D01*
X135387913Y-71044902D01*
X135455373Y-71101434D01*
X135508807Y-71171838D01*
X135548381Y-71256669D01*
X135573600Y-71358844D01*
X135582623Y-71482086D01*
X135582623Y-72414239D01*
X135572608Y-72555489D01*
X135545146Y-72667878D01*
X135502959Y-72756936D01*
X135447069Y-72827009D01*
X135375771Y-72882806D01*
X135289255Y-72924148D01*
X135184390Y-72950537D01*
X135057135Y-72960000D01*
X134660362Y-72960000D01*
X134660362Y-72694263D01*
X134946004Y-72694263D01*
X135076919Y-72694263D01*
X135154361Y-72686378D01*
X135208967Y-72665528D01*
X135246789Y-72633813D01*
X135272772Y-72590461D01*
X135290318Y-72529183D01*
X135296981Y-72444159D01*
X135296981Y-71480010D01*
X135283898Y-71370672D01*
X135249598Y-71297316D01*
X135212925Y-71263558D01*
X135157757Y-71241247D01*
X135076919Y-71232714D01*
X134946004Y-71232714D01*
X134946004Y-72694263D01*
X134660362Y-72694263D01*
X134660362Y-70966978D01*
X135082414Y-70966978D01*
X135205072Y-70976537D01*
G37*
G36*
X120980027Y-70978143D02*
G01*
X121082554Y-71008743D01*
X121171497Y-71058226D01*
X121240579Y-71119996D01*
X121293191Y-71194674D01*
X121328506Y-71280097D01*
X121348419Y-71371856D01*
X121355129Y-71467920D01*
X121355129Y-71540338D01*
X121351690Y-71617807D01*
X121342550Y-71676625D01*
X121326632Y-71729817D01*
X121305303Y-71774078D01*
X121247588Y-71844708D01*
X121161322Y-71907679D01*
X121222665Y-71945114D01*
X121271054Y-71991738D01*
X121307990Y-72048363D01*
X121332604Y-72112112D01*
X121349039Y-72194983D01*
X121355129Y-72301521D01*
X121355129Y-72414117D01*
X121345959Y-72547155D01*
X121320485Y-72656378D01*
X121280849Y-72745980D01*
X121227878Y-72819316D01*
X121160186Y-72877358D01*
X121073134Y-72921080D01*
X120962161Y-72949577D01*
X120821336Y-72960000D01*
X120432868Y-72960000D01*
X120432868Y-72674113D01*
X120718510Y-72674113D01*
X120842096Y-72674113D01*
X120923844Y-72666973D01*
X120978384Y-72648712D01*
X121021856Y-72617986D01*
X121052878Y-72578004D01*
X121072876Y-72529833D01*
X121083775Y-72470659D01*
X121089392Y-72334982D01*
X121080966Y-72202236D01*
X121067901Y-72148767D01*
X121047260Y-72106249D01*
X121014397Y-72072079D01*
X120971301Y-72048241D01*
X120919501Y-72035045D01*
X120844905Y-72029923D01*
X120718510Y-72029923D01*
X120718510Y-72674113D01*
X120432868Y-72674113D01*
X120432868Y-71779818D01*
X120718510Y-71779818D01*
X120847714Y-71779818D01*
X120940229Y-71770220D01*
X121001309Y-71745492D01*
X121040177Y-71708621D01*
X121065803Y-71658601D01*
X121082963Y-71590951D01*
X121089392Y-71500648D01*
X121082261Y-71412669D01*
X121063221Y-71347432D01*
X121034560Y-71299637D01*
X120992875Y-71265003D01*
X120929645Y-71241700D01*
X120836479Y-71232714D01*
X120718510Y-71232714D01*
X120718510Y-71779818D01*
X120432868Y-71779818D01*
X120432868Y-70966978D01*
X120849302Y-70966978D01*
X120980027Y-70978143D01*
G37*
G36*
X121624773Y-72964518D02*
G01*
X121624773Y-70966978D01*
X121910415Y-70966978D01*
X121910415Y-72678632D01*
X122476692Y-72678632D01*
X122476692Y-72964518D01*
X121624773Y-72964518D01*
G37*
G36*
X123661514Y-72963907D02*
G01*
X123375872Y-72963907D01*
X123291852Y-72530132D01*
X122902651Y-72530132D01*
X122818754Y-72963907D01*
X122533112Y-72963907D01*
X122689039Y-72264396D01*
X122953087Y-72264396D01*
X123238729Y-72264396D01*
X123098656Y-71541437D01*
X123093039Y-71541437D01*
X122953087Y-72264396D01*
X122689039Y-72264396D01*
X122978244Y-70966978D01*
X123216259Y-70966978D01*
X123661514Y-72963907D01*
G37*
G36*
X124706140Y-72389937D02*
G01*
X124706140Y-72513279D01*
X124697346Y-72603597D01*
X124671214Y-72688401D01*
X124629611Y-72766576D01*
X124574860Y-72835436D01*
X124508222Y-72893145D01*
X124430757Y-72937773D01*
X124345697Y-72966062D01*
X124253436Y-72975631D01*
X124172333Y-72970107D01*
X124088450Y-72953161D01*
X124008927Y-72922330D01*
X123937630Y-72874637D01*
X123877322Y-72811673D01*
X123827233Y-72730411D01*
X123795678Y-72634744D01*
X123783879Y-72504853D01*
X123783879Y-71406371D01*
X123792411Y-71310919D01*
X123817341Y-71224288D01*
X123858147Y-71145440D01*
X123912473Y-71078597D01*
X123979344Y-71023918D01*
X124059141Y-70981877D01*
X124147681Y-70955835D01*
X124247819Y-70946828D01*
X124346426Y-70955558D01*
X124432322Y-70980629D01*
X124507898Y-71021391D01*
X124574860Y-71078597D01*
X124629280Y-71148334D01*
X124671214Y-71231249D01*
X124697220Y-71322358D01*
X124706140Y-71423224D01*
X124706140Y-71535331D01*
X124420498Y-71535331D01*
X124420498Y-71439954D01*
X124408425Y-71360918D01*
X124373115Y-71294385D01*
X124337767Y-71260085D01*
X124295795Y-71239767D01*
X124245010Y-71232714D01*
X124178139Y-71241200D01*
X124133350Y-71263565D01*
X124104326Y-71298538D01*
X124078925Y-71369777D01*
X124069521Y-71465233D01*
X124069521Y-72485314D01*
X124079448Y-72567052D01*
X124107135Y-72630882D01*
X124136923Y-72662235D01*
X124180265Y-72682248D01*
X124242201Y-72689745D01*
X124302041Y-72679975D01*
X124362002Y-72647735D01*
X124384232Y-72622019D01*
X124403646Y-72586064D01*
X124415927Y-72544009D01*
X124420498Y-72488122D01*
X124420498Y-72389937D01*
X124706140Y-72389937D01*
G37*
G36*
X124938660Y-72960000D02*
G01*
X124938660Y-70966978D01*
X125224302Y-70966978D01*
X125224302Y-71876660D01*
X125229919Y-71876660D01*
X125647086Y-70966978D01*
X125932728Y-70966978D01*
X125543527Y-71764797D01*
X126005512Y-72960000D01*
X125703140Y-72960000D01*
X125378297Y-72075474D01*
X125224302Y-72363803D01*
X125224302Y-72960000D01*
X124938660Y-72960000D01*
G37*
D11*
G36*
X115545897Y-67275809D02*
G01*
X115622503Y-67300506D01*
X115683598Y-67339373D01*
X115731972Y-67392949D01*
X115768660Y-67463823D01*
X115792788Y-67556320D01*
X115801689Y-67676101D01*
X115797027Y-67757791D01*
X115783942Y-67827038D01*
X115763477Y-67885710D01*
X115732400Y-67938375D01*
X115688312Y-67984560D01*
X115629180Y-68024794D01*
X115844774Y-68662000D01*
X115633113Y-68662000D01*
X115447696Y-68065656D01*
X115328701Y-68065656D01*
X115328701Y-68662000D01*
X115128751Y-68662000D01*
X115128751Y-67890583D01*
X115328701Y-67890583D01*
X115441797Y-67890583D01*
X115491413Y-67886462D01*
X115525658Y-67875794D01*
X115553686Y-67857599D01*
X115574470Y-67833393D01*
X115587305Y-67803677D01*
X115595927Y-67765347D01*
X115601740Y-67671741D01*
X115595927Y-67578135D01*
X115586915Y-67539654D01*
X115572504Y-67508038D01*
X115543233Y-67479191D01*
X115498475Y-67460186D01*
X115432052Y-67452900D01*
X115328701Y-67452900D01*
X115328701Y-67890583D01*
X115128751Y-67890583D01*
X115128751Y-67266884D01*
X115449576Y-67266884D01*
X115545897Y-67275809D01*
G37*
G36*
X115963085Y-68662000D02*
G01*
X115963085Y-67266884D01*
X116559428Y-67266884D01*
X116559428Y-67452900D01*
X116163034Y-67452900D01*
X116163034Y-67863228D01*
X116507453Y-67863228D01*
X116507453Y-68049243D01*
X116163034Y-68049243D01*
X116163034Y-68461879D01*
X116559428Y-68461879D01*
X116559428Y-68662000D01*
X115963085Y-68662000D01*
G37*
G36*
X117336572Y-67666698D02*
G01*
X117136623Y-67666698D01*
X117136623Y-67621562D01*
X117128253Y-67556518D01*
X117104309Y-67502908D01*
X117079025Y-67475927D01*
X117043950Y-67459086D01*
X116995658Y-67452900D01*
X116957165Y-67457159D01*
X116929151Y-67468629D01*
X116905991Y-67486375D01*
X116888032Y-67507781D01*
X116874946Y-67534705D01*
X116866490Y-67565654D01*
X116860592Y-67633273D01*
X116863498Y-67702003D01*
X116878287Y-67751071D01*
X116892454Y-67770901D01*
X116912481Y-67788343D01*
X116974201Y-67819630D01*
X117126963Y-67880496D01*
X117189184Y-67909310D01*
X117234674Y-67940335D01*
X117271639Y-67977583D01*
X117299301Y-68019751D01*
X117317140Y-68069013D01*
X117328708Y-68126692D01*
X117336572Y-68262956D01*
X117332004Y-68349405D01*
X117318877Y-68426830D01*
X117295281Y-68497972D01*
X117262029Y-68555229D01*
X117214849Y-68603872D01*
X117153976Y-68641569D01*
X117082698Y-68664553D01*
X116991127Y-68672942D01*
X116920426Y-68666467D01*
X116855719Y-68647467D01*
X116796969Y-68616760D01*
X116747752Y-68576771D01*
X116707455Y-68528193D01*
X116676201Y-68471881D01*
X116656449Y-68409954D01*
X116649700Y-68341431D01*
X116649700Y-68266888D01*
X116849650Y-68266888D01*
X116849650Y-68329719D01*
X116857749Y-68381865D01*
X116882048Y-68428711D01*
X116906940Y-68452180D01*
X116942089Y-68467217D01*
X116991127Y-68472821D01*
X117039103Y-68468674D01*
X117070799Y-68458118D01*
X117096117Y-68440196D01*
X117114995Y-68415974D01*
X117127295Y-68386558D01*
X117133631Y-68350236D01*
X117136623Y-68264922D01*
X117132690Y-68174735D01*
X117126430Y-68141479D01*
X117117047Y-68117802D01*
X117101168Y-68098288D01*
X117080801Y-68082582D01*
X117021047Y-68053090D01*
X116878116Y-67994191D01*
X116796816Y-67952177D01*
X116740753Y-67905439D01*
X116704667Y-67853995D01*
X116681175Y-67794203D01*
X116666067Y-67722098D01*
X116660642Y-67635239D01*
X116666106Y-67558253D01*
X116682185Y-67486239D01*
X116709523Y-67419731D01*
X116746811Y-67364679D01*
X116793096Y-67319166D01*
X116851616Y-67283212D01*
X116919282Y-67260822D01*
X117003437Y-67252779D01*
X117075520Y-67259826D01*
X117139615Y-67280306D01*
X117197596Y-67312433D01*
X117246386Y-67352882D01*
X117297183Y-67419874D01*
X117326681Y-67491058D01*
X117336572Y-67568561D01*
X117336572Y-67666698D01*
G37*
G36*
X117482666Y-68662000D02*
G01*
X117482666Y-67266884D01*
X118079009Y-67266884D01*
X118079009Y-67452900D01*
X117682615Y-67452900D01*
X117682615Y-67863228D01*
X118027034Y-67863228D01*
X118027034Y-68049243D01*
X117682615Y-68049243D01*
X117682615Y-68461879D01*
X118079009Y-68461879D01*
X118079009Y-68662000D01*
X117482666Y-68662000D01*
G37*
G36*
X118341363Y-68662000D02*
G01*
X118341363Y-67452900D01*
X118109100Y-67452900D01*
X118109100Y-67266884D01*
X118771096Y-67266884D01*
X118771096Y-67452900D01*
X118541312Y-67452900D01*
X118541312Y-68662000D01*
X118341363Y-68662000D01*
G37*
G36*
X115511302Y-58374700D02*
G01*
X115583070Y-58396120D01*
X115645331Y-58430758D01*
X115693688Y-58473997D01*
X115730516Y-58526272D01*
X115755237Y-58586068D01*
X115769176Y-58650299D01*
X115773873Y-58717544D01*
X115773873Y-58768236D01*
X115771466Y-58822464D01*
X115765068Y-58863638D01*
X115753925Y-58900872D01*
X115738995Y-58931855D01*
X115698594Y-58981295D01*
X115638208Y-59025375D01*
X115681148Y-59051580D01*
X115715021Y-59084216D01*
X115740876Y-59123854D01*
X115758106Y-59168478D01*
X115769610Y-59226488D01*
X115773873Y-59301064D01*
X115773873Y-59379882D01*
X115767454Y-59473008D01*
X115749622Y-59549464D01*
X115721877Y-59612186D01*
X115684798Y-59663521D01*
X115637413Y-59704150D01*
X115576477Y-59734756D01*
X115498796Y-59754703D01*
X115400218Y-59762000D01*
X115128290Y-59762000D01*
X115128290Y-59561879D01*
X115328240Y-59561879D01*
X115414750Y-59561879D01*
X115471974Y-59556881D01*
X115510152Y-59544098D01*
X115540582Y-59522590D01*
X115562298Y-59494602D01*
X115576296Y-59460883D01*
X115583925Y-59419461D01*
X115587858Y-59324487D01*
X115581959Y-59231565D01*
X115572813Y-59194136D01*
X115558365Y-59164374D01*
X115535361Y-59140455D01*
X115505194Y-59123769D01*
X115468934Y-59114531D01*
X115416717Y-59110946D01*
X115328240Y-59110946D01*
X115328240Y-59561879D01*
X115128290Y-59561879D01*
X115128290Y-58935872D01*
X115328240Y-58935872D01*
X115418683Y-58935872D01*
X115483443Y-58929154D01*
X115526199Y-58911844D01*
X115553407Y-58886035D01*
X115571345Y-58851021D01*
X115583357Y-58803665D01*
X115587858Y-58740454D01*
X115582865Y-58678868D01*
X115569538Y-58633202D01*
X115549475Y-58599745D01*
X115520295Y-58575502D01*
X115476034Y-58559190D01*
X115410818Y-58552900D01*
X115328240Y-58552900D01*
X115328240Y-58935872D01*
X115128290Y-58935872D01*
X115128290Y-58366884D01*
X115419794Y-58366884D01*
X115511302Y-58374700D01*
G37*
G36*
X116347090Y-58358125D02*
G01*
X116407488Y-58374407D01*
X116464571Y-58400840D01*
X116516310Y-58437153D01*
X116558458Y-58484950D01*
X116592734Y-58545035D01*
X116614472Y-58613056D01*
X116622140Y-58694035D01*
X116622140Y-59431685D01*
X116614333Y-59515791D01*
X116592734Y-59582652D01*
X116558481Y-59640715D01*
X116516310Y-59686602D01*
X116464443Y-59724487D01*
X116407488Y-59751399D01*
X116347094Y-59767617D01*
X116286954Y-59772942D01*
X116226740Y-59767615D01*
X116166334Y-59751399D01*
X116109721Y-59724399D01*
X116059478Y-59686602D01*
X116015781Y-59640573D01*
X115981089Y-59582652D01*
X115959489Y-59515791D01*
X115951682Y-59431685D01*
X115951682Y-58694035D01*
X116151631Y-58694035D01*
X116151631Y-59431685D01*
X116156678Y-59478280D01*
X116170370Y-59512917D01*
X116191809Y-59538542D01*
X116235443Y-59564164D01*
X116286954Y-59572821D01*
X116338391Y-59564168D01*
X116382013Y-59538542D01*
X116403452Y-59512917D01*
X116417144Y-59478280D01*
X116422191Y-59431685D01*
X116422191Y-58694035D01*
X116417142Y-58647443D01*
X116403449Y-58612838D01*
X116382013Y-58587265D01*
X116338385Y-58561573D01*
X116286954Y-58552900D01*
X116235449Y-58561576D01*
X116191809Y-58587265D01*
X116170373Y-58612838D01*
X116156680Y-58647443D01*
X116151631Y-58694035D01*
X115951682Y-58694035D01*
X115959350Y-58613056D01*
X115981089Y-58545035D01*
X116015807Y-58485092D01*
X116059478Y-58437153D01*
X116109590Y-58400930D01*
X116166334Y-58374407D01*
X116226743Y-58358127D01*
X116286954Y-58352779D01*
X116347090Y-58358125D01*
G37*
G36*
X117181424Y-58358125D02*
G01*
X117241821Y-58374407D01*
X117298904Y-58400840D01*
X117350644Y-58437153D01*
X117392792Y-58484950D01*
X117427067Y-58545035D01*
X117448806Y-58613056D01*
X117456474Y-58694035D01*
X117456474Y-59431685D01*
X117448667Y-59515791D01*
X117427067Y-59582652D01*
X117392814Y-59640715D01*
X117350644Y-59686602D01*
X117298777Y-59724487D01*
X117241821Y-59751399D01*
X117181427Y-59767617D01*
X117121287Y-59772942D01*
X117061073Y-59767615D01*
X117000668Y-59751399D01*
X116944055Y-59724399D01*
X116893812Y-59686602D01*
X116850114Y-59640573D01*
X116815422Y-59582652D01*
X116793822Y-59515791D01*
X116786015Y-59431685D01*
X116786015Y-58694035D01*
X116985965Y-58694035D01*
X116985965Y-59431685D01*
X116991011Y-59478280D01*
X117004704Y-59512917D01*
X117026143Y-59538542D01*
X117069776Y-59564164D01*
X117121287Y-59572821D01*
X117172725Y-59564168D01*
X117216347Y-59538542D01*
X117237786Y-59512917D01*
X117251478Y-59478280D01*
X117256525Y-59431685D01*
X117256525Y-58694035D01*
X117251476Y-58647443D01*
X117237782Y-58612838D01*
X117216347Y-58587265D01*
X117172718Y-58561573D01*
X117121287Y-58552900D01*
X117069783Y-58561576D01*
X117026143Y-58587265D01*
X117004707Y-58612838D01*
X116991013Y-58647443D01*
X116985965Y-58694035D01*
X116786015Y-58694035D01*
X116793684Y-58613056D01*
X116815422Y-58545035D01*
X116850141Y-58485092D01*
X116893812Y-58437153D01*
X116943923Y-58400930D01*
X117000668Y-58374407D01*
X117061077Y-58358127D01*
X117121287Y-58352779D01*
X117181424Y-58358125D01*
G37*
G36*
X117741823Y-59762000D02*
G01*
X117741823Y-58552900D01*
X117509560Y-58552900D01*
X117509560Y-58366884D01*
X118171556Y-58366884D01*
X118171556Y-58552900D01*
X117941772Y-58552900D01*
X117941772Y-59762000D01*
X117741823Y-59762000D01*
G37*
G36*
X79155600Y-34762000D02*
G01*
X79155600Y-33366884D01*
X79751944Y-33366884D01*
X79751944Y-33552900D01*
X79355550Y-33552900D01*
X79355550Y-33979641D01*
X79699969Y-33979641D01*
X79699969Y-34165656D01*
X79355550Y-34165656D01*
X79355550Y-34762000D01*
X79155600Y-34762000D01*
G37*
G36*
X79875042Y-34762000D02*
G01*
X79875042Y-33366884D01*
X80065246Y-33366884D01*
X80372907Y-34207458D01*
X80372907Y-33366884D01*
X80572856Y-33366884D01*
X80572856Y-34762000D01*
X80386499Y-34762000D01*
X80074991Y-33923392D01*
X80074991Y-34762000D01*
X79875042Y-34762000D01*
G37*
D12*
G36*
X97028790Y-70979727D02*
G01*
X97138227Y-71015008D01*
X97225505Y-71070533D01*
X97294612Y-71147070D01*
X97347023Y-71248319D01*
X97381492Y-71380457D01*
X97394207Y-71551573D01*
X97387547Y-71668274D01*
X97368855Y-71767198D01*
X97339619Y-71851015D01*
X97295223Y-71926251D01*
X97232241Y-71992229D01*
X97147766Y-72049706D01*
X97455757Y-72960000D01*
X97153384Y-72960000D01*
X96888503Y-72108080D01*
X96718510Y-72108080D01*
X96718510Y-72960000D01*
X96432868Y-72960000D01*
X96432868Y-71857976D01*
X96718510Y-71857976D01*
X96880076Y-71857976D01*
X96950956Y-71852089D01*
X96999877Y-71836849D01*
X97039917Y-71810856D01*
X97069609Y-71776277D01*
X97087945Y-71733825D01*
X97100261Y-71679068D01*
X97108565Y-71545345D01*
X97100261Y-71411622D01*
X97087388Y-71356648D01*
X97066800Y-71311482D01*
X97024984Y-71270274D01*
X96961045Y-71243122D01*
X96866154Y-71232714D01*
X96718510Y-71232714D01*
X96718510Y-71857976D01*
X96432868Y-71857976D01*
X96432868Y-70966978D01*
X96891189Y-70966978D01*
X97028790Y-70979727D01*
G37*
G36*
X97624773Y-72960000D02*
G01*
X97624773Y-70966978D01*
X98476692Y-70966978D01*
X98476692Y-71232714D01*
X97910415Y-71232714D01*
X97910415Y-71818897D01*
X98402442Y-71818897D01*
X98402442Y-72084633D01*
X97910415Y-72084633D01*
X97910415Y-72674113D01*
X98476692Y-72674113D01*
X98476692Y-72960000D01*
X97624773Y-72960000D01*
G37*
G36*
X99205072Y-70976537D02*
G01*
X99305525Y-71003162D01*
X99387913Y-71044902D01*
X99455373Y-71101434D01*
X99508807Y-71171838D01*
X99548381Y-71256669D01*
X99573600Y-71358844D01*
X99582623Y-71482086D01*
X99582623Y-72414239D01*
X99572608Y-72555489D01*
X99545146Y-72667878D01*
X99502959Y-72756936D01*
X99447069Y-72827009D01*
X99375771Y-72882806D01*
X99289255Y-72924148D01*
X99184390Y-72950537D01*
X99057135Y-72960000D01*
X98660362Y-72960000D01*
X98660362Y-72694263D01*
X98946004Y-72694263D01*
X99076919Y-72694263D01*
X99154361Y-72686378D01*
X99208967Y-72665528D01*
X99246789Y-72633813D01*
X99272772Y-72590461D01*
X99290318Y-72529183D01*
X99296981Y-72444159D01*
X99296981Y-71480010D01*
X99283898Y-71370672D01*
X99249598Y-71297316D01*
X99212925Y-71263558D01*
X99157757Y-71241247D01*
X99076919Y-71232714D01*
X98946004Y-71232714D01*
X98946004Y-72694263D01*
X98660362Y-72694263D01*
X98660362Y-70966978D01*
X99082414Y-70966978D01*
X99205072Y-70976537D01*
G37*
G36*
X84980027Y-70978143D02*
G01*
X85082554Y-71008743D01*
X85171497Y-71058226D01*
X85240579Y-71119996D01*
X85293191Y-71194674D01*
X85328506Y-71280097D01*
X85348419Y-71371856D01*
X85355129Y-71467920D01*
X85355129Y-71540338D01*
X85351690Y-71617807D01*
X85342550Y-71676625D01*
X85326632Y-71729817D01*
X85305303Y-71774078D01*
X85247588Y-71844708D01*
X85161322Y-71907679D01*
X85222665Y-71945114D01*
X85271054Y-71991738D01*
X85307990Y-72048363D01*
X85332604Y-72112112D01*
X85349039Y-72194983D01*
X85355129Y-72301521D01*
X85355129Y-72414117D01*
X85345959Y-72547155D01*
X85320485Y-72656378D01*
X85280849Y-72745980D01*
X85227878Y-72819316D01*
X85160186Y-72877358D01*
X85073134Y-72921080D01*
X84962161Y-72949577D01*
X84821336Y-72960000D01*
X84432868Y-72960000D01*
X84432868Y-72674113D01*
X84718510Y-72674113D01*
X84842096Y-72674113D01*
X84923844Y-72666973D01*
X84978384Y-72648712D01*
X85021856Y-72617986D01*
X85052878Y-72578004D01*
X85072876Y-72529833D01*
X85083775Y-72470659D01*
X85089392Y-72334982D01*
X85080966Y-72202236D01*
X85067901Y-72148767D01*
X85047260Y-72106249D01*
X85014397Y-72072079D01*
X84971301Y-72048241D01*
X84919501Y-72035045D01*
X84844905Y-72029923D01*
X84718510Y-72029923D01*
X84718510Y-72674113D01*
X84432868Y-72674113D01*
X84432868Y-71779818D01*
X84718510Y-71779818D01*
X84847714Y-71779818D01*
X84940229Y-71770220D01*
X85001309Y-71745492D01*
X85040177Y-71708621D01*
X85065803Y-71658601D01*
X85082963Y-71590951D01*
X85089392Y-71500648D01*
X85082261Y-71412669D01*
X85063221Y-71347432D01*
X85034560Y-71299637D01*
X84992875Y-71265003D01*
X84929645Y-71241700D01*
X84836479Y-71232714D01*
X84718510Y-71232714D01*
X84718510Y-71779818D01*
X84432868Y-71779818D01*
X84432868Y-70966978D01*
X84849302Y-70966978D01*
X84980027Y-70978143D01*
G37*
G36*
X85624773Y-72964518D02*
G01*
X85624773Y-70966978D01*
X85910415Y-70966978D01*
X85910415Y-72678632D01*
X86476692Y-72678632D01*
X86476692Y-72964518D01*
X85624773Y-72964518D01*
G37*
G36*
X87661514Y-72963907D02*
G01*
X87375872Y-72963907D01*
X87291852Y-72530132D01*
X86902651Y-72530132D01*
X86818754Y-72963907D01*
X86533112Y-72963907D01*
X86689039Y-72264396D01*
X86953087Y-72264396D01*
X87238729Y-72264396D01*
X87098656Y-71541437D01*
X87093039Y-71541437D01*
X86953087Y-72264396D01*
X86689039Y-72264396D01*
X86978244Y-70966978D01*
X87216259Y-70966978D01*
X87661514Y-72963907D01*
G37*
G36*
X88706140Y-72389937D02*
G01*
X88706140Y-72513279D01*
X88697346Y-72603597D01*
X88671214Y-72688401D01*
X88629611Y-72766576D01*
X88574860Y-72835436D01*
X88508222Y-72893145D01*
X88430757Y-72937773D01*
X88345697Y-72966062D01*
X88253436Y-72975631D01*
X88172333Y-72970107D01*
X88088450Y-72953161D01*
X88008927Y-72922330D01*
X87937630Y-72874637D01*
X87877322Y-72811673D01*
X87827233Y-72730411D01*
X87795678Y-72634744D01*
X87783879Y-72504853D01*
X87783879Y-71406371D01*
X87792411Y-71310919D01*
X87817341Y-71224288D01*
X87858147Y-71145440D01*
X87912473Y-71078597D01*
X87979344Y-71023918D01*
X88059141Y-70981877D01*
X88147681Y-70955835D01*
X88247819Y-70946828D01*
X88346426Y-70955558D01*
X88432322Y-70980629D01*
X88507898Y-71021391D01*
X88574860Y-71078597D01*
X88629280Y-71148334D01*
X88671214Y-71231249D01*
X88697220Y-71322358D01*
X88706140Y-71423224D01*
X88706140Y-71535331D01*
X88420498Y-71535331D01*
X88420498Y-71439954D01*
X88408425Y-71360918D01*
X88373115Y-71294385D01*
X88337767Y-71260085D01*
X88295795Y-71239767D01*
X88245010Y-71232714D01*
X88178139Y-71241200D01*
X88133350Y-71263565D01*
X88104326Y-71298538D01*
X88078925Y-71369777D01*
X88069521Y-71465233D01*
X88069521Y-72485314D01*
X88079448Y-72567052D01*
X88107135Y-72630882D01*
X88136923Y-72662235D01*
X88180265Y-72682248D01*
X88242201Y-72689745D01*
X88302041Y-72679975D01*
X88362002Y-72647735D01*
X88384232Y-72622019D01*
X88403646Y-72586064D01*
X88415927Y-72544009D01*
X88420498Y-72488122D01*
X88420498Y-72389937D01*
X88706140Y-72389937D01*
G37*
G36*
X88938660Y-72960000D02*
G01*
X88938660Y-70966978D01*
X89224302Y-70966978D01*
X89224302Y-71876660D01*
X89229919Y-71876660D01*
X89647086Y-70966978D01*
X89932728Y-70966978D01*
X89543527Y-71764797D01*
X90005512Y-72960000D01*
X89703140Y-72960000D01*
X89378297Y-72075474D01*
X89224302Y-72363803D01*
X89224302Y-72960000D01*
X88938660Y-72960000D01*
G37*
D11*
G36*
X79545897Y-67275809D02*
G01*
X79622503Y-67300506D01*
X79683598Y-67339373D01*
X79731972Y-67392949D01*
X79768660Y-67463823D01*
X79792788Y-67556320D01*
X79801689Y-67676101D01*
X79797027Y-67757791D01*
X79783942Y-67827038D01*
X79763477Y-67885710D01*
X79732400Y-67938375D01*
X79688312Y-67984560D01*
X79629180Y-68024794D01*
X79844774Y-68662000D01*
X79633113Y-68662000D01*
X79447696Y-68065656D01*
X79328701Y-68065656D01*
X79328701Y-68662000D01*
X79128751Y-68662000D01*
X79128751Y-67890583D01*
X79328701Y-67890583D01*
X79441797Y-67890583D01*
X79491413Y-67886462D01*
X79525658Y-67875794D01*
X79553686Y-67857599D01*
X79574470Y-67833393D01*
X79587305Y-67803677D01*
X79595927Y-67765347D01*
X79601740Y-67671741D01*
X79595927Y-67578135D01*
X79586915Y-67539654D01*
X79572504Y-67508038D01*
X79543233Y-67479191D01*
X79498475Y-67460186D01*
X79432052Y-67452900D01*
X79328701Y-67452900D01*
X79328701Y-67890583D01*
X79128751Y-67890583D01*
X79128751Y-67266884D01*
X79449576Y-67266884D01*
X79545897Y-67275809D01*
G37*
G36*
X79963085Y-68662000D02*
G01*
X79963085Y-67266884D01*
X80559428Y-67266884D01*
X80559428Y-67452900D01*
X80163034Y-67452900D01*
X80163034Y-67863228D01*
X80507453Y-67863228D01*
X80507453Y-68049243D01*
X80163034Y-68049243D01*
X80163034Y-68461879D01*
X80559428Y-68461879D01*
X80559428Y-68662000D01*
X79963085Y-68662000D01*
G37*
G36*
X81336572Y-67666698D02*
G01*
X81136623Y-67666698D01*
X81136623Y-67621562D01*
X81128253Y-67556518D01*
X81104309Y-67502908D01*
X81079025Y-67475927D01*
X81043950Y-67459086D01*
X80995658Y-67452900D01*
X80957165Y-67457159D01*
X80929151Y-67468629D01*
X80905991Y-67486375D01*
X80888032Y-67507781D01*
X80874946Y-67534705D01*
X80866490Y-67565654D01*
X80860592Y-67633273D01*
X80863498Y-67702003D01*
X80878287Y-67751071D01*
X80892454Y-67770901D01*
X80912481Y-67788343D01*
X80974201Y-67819630D01*
X81126963Y-67880496D01*
X81189184Y-67909310D01*
X81234674Y-67940335D01*
X81271639Y-67977583D01*
X81299301Y-68019751D01*
X81317140Y-68069013D01*
X81328708Y-68126692D01*
X81336572Y-68262956D01*
X81332004Y-68349405D01*
X81318877Y-68426830D01*
X81295281Y-68497972D01*
X81262029Y-68555229D01*
X81214849Y-68603872D01*
X81153976Y-68641569D01*
X81082698Y-68664553D01*
X80991127Y-68672942D01*
X80920426Y-68666467D01*
X80855719Y-68647467D01*
X80796969Y-68616760D01*
X80747752Y-68576771D01*
X80707455Y-68528193D01*
X80676201Y-68471881D01*
X80656449Y-68409954D01*
X80649700Y-68341431D01*
X80649700Y-68266888D01*
X80849650Y-68266888D01*
X80849650Y-68329719D01*
X80857749Y-68381865D01*
X80882048Y-68428711D01*
X80906940Y-68452180D01*
X80942089Y-68467217D01*
X80991127Y-68472821D01*
X81039103Y-68468674D01*
X81070799Y-68458118D01*
X81096117Y-68440196D01*
X81114995Y-68415974D01*
X81127295Y-68386558D01*
X81133631Y-68350236D01*
X81136623Y-68264922D01*
X81132690Y-68174735D01*
X81126430Y-68141479D01*
X81117047Y-68117802D01*
X81101168Y-68098288D01*
X81080801Y-68082582D01*
X81021047Y-68053090D01*
X80878116Y-67994191D01*
X80796816Y-67952177D01*
X80740753Y-67905439D01*
X80704667Y-67853995D01*
X80681175Y-67794203D01*
X80666067Y-67722098D01*
X80660642Y-67635239D01*
X80666106Y-67558253D01*
X80682185Y-67486239D01*
X80709523Y-67419731D01*
X80746811Y-67364679D01*
X80793096Y-67319166D01*
X80851616Y-67283212D01*
X80919282Y-67260822D01*
X81003437Y-67252779D01*
X81075520Y-67259826D01*
X81139615Y-67280306D01*
X81197596Y-67312433D01*
X81246386Y-67352882D01*
X81297183Y-67419874D01*
X81326681Y-67491058D01*
X81336572Y-67568561D01*
X81336572Y-67666698D01*
G37*
G36*
X81482666Y-68662000D02*
G01*
X81482666Y-67266884D01*
X82079009Y-67266884D01*
X82079009Y-67452900D01*
X81682615Y-67452900D01*
X81682615Y-67863228D01*
X82027034Y-67863228D01*
X82027034Y-68049243D01*
X81682615Y-68049243D01*
X81682615Y-68461879D01*
X82079009Y-68461879D01*
X82079009Y-68662000D01*
X81482666Y-68662000D01*
G37*
G36*
X82341363Y-68662000D02*
G01*
X82341363Y-67452900D01*
X82109100Y-67452900D01*
X82109100Y-67266884D01*
X82771096Y-67266884D01*
X82771096Y-67452900D01*
X82541312Y-67452900D01*
X82541312Y-68662000D01*
X82341363Y-68662000D01*
G37*
G36*
X79511302Y-58374700D02*
G01*
X79583070Y-58396120D01*
X79645331Y-58430758D01*
X79693688Y-58473997D01*
X79730516Y-58526272D01*
X79755237Y-58586068D01*
X79769176Y-58650299D01*
X79773873Y-58717544D01*
X79773873Y-58768236D01*
X79771466Y-58822464D01*
X79765068Y-58863638D01*
X79753925Y-58900872D01*
X79738995Y-58931855D01*
X79698594Y-58981295D01*
X79638208Y-59025375D01*
X79681148Y-59051580D01*
X79715021Y-59084216D01*
X79740876Y-59123854D01*
X79758106Y-59168478D01*
X79769610Y-59226488D01*
X79773873Y-59301064D01*
X79773873Y-59379882D01*
X79767454Y-59473008D01*
X79749622Y-59549464D01*
X79721877Y-59612186D01*
X79684798Y-59663521D01*
X79637413Y-59704150D01*
X79576477Y-59734756D01*
X79498796Y-59754703D01*
X79400218Y-59762000D01*
X79128290Y-59762000D01*
X79128290Y-59561879D01*
X79328240Y-59561879D01*
X79414750Y-59561879D01*
X79471974Y-59556881D01*
X79510152Y-59544098D01*
X79540582Y-59522590D01*
X79562298Y-59494602D01*
X79576296Y-59460883D01*
X79583925Y-59419461D01*
X79587858Y-59324487D01*
X79581959Y-59231565D01*
X79572813Y-59194136D01*
X79558365Y-59164374D01*
X79535361Y-59140455D01*
X79505194Y-59123769D01*
X79468934Y-59114531D01*
X79416717Y-59110946D01*
X79328240Y-59110946D01*
X79328240Y-59561879D01*
X79128290Y-59561879D01*
X79128290Y-58935872D01*
X79328240Y-58935872D01*
X79418683Y-58935872D01*
X79483443Y-58929154D01*
X79526199Y-58911844D01*
X79553407Y-58886035D01*
X79571345Y-58851021D01*
X79583357Y-58803665D01*
X79587858Y-58740454D01*
X79582865Y-58678868D01*
X79569538Y-58633202D01*
X79549475Y-58599745D01*
X79520295Y-58575502D01*
X79476034Y-58559190D01*
X79410818Y-58552900D01*
X79328240Y-58552900D01*
X79328240Y-58935872D01*
X79128290Y-58935872D01*
X79128290Y-58366884D01*
X79419794Y-58366884D01*
X79511302Y-58374700D01*
G37*
G36*
X80347090Y-58358125D02*
G01*
X80407488Y-58374407D01*
X80464571Y-58400840D01*
X80516310Y-58437153D01*
X80558458Y-58484950D01*
X80592734Y-58545035D01*
X80614472Y-58613056D01*
X80622140Y-58694035D01*
X80622140Y-59431685D01*
X80614333Y-59515791D01*
X80592734Y-59582652D01*
X80558481Y-59640715D01*
X80516310Y-59686602D01*
X80464443Y-59724487D01*
X80407488Y-59751399D01*
X80347094Y-59767617D01*
X80286954Y-59772942D01*
X80226740Y-59767615D01*
X80166334Y-59751399D01*
X80109721Y-59724399D01*
X80059478Y-59686602D01*
X80015781Y-59640573D01*
X79981089Y-59582652D01*
X79959489Y-59515791D01*
X79951682Y-59431685D01*
X79951682Y-58694035D01*
X80151631Y-58694035D01*
X80151631Y-59431685D01*
X80156678Y-59478280D01*
X80170370Y-59512917D01*
X80191809Y-59538542D01*
X80235443Y-59564164D01*
X80286954Y-59572821D01*
X80338391Y-59564168D01*
X80382013Y-59538542D01*
X80403452Y-59512917D01*
X80417144Y-59478280D01*
X80422191Y-59431685D01*
X80422191Y-58694035D01*
X80417142Y-58647443D01*
X80403449Y-58612838D01*
X80382013Y-58587265D01*
X80338385Y-58561573D01*
X80286954Y-58552900D01*
X80235449Y-58561576D01*
X80191809Y-58587265D01*
X80170373Y-58612838D01*
X80156680Y-58647443D01*
X80151631Y-58694035D01*
X79951682Y-58694035D01*
X79959350Y-58613056D01*
X79981089Y-58545035D01*
X80015807Y-58485092D01*
X80059478Y-58437153D01*
X80109590Y-58400930D01*
X80166334Y-58374407D01*
X80226743Y-58358127D01*
X80286954Y-58352779D01*
X80347090Y-58358125D01*
G37*
G36*
X81181424Y-58358125D02*
G01*
X81241821Y-58374407D01*
X81298904Y-58400840D01*
X81350644Y-58437153D01*
X81392792Y-58484950D01*
X81427067Y-58545035D01*
X81448806Y-58613056D01*
X81456474Y-58694035D01*
X81456474Y-59431685D01*
X81448667Y-59515791D01*
X81427067Y-59582652D01*
X81392814Y-59640715D01*
X81350644Y-59686602D01*
X81298777Y-59724487D01*
X81241821Y-59751399D01*
X81181427Y-59767617D01*
X81121287Y-59772942D01*
X81061073Y-59767615D01*
X81000668Y-59751399D01*
X80944055Y-59724399D01*
X80893812Y-59686602D01*
X80850114Y-59640573D01*
X80815422Y-59582652D01*
X80793822Y-59515791D01*
X80786015Y-59431685D01*
X80786015Y-58694035D01*
X80985965Y-58694035D01*
X80985965Y-59431685D01*
X80991011Y-59478280D01*
X81004704Y-59512917D01*
X81026143Y-59538542D01*
X81069776Y-59564164D01*
X81121287Y-59572821D01*
X81172725Y-59564168D01*
X81216347Y-59538542D01*
X81237786Y-59512917D01*
X81251478Y-59478280D01*
X81256525Y-59431685D01*
X81256525Y-58694035D01*
X81251476Y-58647443D01*
X81237782Y-58612838D01*
X81216347Y-58587265D01*
X81172718Y-58561573D01*
X81121287Y-58552900D01*
X81069783Y-58561576D01*
X81026143Y-58587265D01*
X81004707Y-58612838D01*
X80991013Y-58647443D01*
X80985965Y-58694035D01*
X80786015Y-58694035D01*
X80793684Y-58613056D01*
X80815422Y-58545035D01*
X80850141Y-58485092D01*
X80893812Y-58437153D01*
X80943923Y-58400930D01*
X81000668Y-58374407D01*
X81061077Y-58358127D01*
X81121287Y-58352779D01*
X81181424Y-58358125D01*
G37*
G36*
X81741823Y-59762000D02*
G01*
X81741823Y-58552900D01*
X81509560Y-58552900D01*
X81509560Y-58366884D01*
X82171556Y-58366884D01*
X82171556Y-58552900D01*
X81941772Y-58552900D01*
X81941772Y-59762000D01*
X81741823Y-59762000D01*
G37*
G36*
X43155600Y-34762000D02*
G01*
X43155600Y-33366884D01*
X43751944Y-33366884D01*
X43751944Y-33552900D01*
X43355550Y-33552900D01*
X43355550Y-33979641D01*
X43699969Y-33979641D01*
X43699969Y-34165656D01*
X43355550Y-34165656D01*
X43355550Y-34762000D01*
X43155600Y-34762000D01*
G37*
G36*
X43875042Y-34762000D02*
G01*
X43875042Y-33366884D01*
X44065246Y-33366884D01*
X44372907Y-34207458D01*
X44372907Y-33366884D01*
X44572856Y-33366884D01*
X44572856Y-34762000D01*
X44386499Y-34762000D01*
X44074991Y-33923392D01*
X44074991Y-34762000D01*
X43875042Y-34762000D01*
G37*
D12*
G36*
X61028790Y-70979727D02*
G01*
X61138227Y-71015008D01*
X61225505Y-71070533D01*
X61294612Y-71147070D01*
X61347023Y-71248319D01*
X61381492Y-71380457D01*
X61394207Y-71551573D01*
X61387547Y-71668274D01*
X61368855Y-71767198D01*
X61339619Y-71851015D01*
X61295223Y-71926251D01*
X61232241Y-71992229D01*
X61147766Y-72049706D01*
X61455757Y-72960000D01*
X61153384Y-72960000D01*
X60888503Y-72108080D01*
X60718510Y-72108080D01*
X60718510Y-72960000D01*
X60432868Y-72960000D01*
X60432868Y-71857976D01*
X60718510Y-71857976D01*
X60880076Y-71857976D01*
X60950956Y-71852089D01*
X60999877Y-71836849D01*
X61039917Y-71810856D01*
X61069609Y-71776277D01*
X61087945Y-71733825D01*
X61100261Y-71679068D01*
X61108565Y-71545345D01*
X61100261Y-71411622D01*
X61087388Y-71356648D01*
X61066800Y-71311482D01*
X61024984Y-71270274D01*
X60961045Y-71243122D01*
X60866154Y-71232714D01*
X60718510Y-71232714D01*
X60718510Y-71857976D01*
X60432868Y-71857976D01*
X60432868Y-70966978D01*
X60891189Y-70966978D01*
X61028790Y-70979727D01*
G37*
G36*
X61624773Y-72960000D02*
G01*
X61624773Y-70966978D01*
X62476692Y-70966978D01*
X62476692Y-71232714D01*
X61910415Y-71232714D01*
X61910415Y-71818897D01*
X62402442Y-71818897D01*
X62402442Y-72084633D01*
X61910415Y-72084633D01*
X61910415Y-72674113D01*
X62476692Y-72674113D01*
X62476692Y-72960000D01*
X61624773Y-72960000D01*
G37*
G36*
X63205072Y-70976537D02*
G01*
X63305525Y-71003162D01*
X63387913Y-71044902D01*
X63455373Y-71101434D01*
X63508807Y-71171838D01*
X63548381Y-71256669D01*
X63573600Y-71358844D01*
X63582623Y-71482086D01*
X63582623Y-72414239D01*
X63572608Y-72555489D01*
X63545146Y-72667878D01*
X63502959Y-72756936D01*
X63447069Y-72827009D01*
X63375771Y-72882806D01*
X63289255Y-72924148D01*
X63184390Y-72950537D01*
X63057135Y-72960000D01*
X62660362Y-72960000D01*
X62660362Y-72694263D01*
X62946004Y-72694263D01*
X63076919Y-72694263D01*
X63154361Y-72686378D01*
X63208967Y-72665528D01*
X63246789Y-72633813D01*
X63272772Y-72590461D01*
X63290318Y-72529183D01*
X63296981Y-72444159D01*
X63296981Y-71480010D01*
X63283898Y-71370672D01*
X63249598Y-71297316D01*
X63212925Y-71263558D01*
X63157757Y-71241247D01*
X63076919Y-71232714D01*
X62946004Y-71232714D01*
X62946004Y-72694263D01*
X62660362Y-72694263D01*
X62660362Y-70966978D01*
X63082414Y-70966978D01*
X63205072Y-70976537D01*
G37*
G36*
X48980027Y-70978143D02*
G01*
X49082554Y-71008743D01*
X49171497Y-71058226D01*
X49240579Y-71119996D01*
X49293191Y-71194674D01*
X49328506Y-71280097D01*
X49348419Y-71371856D01*
X49355129Y-71467920D01*
X49355129Y-71540338D01*
X49351690Y-71617807D01*
X49342550Y-71676625D01*
X49326632Y-71729817D01*
X49305303Y-71774078D01*
X49247588Y-71844708D01*
X49161322Y-71907679D01*
X49222665Y-71945114D01*
X49271054Y-71991738D01*
X49307990Y-72048363D01*
X49332604Y-72112112D01*
X49349039Y-72194983D01*
X49355129Y-72301521D01*
X49355129Y-72414117D01*
X49345959Y-72547155D01*
X49320485Y-72656378D01*
X49280849Y-72745980D01*
X49227878Y-72819316D01*
X49160186Y-72877358D01*
X49073134Y-72921080D01*
X48962161Y-72949577D01*
X48821336Y-72960000D01*
X48432868Y-72960000D01*
X48432868Y-72674113D01*
X48718510Y-72674113D01*
X48842096Y-72674113D01*
X48923844Y-72666973D01*
X48978384Y-72648712D01*
X49021856Y-72617986D01*
X49052878Y-72578004D01*
X49072876Y-72529833D01*
X49083775Y-72470659D01*
X49089392Y-72334982D01*
X49080966Y-72202236D01*
X49067901Y-72148767D01*
X49047260Y-72106249D01*
X49014397Y-72072079D01*
X48971301Y-72048241D01*
X48919501Y-72035045D01*
X48844905Y-72029923D01*
X48718510Y-72029923D01*
X48718510Y-72674113D01*
X48432868Y-72674113D01*
X48432868Y-71779818D01*
X48718510Y-71779818D01*
X48847714Y-71779818D01*
X48940229Y-71770220D01*
X49001309Y-71745492D01*
X49040177Y-71708621D01*
X49065803Y-71658601D01*
X49082963Y-71590951D01*
X49089392Y-71500648D01*
X49082261Y-71412669D01*
X49063221Y-71347432D01*
X49034560Y-71299637D01*
X48992875Y-71265003D01*
X48929645Y-71241700D01*
X48836479Y-71232714D01*
X48718510Y-71232714D01*
X48718510Y-71779818D01*
X48432868Y-71779818D01*
X48432868Y-70966978D01*
X48849302Y-70966978D01*
X48980027Y-70978143D01*
G37*
G36*
X49624773Y-72964518D02*
G01*
X49624773Y-70966978D01*
X49910415Y-70966978D01*
X49910415Y-72678632D01*
X50476692Y-72678632D01*
X50476692Y-72964518D01*
X49624773Y-72964518D01*
G37*
G36*
X51661514Y-72963907D02*
G01*
X51375872Y-72963907D01*
X51291852Y-72530132D01*
X50902651Y-72530132D01*
X50818754Y-72963907D01*
X50533112Y-72963907D01*
X50689039Y-72264396D01*
X50953087Y-72264396D01*
X51238729Y-72264396D01*
X51098656Y-71541437D01*
X51093039Y-71541437D01*
X50953087Y-72264396D01*
X50689039Y-72264396D01*
X50978244Y-70966978D01*
X51216259Y-70966978D01*
X51661514Y-72963907D01*
G37*
G36*
X52706140Y-72389937D02*
G01*
X52706140Y-72513279D01*
X52697346Y-72603597D01*
X52671214Y-72688401D01*
X52629611Y-72766576D01*
X52574860Y-72835436D01*
X52508222Y-72893145D01*
X52430757Y-72937773D01*
X52345697Y-72966062D01*
X52253436Y-72975631D01*
X52172333Y-72970107D01*
X52088450Y-72953161D01*
X52008927Y-72922330D01*
X51937630Y-72874637D01*
X51877322Y-72811673D01*
X51827233Y-72730411D01*
X51795678Y-72634744D01*
X51783879Y-72504853D01*
X51783879Y-71406371D01*
X51792411Y-71310919D01*
X51817341Y-71224288D01*
X51858147Y-71145440D01*
X51912473Y-71078597D01*
X51979344Y-71023918D01*
X52059141Y-70981877D01*
X52147681Y-70955835D01*
X52247819Y-70946828D01*
X52346426Y-70955558D01*
X52432322Y-70980629D01*
X52507898Y-71021391D01*
X52574860Y-71078597D01*
X52629280Y-71148334D01*
X52671214Y-71231249D01*
X52697220Y-71322358D01*
X52706140Y-71423224D01*
X52706140Y-71535331D01*
X52420498Y-71535331D01*
X52420498Y-71439954D01*
X52408425Y-71360918D01*
X52373115Y-71294385D01*
X52337767Y-71260085D01*
X52295795Y-71239767D01*
X52245010Y-71232714D01*
X52178139Y-71241200D01*
X52133350Y-71263565D01*
X52104326Y-71298538D01*
X52078925Y-71369777D01*
X52069521Y-71465233D01*
X52069521Y-72485314D01*
X52079448Y-72567052D01*
X52107135Y-72630882D01*
X52136923Y-72662235D01*
X52180265Y-72682248D01*
X52242201Y-72689745D01*
X52302041Y-72679975D01*
X52362002Y-72647735D01*
X52384232Y-72622019D01*
X52403646Y-72586064D01*
X52415927Y-72544009D01*
X52420498Y-72488122D01*
X52420498Y-72389937D01*
X52706140Y-72389937D01*
G37*
G36*
X52938660Y-72960000D02*
G01*
X52938660Y-70966978D01*
X53224302Y-70966978D01*
X53224302Y-71876660D01*
X53229919Y-71876660D01*
X53647086Y-70966978D01*
X53932728Y-70966978D01*
X53543527Y-71764797D01*
X54005512Y-72960000D01*
X53703140Y-72960000D01*
X53378297Y-72075474D01*
X53224302Y-72363803D01*
X53224302Y-72960000D01*
X52938660Y-72960000D01*
G37*
D11*
G36*
X43545897Y-67275809D02*
G01*
X43622503Y-67300506D01*
X43683598Y-67339373D01*
X43731972Y-67392949D01*
X43768660Y-67463823D01*
X43792788Y-67556320D01*
X43801689Y-67676101D01*
X43797027Y-67757791D01*
X43783942Y-67827038D01*
X43763477Y-67885710D01*
X43732400Y-67938375D01*
X43688312Y-67984560D01*
X43629180Y-68024794D01*
X43844774Y-68662000D01*
X43633113Y-68662000D01*
X43447696Y-68065656D01*
X43328701Y-68065656D01*
X43328701Y-68662000D01*
X43128751Y-68662000D01*
X43128751Y-67890583D01*
X43328701Y-67890583D01*
X43441797Y-67890583D01*
X43491413Y-67886462D01*
X43525658Y-67875794D01*
X43553686Y-67857599D01*
X43574470Y-67833393D01*
X43587305Y-67803677D01*
X43595927Y-67765347D01*
X43601740Y-67671741D01*
X43595927Y-67578135D01*
X43586915Y-67539654D01*
X43572504Y-67508038D01*
X43543233Y-67479191D01*
X43498475Y-67460186D01*
X43432052Y-67452900D01*
X43328701Y-67452900D01*
X43328701Y-67890583D01*
X43128751Y-67890583D01*
X43128751Y-67266884D01*
X43449576Y-67266884D01*
X43545897Y-67275809D01*
G37*
G36*
X43963085Y-68662000D02*
G01*
X43963085Y-67266884D01*
X44559428Y-67266884D01*
X44559428Y-67452900D01*
X44163034Y-67452900D01*
X44163034Y-67863228D01*
X44507453Y-67863228D01*
X44507453Y-68049243D01*
X44163034Y-68049243D01*
X44163034Y-68461879D01*
X44559428Y-68461879D01*
X44559428Y-68662000D01*
X43963085Y-68662000D01*
G37*
G36*
X45336572Y-67666698D02*
G01*
X45136623Y-67666698D01*
X45136623Y-67621562D01*
X45128253Y-67556518D01*
X45104309Y-67502908D01*
X45079025Y-67475927D01*
X45043950Y-67459086D01*
X44995658Y-67452900D01*
X44957165Y-67457159D01*
X44929151Y-67468629D01*
X44905991Y-67486375D01*
X44888032Y-67507781D01*
X44874946Y-67534705D01*
X44866490Y-67565654D01*
X44860592Y-67633273D01*
X44863498Y-67702003D01*
X44878287Y-67751071D01*
X44892454Y-67770901D01*
X44912481Y-67788343D01*
X44974201Y-67819630D01*
X45126963Y-67880496D01*
X45189184Y-67909310D01*
X45234674Y-67940335D01*
X45271639Y-67977583D01*
X45299301Y-68019751D01*
X45317140Y-68069013D01*
X45328708Y-68126692D01*
X45336572Y-68262956D01*
X45332004Y-68349405D01*
X45318877Y-68426830D01*
X45295281Y-68497972D01*
X45262029Y-68555229D01*
X45214849Y-68603872D01*
X45153976Y-68641569D01*
X45082698Y-68664553D01*
X44991127Y-68672942D01*
X44920426Y-68666467D01*
X44855719Y-68647467D01*
X44796969Y-68616760D01*
X44747752Y-68576771D01*
X44707455Y-68528193D01*
X44676201Y-68471881D01*
X44656449Y-68409954D01*
X44649700Y-68341431D01*
X44649700Y-68266888D01*
X44849650Y-68266888D01*
X44849650Y-68329719D01*
X44857749Y-68381865D01*
X44882048Y-68428711D01*
X44906940Y-68452180D01*
X44942089Y-68467217D01*
X44991127Y-68472821D01*
X45039103Y-68468674D01*
X45070799Y-68458118D01*
X45096117Y-68440196D01*
X45114995Y-68415974D01*
X45127295Y-68386558D01*
X45133631Y-68350236D01*
X45136623Y-68264922D01*
X45132690Y-68174735D01*
X45126430Y-68141479D01*
X45117047Y-68117802D01*
X45101168Y-68098288D01*
X45080801Y-68082582D01*
X45021047Y-68053090D01*
X44878116Y-67994191D01*
X44796816Y-67952177D01*
X44740753Y-67905439D01*
X44704667Y-67853995D01*
X44681175Y-67794203D01*
X44666067Y-67722098D01*
X44660642Y-67635239D01*
X44666106Y-67558253D01*
X44682185Y-67486239D01*
X44709523Y-67419731D01*
X44746811Y-67364679D01*
X44793096Y-67319166D01*
X44851616Y-67283212D01*
X44919282Y-67260822D01*
X45003437Y-67252779D01*
X45075520Y-67259826D01*
X45139615Y-67280306D01*
X45197596Y-67312433D01*
X45246386Y-67352882D01*
X45297183Y-67419874D01*
X45326681Y-67491058D01*
X45336572Y-67568561D01*
X45336572Y-67666698D01*
G37*
G36*
X45482666Y-68662000D02*
G01*
X45482666Y-67266884D01*
X46079009Y-67266884D01*
X46079009Y-67452900D01*
X45682615Y-67452900D01*
X45682615Y-67863228D01*
X46027034Y-67863228D01*
X46027034Y-68049243D01*
X45682615Y-68049243D01*
X45682615Y-68461879D01*
X46079009Y-68461879D01*
X46079009Y-68662000D01*
X45482666Y-68662000D01*
G37*
G36*
X46341363Y-68662000D02*
G01*
X46341363Y-67452900D01*
X46109100Y-67452900D01*
X46109100Y-67266884D01*
X46771096Y-67266884D01*
X46771096Y-67452900D01*
X46541312Y-67452900D01*
X46541312Y-68662000D01*
X46341363Y-68662000D01*
G37*
G36*
X43511302Y-58374700D02*
G01*
X43583070Y-58396120D01*
X43645331Y-58430758D01*
X43693688Y-58473997D01*
X43730516Y-58526272D01*
X43755237Y-58586068D01*
X43769176Y-58650299D01*
X43773873Y-58717544D01*
X43773873Y-58768236D01*
X43771466Y-58822464D01*
X43765068Y-58863638D01*
X43753925Y-58900872D01*
X43738995Y-58931855D01*
X43698594Y-58981295D01*
X43638208Y-59025375D01*
X43681148Y-59051580D01*
X43715021Y-59084216D01*
X43740876Y-59123854D01*
X43758106Y-59168478D01*
X43769610Y-59226488D01*
X43773873Y-59301064D01*
X43773873Y-59379882D01*
X43767454Y-59473008D01*
X43749622Y-59549464D01*
X43721877Y-59612186D01*
X43684798Y-59663521D01*
X43637413Y-59704150D01*
X43576477Y-59734756D01*
X43498796Y-59754703D01*
X43400218Y-59762000D01*
X43128290Y-59762000D01*
X43128290Y-59561879D01*
X43328240Y-59561879D01*
X43414750Y-59561879D01*
X43471974Y-59556881D01*
X43510152Y-59544098D01*
X43540582Y-59522590D01*
X43562298Y-59494602D01*
X43576296Y-59460883D01*
X43583925Y-59419461D01*
X43587858Y-59324487D01*
X43581959Y-59231565D01*
X43572813Y-59194136D01*
X43558365Y-59164374D01*
X43535361Y-59140455D01*
X43505194Y-59123769D01*
X43468934Y-59114531D01*
X43416717Y-59110946D01*
X43328240Y-59110946D01*
X43328240Y-59561879D01*
X43128290Y-59561879D01*
X43128290Y-58935872D01*
X43328240Y-58935872D01*
X43418683Y-58935872D01*
X43483443Y-58929154D01*
X43526199Y-58911844D01*
X43553407Y-58886035D01*
X43571345Y-58851021D01*
X43583357Y-58803665D01*
X43587858Y-58740454D01*
X43582865Y-58678868D01*
X43569538Y-58633202D01*
X43549475Y-58599745D01*
X43520295Y-58575502D01*
X43476034Y-58559190D01*
X43410818Y-58552900D01*
X43328240Y-58552900D01*
X43328240Y-58935872D01*
X43128290Y-58935872D01*
X43128290Y-58366884D01*
X43419794Y-58366884D01*
X43511302Y-58374700D01*
G37*
G36*
X44347090Y-58358125D02*
G01*
X44407488Y-58374407D01*
X44464571Y-58400840D01*
X44516310Y-58437153D01*
X44558458Y-58484950D01*
X44592734Y-58545035D01*
X44614472Y-58613056D01*
X44622140Y-58694035D01*
X44622140Y-59431685D01*
X44614333Y-59515791D01*
X44592734Y-59582652D01*
X44558481Y-59640715D01*
X44516310Y-59686602D01*
X44464443Y-59724487D01*
X44407488Y-59751399D01*
X44347094Y-59767617D01*
X44286954Y-59772942D01*
X44226740Y-59767615D01*
X44166334Y-59751399D01*
X44109721Y-59724399D01*
X44059478Y-59686602D01*
X44015781Y-59640573D01*
X43981089Y-59582652D01*
X43959489Y-59515791D01*
X43951682Y-59431685D01*
X43951682Y-58694035D01*
X44151631Y-58694035D01*
X44151631Y-59431685D01*
X44156678Y-59478280D01*
X44170370Y-59512917D01*
X44191809Y-59538542D01*
X44235443Y-59564164D01*
X44286954Y-59572821D01*
X44338391Y-59564168D01*
X44382013Y-59538542D01*
X44403452Y-59512917D01*
X44417144Y-59478280D01*
X44422191Y-59431685D01*
X44422191Y-58694035D01*
X44417142Y-58647443D01*
X44403449Y-58612838D01*
X44382013Y-58587265D01*
X44338385Y-58561573D01*
X44286954Y-58552900D01*
X44235449Y-58561576D01*
X44191809Y-58587265D01*
X44170373Y-58612838D01*
X44156680Y-58647443D01*
X44151631Y-58694035D01*
X43951682Y-58694035D01*
X43959350Y-58613056D01*
X43981089Y-58545035D01*
X44015807Y-58485092D01*
X44059478Y-58437153D01*
X44109590Y-58400930D01*
X44166334Y-58374407D01*
X44226743Y-58358127D01*
X44286954Y-58352779D01*
X44347090Y-58358125D01*
G37*
G36*
X45181424Y-58358125D02*
G01*
X45241821Y-58374407D01*
X45298904Y-58400840D01*
X45350644Y-58437153D01*
X45392792Y-58484950D01*
X45427067Y-58545035D01*
X45448806Y-58613056D01*
X45456474Y-58694035D01*
X45456474Y-59431685D01*
X45448667Y-59515791D01*
X45427067Y-59582652D01*
X45392814Y-59640715D01*
X45350644Y-59686602D01*
X45298777Y-59724487D01*
X45241821Y-59751399D01*
X45181427Y-59767617D01*
X45121287Y-59772942D01*
X45061073Y-59767615D01*
X45000668Y-59751399D01*
X44944055Y-59724399D01*
X44893812Y-59686602D01*
X44850114Y-59640573D01*
X44815422Y-59582652D01*
X44793822Y-59515791D01*
X44786015Y-59431685D01*
X44786015Y-58694035D01*
X44985965Y-58694035D01*
X44985965Y-59431685D01*
X44991011Y-59478280D01*
X45004704Y-59512917D01*
X45026143Y-59538542D01*
X45069776Y-59564164D01*
X45121287Y-59572821D01*
X45172725Y-59564168D01*
X45216347Y-59538542D01*
X45237786Y-59512917D01*
X45251478Y-59478280D01*
X45256525Y-59431685D01*
X45256525Y-58694035D01*
X45251476Y-58647443D01*
X45237782Y-58612838D01*
X45216347Y-58587265D01*
X45172718Y-58561573D01*
X45121287Y-58552900D01*
X45069783Y-58561576D01*
X45026143Y-58587265D01*
X45004707Y-58612838D01*
X44991013Y-58647443D01*
X44985965Y-58694035D01*
X44786015Y-58694035D01*
X44793684Y-58613056D01*
X44815422Y-58545035D01*
X44850141Y-58485092D01*
X44893812Y-58437153D01*
X44943923Y-58400930D01*
X45000668Y-58374407D01*
X45061077Y-58358127D01*
X45121287Y-58352779D01*
X45181424Y-58358125D01*
G37*
G36*
X45741823Y-59762000D02*
G01*
X45741823Y-58552900D01*
X45509560Y-58552900D01*
X45509560Y-58366884D01*
X46171556Y-58366884D01*
X46171556Y-58552900D01*
X45941772Y-58552900D01*
X45941772Y-59762000D01*
X45741823Y-59762000D01*
G37*
G36*
X7155600Y-34762000D02*
G01*
X7155600Y-33366884D01*
X7751944Y-33366884D01*
X7751944Y-33552900D01*
X7355550Y-33552900D01*
X7355550Y-33979641D01*
X7699969Y-33979641D01*
X7699969Y-34165656D01*
X7355550Y-34165656D01*
X7355550Y-34762000D01*
X7155600Y-34762000D01*
G37*
G36*
X7875042Y-34762000D02*
G01*
X7875042Y-33366884D01*
X8065246Y-33366884D01*
X8372907Y-34207458D01*
X8372907Y-33366884D01*
X8572856Y-33366884D01*
X8572856Y-34762000D01*
X8386499Y-34762000D01*
X8074991Y-33923392D01*
X8074991Y-34762000D01*
X7875042Y-34762000D01*
G37*
D12*
G36*
X25028790Y-70979727D02*
G01*
X25138227Y-71015008D01*
X25225505Y-71070533D01*
X25294612Y-71147070D01*
X25347023Y-71248319D01*
X25381492Y-71380457D01*
X25394207Y-71551573D01*
X25387547Y-71668274D01*
X25368855Y-71767198D01*
X25339619Y-71851015D01*
X25295223Y-71926251D01*
X25232241Y-71992229D01*
X25147766Y-72049706D01*
X25455757Y-72960000D01*
X25153384Y-72960000D01*
X24888503Y-72108080D01*
X24718510Y-72108080D01*
X24718510Y-72960000D01*
X24432868Y-72960000D01*
X24432868Y-71857976D01*
X24718510Y-71857976D01*
X24880076Y-71857976D01*
X24950956Y-71852089D01*
X24999877Y-71836849D01*
X25039917Y-71810856D01*
X25069609Y-71776277D01*
X25087945Y-71733825D01*
X25100261Y-71679068D01*
X25108565Y-71545345D01*
X25100261Y-71411622D01*
X25087388Y-71356648D01*
X25066800Y-71311482D01*
X25024984Y-71270274D01*
X24961045Y-71243122D01*
X24866154Y-71232714D01*
X24718510Y-71232714D01*
X24718510Y-71857976D01*
X24432868Y-71857976D01*
X24432868Y-70966978D01*
X24891189Y-70966978D01*
X25028790Y-70979727D01*
G37*
G36*
X25624773Y-72960000D02*
G01*
X25624773Y-70966978D01*
X26476692Y-70966978D01*
X26476692Y-71232714D01*
X25910415Y-71232714D01*
X25910415Y-71818897D01*
X26402442Y-71818897D01*
X26402442Y-72084633D01*
X25910415Y-72084633D01*
X25910415Y-72674113D01*
X26476692Y-72674113D01*
X26476692Y-72960000D01*
X25624773Y-72960000D01*
G37*
G36*
X27205072Y-70976537D02*
G01*
X27305525Y-71003162D01*
X27387913Y-71044902D01*
X27455373Y-71101434D01*
X27508807Y-71171838D01*
X27548381Y-71256669D01*
X27573600Y-71358844D01*
X27582623Y-71482086D01*
X27582623Y-72414239D01*
X27572608Y-72555489D01*
X27545146Y-72667878D01*
X27502959Y-72756936D01*
X27447069Y-72827009D01*
X27375771Y-72882806D01*
X27289255Y-72924148D01*
X27184390Y-72950537D01*
X27057135Y-72960000D01*
X26660362Y-72960000D01*
X26660362Y-72694263D01*
X26946004Y-72694263D01*
X27076919Y-72694263D01*
X27154361Y-72686378D01*
X27208967Y-72665528D01*
X27246789Y-72633813D01*
X27272772Y-72590461D01*
X27290318Y-72529183D01*
X27296981Y-72444159D01*
X27296981Y-71480010D01*
X27283898Y-71370672D01*
X27249598Y-71297316D01*
X27212925Y-71263558D01*
X27157757Y-71241247D01*
X27076919Y-71232714D01*
X26946004Y-71232714D01*
X26946004Y-72694263D01*
X26660362Y-72694263D01*
X26660362Y-70966978D01*
X27082414Y-70966978D01*
X27205072Y-70976537D01*
G37*
G36*
X12980027Y-70978143D02*
G01*
X13082554Y-71008743D01*
X13171497Y-71058226D01*
X13240579Y-71119996D01*
X13293191Y-71194674D01*
X13328506Y-71280097D01*
X13348419Y-71371856D01*
X13355129Y-71467920D01*
X13355129Y-71540338D01*
X13351690Y-71617807D01*
X13342550Y-71676625D01*
X13326632Y-71729817D01*
X13305303Y-71774078D01*
X13247588Y-71844708D01*
X13161322Y-71907679D01*
X13222665Y-71945114D01*
X13271054Y-71991738D01*
X13307990Y-72048363D01*
X13332604Y-72112112D01*
X13349039Y-72194983D01*
X13355129Y-72301521D01*
X13355129Y-72414117D01*
X13345959Y-72547155D01*
X13320485Y-72656378D01*
X13280849Y-72745980D01*
X13227878Y-72819316D01*
X13160186Y-72877358D01*
X13073134Y-72921080D01*
X12962161Y-72949577D01*
X12821336Y-72960000D01*
X12432868Y-72960000D01*
X12432868Y-72674113D01*
X12718510Y-72674113D01*
X12842096Y-72674113D01*
X12923844Y-72666973D01*
X12978384Y-72648712D01*
X13021856Y-72617986D01*
X13052878Y-72578004D01*
X13072876Y-72529833D01*
X13083775Y-72470659D01*
X13089392Y-72334982D01*
X13080966Y-72202236D01*
X13067901Y-72148767D01*
X13047260Y-72106249D01*
X13014397Y-72072079D01*
X12971301Y-72048241D01*
X12919501Y-72035045D01*
X12844905Y-72029923D01*
X12718510Y-72029923D01*
X12718510Y-72674113D01*
X12432868Y-72674113D01*
X12432868Y-71779818D01*
X12718510Y-71779818D01*
X12847714Y-71779818D01*
X12940229Y-71770220D01*
X13001309Y-71745492D01*
X13040177Y-71708621D01*
X13065803Y-71658601D01*
X13082963Y-71590951D01*
X13089392Y-71500648D01*
X13082261Y-71412669D01*
X13063221Y-71347432D01*
X13034560Y-71299637D01*
X12992875Y-71265003D01*
X12929645Y-71241700D01*
X12836479Y-71232714D01*
X12718510Y-71232714D01*
X12718510Y-71779818D01*
X12432868Y-71779818D01*
X12432868Y-70966978D01*
X12849302Y-70966978D01*
X12980027Y-70978143D01*
G37*
G36*
X13624773Y-72964518D02*
G01*
X13624773Y-70966978D01*
X13910415Y-70966978D01*
X13910415Y-72678632D01*
X14476692Y-72678632D01*
X14476692Y-72964518D01*
X13624773Y-72964518D01*
G37*
G36*
X15661514Y-72963907D02*
G01*
X15375872Y-72963907D01*
X15291852Y-72530132D01*
X14902651Y-72530132D01*
X14818754Y-72963907D01*
X14533112Y-72963907D01*
X14689039Y-72264396D01*
X14953087Y-72264396D01*
X15238729Y-72264396D01*
X15098656Y-71541437D01*
X15093039Y-71541437D01*
X14953087Y-72264396D01*
X14689039Y-72264396D01*
X14978244Y-70966978D01*
X15216259Y-70966978D01*
X15661514Y-72963907D01*
G37*
G36*
X16706140Y-72389937D02*
G01*
X16706140Y-72513279D01*
X16697346Y-72603597D01*
X16671214Y-72688401D01*
X16629611Y-72766576D01*
X16574860Y-72835436D01*
X16508222Y-72893145D01*
X16430757Y-72937773D01*
X16345697Y-72966062D01*
X16253436Y-72975631D01*
X16172333Y-72970107D01*
X16088450Y-72953161D01*
X16008927Y-72922330D01*
X15937630Y-72874637D01*
X15877322Y-72811673D01*
X15827233Y-72730411D01*
X15795678Y-72634744D01*
X15783879Y-72504853D01*
X15783879Y-71406371D01*
X15792411Y-71310919D01*
X15817341Y-71224288D01*
X15858147Y-71145440D01*
X15912473Y-71078597D01*
X15979344Y-71023918D01*
X16059141Y-70981877D01*
X16147681Y-70955835D01*
X16247819Y-70946828D01*
X16346426Y-70955558D01*
X16432322Y-70980629D01*
X16507898Y-71021391D01*
X16574860Y-71078597D01*
X16629280Y-71148334D01*
X16671214Y-71231249D01*
X16697220Y-71322358D01*
X16706140Y-71423224D01*
X16706140Y-71535331D01*
X16420498Y-71535331D01*
X16420498Y-71439954D01*
X16408425Y-71360918D01*
X16373115Y-71294385D01*
X16337767Y-71260085D01*
X16295795Y-71239767D01*
X16245010Y-71232714D01*
X16178139Y-71241200D01*
X16133350Y-71263565D01*
X16104326Y-71298538D01*
X16078925Y-71369777D01*
X16069521Y-71465233D01*
X16069521Y-72485314D01*
X16079448Y-72567052D01*
X16107135Y-72630882D01*
X16136923Y-72662235D01*
X16180265Y-72682248D01*
X16242201Y-72689745D01*
X16302041Y-72679975D01*
X16362002Y-72647735D01*
X16384232Y-72622019D01*
X16403646Y-72586064D01*
X16415927Y-72544009D01*
X16420498Y-72488122D01*
X16420498Y-72389937D01*
X16706140Y-72389937D01*
G37*
G36*
X16938660Y-72960000D02*
G01*
X16938660Y-70966978D01*
X17224302Y-70966978D01*
X17224302Y-71876660D01*
X17229919Y-71876660D01*
X17647086Y-70966978D01*
X17932728Y-70966978D01*
X17543527Y-71764797D01*
X18005512Y-72960000D01*
X17703140Y-72960000D01*
X17378297Y-72075474D01*
X17224302Y-72363803D01*
X17224302Y-72960000D01*
X16938660Y-72960000D01*
G37*
D11*
G36*
X7545897Y-67275809D02*
G01*
X7622503Y-67300506D01*
X7683598Y-67339373D01*
X7731972Y-67392949D01*
X7768660Y-67463823D01*
X7792788Y-67556320D01*
X7801689Y-67676101D01*
X7797027Y-67757791D01*
X7783942Y-67827038D01*
X7763477Y-67885710D01*
X7732400Y-67938375D01*
X7688312Y-67984560D01*
X7629180Y-68024794D01*
X7844774Y-68662000D01*
X7633113Y-68662000D01*
X7447696Y-68065656D01*
X7328701Y-68065656D01*
X7328701Y-68662000D01*
X7128751Y-68662000D01*
X7128751Y-67890583D01*
X7328701Y-67890583D01*
X7441797Y-67890583D01*
X7491413Y-67886462D01*
X7525658Y-67875794D01*
X7553686Y-67857599D01*
X7574470Y-67833393D01*
X7587305Y-67803677D01*
X7595927Y-67765347D01*
X7601740Y-67671741D01*
X7595927Y-67578135D01*
X7586915Y-67539654D01*
X7572504Y-67508038D01*
X7543233Y-67479191D01*
X7498475Y-67460186D01*
X7432052Y-67452900D01*
X7328701Y-67452900D01*
X7328701Y-67890583D01*
X7128751Y-67890583D01*
X7128751Y-67266884D01*
X7449576Y-67266884D01*
X7545897Y-67275809D01*
G37*
G36*
X7963085Y-68662000D02*
G01*
X7963085Y-67266884D01*
X8559428Y-67266884D01*
X8559428Y-67452900D01*
X8163034Y-67452900D01*
X8163034Y-67863228D01*
X8507453Y-67863228D01*
X8507453Y-68049243D01*
X8163034Y-68049243D01*
X8163034Y-68461879D01*
X8559428Y-68461879D01*
X8559428Y-68662000D01*
X7963085Y-68662000D01*
G37*
G36*
X9336572Y-67666698D02*
G01*
X9136623Y-67666698D01*
X9136623Y-67621562D01*
X9128253Y-67556518D01*
X9104309Y-67502908D01*
X9079025Y-67475927D01*
X9043950Y-67459086D01*
X8995658Y-67452900D01*
X8957165Y-67457159D01*
X8929151Y-67468629D01*
X8905991Y-67486375D01*
X8888032Y-67507781D01*
X8874946Y-67534705D01*
X8866490Y-67565654D01*
X8860592Y-67633273D01*
X8863498Y-67702003D01*
X8878287Y-67751071D01*
X8892454Y-67770901D01*
X8912481Y-67788343D01*
X8974201Y-67819630D01*
X9126963Y-67880496D01*
X9189184Y-67909310D01*
X9234674Y-67940335D01*
X9271639Y-67977583D01*
X9299301Y-68019751D01*
X9317140Y-68069013D01*
X9328708Y-68126692D01*
X9336572Y-68262956D01*
X9332004Y-68349405D01*
X9318877Y-68426830D01*
X9295281Y-68497972D01*
X9262029Y-68555229D01*
X9214849Y-68603872D01*
X9153976Y-68641569D01*
X9082698Y-68664553D01*
X8991127Y-68672942D01*
X8920426Y-68666467D01*
X8855719Y-68647467D01*
X8796969Y-68616760D01*
X8747752Y-68576771D01*
X8707455Y-68528193D01*
X8676201Y-68471881D01*
X8656449Y-68409954D01*
X8649700Y-68341431D01*
X8649700Y-68266888D01*
X8849650Y-68266888D01*
X8849650Y-68329719D01*
X8857749Y-68381865D01*
X8882048Y-68428711D01*
X8906940Y-68452180D01*
X8942089Y-68467217D01*
X8991127Y-68472821D01*
X9039103Y-68468674D01*
X9070799Y-68458118D01*
X9096117Y-68440196D01*
X9114995Y-68415974D01*
X9127295Y-68386558D01*
X9133631Y-68350236D01*
X9136623Y-68264922D01*
X9132690Y-68174735D01*
X9126430Y-68141479D01*
X9117047Y-68117802D01*
X9101168Y-68098288D01*
X9080801Y-68082582D01*
X9021047Y-68053090D01*
X8878116Y-67994191D01*
X8796816Y-67952177D01*
X8740753Y-67905439D01*
X8704667Y-67853995D01*
X8681175Y-67794203D01*
X8666067Y-67722098D01*
X8660642Y-67635239D01*
X8666106Y-67558253D01*
X8682185Y-67486239D01*
X8709523Y-67419731D01*
X8746811Y-67364679D01*
X8793096Y-67319166D01*
X8851616Y-67283212D01*
X8919282Y-67260822D01*
X9003437Y-67252779D01*
X9075520Y-67259826D01*
X9139615Y-67280306D01*
X9197596Y-67312433D01*
X9246386Y-67352882D01*
X9297183Y-67419874D01*
X9326681Y-67491058D01*
X9336572Y-67568561D01*
X9336572Y-67666698D01*
G37*
G36*
X9482666Y-68662000D02*
G01*
X9482666Y-67266884D01*
X10079009Y-67266884D01*
X10079009Y-67452900D01*
X9682615Y-67452900D01*
X9682615Y-67863228D01*
X10027034Y-67863228D01*
X10027034Y-68049243D01*
X9682615Y-68049243D01*
X9682615Y-68461879D01*
X10079009Y-68461879D01*
X10079009Y-68662000D01*
X9482666Y-68662000D01*
G37*
G36*
X10341363Y-68662000D02*
G01*
X10341363Y-67452900D01*
X10109100Y-67452900D01*
X10109100Y-67266884D01*
X10771096Y-67266884D01*
X10771096Y-67452900D01*
X10541312Y-67452900D01*
X10541312Y-68662000D01*
X10341363Y-68662000D01*
G37*
G36*
X7511302Y-58374700D02*
G01*
X7583070Y-58396120D01*
X7645331Y-58430758D01*
X7693688Y-58473997D01*
X7730516Y-58526272D01*
X7755237Y-58586068D01*
X7769176Y-58650299D01*
X7773873Y-58717544D01*
X7773873Y-58768236D01*
X7771466Y-58822464D01*
X7765068Y-58863638D01*
X7753925Y-58900872D01*
X7738995Y-58931855D01*
X7698594Y-58981295D01*
X7638208Y-59025375D01*
X7681148Y-59051580D01*
X7715021Y-59084216D01*
X7740876Y-59123854D01*
X7758106Y-59168478D01*
X7769610Y-59226488D01*
X7773873Y-59301064D01*
X7773873Y-59379882D01*
X7767454Y-59473008D01*
X7749622Y-59549464D01*
X7721877Y-59612186D01*
X7684798Y-59663521D01*
X7637413Y-59704150D01*
X7576477Y-59734756D01*
X7498796Y-59754703D01*
X7400218Y-59762000D01*
X7128290Y-59762000D01*
X7128290Y-59561879D01*
X7328240Y-59561879D01*
X7414750Y-59561879D01*
X7471974Y-59556881D01*
X7510152Y-59544098D01*
X7540582Y-59522590D01*
X7562298Y-59494602D01*
X7576296Y-59460883D01*
X7583925Y-59419461D01*
X7587858Y-59324487D01*
X7581959Y-59231565D01*
X7572813Y-59194136D01*
X7558365Y-59164374D01*
X7535361Y-59140455D01*
X7505194Y-59123769D01*
X7468934Y-59114531D01*
X7416717Y-59110946D01*
X7328240Y-59110946D01*
X7328240Y-59561879D01*
X7128290Y-59561879D01*
X7128290Y-58935872D01*
X7328240Y-58935872D01*
X7418683Y-58935872D01*
X7483443Y-58929154D01*
X7526199Y-58911844D01*
X7553407Y-58886035D01*
X7571345Y-58851021D01*
X7583357Y-58803665D01*
X7587858Y-58740454D01*
X7582865Y-58678868D01*
X7569538Y-58633202D01*
X7549475Y-58599745D01*
X7520295Y-58575502D01*
X7476034Y-58559190D01*
X7410818Y-58552900D01*
X7328240Y-58552900D01*
X7328240Y-58935872D01*
X7128290Y-58935872D01*
X7128290Y-58366884D01*
X7419794Y-58366884D01*
X7511302Y-58374700D01*
G37*
G36*
X8347090Y-58358125D02*
G01*
X8407488Y-58374407D01*
X8464571Y-58400840D01*
X8516310Y-58437153D01*
X8558458Y-58484950D01*
X8592734Y-58545035D01*
X8614472Y-58613056D01*
X8622140Y-58694035D01*
X8622140Y-59431685D01*
X8614333Y-59515791D01*
X8592734Y-59582652D01*
X8558481Y-59640715D01*
X8516310Y-59686602D01*
X8464443Y-59724487D01*
X8407488Y-59751399D01*
X8347094Y-59767617D01*
X8286954Y-59772942D01*
X8226740Y-59767615D01*
X8166334Y-59751399D01*
X8109721Y-59724399D01*
X8059478Y-59686602D01*
X8015781Y-59640573D01*
X7981089Y-59582652D01*
X7959489Y-59515791D01*
X7951682Y-59431685D01*
X7951682Y-58694035D01*
X8151631Y-58694035D01*
X8151631Y-59431685D01*
X8156678Y-59478280D01*
X8170370Y-59512917D01*
X8191809Y-59538542D01*
X8235443Y-59564164D01*
X8286954Y-59572821D01*
X8338391Y-59564168D01*
X8382013Y-59538542D01*
X8403452Y-59512917D01*
X8417144Y-59478280D01*
X8422191Y-59431685D01*
X8422191Y-58694035D01*
X8417142Y-58647443D01*
X8403449Y-58612838D01*
X8382013Y-58587265D01*
X8338385Y-58561573D01*
X8286954Y-58552900D01*
X8235449Y-58561576D01*
X8191809Y-58587265D01*
X8170373Y-58612838D01*
X8156680Y-58647443D01*
X8151631Y-58694035D01*
X7951682Y-58694035D01*
X7959350Y-58613056D01*
X7981089Y-58545035D01*
X8015807Y-58485092D01*
X8059478Y-58437153D01*
X8109590Y-58400930D01*
X8166334Y-58374407D01*
X8226743Y-58358127D01*
X8286954Y-58352779D01*
X8347090Y-58358125D01*
G37*
G36*
X9181424Y-58358125D02*
G01*
X9241821Y-58374407D01*
X9298904Y-58400840D01*
X9350644Y-58437153D01*
X9392792Y-58484950D01*
X9427067Y-58545035D01*
X9448806Y-58613056D01*
X9456474Y-58694035D01*
X9456474Y-59431685D01*
X9448667Y-59515791D01*
X9427067Y-59582652D01*
X9392814Y-59640715D01*
X9350644Y-59686602D01*
X9298777Y-59724487D01*
X9241821Y-59751399D01*
X9181427Y-59767617D01*
X9121287Y-59772942D01*
X9061073Y-59767615D01*
X9000668Y-59751399D01*
X8944055Y-59724399D01*
X8893812Y-59686602D01*
X8850114Y-59640573D01*
X8815422Y-59582652D01*
X8793822Y-59515791D01*
X8786015Y-59431685D01*
X8786015Y-58694035D01*
X8985965Y-58694035D01*
X8985965Y-59431685D01*
X8991011Y-59478280D01*
X9004704Y-59512917D01*
X9026143Y-59538542D01*
X9069776Y-59564164D01*
X9121287Y-59572821D01*
X9172725Y-59564168D01*
X9216347Y-59538542D01*
X9237786Y-59512917D01*
X9251478Y-59478280D01*
X9256525Y-59431685D01*
X9256525Y-58694035D01*
X9251476Y-58647443D01*
X9237782Y-58612838D01*
X9216347Y-58587265D01*
X9172718Y-58561573D01*
X9121287Y-58552900D01*
X9069783Y-58561576D01*
X9026143Y-58587265D01*
X9004707Y-58612838D01*
X8991013Y-58647443D01*
X8985965Y-58694035D01*
X8786015Y-58694035D01*
X8793684Y-58613056D01*
X8815422Y-58545035D01*
X8850141Y-58485092D01*
X8893812Y-58437153D01*
X8943923Y-58400930D01*
X9000668Y-58374407D01*
X9061077Y-58358127D01*
X9121287Y-58352779D01*
X9181424Y-58358125D01*
G37*
G36*
X9741823Y-59762000D02*
G01*
X9741823Y-58552900D01*
X9509560Y-58552900D01*
X9509560Y-58366884D01*
X10171556Y-58366884D01*
X10171556Y-58552900D01*
X9941772Y-58552900D01*
X9941772Y-59762000D01*
X9741823Y-59762000D01*
G37*
D13*
%TO.C,J3*%
X173650000Y-24580001D02*
X175570001Y-24580000D01*
X175570000Y-15419999D02*
X173649998Y-15420000D01*
X177579999Y-15420000D02*
X179285000Y-15420000D01*
X179285000Y-15420000D02*
X179285000Y-24580000D01*
X179285000Y-24580000D02*
X177580000Y-24580000D01*
%TO.C,C2*%
X167890000Y-14940581D02*
X167890000Y-14659419D01*
X168910000Y-14940581D02*
X168910000Y-14659419D01*
%TO.C,C23*%
X155738782Y-21160030D02*
X155539970Y-20961218D01*
X156460030Y-20438782D02*
X156261218Y-20239970D01*
%TO.C,Y1*%
X155065687Y-31681982D02*
X157681979Y-29065684D01*
X157681979Y-29065684D02*
X153934313Y-25318018D01*
%TO.C,SW3*%
X145250000Y-69250000D02*
X145250000Y-66750000D01*
X145699999Y-66300000D02*
X145250000Y-66750000D01*
X145700001Y-69700000D02*
X145250000Y-69250000D01*
X147000000Y-70750000D02*
X148999999Y-70749999D01*
X147000001Y-65250001D02*
X149000000Y-65250000D01*
X150299999Y-66300000D02*
X150750000Y-66750000D01*
X150300001Y-69700000D02*
X150750000Y-69250000D01*
X150750000Y-69250000D02*
X150750000Y-66750000D01*
%TO.C,C9*%
X155859419Y-49990001D02*
X156140581Y-49990000D01*
X155859419Y-51010000D02*
X156140581Y-51009999D01*
%TO.C,C19*%
X163862978Y-17315774D02*
X164061789Y-17116962D01*
X164584227Y-18037022D02*
X164783038Y-17838210D01*
%TO.C,Q1*%
X156400000Y-46090000D02*
X155750000Y-46090000D01*
X156400000Y-46090000D02*
X157049999Y-46090000D01*
X156400000Y-49210000D02*
X155750001Y-49210000D01*
X156400000Y-49210000D02*
X157050000Y-49210000D01*
X157802500Y-49490000D02*
X157322499Y-49490000D01*
X157562500Y-49160000D01*
X157802500Y-49490000D01*
G36*
X157802500Y-49490000D02*
G01*
X157322499Y-49490000D01*
X157562500Y-49160000D01*
X157802500Y-49490000D01*
G37*
D14*
%TO.C,OLEDM1*%
X149999998Y-13539999D02*
X150000000Y-10999999D01*
X150099999Y-11000001D02*
X150400001Y-11000000D01*
X171921998Y-13540000D02*
X150077999Y-13539997D01*
X172000000Y-11000001D02*
X171599999Y-11000000D01*
X172000000Y-11000001D02*
X172000000Y-13540001D01*
D13*
%TO.C,R13*%
X151377500Y-62037258D02*
X151377500Y-61562742D01*
X152422500Y-62037258D02*
X152422500Y-61562742D01*
%TO.C,C4*%
X151090001Y-14659419D02*
X151090000Y-14940581D01*
X152110000Y-14659419D02*
X152109999Y-14940581D01*
%TO.C,C15*%
X158038782Y-31939970D02*
X157839970Y-32138782D01*
X158760030Y-32661218D02*
X158561218Y-32860030D01*
%TO.C,R11*%
X169477500Y-23837258D02*
X169477500Y-23362742D01*
X170522500Y-23837258D02*
X170522500Y-23362742D01*
%TO.C,SW4*%
X145250000Y-60250000D02*
X145250000Y-57750000D01*
X145699999Y-57300000D02*
X145250000Y-57750000D01*
X145700001Y-60700000D02*
X145250000Y-60250000D01*
X147000000Y-61750000D02*
X148999999Y-61749999D01*
X147000001Y-56250001D02*
X149000000Y-56250000D01*
X150299999Y-57300000D02*
X150750000Y-57750000D01*
X150300001Y-60700000D02*
X150750000Y-60250000D01*
X150750000Y-60250000D02*
X150750000Y-57750000D01*
%TO.C,U4*%
X155838120Y-24300000D02*
X156297741Y-23840381D01*
X156297740Y-24759621D02*
X155838120Y-24300000D01*
X160540381Y-29002259D02*
X161000000Y-29461880D01*
X161000000Y-29461880D02*
X161459621Y-29002260D01*
X161459619Y-19597741D02*
X160796706Y-18934828D01*
X165702260Y-23840379D02*
X166161880Y-24300000D01*
X166161880Y-24300000D02*
X165702259Y-24759619D01*
%TO.C,C3*%
X163290000Y-14940581D02*
X163290000Y-14659419D01*
X164310000Y-14940581D02*
X164310000Y-14659419D01*
%TO.C,C5*%
X161790000Y-14940581D02*
X161790000Y-14659419D01*
X162810000Y-14940581D02*
X162810000Y-14659419D01*
%TO.C,R12*%
X169477500Y-17562742D02*
X169477500Y-18037258D01*
X170522500Y-17562742D02*
X170522500Y-18037258D01*
%TO.C,R8*%
X154277500Y-14562742D02*
X154277500Y-15037258D01*
X155322500Y-14562742D02*
X155322500Y-15037258D01*
%TO.C,U2*%
X150995000Y-51740000D02*
X150995000Y-51090000D01*
X150995000Y-51740000D02*
X150995000Y-52389999D01*
X154115000Y-51740000D02*
X154115000Y-51090001D01*
X154115000Y-51740000D02*
X154115000Y-52390000D01*
X154394999Y-50817499D02*
X154065000Y-50577500D01*
X154395000Y-50337500D01*
X154394999Y-50817499D01*
G36*
X154394999Y-50817499D02*
G01*
X154065000Y-50577500D01*
X154395000Y-50337500D01*
X154394999Y-50817499D01*
G37*
%TO.C,C24*%
X157938782Y-18960030D02*
X157739970Y-18761218D01*
X158660030Y-18238782D02*
X158461218Y-18039970D01*
%TO.C,C16*%
X156838782Y-20060030D02*
X156639970Y-19861218D01*
X157560030Y-19338782D02*
X157361218Y-19139970D01*
%TO.C,C6*%
X152690001Y-14659419D02*
X152690000Y-14940581D01*
X153710000Y-14659419D02*
X153709999Y-14940581D01*
%TO.C,C12*%
X166439970Y-26961218D02*
X166638782Y-27160030D01*
X167161218Y-26239970D02*
X167360030Y-26438782D01*
%TO.C,J1*%
X167950000Y-71500000D02*
G75*
G02*
X165050000Y-71500000I-1450000J0D01*
G01*
X165050000Y-71500000D02*
G75*
G02*
X167950000Y-71500000I1450000J0D01*
G01*
%TO.C,SW1*%
X145250000Y-35250000D02*
X145250000Y-32750000D01*
X145699999Y-32300000D02*
X145250000Y-32750000D01*
X145700001Y-35700000D02*
X145250000Y-35250000D01*
X147000000Y-36750000D02*
X148999999Y-36749999D01*
X147000001Y-31250001D02*
X149000000Y-31250000D01*
X150299999Y-32300000D02*
X150750000Y-32750000D01*
X150300001Y-35700000D02*
X150750000Y-35250000D01*
X150750000Y-35250000D02*
X150750000Y-32750000D01*
%TO.C,R1*%
X163077500Y-54337258D02*
X163077500Y-53862742D01*
X164122500Y-54337258D02*
X164122500Y-53862742D01*
%TO.C,R16*%
X151377500Y-65437258D02*
X151377500Y-64962742D01*
X152422500Y-65437258D02*
X152422500Y-64962742D01*
%TO.C,R7*%
X158677500Y-15037258D02*
X158677500Y-14562742D01*
X159722500Y-15037258D02*
X159722500Y-14562742D01*
%TO.C,C17*%
X154638782Y-22260030D02*
X154439970Y-22061218D01*
X155360030Y-21538782D02*
X155161218Y-21339970D01*
%TO.C,U1*%
X154540000Y-53400000D02*
X154540000Y-52600000D01*
X154540000Y-53400000D02*
X154540000Y-54200000D01*
X157660000Y-53400000D02*
X157660000Y-52600000D01*
X157660000Y-53400000D02*
X157660000Y-54200000D01*
X154590000Y-54700000D02*
X154260000Y-54940000D01*
X154260000Y-54460000D01*
X154590000Y-54700000D01*
G36*
X154590000Y-54700000D02*
G01*
X154260000Y-54940000D01*
X154260000Y-54460000D01*
X154590000Y-54700000D01*
G37*
%TO.C,C14*%
X163138782Y-29139970D02*
X162939970Y-29338782D01*
X163860030Y-29861218D02*
X163661218Y-30060030D01*
%TO.C,C21*%
X151638782Y-25439970D02*
X151439970Y-25638782D01*
X152360030Y-26161218D02*
X152161218Y-26360030D01*
%TO.C,LS1*%
X144650000Y-39400000D02*
X146850000Y-39400000D01*
X144650000Y-48600000D02*
X144650000Y-39400000D01*
X144650000Y-48600000D02*
X146850000Y-48600000D01*
X146850000Y-48600000D02*
X146850000Y-49000000D01*
X151650000Y-39400000D02*
X153850000Y-39400000D01*
X151650000Y-48600000D02*
X153850000Y-48600000D01*
X153850000Y-39400000D02*
X153850000Y-48600000D01*
%TO.C,C1*%
X169490000Y-14940581D02*
X169490000Y-14659419D01*
X170510000Y-14940581D02*
X170510000Y-14659419D01*
%TO.C,C11*%
X167539970Y-25861218D02*
X167738782Y-26060030D01*
X168261218Y-25139970D02*
X168460030Y-25338782D01*
D15*
%TO.C,X1*%
X159510800Y-58780800D02*
G75*
G02*
X157510800Y-58780800I-1000000J0D01*
G01*
X157510800Y-58780800D02*
G75*
G02*
X159510800Y-58780800I1000000J0D01*
G01*
D13*
%TO.C,U3*%
X145275000Y-16775000D02*
X145534996Y-16775001D01*
X145275000Y-19500000D02*
X145275000Y-16775000D01*
X145275000Y-19500000D02*
X145275000Y-22225000D01*
X145275000Y-22225000D02*
X145535000Y-22225000D01*
X150725000Y-16775000D02*
X150465000Y-16775000D01*
X150725000Y-19500000D02*
X150725000Y-16775000D01*
X150725000Y-19500000D02*
X150725000Y-22225000D01*
X150725000Y-22225000D02*
X150465004Y-22224999D01*
X150795000Y-16232500D02*
X150464999Y-15992499D01*
X150795000Y-15752500D01*
X150795000Y-16232500D01*
G36*
X150795000Y-16232500D02*
G01*
X150464999Y-15992499D01*
X150795000Y-15752500D01*
X150795000Y-16232500D01*
G37*
%TO.C,R5*%
X160277500Y-15037258D02*
X160277500Y-14562742D01*
X161322500Y-15037258D02*
X161322500Y-14562742D01*
%TO.C,R4*%
X161277500Y-53862742D02*
X161277500Y-54337258D01*
X162322500Y-53862742D02*
X162322500Y-54337258D01*
%TO.C,R9*%
X156187258Y-39377500D02*
X155712742Y-39377500D01*
X156187258Y-40422500D02*
X155712742Y-40422500D01*
%TO.C,C7*%
X154640001Y-56859419D02*
X154640001Y-57140581D01*
X155659999Y-56859419D02*
X155659999Y-57140581D01*
%TO.C,C13*%
X148140581Y-24890001D02*
X147859419Y-24890000D01*
X148140581Y-25910000D02*
X147859419Y-25909999D01*
%TO.C,R15*%
X165798303Y-19562770D02*
X165462770Y-19898303D01*
X166537230Y-20301697D02*
X166201697Y-20637230D01*
%TO.C,J2*%
X155950000Y-71500000D02*
G75*
G02*
X153050000Y-71500000I-1450000J0D01*
G01*
X153050000Y-71500000D02*
G75*
G02*
X155950000Y-71500000I1450000J0D01*
G01*
%TO.C,R19*%
X171977500Y-56662742D02*
X171977500Y-57137258D01*
X173022500Y-56662742D02*
X173022500Y-57137258D01*
%TO.C,L1*%
X147840000Y-52602064D02*
X147840000Y-51397935D01*
X150560000Y-52602065D02*
X150560000Y-51397936D01*
%TO.C,C20*%
X167639970Y-21938782D02*
X167838781Y-21739970D01*
X168361219Y-22660030D02*
X168560030Y-22461218D01*
%TO.C,R3*%
X159677500Y-53862742D02*
X159677500Y-54337258D01*
X160722500Y-53862742D02*
X160722500Y-54337258D01*
%TO.C,C10*%
X152190000Y-55388748D02*
X152190000Y-56811252D01*
X154010000Y-55388748D02*
X154010000Y-56811252D01*
%TO.C,C8*%
X145290000Y-52711252D02*
X145290000Y-51288748D01*
X147110000Y-52711252D02*
X147110000Y-51288748D01*
%TO.C,R6*%
X157077500Y-15037258D02*
X157077500Y-14562742D01*
X158122500Y-15037258D02*
X158122500Y-14562742D01*
%TO.C,R10*%
X155712742Y-41027500D02*
X156187258Y-41027500D01*
X155712742Y-42072500D02*
X156187258Y-42072500D01*
%TO.C,R17*%
X147977500Y-12562742D02*
X147977500Y-13037258D01*
X149022500Y-12562742D02*
X149022500Y-13037258D01*
%TO.C,R18*%
X166877500Y-56662742D02*
X166877500Y-57137258D01*
X167922500Y-56662742D02*
X167922500Y-57137258D01*
%TO.C,C18*%
X164912978Y-18365774D02*
X165111789Y-18166962D01*
X165634227Y-19087022D02*
X165833038Y-18888210D01*
%TO.C,Q2*%
X156400000Y-42590003D02*
X155750000Y-42590003D01*
X156400000Y-42590003D02*
X157049999Y-42590003D01*
X156400000Y-45710003D02*
X155750001Y-45710003D01*
X156400000Y-45710003D02*
X157050000Y-45710003D01*
X155477499Y-42310004D02*
X155237500Y-42640003D01*
X154997500Y-42310003D01*
X155477499Y-42310004D01*
G36*
X155477499Y-42310004D02*
G01*
X155237500Y-42640003D01*
X154997500Y-42310003D01*
X155477499Y-42310004D01*
G37*
%TO.C,R2*%
X158077500Y-54337258D02*
X158077500Y-53862742D01*
X159122500Y-54337258D02*
X159122500Y-53862742D01*
%TO.C,R14*%
X166848303Y-20612770D02*
X166512770Y-20948303D01*
X167587230Y-21351697D02*
X167251697Y-21687230D01*
%TO.C,C22*%
X156639970Y-30938782D02*
X156838782Y-30739970D01*
X157361218Y-31660030D02*
X157560030Y-31461218D01*
%TO.C,J3*%
X137650000Y-24580001D02*
X139570001Y-24580000D01*
X139570000Y-15419999D02*
X137649998Y-15420000D01*
X141579999Y-15420000D02*
X143285000Y-15420000D01*
X143285000Y-15420000D02*
X143285000Y-24580000D01*
X143285000Y-24580000D02*
X141580000Y-24580000D01*
%TO.C,C2*%
X131890000Y-14940581D02*
X131890000Y-14659419D01*
X132910000Y-14940581D02*
X132910000Y-14659419D01*
%TO.C,C23*%
X119738782Y-21160030D02*
X119539970Y-20961218D01*
X120460030Y-20438782D02*
X120261218Y-20239970D01*
%TO.C,Y1*%
X119065687Y-31681982D02*
X121681979Y-29065684D01*
X121681979Y-29065684D02*
X117934313Y-25318018D01*
%TO.C,SW3*%
X109250000Y-69250000D02*
X109250000Y-66750000D01*
X109699999Y-66300000D02*
X109250000Y-66750000D01*
X109700001Y-69700000D02*
X109250000Y-69250000D01*
X111000000Y-70750000D02*
X112999999Y-70749999D01*
X111000001Y-65250001D02*
X113000000Y-65250000D01*
X114299999Y-66300000D02*
X114750000Y-66750000D01*
X114300001Y-69700000D02*
X114750000Y-69250000D01*
X114750000Y-69250000D02*
X114750000Y-66750000D01*
%TO.C,C9*%
X119859419Y-49990001D02*
X120140581Y-49990000D01*
X119859419Y-51010000D02*
X120140581Y-51009999D01*
%TO.C,C19*%
X127862978Y-17315774D02*
X128061789Y-17116962D01*
X128584227Y-18037022D02*
X128783038Y-17838210D01*
%TO.C,Q1*%
X120400000Y-46090000D02*
X119750000Y-46090000D01*
X120400000Y-46090000D02*
X121049999Y-46090000D01*
X120400000Y-49210000D02*
X119750001Y-49210000D01*
X120400000Y-49210000D02*
X121050000Y-49210000D01*
X121802500Y-49490000D02*
X121322499Y-49490000D01*
X121562500Y-49160000D01*
X121802500Y-49490000D01*
G36*
X121802500Y-49490000D02*
G01*
X121322499Y-49490000D01*
X121562500Y-49160000D01*
X121802500Y-49490000D01*
G37*
D14*
%TO.C,OLEDM1*%
X113999998Y-13539999D02*
X114000000Y-10999999D01*
X114099999Y-11000001D02*
X114400001Y-11000000D01*
X135921998Y-13540000D02*
X114077999Y-13539997D01*
X136000000Y-11000001D02*
X135599999Y-11000000D01*
X136000000Y-11000001D02*
X136000000Y-13540001D01*
D13*
%TO.C,R13*%
X115377500Y-62037258D02*
X115377500Y-61562742D01*
X116422500Y-62037258D02*
X116422500Y-61562742D01*
%TO.C,C4*%
X115090001Y-14659419D02*
X115090000Y-14940581D01*
X116110000Y-14659419D02*
X116109999Y-14940581D01*
%TO.C,C15*%
X122038782Y-31939970D02*
X121839970Y-32138782D01*
X122760030Y-32661218D02*
X122561218Y-32860030D01*
%TO.C,R11*%
X133477500Y-23837258D02*
X133477500Y-23362742D01*
X134522500Y-23837258D02*
X134522500Y-23362742D01*
%TO.C,SW4*%
X109250000Y-60250000D02*
X109250000Y-57750000D01*
X109699999Y-57300000D02*
X109250000Y-57750000D01*
X109700001Y-60700000D02*
X109250000Y-60250000D01*
X111000000Y-61750000D02*
X112999999Y-61749999D01*
X111000001Y-56250001D02*
X113000000Y-56250000D01*
X114299999Y-57300000D02*
X114750000Y-57750000D01*
X114300001Y-60700000D02*
X114750000Y-60250000D01*
X114750000Y-60250000D02*
X114750000Y-57750000D01*
%TO.C,U4*%
X119838120Y-24300000D02*
X120297741Y-23840381D01*
X120297740Y-24759621D02*
X119838120Y-24300000D01*
X124540381Y-29002259D02*
X125000000Y-29461880D01*
X125000000Y-29461880D02*
X125459621Y-29002260D01*
X125459619Y-19597741D02*
X124796706Y-18934828D01*
X129702260Y-23840379D02*
X130161880Y-24300000D01*
X130161880Y-24300000D02*
X129702259Y-24759619D01*
%TO.C,C3*%
X127290000Y-14940581D02*
X127290000Y-14659419D01*
X128310000Y-14940581D02*
X128310000Y-14659419D01*
%TO.C,C5*%
X125790000Y-14940581D02*
X125790000Y-14659419D01*
X126810000Y-14940581D02*
X126810000Y-14659419D01*
%TO.C,R12*%
X133477500Y-17562742D02*
X133477500Y-18037258D01*
X134522500Y-17562742D02*
X134522500Y-18037258D01*
%TO.C,R8*%
X118277500Y-14562742D02*
X118277500Y-15037258D01*
X119322500Y-14562742D02*
X119322500Y-15037258D01*
%TO.C,U2*%
X114995000Y-51740000D02*
X114995000Y-51090000D01*
X114995000Y-51740000D02*
X114995000Y-52389999D01*
X118115000Y-51740000D02*
X118115000Y-51090001D01*
X118115000Y-51740000D02*
X118115000Y-52390000D01*
X118394999Y-50817499D02*
X118065000Y-50577500D01*
X118395000Y-50337500D01*
X118394999Y-50817499D01*
G36*
X118394999Y-50817499D02*
G01*
X118065000Y-50577500D01*
X118395000Y-50337500D01*
X118394999Y-50817499D01*
G37*
%TO.C,C24*%
X121938782Y-18960030D02*
X121739970Y-18761218D01*
X122660030Y-18238782D02*
X122461218Y-18039970D01*
%TO.C,C16*%
X120838782Y-20060030D02*
X120639970Y-19861218D01*
X121560030Y-19338782D02*
X121361218Y-19139970D01*
%TO.C,C6*%
X116690001Y-14659419D02*
X116690000Y-14940581D01*
X117710000Y-14659419D02*
X117709999Y-14940581D01*
%TO.C,C12*%
X130439970Y-26961218D02*
X130638782Y-27160030D01*
X131161218Y-26239970D02*
X131360030Y-26438782D01*
%TO.C,J1*%
X131950000Y-71500000D02*
G75*
G02*
X129050000Y-71500000I-1450000J0D01*
G01*
X129050000Y-71500000D02*
G75*
G02*
X131950000Y-71500000I1450000J0D01*
G01*
%TO.C,SW1*%
X109250000Y-35250000D02*
X109250000Y-32750000D01*
X109699999Y-32300000D02*
X109250000Y-32750000D01*
X109700001Y-35700000D02*
X109250000Y-35250000D01*
X111000000Y-36750000D02*
X112999999Y-36749999D01*
X111000001Y-31250001D02*
X113000000Y-31250000D01*
X114299999Y-32300000D02*
X114750000Y-32750000D01*
X114300001Y-35700000D02*
X114750000Y-35250000D01*
X114750000Y-35250000D02*
X114750000Y-32750000D01*
%TO.C,R1*%
X127077500Y-54337258D02*
X127077500Y-53862742D01*
X128122500Y-54337258D02*
X128122500Y-53862742D01*
%TO.C,R16*%
X115377500Y-65437258D02*
X115377500Y-64962742D01*
X116422500Y-65437258D02*
X116422500Y-64962742D01*
%TO.C,R7*%
X122677500Y-15037258D02*
X122677500Y-14562742D01*
X123722500Y-15037258D02*
X123722500Y-14562742D01*
%TO.C,C17*%
X118638782Y-22260030D02*
X118439970Y-22061218D01*
X119360030Y-21538782D02*
X119161218Y-21339970D01*
%TO.C,U1*%
X118540000Y-53400000D02*
X118540000Y-52600000D01*
X118540000Y-53400000D02*
X118540000Y-54200000D01*
X121660000Y-53400000D02*
X121660000Y-52600000D01*
X121660000Y-53400000D02*
X121660000Y-54200000D01*
X118590000Y-54700000D02*
X118260000Y-54940000D01*
X118260000Y-54460000D01*
X118590000Y-54700000D01*
G36*
X118590000Y-54700000D02*
G01*
X118260000Y-54940000D01*
X118260000Y-54460000D01*
X118590000Y-54700000D01*
G37*
%TO.C,C14*%
X127138782Y-29139970D02*
X126939970Y-29338782D01*
X127860030Y-29861218D02*
X127661218Y-30060030D01*
%TO.C,C21*%
X115638782Y-25439970D02*
X115439970Y-25638782D01*
X116360030Y-26161218D02*
X116161218Y-26360030D01*
%TO.C,LS1*%
X108650000Y-39400000D02*
X110850000Y-39400000D01*
X108650000Y-48600000D02*
X108650000Y-39400000D01*
X108650000Y-48600000D02*
X110850000Y-48600000D01*
X110850000Y-48600000D02*
X110850000Y-49000000D01*
X115650000Y-39400000D02*
X117850000Y-39400000D01*
X115650000Y-48600000D02*
X117850000Y-48600000D01*
X117850000Y-39400000D02*
X117850000Y-48600000D01*
%TO.C,C1*%
X133490000Y-14940581D02*
X133490000Y-14659419D01*
X134510000Y-14940581D02*
X134510000Y-14659419D01*
%TO.C,C11*%
X131539970Y-25861218D02*
X131738782Y-26060030D01*
X132261218Y-25139970D02*
X132460030Y-25338782D01*
D15*
%TO.C,X1*%
X123510800Y-58780800D02*
G75*
G02*
X121510800Y-58780800I-1000000J0D01*
G01*
X121510800Y-58780800D02*
G75*
G02*
X123510800Y-58780800I1000000J0D01*
G01*
D13*
%TO.C,U3*%
X109275000Y-16775000D02*
X109534996Y-16775001D01*
X109275000Y-19500000D02*
X109275000Y-16775000D01*
X109275000Y-19500000D02*
X109275000Y-22225000D01*
X109275000Y-22225000D02*
X109535000Y-22225000D01*
X114725000Y-16775000D02*
X114465000Y-16775000D01*
X114725000Y-19500000D02*
X114725000Y-16775000D01*
X114725000Y-19500000D02*
X114725000Y-22225000D01*
X114725000Y-22225000D02*
X114465004Y-22224999D01*
X114795000Y-16232500D02*
X114464999Y-15992499D01*
X114795000Y-15752500D01*
X114795000Y-16232500D01*
G36*
X114795000Y-16232500D02*
G01*
X114464999Y-15992499D01*
X114795000Y-15752500D01*
X114795000Y-16232500D01*
G37*
%TO.C,R5*%
X124277500Y-15037258D02*
X124277500Y-14562742D01*
X125322500Y-15037258D02*
X125322500Y-14562742D01*
%TO.C,R4*%
X125277500Y-53862742D02*
X125277500Y-54337258D01*
X126322500Y-53862742D02*
X126322500Y-54337258D01*
%TO.C,R9*%
X120187258Y-39377500D02*
X119712742Y-39377500D01*
X120187258Y-40422500D02*
X119712742Y-40422500D01*
%TO.C,C7*%
X118640001Y-56859419D02*
X118640001Y-57140581D01*
X119659999Y-56859419D02*
X119659999Y-57140581D01*
%TO.C,C13*%
X112140581Y-24890001D02*
X111859419Y-24890000D01*
X112140581Y-25910000D02*
X111859419Y-25909999D01*
%TO.C,R15*%
X129798303Y-19562770D02*
X129462770Y-19898303D01*
X130537230Y-20301697D02*
X130201697Y-20637230D01*
%TO.C,J2*%
X119950000Y-71500000D02*
G75*
G02*
X117050000Y-71500000I-1450000J0D01*
G01*
X117050000Y-71500000D02*
G75*
G02*
X119950000Y-71500000I1450000J0D01*
G01*
%TO.C,R19*%
X135977500Y-56662742D02*
X135977500Y-57137258D01*
X137022500Y-56662742D02*
X137022500Y-57137258D01*
%TO.C,L1*%
X111840000Y-52602064D02*
X111840000Y-51397935D01*
X114560000Y-52602065D02*
X114560000Y-51397936D01*
%TO.C,C20*%
X131639970Y-21938782D02*
X131838781Y-21739970D01*
X132361219Y-22660030D02*
X132560030Y-22461218D01*
%TO.C,R3*%
X123677500Y-53862742D02*
X123677500Y-54337258D01*
X124722500Y-53862742D02*
X124722500Y-54337258D01*
%TO.C,C10*%
X116190000Y-55388748D02*
X116190000Y-56811252D01*
X118010000Y-55388748D02*
X118010000Y-56811252D01*
%TO.C,C8*%
X109290000Y-52711252D02*
X109290000Y-51288748D01*
X111110000Y-52711252D02*
X111110000Y-51288748D01*
%TO.C,R6*%
X121077500Y-15037258D02*
X121077500Y-14562742D01*
X122122500Y-15037258D02*
X122122500Y-14562742D01*
%TO.C,R10*%
X119712742Y-41027500D02*
X120187258Y-41027500D01*
X119712742Y-42072500D02*
X120187258Y-42072500D01*
%TO.C,R17*%
X111977500Y-12562742D02*
X111977500Y-13037258D01*
X113022500Y-12562742D02*
X113022500Y-13037258D01*
%TO.C,R18*%
X130877500Y-56662742D02*
X130877500Y-57137258D01*
X131922500Y-56662742D02*
X131922500Y-57137258D01*
%TO.C,C18*%
X128912978Y-18365774D02*
X129111789Y-18166962D01*
X129634227Y-19087022D02*
X129833038Y-18888210D01*
%TO.C,Q2*%
X120400000Y-42590003D02*
X119750000Y-42590003D01*
X120400000Y-42590003D02*
X121049999Y-42590003D01*
X120400000Y-45710003D02*
X119750001Y-45710003D01*
X120400000Y-45710003D02*
X121050000Y-45710003D01*
X119477499Y-42310004D02*
X119237500Y-42640003D01*
X118997500Y-42310003D01*
X119477499Y-42310004D01*
G36*
X119477499Y-42310004D02*
G01*
X119237500Y-42640003D01*
X118997500Y-42310003D01*
X119477499Y-42310004D01*
G37*
%TO.C,R2*%
X122077500Y-54337258D02*
X122077500Y-53862742D01*
X123122500Y-54337258D02*
X123122500Y-53862742D01*
%TO.C,R14*%
X130848303Y-20612770D02*
X130512770Y-20948303D01*
X131587230Y-21351697D02*
X131251697Y-21687230D01*
%TO.C,C22*%
X120639970Y-30938782D02*
X120838782Y-30739970D01*
X121361218Y-31660030D02*
X121560030Y-31461218D01*
%TO.C,J3*%
X101650000Y-24580001D02*
X103570001Y-24580000D01*
X103570000Y-15419999D02*
X101649998Y-15420000D01*
X105579999Y-15420000D02*
X107285000Y-15420000D01*
X107285000Y-15420000D02*
X107285000Y-24580000D01*
X107285000Y-24580000D02*
X105580000Y-24580000D01*
%TO.C,C2*%
X95890000Y-14940581D02*
X95890000Y-14659419D01*
X96910000Y-14940581D02*
X96910000Y-14659419D01*
%TO.C,C23*%
X83738782Y-21160030D02*
X83539970Y-20961218D01*
X84460030Y-20438782D02*
X84261218Y-20239970D01*
%TO.C,Y1*%
X83065687Y-31681982D02*
X85681979Y-29065684D01*
X85681979Y-29065684D02*
X81934313Y-25318018D01*
%TO.C,SW3*%
X73250000Y-69250000D02*
X73250000Y-66750000D01*
X73699999Y-66300000D02*
X73250000Y-66750000D01*
X73700001Y-69700000D02*
X73250000Y-69250000D01*
X75000000Y-70750000D02*
X76999999Y-70749999D01*
X75000001Y-65250001D02*
X77000000Y-65250000D01*
X78299999Y-66300000D02*
X78750000Y-66750000D01*
X78300001Y-69700000D02*
X78750000Y-69250000D01*
X78750000Y-69250000D02*
X78750000Y-66750000D01*
%TO.C,C9*%
X83859419Y-49990001D02*
X84140581Y-49990000D01*
X83859419Y-51010000D02*
X84140581Y-51009999D01*
%TO.C,C19*%
X91862978Y-17315774D02*
X92061789Y-17116962D01*
X92584227Y-18037022D02*
X92783038Y-17838210D01*
%TO.C,Q1*%
X84400000Y-46090000D02*
X83750000Y-46090000D01*
X84400000Y-46090000D02*
X85049999Y-46090000D01*
X84400000Y-49210000D02*
X83750001Y-49210000D01*
X84400000Y-49210000D02*
X85050000Y-49210000D01*
X85802500Y-49490000D02*
X85322499Y-49490000D01*
X85562500Y-49160000D01*
X85802500Y-49490000D01*
G36*
X85802500Y-49490000D02*
G01*
X85322499Y-49490000D01*
X85562500Y-49160000D01*
X85802500Y-49490000D01*
G37*
D14*
%TO.C,OLEDM1*%
X77999998Y-13539999D02*
X78000000Y-10999999D01*
X78099999Y-11000001D02*
X78400001Y-11000000D01*
X99921998Y-13540000D02*
X78077999Y-13539997D01*
X100000000Y-11000001D02*
X99599999Y-11000000D01*
X100000000Y-11000001D02*
X100000000Y-13540001D01*
D13*
%TO.C,R13*%
X79377500Y-62037258D02*
X79377500Y-61562742D01*
X80422500Y-62037258D02*
X80422500Y-61562742D01*
%TO.C,C4*%
X79090001Y-14659419D02*
X79090000Y-14940581D01*
X80110000Y-14659419D02*
X80109999Y-14940581D01*
%TO.C,C15*%
X86038782Y-31939970D02*
X85839970Y-32138782D01*
X86760030Y-32661218D02*
X86561218Y-32860030D01*
%TO.C,R11*%
X97477500Y-23837258D02*
X97477500Y-23362742D01*
X98522500Y-23837258D02*
X98522500Y-23362742D01*
%TO.C,SW4*%
X73250000Y-60250000D02*
X73250000Y-57750000D01*
X73699999Y-57300000D02*
X73250000Y-57750000D01*
X73700001Y-60700000D02*
X73250000Y-60250000D01*
X75000000Y-61750000D02*
X76999999Y-61749999D01*
X75000001Y-56250001D02*
X77000000Y-56250000D01*
X78299999Y-57300000D02*
X78750000Y-57750000D01*
X78300001Y-60700000D02*
X78750000Y-60250000D01*
X78750000Y-60250000D02*
X78750000Y-57750000D01*
%TO.C,U4*%
X83838120Y-24300000D02*
X84297741Y-23840381D01*
X84297740Y-24759621D02*
X83838120Y-24300000D01*
X88540381Y-29002259D02*
X89000000Y-29461880D01*
X89000000Y-29461880D02*
X89459621Y-29002260D01*
X89459619Y-19597741D02*
X88796706Y-18934828D01*
X93702260Y-23840379D02*
X94161880Y-24300000D01*
X94161880Y-24300000D02*
X93702259Y-24759619D01*
%TO.C,C3*%
X91290000Y-14940581D02*
X91290000Y-14659419D01*
X92310000Y-14940581D02*
X92310000Y-14659419D01*
%TO.C,C5*%
X89790000Y-14940581D02*
X89790000Y-14659419D01*
X90810000Y-14940581D02*
X90810000Y-14659419D01*
%TO.C,R12*%
X97477500Y-17562742D02*
X97477500Y-18037258D01*
X98522500Y-17562742D02*
X98522500Y-18037258D01*
%TO.C,R8*%
X82277500Y-14562742D02*
X82277500Y-15037258D01*
X83322500Y-14562742D02*
X83322500Y-15037258D01*
%TO.C,U2*%
X78995000Y-51740000D02*
X78995000Y-51090000D01*
X78995000Y-51740000D02*
X78995000Y-52389999D01*
X82115000Y-51740000D02*
X82115000Y-51090001D01*
X82115000Y-51740000D02*
X82115000Y-52390000D01*
X82394999Y-50817499D02*
X82065000Y-50577500D01*
X82395000Y-50337500D01*
X82394999Y-50817499D01*
G36*
X82394999Y-50817499D02*
G01*
X82065000Y-50577500D01*
X82395000Y-50337500D01*
X82394999Y-50817499D01*
G37*
%TO.C,C24*%
X85938782Y-18960030D02*
X85739970Y-18761218D01*
X86660030Y-18238782D02*
X86461218Y-18039970D01*
%TO.C,C16*%
X84838782Y-20060030D02*
X84639970Y-19861218D01*
X85560030Y-19338782D02*
X85361218Y-19139970D01*
%TO.C,C6*%
X80690001Y-14659419D02*
X80690000Y-14940581D01*
X81710000Y-14659419D02*
X81709999Y-14940581D01*
%TO.C,C12*%
X94439970Y-26961218D02*
X94638782Y-27160030D01*
X95161218Y-26239970D02*
X95360030Y-26438782D01*
%TO.C,J1*%
X95950000Y-71500000D02*
G75*
G02*
X93050000Y-71500000I-1450000J0D01*
G01*
X93050000Y-71500000D02*
G75*
G02*
X95950000Y-71500000I1450000J0D01*
G01*
%TO.C,SW1*%
X73250000Y-35250000D02*
X73250000Y-32750000D01*
X73699999Y-32300000D02*
X73250000Y-32750000D01*
X73700001Y-35700000D02*
X73250000Y-35250000D01*
X75000000Y-36750000D02*
X76999999Y-36749999D01*
X75000001Y-31250001D02*
X77000000Y-31250000D01*
X78299999Y-32300000D02*
X78750000Y-32750000D01*
X78300001Y-35700000D02*
X78750000Y-35250000D01*
X78750000Y-35250000D02*
X78750000Y-32750000D01*
%TO.C,R1*%
X91077500Y-54337258D02*
X91077500Y-53862742D01*
X92122500Y-54337258D02*
X92122500Y-53862742D01*
%TO.C,R16*%
X79377500Y-65437258D02*
X79377500Y-64962742D01*
X80422500Y-65437258D02*
X80422500Y-64962742D01*
%TO.C,R7*%
X86677500Y-15037258D02*
X86677500Y-14562742D01*
X87722500Y-15037258D02*
X87722500Y-14562742D01*
%TO.C,C17*%
X82638782Y-22260030D02*
X82439970Y-22061218D01*
X83360030Y-21538782D02*
X83161218Y-21339970D01*
%TO.C,U1*%
X82540000Y-53400000D02*
X82540000Y-52600000D01*
X82540000Y-53400000D02*
X82540000Y-54200000D01*
X85660000Y-53400000D02*
X85660000Y-52600000D01*
X85660000Y-53400000D02*
X85660000Y-54200000D01*
X82590000Y-54700000D02*
X82260000Y-54940000D01*
X82260000Y-54460000D01*
X82590000Y-54700000D01*
G36*
X82590000Y-54700000D02*
G01*
X82260000Y-54940000D01*
X82260000Y-54460000D01*
X82590000Y-54700000D01*
G37*
%TO.C,C14*%
X91138782Y-29139970D02*
X90939970Y-29338782D01*
X91860030Y-29861218D02*
X91661218Y-30060030D01*
%TO.C,C21*%
X79638782Y-25439970D02*
X79439970Y-25638782D01*
X80360030Y-26161218D02*
X80161218Y-26360030D01*
%TO.C,LS1*%
X72650000Y-39400000D02*
X74850000Y-39400000D01*
X72650000Y-48600000D02*
X72650000Y-39400000D01*
X72650000Y-48600000D02*
X74850000Y-48600000D01*
X74850000Y-48600000D02*
X74850000Y-49000000D01*
X79650000Y-39400000D02*
X81850000Y-39400000D01*
X79650000Y-48600000D02*
X81850000Y-48600000D01*
X81850000Y-39400000D02*
X81850000Y-48600000D01*
%TO.C,C1*%
X97490000Y-14940581D02*
X97490000Y-14659419D01*
X98510000Y-14940581D02*
X98510000Y-14659419D01*
%TO.C,C11*%
X95539970Y-25861218D02*
X95738782Y-26060030D01*
X96261218Y-25139970D02*
X96460030Y-25338782D01*
D15*
%TO.C,X1*%
X87510800Y-58780800D02*
G75*
G02*
X85510800Y-58780800I-1000000J0D01*
G01*
X85510800Y-58780800D02*
G75*
G02*
X87510800Y-58780800I1000000J0D01*
G01*
D13*
%TO.C,U3*%
X73275000Y-16775000D02*
X73534996Y-16775001D01*
X73275000Y-19500000D02*
X73275000Y-16775000D01*
X73275000Y-19500000D02*
X73275000Y-22225000D01*
X73275000Y-22225000D02*
X73535000Y-22225000D01*
X78725000Y-16775000D02*
X78465000Y-16775000D01*
X78725000Y-19500000D02*
X78725000Y-16775000D01*
X78725000Y-19500000D02*
X78725000Y-22225000D01*
X78725000Y-22225000D02*
X78465004Y-22224999D01*
X78795000Y-16232500D02*
X78464999Y-15992499D01*
X78795000Y-15752500D01*
X78795000Y-16232500D01*
G36*
X78795000Y-16232500D02*
G01*
X78464999Y-15992499D01*
X78795000Y-15752500D01*
X78795000Y-16232500D01*
G37*
%TO.C,R5*%
X88277500Y-15037258D02*
X88277500Y-14562742D01*
X89322500Y-15037258D02*
X89322500Y-14562742D01*
%TO.C,R4*%
X89277500Y-53862742D02*
X89277500Y-54337258D01*
X90322500Y-53862742D02*
X90322500Y-54337258D01*
%TO.C,R9*%
X84187258Y-39377500D02*
X83712742Y-39377500D01*
X84187258Y-40422500D02*
X83712742Y-40422500D01*
%TO.C,C7*%
X82640001Y-56859419D02*
X82640001Y-57140581D01*
X83659999Y-56859419D02*
X83659999Y-57140581D01*
%TO.C,C13*%
X76140581Y-24890001D02*
X75859419Y-24890000D01*
X76140581Y-25910000D02*
X75859419Y-25909999D01*
%TO.C,R15*%
X93798303Y-19562770D02*
X93462770Y-19898303D01*
X94537230Y-20301697D02*
X94201697Y-20637230D01*
%TO.C,J2*%
X83950000Y-71500000D02*
G75*
G02*
X81050000Y-71500000I-1450000J0D01*
G01*
X81050000Y-71500000D02*
G75*
G02*
X83950000Y-71500000I1450000J0D01*
G01*
%TO.C,R19*%
X99977500Y-56662742D02*
X99977500Y-57137258D01*
X101022500Y-56662742D02*
X101022500Y-57137258D01*
%TO.C,L1*%
X75840000Y-52602064D02*
X75840000Y-51397935D01*
X78560000Y-52602065D02*
X78560000Y-51397936D01*
%TO.C,C20*%
X95639970Y-21938782D02*
X95838781Y-21739970D01*
X96361219Y-22660030D02*
X96560030Y-22461218D01*
%TO.C,R3*%
X87677500Y-53862742D02*
X87677500Y-54337258D01*
X88722500Y-53862742D02*
X88722500Y-54337258D01*
%TO.C,C10*%
X80190000Y-55388748D02*
X80190000Y-56811252D01*
X82010000Y-55388748D02*
X82010000Y-56811252D01*
%TO.C,C8*%
X73290000Y-52711252D02*
X73290000Y-51288748D01*
X75110000Y-52711252D02*
X75110000Y-51288748D01*
%TO.C,R6*%
X85077500Y-15037258D02*
X85077500Y-14562742D01*
X86122500Y-15037258D02*
X86122500Y-14562742D01*
%TO.C,R10*%
X83712742Y-41027500D02*
X84187258Y-41027500D01*
X83712742Y-42072500D02*
X84187258Y-42072500D01*
%TO.C,R17*%
X75977500Y-12562742D02*
X75977500Y-13037258D01*
X77022500Y-12562742D02*
X77022500Y-13037258D01*
%TO.C,R18*%
X94877500Y-56662742D02*
X94877500Y-57137258D01*
X95922500Y-56662742D02*
X95922500Y-57137258D01*
%TO.C,C18*%
X92912978Y-18365774D02*
X93111789Y-18166962D01*
X93634227Y-19087022D02*
X93833038Y-18888210D01*
%TO.C,Q2*%
X84400000Y-42590003D02*
X83750000Y-42590003D01*
X84400000Y-42590003D02*
X85049999Y-42590003D01*
X84400000Y-45710003D02*
X83750001Y-45710003D01*
X84400000Y-45710003D02*
X85050000Y-45710003D01*
X83477499Y-42310004D02*
X83237500Y-42640003D01*
X82997500Y-42310003D01*
X83477499Y-42310004D01*
G36*
X83477499Y-42310004D02*
G01*
X83237500Y-42640003D01*
X82997500Y-42310003D01*
X83477499Y-42310004D01*
G37*
%TO.C,R2*%
X86077500Y-54337258D02*
X86077500Y-53862742D01*
X87122500Y-54337258D02*
X87122500Y-53862742D01*
%TO.C,R14*%
X94848303Y-20612770D02*
X94512770Y-20948303D01*
X95587230Y-21351697D02*
X95251697Y-21687230D01*
%TO.C,C22*%
X84639970Y-30938782D02*
X84838782Y-30739970D01*
X85361218Y-31660030D02*
X85560030Y-31461218D01*
%TO.C,J3*%
X65650000Y-24580001D02*
X67570001Y-24580000D01*
X67570000Y-15419999D02*
X65649998Y-15420000D01*
X69579999Y-15420000D02*
X71285000Y-15420000D01*
X71285000Y-15420000D02*
X71285000Y-24580000D01*
X71285000Y-24580000D02*
X69580000Y-24580000D01*
%TO.C,C2*%
X59890000Y-14940581D02*
X59890000Y-14659419D01*
X60910000Y-14940581D02*
X60910000Y-14659419D01*
%TO.C,C23*%
X47738782Y-21160030D02*
X47539970Y-20961218D01*
X48460030Y-20438782D02*
X48261218Y-20239970D01*
%TO.C,Y1*%
X47065687Y-31681982D02*
X49681979Y-29065684D01*
X49681979Y-29065684D02*
X45934313Y-25318018D01*
%TO.C,SW3*%
X37250000Y-69250000D02*
X37250000Y-66750000D01*
X37699999Y-66300000D02*
X37250000Y-66750000D01*
X37700001Y-69700000D02*
X37250000Y-69250000D01*
X39000000Y-70750000D02*
X40999999Y-70749999D01*
X39000001Y-65250001D02*
X41000000Y-65250000D01*
X42299999Y-66300000D02*
X42750000Y-66750000D01*
X42300001Y-69700000D02*
X42750000Y-69250000D01*
X42750000Y-69250000D02*
X42750000Y-66750000D01*
%TO.C,C9*%
X47859419Y-49990001D02*
X48140581Y-49990000D01*
X47859419Y-51010000D02*
X48140581Y-51009999D01*
%TO.C,C19*%
X55862978Y-17315774D02*
X56061789Y-17116962D01*
X56584227Y-18037022D02*
X56783038Y-17838210D01*
%TO.C,Q1*%
X48400000Y-46090000D02*
X47750000Y-46090000D01*
X48400000Y-46090000D02*
X49049999Y-46090000D01*
X48400000Y-49210000D02*
X47750001Y-49210000D01*
X48400000Y-49210000D02*
X49050000Y-49210000D01*
X49802500Y-49490000D02*
X49322499Y-49490000D01*
X49562500Y-49160000D01*
X49802500Y-49490000D01*
G36*
X49802500Y-49490000D02*
G01*
X49322499Y-49490000D01*
X49562500Y-49160000D01*
X49802500Y-49490000D01*
G37*
D14*
%TO.C,OLEDM1*%
X41999998Y-13539999D02*
X42000000Y-10999999D01*
X42099999Y-11000001D02*
X42400001Y-11000000D01*
X63921998Y-13540000D02*
X42077999Y-13539997D01*
X64000000Y-11000001D02*
X63599999Y-11000000D01*
X64000000Y-11000001D02*
X64000000Y-13540001D01*
D13*
%TO.C,R13*%
X43377500Y-62037258D02*
X43377500Y-61562742D01*
X44422500Y-62037258D02*
X44422500Y-61562742D01*
%TO.C,C4*%
X43090001Y-14659419D02*
X43090000Y-14940581D01*
X44110000Y-14659419D02*
X44109999Y-14940581D01*
%TO.C,C15*%
X50038782Y-31939970D02*
X49839970Y-32138782D01*
X50760030Y-32661218D02*
X50561218Y-32860030D01*
%TO.C,R11*%
X61477500Y-23837258D02*
X61477500Y-23362742D01*
X62522500Y-23837258D02*
X62522500Y-23362742D01*
%TO.C,SW4*%
X37250000Y-60250000D02*
X37250000Y-57750000D01*
X37699999Y-57300000D02*
X37250000Y-57750000D01*
X37700001Y-60700000D02*
X37250000Y-60250000D01*
X39000000Y-61750000D02*
X40999999Y-61749999D01*
X39000001Y-56250001D02*
X41000000Y-56250000D01*
X42299999Y-57300000D02*
X42750000Y-57750000D01*
X42300001Y-60700000D02*
X42750000Y-60250000D01*
X42750000Y-60250000D02*
X42750000Y-57750000D01*
%TO.C,U4*%
X47838120Y-24300000D02*
X48297741Y-23840381D01*
X48297740Y-24759621D02*
X47838120Y-24300000D01*
X52540381Y-29002259D02*
X53000000Y-29461880D01*
X53000000Y-29461880D02*
X53459621Y-29002260D01*
X53459619Y-19597741D02*
X52796706Y-18934828D01*
X57702260Y-23840379D02*
X58161880Y-24300000D01*
X58161880Y-24300000D02*
X57702259Y-24759619D01*
%TO.C,C3*%
X55290000Y-14940581D02*
X55290000Y-14659419D01*
X56310000Y-14940581D02*
X56310000Y-14659419D01*
%TO.C,C5*%
X53790000Y-14940581D02*
X53790000Y-14659419D01*
X54810000Y-14940581D02*
X54810000Y-14659419D01*
%TO.C,R12*%
X61477500Y-17562742D02*
X61477500Y-18037258D01*
X62522500Y-17562742D02*
X62522500Y-18037258D01*
%TO.C,R8*%
X46277500Y-14562742D02*
X46277500Y-15037258D01*
X47322500Y-14562742D02*
X47322500Y-15037258D01*
%TO.C,U2*%
X42995000Y-51740000D02*
X42995000Y-51090000D01*
X42995000Y-51740000D02*
X42995000Y-52389999D01*
X46115000Y-51740000D02*
X46115000Y-51090001D01*
X46115000Y-51740000D02*
X46115000Y-52390000D01*
X46394999Y-50817499D02*
X46065000Y-50577500D01*
X46395000Y-50337500D01*
X46394999Y-50817499D01*
G36*
X46394999Y-50817499D02*
G01*
X46065000Y-50577500D01*
X46395000Y-50337500D01*
X46394999Y-50817499D01*
G37*
%TO.C,C24*%
X49938782Y-18960030D02*
X49739970Y-18761218D01*
X50660030Y-18238782D02*
X50461218Y-18039970D01*
%TO.C,C16*%
X48838782Y-20060030D02*
X48639970Y-19861218D01*
X49560030Y-19338782D02*
X49361218Y-19139970D01*
%TO.C,C6*%
X44690001Y-14659419D02*
X44690000Y-14940581D01*
X45710000Y-14659419D02*
X45709999Y-14940581D01*
%TO.C,C12*%
X58439970Y-26961218D02*
X58638782Y-27160030D01*
X59161218Y-26239970D02*
X59360030Y-26438782D01*
%TO.C,J1*%
X59950000Y-71500000D02*
G75*
G02*
X57050000Y-71500000I-1450000J0D01*
G01*
X57050000Y-71500000D02*
G75*
G02*
X59950000Y-71500000I1450000J0D01*
G01*
%TO.C,SW1*%
X37250000Y-35250000D02*
X37250000Y-32750000D01*
X37699999Y-32300000D02*
X37250000Y-32750000D01*
X37700001Y-35700000D02*
X37250000Y-35250000D01*
X39000000Y-36750000D02*
X40999999Y-36749999D01*
X39000001Y-31250001D02*
X41000000Y-31250000D01*
X42299999Y-32300000D02*
X42750000Y-32750000D01*
X42300001Y-35700000D02*
X42750000Y-35250000D01*
X42750000Y-35250000D02*
X42750000Y-32750000D01*
%TO.C,R1*%
X55077500Y-54337258D02*
X55077500Y-53862742D01*
X56122500Y-54337258D02*
X56122500Y-53862742D01*
%TO.C,R16*%
X43377500Y-65437258D02*
X43377500Y-64962742D01*
X44422500Y-65437258D02*
X44422500Y-64962742D01*
%TO.C,R7*%
X50677500Y-15037258D02*
X50677500Y-14562742D01*
X51722500Y-15037258D02*
X51722500Y-14562742D01*
%TO.C,C17*%
X46638782Y-22260030D02*
X46439970Y-22061218D01*
X47360030Y-21538782D02*
X47161218Y-21339970D01*
%TO.C,U1*%
X46540000Y-53400000D02*
X46540000Y-52600000D01*
X46540000Y-53400000D02*
X46540000Y-54200000D01*
X49660000Y-53400000D02*
X49660000Y-52600000D01*
X49660000Y-53400000D02*
X49660000Y-54200000D01*
X46590000Y-54700000D02*
X46260000Y-54940000D01*
X46260000Y-54460000D01*
X46590000Y-54700000D01*
G36*
X46590000Y-54700000D02*
G01*
X46260000Y-54940000D01*
X46260000Y-54460000D01*
X46590000Y-54700000D01*
G37*
%TO.C,C14*%
X55138782Y-29139970D02*
X54939970Y-29338782D01*
X55860030Y-29861218D02*
X55661218Y-30060030D01*
%TO.C,C21*%
X43638782Y-25439970D02*
X43439970Y-25638782D01*
X44360030Y-26161218D02*
X44161218Y-26360030D01*
%TO.C,LS1*%
X36650000Y-39400000D02*
X38850000Y-39400000D01*
X36650000Y-48600000D02*
X36650000Y-39400000D01*
X36650000Y-48600000D02*
X38850000Y-48600000D01*
X38850000Y-48600000D02*
X38850000Y-49000000D01*
X43650000Y-39400000D02*
X45850000Y-39400000D01*
X43650000Y-48600000D02*
X45850000Y-48600000D01*
X45850000Y-39400000D02*
X45850000Y-48600000D01*
%TO.C,C1*%
X61490000Y-14940581D02*
X61490000Y-14659419D01*
X62510000Y-14940581D02*
X62510000Y-14659419D01*
%TO.C,C11*%
X59539970Y-25861218D02*
X59738782Y-26060030D01*
X60261218Y-25139970D02*
X60460030Y-25338782D01*
D15*
%TO.C,X1*%
X51510800Y-58780800D02*
G75*
G02*
X49510800Y-58780800I-1000000J0D01*
G01*
X49510800Y-58780800D02*
G75*
G02*
X51510800Y-58780800I1000000J0D01*
G01*
D13*
%TO.C,U3*%
X37275000Y-16775000D02*
X37534996Y-16775001D01*
X37275000Y-19500000D02*
X37275000Y-16775000D01*
X37275000Y-19500000D02*
X37275000Y-22225000D01*
X37275000Y-22225000D02*
X37535000Y-22225000D01*
X42725000Y-16775000D02*
X42465000Y-16775000D01*
X42725000Y-19500000D02*
X42725000Y-16775000D01*
X42725000Y-19500000D02*
X42725000Y-22225000D01*
X42725000Y-22225000D02*
X42465004Y-22224999D01*
X42795000Y-16232500D02*
X42464999Y-15992499D01*
X42795000Y-15752500D01*
X42795000Y-16232500D01*
G36*
X42795000Y-16232500D02*
G01*
X42464999Y-15992499D01*
X42795000Y-15752500D01*
X42795000Y-16232500D01*
G37*
%TO.C,R5*%
X52277500Y-15037258D02*
X52277500Y-14562742D01*
X53322500Y-15037258D02*
X53322500Y-14562742D01*
%TO.C,R4*%
X53277500Y-53862742D02*
X53277500Y-54337258D01*
X54322500Y-53862742D02*
X54322500Y-54337258D01*
%TO.C,R9*%
X48187258Y-39377500D02*
X47712742Y-39377500D01*
X48187258Y-40422500D02*
X47712742Y-40422500D01*
%TO.C,C7*%
X46640001Y-56859419D02*
X46640001Y-57140581D01*
X47659999Y-56859419D02*
X47659999Y-57140581D01*
%TO.C,C13*%
X40140581Y-24890001D02*
X39859419Y-24890000D01*
X40140581Y-25910000D02*
X39859419Y-25909999D01*
%TO.C,R15*%
X57798303Y-19562770D02*
X57462770Y-19898303D01*
X58537230Y-20301697D02*
X58201697Y-20637230D01*
%TO.C,J2*%
X47950000Y-71500000D02*
G75*
G02*
X45050000Y-71500000I-1450000J0D01*
G01*
X45050000Y-71500000D02*
G75*
G02*
X47950000Y-71500000I1450000J0D01*
G01*
%TO.C,R19*%
X63977500Y-56662742D02*
X63977500Y-57137258D01*
X65022500Y-56662742D02*
X65022500Y-57137258D01*
%TO.C,L1*%
X39840000Y-52602064D02*
X39840000Y-51397935D01*
X42560000Y-52602065D02*
X42560000Y-51397936D01*
%TO.C,C20*%
X59639970Y-21938782D02*
X59838781Y-21739970D01*
X60361219Y-22660030D02*
X60560030Y-22461218D01*
%TO.C,R3*%
X51677500Y-53862742D02*
X51677500Y-54337258D01*
X52722500Y-53862742D02*
X52722500Y-54337258D01*
%TO.C,C10*%
X44190000Y-55388748D02*
X44190000Y-56811252D01*
X46010000Y-55388748D02*
X46010000Y-56811252D01*
%TO.C,C8*%
X37290000Y-52711252D02*
X37290000Y-51288748D01*
X39110000Y-52711252D02*
X39110000Y-51288748D01*
%TO.C,R6*%
X49077500Y-15037258D02*
X49077500Y-14562742D01*
X50122500Y-15037258D02*
X50122500Y-14562742D01*
%TO.C,R10*%
X47712742Y-41027500D02*
X48187258Y-41027500D01*
X47712742Y-42072500D02*
X48187258Y-42072500D01*
%TO.C,R17*%
X39977500Y-12562742D02*
X39977500Y-13037258D01*
X41022500Y-12562742D02*
X41022500Y-13037258D01*
%TO.C,R18*%
X58877500Y-56662742D02*
X58877500Y-57137258D01*
X59922500Y-56662742D02*
X59922500Y-57137258D01*
%TO.C,C18*%
X56912978Y-18365774D02*
X57111789Y-18166962D01*
X57634227Y-19087022D02*
X57833038Y-18888210D01*
%TO.C,Q2*%
X48400000Y-42590003D02*
X47750000Y-42590003D01*
X48400000Y-42590003D02*
X49049999Y-42590003D01*
X48400000Y-45710003D02*
X47750001Y-45710003D01*
X48400000Y-45710003D02*
X49050000Y-45710003D01*
X47477499Y-42310004D02*
X47237500Y-42640003D01*
X46997500Y-42310003D01*
X47477499Y-42310004D01*
G36*
X47477499Y-42310004D02*
G01*
X47237500Y-42640003D01*
X46997500Y-42310003D01*
X47477499Y-42310004D01*
G37*
%TO.C,R2*%
X50077500Y-54337258D02*
X50077500Y-53862742D01*
X51122500Y-54337258D02*
X51122500Y-53862742D01*
%TO.C,R14*%
X58848303Y-20612770D02*
X58512770Y-20948303D01*
X59587230Y-21351697D02*
X59251697Y-21687230D01*
%TO.C,C22*%
X48639970Y-30938782D02*
X48838782Y-30739970D01*
X49361218Y-31660030D02*
X49560030Y-31461218D01*
%TO.C,J3*%
X29650000Y-24580001D02*
X31570001Y-24580000D01*
X31570000Y-15419999D02*
X29649998Y-15420000D01*
X33579999Y-15420000D02*
X35285000Y-15420000D01*
X35285000Y-15420000D02*
X35285000Y-24580000D01*
X35285000Y-24580000D02*
X33580000Y-24580000D01*
%TO.C,C2*%
X23890000Y-14940581D02*
X23890000Y-14659419D01*
X24910000Y-14940581D02*
X24910000Y-14659419D01*
%TO.C,C23*%
X11738782Y-21160030D02*
X11539970Y-20961218D01*
X12460030Y-20438782D02*
X12261218Y-20239970D01*
%TO.C,Y1*%
X11065687Y-31681982D02*
X13681979Y-29065684D01*
X13681979Y-29065684D02*
X9934313Y-25318018D01*
%TO.C,SW3*%
X1250000Y-69250000D02*
X1250000Y-66750000D01*
X1699999Y-66300000D02*
X1250000Y-66750000D01*
X1700001Y-69700000D02*
X1250000Y-69250000D01*
X3000000Y-70750000D02*
X4999999Y-70749999D01*
X3000001Y-65250001D02*
X5000000Y-65250000D01*
X6299999Y-66300000D02*
X6750000Y-66750000D01*
X6300001Y-69700000D02*
X6750000Y-69250000D01*
X6750000Y-69250000D02*
X6750000Y-66750000D01*
%TO.C,C9*%
X11859419Y-49990001D02*
X12140581Y-49990000D01*
X11859419Y-51010000D02*
X12140581Y-51009999D01*
%TO.C,C19*%
X19862978Y-17315774D02*
X20061789Y-17116962D01*
X20584227Y-18037022D02*
X20783038Y-17838210D01*
%TO.C,Q1*%
X12400000Y-46090000D02*
X11750000Y-46090000D01*
X12400000Y-46090000D02*
X13049999Y-46090000D01*
X12400000Y-49210000D02*
X11750001Y-49210000D01*
X12400000Y-49210000D02*
X13050000Y-49210000D01*
X13802500Y-49490000D02*
X13322499Y-49490000D01*
X13562500Y-49160000D01*
X13802500Y-49490000D01*
G36*
X13802500Y-49490000D02*
G01*
X13322499Y-49490000D01*
X13562500Y-49160000D01*
X13802500Y-49490000D01*
G37*
D14*
%TO.C,OLEDM1*%
X5999998Y-13539999D02*
X6000000Y-10999999D01*
X6099999Y-11000001D02*
X6400001Y-11000000D01*
X27921998Y-13540000D02*
X6077999Y-13539997D01*
X28000000Y-11000001D02*
X27599999Y-11000000D01*
X28000000Y-11000001D02*
X28000000Y-13540001D01*
D13*
%TO.C,R13*%
X7377500Y-62037258D02*
X7377500Y-61562742D01*
X8422500Y-62037258D02*
X8422500Y-61562742D01*
%TO.C,C4*%
X7090001Y-14659419D02*
X7090000Y-14940581D01*
X8110000Y-14659419D02*
X8109999Y-14940581D01*
%TO.C,C15*%
X14038782Y-31939970D02*
X13839970Y-32138782D01*
X14760030Y-32661218D02*
X14561218Y-32860030D01*
%TO.C,R11*%
X25477500Y-23837258D02*
X25477500Y-23362742D01*
X26522500Y-23837258D02*
X26522500Y-23362742D01*
%TO.C,SW4*%
X1250000Y-60250000D02*
X1250000Y-57750000D01*
X1699999Y-57300000D02*
X1250000Y-57750000D01*
X1700001Y-60700000D02*
X1250000Y-60250000D01*
X3000000Y-61750000D02*
X4999999Y-61749999D01*
X3000001Y-56250001D02*
X5000000Y-56250000D01*
X6299999Y-57300000D02*
X6750000Y-57750000D01*
X6300001Y-60700000D02*
X6750000Y-60250000D01*
X6750000Y-60250000D02*
X6750000Y-57750000D01*
%TO.C,U4*%
X11838120Y-24300000D02*
X12297741Y-23840381D01*
X12297740Y-24759621D02*
X11838120Y-24300000D01*
X16540381Y-29002259D02*
X17000000Y-29461880D01*
X17000000Y-29461880D02*
X17459621Y-29002260D01*
X17459619Y-19597741D02*
X16796706Y-18934828D01*
X21702260Y-23840379D02*
X22161880Y-24300000D01*
X22161880Y-24300000D02*
X21702259Y-24759619D01*
%TO.C,C3*%
X19290000Y-14940581D02*
X19290000Y-14659419D01*
X20310000Y-14940581D02*
X20310000Y-14659419D01*
%TO.C,C5*%
X17790000Y-14940581D02*
X17790000Y-14659419D01*
X18810000Y-14940581D02*
X18810000Y-14659419D01*
%TO.C,R12*%
X25477500Y-17562742D02*
X25477500Y-18037258D01*
X26522500Y-17562742D02*
X26522500Y-18037258D01*
%TO.C,R8*%
X10277500Y-14562742D02*
X10277500Y-15037258D01*
X11322500Y-14562742D02*
X11322500Y-15037258D01*
%TO.C,U2*%
X6995000Y-51740000D02*
X6995000Y-51090000D01*
X6995000Y-51740000D02*
X6995000Y-52389999D01*
X10115000Y-51740000D02*
X10115000Y-51090001D01*
X10115000Y-51740000D02*
X10115000Y-52390000D01*
X10394999Y-50817499D02*
X10065000Y-50577500D01*
X10395000Y-50337500D01*
X10394999Y-50817499D01*
G36*
X10394999Y-50817499D02*
G01*
X10065000Y-50577500D01*
X10395000Y-50337500D01*
X10394999Y-50817499D01*
G37*
%TO.C,C24*%
X13938782Y-18960030D02*
X13739970Y-18761218D01*
X14660030Y-18238782D02*
X14461218Y-18039970D01*
%TO.C,C16*%
X12838782Y-20060030D02*
X12639970Y-19861218D01*
X13560030Y-19338782D02*
X13361218Y-19139970D01*
%TO.C,C6*%
X8690001Y-14659419D02*
X8690000Y-14940581D01*
X9710000Y-14659419D02*
X9709999Y-14940581D01*
%TO.C,C12*%
X22439970Y-26961218D02*
X22638782Y-27160030D01*
X23161218Y-26239970D02*
X23360030Y-26438782D01*
%TO.C,J1*%
X23950000Y-71500000D02*
G75*
G02*
X21050000Y-71500000I-1450000J0D01*
G01*
X21050000Y-71500000D02*
G75*
G02*
X23950000Y-71500000I1450000J0D01*
G01*
%TO.C,SW1*%
X1250000Y-35250000D02*
X1250000Y-32750000D01*
X1699999Y-32300000D02*
X1250000Y-32750000D01*
X1700001Y-35700000D02*
X1250000Y-35250000D01*
X3000000Y-36750000D02*
X4999999Y-36749999D01*
X3000001Y-31250001D02*
X5000000Y-31250000D01*
X6299999Y-32300000D02*
X6750000Y-32750000D01*
X6300001Y-35700000D02*
X6750000Y-35250000D01*
X6750000Y-35250000D02*
X6750000Y-32750000D01*
%TO.C,R1*%
X19077500Y-54337258D02*
X19077500Y-53862742D01*
X20122500Y-54337258D02*
X20122500Y-53862742D01*
%TO.C,R16*%
X7377500Y-65437258D02*
X7377500Y-64962742D01*
X8422500Y-65437258D02*
X8422500Y-64962742D01*
%TO.C,R7*%
X14677500Y-15037258D02*
X14677500Y-14562742D01*
X15722500Y-15037258D02*
X15722500Y-14562742D01*
%TO.C,C17*%
X10638782Y-22260030D02*
X10439970Y-22061218D01*
X11360030Y-21538782D02*
X11161218Y-21339970D01*
%TO.C,U1*%
X10540000Y-53400000D02*
X10540000Y-52600000D01*
X10540000Y-53400000D02*
X10540000Y-54200000D01*
X13660000Y-53400000D02*
X13660000Y-52600000D01*
X13660000Y-53400000D02*
X13660000Y-54200000D01*
X10590000Y-54700000D02*
X10260000Y-54940000D01*
X10260000Y-54460000D01*
X10590000Y-54700000D01*
G36*
X10590000Y-54700000D02*
G01*
X10260000Y-54940000D01*
X10260000Y-54460000D01*
X10590000Y-54700000D01*
G37*
%TO.C,C14*%
X19138782Y-29139970D02*
X18939970Y-29338782D01*
X19860030Y-29861218D02*
X19661218Y-30060030D01*
%TO.C,C21*%
X7638782Y-25439970D02*
X7439970Y-25638782D01*
X8360030Y-26161218D02*
X8161218Y-26360030D01*
%TO.C,LS1*%
X650000Y-39400000D02*
X2850000Y-39400000D01*
X650000Y-48600000D02*
X650000Y-39400000D01*
X650000Y-48600000D02*
X2850000Y-48600000D01*
X2850000Y-48600000D02*
X2850000Y-49000000D01*
X7650000Y-39400000D02*
X9850000Y-39400000D01*
X7650000Y-48600000D02*
X9850000Y-48600000D01*
X9850000Y-39400000D02*
X9850000Y-48600000D01*
%TO.C,C1*%
X25490000Y-14940581D02*
X25490000Y-14659419D01*
X26510000Y-14940581D02*
X26510000Y-14659419D01*
%TO.C,C11*%
X23539970Y-25861218D02*
X23738782Y-26060030D01*
X24261218Y-25139970D02*
X24460030Y-25338782D01*
D15*
%TO.C,X1*%
X15510800Y-58780800D02*
G75*
G02*
X13510800Y-58780800I-1000000J0D01*
G01*
X13510800Y-58780800D02*
G75*
G02*
X15510800Y-58780800I1000000J0D01*
G01*
D13*
%TO.C,U3*%
X1275000Y-16775000D02*
X1534996Y-16775001D01*
X1275000Y-19500000D02*
X1275000Y-16775000D01*
X1275000Y-19500000D02*
X1275000Y-22225000D01*
X1275000Y-22225000D02*
X1535000Y-22225000D01*
X6725000Y-16775000D02*
X6465000Y-16775000D01*
X6725000Y-19500000D02*
X6725000Y-16775000D01*
X6725000Y-19500000D02*
X6725000Y-22225000D01*
X6725000Y-22225000D02*
X6465004Y-22224999D01*
X6795000Y-16232500D02*
X6464999Y-15992499D01*
X6795000Y-15752500D01*
X6795000Y-16232500D01*
G36*
X6795000Y-16232500D02*
G01*
X6464999Y-15992499D01*
X6795000Y-15752500D01*
X6795000Y-16232500D01*
G37*
%TO.C,R5*%
X16277500Y-15037258D02*
X16277500Y-14562742D01*
X17322500Y-15037258D02*
X17322500Y-14562742D01*
%TO.C,R4*%
X17277500Y-53862742D02*
X17277500Y-54337258D01*
X18322500Y-53862742D02*
X18322500Y-54337258D01*
%TO.C,R9*%
X12187258Y-39377500D02*
X11712742Y-39377500D01*
X12187258Y-40422500D02*
X11712742Y-40422500D01*
%TO.C,C7*%
X10640001Y-56859419D02*
X10640001Y-57140581D01*
X11659999Y-56859419D02*
X11659999Y-57140581D01*
%TO.C,C13*%
X4140581Y-24890001D02*
X3859419Y-24890000D01*
X4140581Y-25910000D02*
X3859419Y-25909999D01*
%TO.C,R15*%
X21798303Y-19562770D02*
X21462770Y-19898303D01*
X22537230Y-20301697D02*
X22201697Y-20637230D01*
%TO.C,J2*%
X11950000Y-71500000D02*
G75*
G02*
X9050000Y-71500000I-1450000J0D01*
G01*
X9050000Y-71500000D02*
G75*
G02*
X11950000Y-71500000I1450000J0D01*
G01*
%TO.C,R19*%
X27977500Y-56662742D02*
X27977500Y-57137258D01*
X29022500Y-56662742D02*
X29022500Y-57137258D01*
%TO.C,L1*%
X3840000Y-52602064D02*
X3840000Y-51397935D01*
X6560000Y-52602065D02*
X6560000Y-51397936D01*
%TO.C,C20*%
X23639970Y-21938782D02*
X23838781Y-21739970D01*
X24361219Y-22660030D02*
X24560030Y-22461218D01*
%TO.C,R3*%
X15677500Y-53862742D02*
X15677500Y-54337258D01*
X16722500Y-53862742D02*
X16722500Y-54337258D01*
%TO.C,C10*%
X8190000Y-55388748D02*
X8190000Y-56811252D01*
X10010000Y-55388748D02*
X10010000Y-56811252D01*
%TO.C,C8*%
X1290000Y-52711252D02*
X1290000Y-51288748D01*
X3110000Y-52711252D02*
X3110000Y-51288748D01*
%TO.C,R6*%
X13077500Y-15037258D02*
X13077500Y-14562742D01*
X14122500Y-15037258D02*
X14122500Y-14562742D01*
%TO.C,R10*%
X11712742Y-41027500D02*
X12187258Y-41027500D01*
X11712742Y-42072500D02*
X12187258Y-42072500D01*
%TO.C,R17*%
X3977500Y-12562742D02*
X3977500Y-13037258D01*
X5022500Y-12562742D02*
X5022500Y-13037258D01*
%TO.C,R18*%
X22877500Y-56662742D02*
X22877500Y-57137258D01*
X23922500Y-56662742D02*
X23922500Y-57137258D01*
%TO.C,C18*%
X20912978Y-18365774D02*
X21111789Y-18166962D01*
X21634227Y-19087022D02*
X21833038Y-18888210D01*
%TO.C,Q2*%
X12400000Y-42590003D02*
X11750000Y-42590003D01*
X12400000Y-42590003D02*
X13049999Y-42590003D01*
X12400000Y-45710003D02*
X11750001Y-45710003D01*
X12400000Y-45710003D02*
X13050000Y-45710003D01*
X11477499Y-42310004D02*
X11237500Y-42640003D01*
X10997500Y-42310003D01*
X11477499Y-42310004D01*
G36*
X11477499Y-42310004D02*
G01*
X11237500Y-42640003D01*
X10997500Y-42310003D01*
X11477499Y-42310004D01*
G37*
%TO.C,R2*%
X14077500Y-54337258D02*
X14077500Y-53862742D01*
X15122500Y-54337258D02*
X15122500Y-53862742D01*
%TO.C,R14*%
X22848303Y-20612770D02*
X22512770Y-20948303D01*
X23587230Y-21351697D02*
X23251697Y-21687230D01*
%TO.C,C22*%
X12639970Y-30938782D02*
X12838782Y-30739970D01*
X13361218Y-31660030D02*
X13560030Y-31461218D01*
%TD*%
M02*
