M48
; DRILL file {KiCad 8.99.0-3110-g1838b2656d} date 2024-11-19T22:18:15+0100
; FORMAT={-:-/ absolute / inch / decimal}
; #@! TF.CreationDate,2024-11-19T22:18:15+01:00
; #@! TF.GenerationSoftware,Kicad,Pcbnew,8.99.0-3110-g1838b2656d
; #@! TF.FileFunction,Plated,1,2,PTH
FMAT,2
INCH
; #@! TA.AperFunction,Plated,PTH,ViaDrill
T1C0.0118
; #@! TA.AperFunction,Plated,PTH,ViaDrill
T2C0.0157
; #@! TA.AperFunction,Plated,PTH,ComponentDrill
T3C0.0236
; #@! TA.AperFunction,Plated,PTH,ComponentDrill
T4C0.0400
%
G90
G05
T1
X0.0315Y-1.9921
X0.0825Y-0.8504
X0.0866Y-0.5669
X0.0866Y-0.685
X0.0866Y-1.0
X0.0866Y-2.0315
X0.1024Y-0.2913
X0.126Y-2.1969
X0.126Y-2.5512
X0.1319Y-0.6791
X0.1325Y-0.8504
X0.1457Y-1.8268
X0.1831Y-0.6811
X0.1831Y-0.8504
X0.2205Y-0.4724
X0.2323Y-0.6811
X0.2638Y-1.7028
X0.2677Y-1.0866
X0.2756Y-1.9488
X0.2835Y-0.874
X0.2913Y-0.9685
X0.311Y-2.5039
X0.313Y-1.5335
X0.315Y-0.8268
X0.3209Y-0.9469
X0.3307Y-0.5827
X0.3406Y-0.8386
X0.3484Y-2.6339
X0.3543Y-2.4016
X0.3661Y-0.9665
X0.3701Y-0.874
X0.3858Y-0.9921
X0.3937Y-0.5827
X0.4094Y-0.3701
X0.4211Y-0.9094
X0.4567Y-0.937
X0.4606Y-1.5118
X0.4646Y-1.2992
X0.4705Y-1.378
X0.4724Y-1.063
X0.4724Y-1.4764
X0.4882Y-0.3701
X0.4921Y-1.4469
X0.5039Y-2.2795
X0.5433Y-0.9449
X0.563Y-1.3642
X0.565Y-0.6152
X0.5669Y-1.1496
X0.5689Y-1.1043
X0.5728Y-1.5591
X0.5768Y-0.9134
X0.5807Y-1.3839
X0.5906Y-0.2835
X0.5906Y-1.0079
X0.5984Y-1.2205
X0.5984Y-1.2992
X0.5984Y-1.9528
X0.603Y-1.6125
X0.6083Y-0.8917
X0.6142Y-2.126
X0.6152Y-1.6654
X0.6152Y-1.7402
X0.622Y-0.3701
X0.6299Y-0.5827
X0.6378Y-0.8543
X0.6378Y-2.1654
X0.6437Y-1.7913
X0.6594Y-0.8346
X0.6654Y-1.6024
X0.6693Y-1.0945
X0.6693Y-2.0748
X0.6693Y-2.126
X0.6732Y-0.7205
X0.6772Y-1.1575
X0.6801Y-1.6673
X0.689Y-1.2047
X0.6929Y-0.5827
X0.7047Y-1.8898
X0.707Y-1.793
X0.7087Y-1.8268
X0.7165Y-0.7303
X0.7165Y-0.8898
X0.7165Y-1.2283
X0.7165Y-1.7402
X0.7362Y-1.2559
X0.7371Y-1.3197
X0.7431Y-1.2844
X0.7441Y-0.7323
X0.748Y-0.5827
X0.7589Y-0.7549
X0.7776Y-1.2008
X0.7795Y-0.9528
X0.7803Y-0.7688
X0.7815Y-0.7953
X0.795Y-2.0695
X0.8012Y-1.0689
X0.8062Y-0.8476
X0.8268Y-2.1063
X0.8268Y-2.5591
X0.8504Y-0.6457
X0.8661Y-2.3228
X0.8681Y-1.8917
X0.8819Y-2.1339
X0.8878Y-0.8956
X0.8898Y-0.685
X0.8976Y-0.937
X0.9252Y-1.8268
X0.9528Y-1.1024
X0.9843Y-0.6693
X0.9843Y-0.9528
X0.9921Y-1.0551
X1.0079Y-0.2835
X1.0236Y-1.4724
X1.0315Y-2.0315
X1.122Y-1.8307
X1.1516Y-0.7559
X1.1516Y-0.811
X1.1732Y-0.6614
X1.1732Y-0.7323
X1.1732Y-0.7795
X1.2362Y-0.3307
X1.4488Y-1.9921
X1.4998Y-0.8504
X1.5039Y-0.5669
X1.5039Y-0.685
X1.5039Y-1.0
X1.5039Y-2.0315
X1.5197Y-0.2913
X1.5433Y-2.1969
X1.5433Y-2.5512
X1.5492Y-0.6791
X1.5498Y-0.8504
X1.563Y-1.8268
X1.6004Y-0.6811
X1.6004Y-0.8504
X1.6378Y-0.4724
X1.6496Y-0.6811
X1.6811Y-1.7028
X1.685Y-1.0866
X1.6929Y-1.9488
X1.7008Y-0.874
X1.7087Y-0.9685
X1.7283Y-2.5039
X1.7303Y-1.5335
X1.7323Y-0.8268
X1.7382Y-0.9469
X1.748Y-0.5827
X1.7579Y-0.8386
X1.7657Y-2.6339
X1.7717Y-2.4016
X1.7835Y-0.9665
X1.7874Y-0.874
X1.8031Y-0.9921
X1.811Y-0.5827
X1.8268Y-0.3701
X1.8384Y-0.9094
X1.874Y-0.937
X1.878Y-1.5118
X1.8819Y-1.2992
X1.8878Y-1.378
X1.8898Y-1.063
X1.8898Y-1.4764
X1.9055Y-0.3701
X1.9094Y-1.4469
X1.9213Y-2.2795
X1.9606Y-0.9449
X1.9803Y-1.3642
X1.9823Y-0.6152
X1.9843Y-1.1496
X1.9862Y-1.1043
X1.9902Y-1.5591
X1.9941Y-0.9134
X1.998Y-1.3839
X2.0079Y-0.2835
X2.0079Y-1.0079
X2.0157Y-1.2205
X2.0157Y-1.2992
X2.0157Y-1.9528
X2.0203Y-1.6125
X2.0256Y-0.8917
X2.0315Y-2.126
X2.0325Y-1.6654
X2.0325Y-1.7402
X2.0394Y-0.3701
X2.0472Y-0.5827
X2.0551Y-0.8543
X2.0551Y-2.1654
X2.061Y-1.7913
X2.0768Y-0.8346
X2.0827Y-1.6024
X2.0866Y-1.0945
X2.0866Y-2.0748
X2.0866Y-2.126
X2.0906Y-0.7205
X2.0945Y-1.1575
X2.0974Y-1.6673
X2.1063Y-1.2047
X2.1102Y-0.5827
X2.122Y-1.8898
X2.1243Y-1.793
X2.126Y-1.8268
X2.1339Y-0.7303
X2.1339Y-0.8898
X2.1339Y-1.2283
X2.1339Y-1.7402
X2.1535Y-1.2559
X2.1544Y-1.3197
X2.1604Y-1.2844
X2.1614Y-0.7323
X2.1654Y-0.5827
X2.1762Y-0.7549
X2.1949Y-1.2008
X2.1969Y-0.9528
X2.1977Y-0.7688
X2.1988Y-0.7953
X2.2123Y-2.0695
X2.2185Y-1.0689
X2.2236Y-0.8476
X2.2441Y-2.1063
X2.2441Y-2.5591
X2.2677Y-0.6457
X2.2835Y-2.3228
X2.2854Y-1.8917
X2.2992Y-2.1339
X2.3051Y-0.8956
X2.3071Y-0.685
X2.315Y-0.937
X2.3425Y-1.8268
X2.3701Y-1.1024
X2.4016Y-0.6693
X2.4016Y-0.9528
X2.4094Y-1.0551
X2.4252Y-0.2835
X2.4409Y-1.4724
X2.4488Y-2.0315
X2.5394Y-1.8307
X2.5689Y-0.7559
X2.5689Y-0.811
X2.5906Y-0.6614
X2.5906Y-0.7323
X2.5906Y-0.7795
X2.6535Y-0.3307
X2.8661Y-1.9921
X2.9171Y-0.8504
X2.9213Y-0.5669
X2.9213Y-0.685
X2.9213Y-1.0
X2.9213Y-2.0315
X2.937Y-0.2913
X2.9606Y-2.1969
X2.9606Y-2.5512
X2.9665Y-0.6791
X2.9671Y-0.8504
X2.9803Y-1.8268
X3.0177Y-0.6811
X3.0177Y-0.8504
X3.0551Y-0.4724
X3.0669Y-0.6811
X3.0984Y-1.7028
X3.1024Y-1.0866
X3.1102Y-1.9488
X3.1181Y-0.874
X3.126Y-0.9685
X3.1457Y-2.5039
X3.1476Y-1.5335
X3.1496Y-0.8268
X3.1555Y-0.9469
X3.1654Y-0.5827
X3.1752Y-0.8386
X3.1831Y-2.6339
X3.189Y-2.4016
X3.2008Y-0.9665
X3.2047Y-0.874
X3.2205Y-0.9921
X3.2283Y-0.5827
X3.2441Y-0.3701
X3.2557Y-0.9094
X3.2913Y-0.937
X3.2953Y-1.5118
X3.2992Y-1.2992
X3.3051Y-1.378
X3.3071Y-1.063
X3.3071Y-1.4764
X3.3228Y-0.3701
X3.3268Y-1.4469
X3.3386Y-2.2795
X3.378Y-0.9449
X3.3976Y-1.3642
X3.3996Y-0.6152
X3.4016Y-1.1496
X3.4035Y-1.1043
X3.4075Y-1.5591
X3.4114Y-0.9134
X3.4154Y-1.3839
X3.4252Y-0.2835
X3.4252Y-1.0079
X3.4331Y-1.2205
X3.4331Y-1.2992
X3.4331Y-1.9528
X3.4376Y-1.6125
X3.4429Y-0.8917
X3.4488Y-2.126
X3.4498Y-1.6654
X3.4498Y-1.7402
X3.4567Y-0.3701
X3.4646Y-0.5827
X3.4724Y-0.8543
X3.4724Y-2.1654
X3.4783Y-1.7913
X3.4941Y-0.8346
X3.5Y-1.6024
X3.5039Y-1.0945
X3.5039Y-2.0748
X3.5039Y-2.126
X3.5079Y-0.7205
X3.5118Y-1.1575
X3.5148Y-1.6673
X3.5236Y-1.2047
X3.5276Y-0.5827
X3.5394Y-1.8898
X3.5416Y-1.793
X3.5433Y-1.8268
X3.5512Y-0.7303
X3.5512Y-0.8898
X3.5512Y-1.2283
X3.5512Y-1.7402
X3.5709Y-1.2559
X3.5717Y-1.3197
X3.5778Y-1.2844
X3.5787Y-0.7323
X3.5827Y-0.5827
X3.5935Y-0.7549
X3.6122Y-1.2008
X3.6142Y-0.9528
X3.615Y-0.7688
X3.6161Y-0.7953
X3.6297Y-2.0695
X3.6358Y-1.0689
X3.6409Y-0.8476
X3.6614Y-2.1063
X3.6614Y-2.5591
X3.685Y-0.6457
X3.7008Y-2.3228
X3.7028Y-1.8917
X3.7165Y-2.1339
X3.7224Y-0.8956
X3.7244Y-0.685
X3.7323Y-0.937
X3.7598Y-1.8268
X3.7874Y-1.1024
X3.8189Y-0.6693
X3.8189Y-0.9528
X3.8268Y-1.0551
X3.8425Y-0.2835
X3.8583Y-1.4724
X3.8661Y-2.0315
X3.9567Y-1.8307
X3.9862Y-0.7559
X3.9862Y-0.811
X4.0079Y-0.6614
X4.0079Y-0.7323
X4.0079Y-0.7795
X4.0709Y-0.3307
X4.2835Y-1.9921
X4.3344Y-0.8504
X4.3386Y-0.5669
X4.3386Y-0.685
X4.3386Y-1.0
X4.3386Y-2.0315
X4.3543Y-0.2913
X4.378Y-2.1969
X4.378Y-2.5512
X4.3839Y-0.6791
X4.3844Y-0.8504
X4.3976Y-1.8268
X4.435Y-0.6811
X4.435Y-0.8504
X4.4724Y-0.4724
X4.4843Y-0.6811
X4.5157Y-1.7028
X4.5197Y-1.0866
X4.5276Y-1.9488
X4.5354Y-0.874
X4.5433Y-0.9685
X4.563Y-2.5039
X4.565Y-1.5335
X4.5669Y-0.8268
X4.5728Y-0.9469
X4.5827Y-0.5827
X4.5925Y-0.8386
X4.6004Y-2.6339
X4.6063Y-2.4016
X4.6181Y-0.9665
X4.622Y-0.874
X4.6378Y-0.9921
X4.6457Y-0.5827
X4.6614Y-0.3701
X4.6731Y-0.9094
X4.7087Y-0.937
X4.7126Y-1.5118
X4.7165Y-1.2992
X4.7224Y-1.378
X4.7244Y-1.063
X4.7244Y-1.4764
X4.7402Y-0.3701
X4.7441Y-1.4469
X4.7559Y-2.2795
X4.7953Y-0.9449
X4.815Y-1.3642
X4.8169Y-0.6152
X4.8189Y-1.1496
X4.8209Y-1.1043
X4.8248Y-1.5591
X4.8287Y-0.9134
X4.8327Y-1.3839
X4.8425Y-0.2835
X4.8425Y-1.0079
X4.8504Y-1.2205
X4.8504Y-1.2992
X4.8504Y-1.9528
X4.855Y-1.6125
X4.8602Y-0.8917
X4.8661Y-2.126
X4.8671Y-1.6654
X4.8671Y-1.7402
X4.874Y-0.3701
X4.8819Y-0.5827
X4.8898Y-0.8543
X4.8898Y-2.1654
X4.8957Y-1.7913
X4.9114Y-0.8346
X4.9173Y-1.6024
X4.9213Y-1.0945
X4.9213Y-2.0748
X4.9213Y-2.126
X4.9252Y-0.7205
X4.9291Y-1.1575
X4.9321Y-1.6673
X4.9409Y-1.2047
X4.9449Y-0.5827
X4.9567Y-1.8898
X4.9589Y-1.793
X4.9606Y-1.8268
X4.9685Y-0.7303
X4.9685Y-0.8898
X4.9685Y-1.2283
X4.9685Y-1.7402
X4.9882Y-1.2559
X4.9891Y-1.3197
X4.9951Y-1.2844
X4.9961Y-0.7323
X5.0Y-0.5827
X5.0108Y-0.7549
X5.0295Y-1.2008
X5.0315Y-0.9528
X5.0323Y-0.7688
X5.0335Y-0.7953
X5.047Y-2.0695
X5.0531Y-1.0689
X5.0582Y-0.8476
X5.0787Y-2.1063
X5.0787Y-2.5591
X5.1024Y-0.6457
X5.1181Y-2.3228
X5.1201Y-1.8917
X5.1339Y-2.1339
X5.1398Y-0.8956
X5.1417Y-0.685
X5.1496Y-0.937
X5.1772Y-1.8268
X5.2047Y-1.1024
X5.2362Y-0.6693
X5.2362Y-0.9528
X5.2441Y-1.0551
X5.2598Y-0.2835
X5.2756Y-1.4724
X5.2835Y-2.0315
X5.374Y-1.8307
X5.4035Y-0.7559
X5.4035Y-0.811
X5.4252Y-0.6614
X5.4252Y-0.7323
X5.4252Y-0.7795
X5.4882Y-0.3307
X5.7008Y-1.9921
X5.7518Y-0.8504
X5.7559Y-0.5669
X5.7559Y-0.685
X5.7559Y-1.0
X5.7559Y-2.0315
X5.7717Y-0.2913
X5.7953Y-2.1969
X5.7953Y-2.5512
X5.8012Y-0.6791
X5.8018Y-0.8504
X5.815Y-1.8268
X5.8524Y-0.6811
X5.8524Y-0.8504
X5.8898Y-0.4724
X5.9016Y-0.6811
X5.9331Y-1.7028
X5.937Y-1.0866
X5.9449Y-1.9488
X5.9528Y-0.874
X5.9606Y-0.9685
X5.9803Y-2.5039
X5.9823Y-1.5335
X5.9843Y-0.8268
X5.9902Y-0.9469
X6.0Y-0.5827
X6.0098Y-0.8386
X6.0177Y-2.6339
X6.0236Y-2.4016
X6.0354Y-0.9665
X6.0394Y-0.874
X6.0551Y-0.9921
X6.063Y-0.5827
X6.0787Y-0.3701
X6.0904Y-0.9094
X6.126Y-0.937
X6.1299Y-1.5118
X6.1339Y-1.2992
X6.1398Y-1.378
X6.1417Y-1.063
X6.1417Y-1.4764
X6.1575Y-0.3701
X6.1614Y-1.4469
X6.1732Y-2.2795
X6.2126Y-0.9449
X6.2323Y-1.3642
X6.2343Y-0.6152
X6.2362Y-1.1496
X6.2382Y-1.1043
X6.2421Y-1.5591
X6.2461Y-0.9134
X6.25Y-1.3839
X6.2598Y-0.2835
X6.2598Y-1.0079
X6.2677Y-1.2205
X6.2677Y-1.2992
X6.2677Y-1.9528
X6.2723Y-1.6125
X6.2776Y-0.8917
X6.2835Y-2.126
X6.2844Y-1.6654
X6.2844Y-1.7402
X6.2913Y-0.3701
X6.2992Y-0.5827
X6.3071Y-0.8543
X6.3071Y-2.1654
X6.313Y-1.7913
X6.3287Y-0.8346
X6.3346Y-1.6024
X6.3386Y-1.0945
X6.3386Y-2.0748
X6.3386Y-2.126
X6.3425Y-0.7205
X6.3465Y-1.1575
X6.3494Y-1.6673
X6.3583Y-1.2047
X6.3622Y-0.5827
X6.374Y-1.8898
X6.3762Y-1.793
X6.378Y-1.8268
X6.3858Y-0.7303
X6.3858Y-0.8898
X6.3858Y-1.2283
X6.3858Y-1.7402
X6.4055Y-1.2559
X6.4064Y-1.3197
X6.4124Y-1.2844
X6.4134Y-0.7323
X6.4173Y-0.5827
X6.4281Y-0.7549
X6.4469Y-1.2008
X6.4488Y-0.9528
X6.4496Y-0.7688
X6.4508Y-0.7953
X6.4643Y-2.0695
X6.4705Y-1.0689
X6.4755Y-0.8476
X6.4961Y-2.1063
X6.4961Y-2.5591
X6.5197Y-0.6457
X6.5354Y-2.3228
X6.5374Y-1.8917
X6.5512Y-2.1339
X6.5571Y-0.8956
X6.5591Y-0.685
X6.5669Y-0.937
X6.5945Y-1.8268
X6.622Y-1.1024
X6.6535Y-0.6693
X6.6535Y-0.9528
X6.6614Y-1.0551
X6.6772Y-0.2835
X6.6929Y-1.4724
X6.7008Y-2.0315
X6.7913Y-1.8307
X6.8209Y-0.7559
X6.8209Y-0.811
X6.8425Y-0.6614
X6.8425Y-0.7323
X6.8425Y-0.7795
X6.9055Y-0.3307
T2
X0.0827Y-1.063
X0.2953Y-1.7815
X0.372Y-1.8228
X0.3976Y-2.0925
X0.4409Y-1.9292
X0.4764Y-2.187
X0.4783Y-1.8071
X0.4843Y-2.248
X0.4902Y-2.1004
X0.498Y-1.9488
X0.5728Y-1.7756
X0.5728Y-1.876
X0.598Y-1.4556
X0.6043Y-2.0512
X0.6614Y-2.2087
X0.6732Y-1.4213
X0.6791Y-1.2795
X0.7717Y-2.2087
X1.5Y-1.063
X1.7126Y-1.7815
X1.7894Y-1.8228
X1.815Y-2.0925
X1.8583Y-1.9292
X1.8937Y-2.187
X1.8957Y-1.8071
X1.9016Y-2.248
X1.9075Y-2.1004
X1.9154Y-1.9488
X1.9902Y-1.7756
X1.9902Y-1.876
X2.0153Y-1.4556
X2.0217Y-2.0512
X2.0787Y-2.2087
X2.0906Y-1.4213
X2.0965Y-1.2795
X2.189Y-2.2087
X2.9173Y-1.063
X3.1299Y-1.7815
X3.2067Y-1.8228
X3.2323Y-2.0925
X3.2756Y-1.9292
X3.311Y-2.187
X3.313Y-1.8071
X3.3189Y-2.248
X3.3248Y-2.1004
X3.3327Y-1.9488
X3.4075Y-1.7756
X3.4075Y-1.876
X3.4327Y-1.4556
X3.439Y-2.0512
X3.4961Y-2.2087
X3.5079Y-1.4213
X3.5138Y-1.2795
X3.6063Y-2.2087
X4.3346Y-1.063
X4.5472Y-1.7815
X4.624Y-1.8228
X4.6496Y-2.0925
X4.6929Y-1.9292
X4.7283Y-2.187
X4.7303Y-1.8071
X4.7362Y-2.248
X4.7421Y-2.1004
X4.75Y-1.9488
X4.8248Y-1.7756
X4.8248Y-1.876
X4.85Y-1.4556
X4.8563Y-2.0512
X4.9134Y-2.2087
X4.9252Y-1.4213
X4.9311Y-1.2795
X5.0236Y-2.2087
X5.752Y-1.063
X5.9646Y-1.7815
X6.0413Y-1.8228
X6.0669Y-2.0925
X6.1102Y-1.9292
X6.1457Y-2.187
X6.1476Y-1.8071
X6.1535Y-2.248
X6.1594Y-2.1004
X6.1673Y-1.9488
X6.2421Y-1.7756
X6.2421Y-1.876
X6.2673Y-1.4556
X6.2736Y-2.0512
X6.3307Y-2.2087
X6.3425Y-1.4213
X6.3484Y-1.2795
X6.4409Y-2.2087
T4
X0.5717Y-2.313
X0.5717Y-2.413
X0.6717Y-2.313
X0.6717Y-2.413
X0.7717Y-2.313
X0.7717Y-2.413
X1.989Y-2.313
X1.989Y-2.413
X2.089Y-2.313
X2.089Y-2.413
X2.189Y-2.313
X2.189Y-2.413
X3.4063Y-2.313
X3.4063Y-2.413
X3.5063Y-2.313
X3.5063Y-2.413
X3.6063Y-2.313
X3.6063Y-2.413
X4.8236Y-2.313
X4.8236Y-2.413
X4.9236Y-2.313
X4.9236Y-2.413
X5.0236Y-2.313
X5.0236Y-2.413
X6.2409Y-2.313
X6.2409Y-2.413
X6.3409Y-2.313
X6.3409Y-2.413
X6.4409Y-2.313
X6.4409Y-2.413
T3
G00X1.0963Y-0.6173
M15
G01X1.1396Y-0.6173
M16
G05
G00X1.0963Y-0.9575
M15
G01X1.1396Y-0.9575
M16
G05
G00X1.2707Y-0.6173
M15
G01X1.2943Y-0.6173
M16
G05
G00X1.2707Y-0.9575
M15
G01X1.2943Y-0.9575
M16
G05
G00X2.5136Y-0.6173
M15
G01X2.5569Y-0.6173
M16
G05
G00X2.5136Y-0.9575
M15
G01X2.5569Y-0.9575
M16
G05
G00X2.688Y-0.6173
M15
G01X2.7116Y-0.6173
M16
G05
G00X2.688Y-0.9575
M15
G01X2.7116Y-0.9575
M16
G05
G00X3.9309Y-0.6173
M15
G01X3.9742Y-0.6173
M16
G05
G00X3.9309Y-0.9575
M15
G01X3.9742Y-0.9575
M16
G05
G00X4.1053Y-0.6173
M15
G01X4.1289Y-0.6173
M16
G05
G00X4.1053Y-0.9575
M15
G01X4.1289Y-0.9575
M16
G05
G00X5.3482Y-0.6173
M15
G01X5.3915Y-0.6173
M16
G05
G00X5.3482Y-0.9575
M15
G01X5.3915Y-0.9575
M16
G05
G00X5.5226Y-0.6173
M15
G01X5.5463Y-0.6173
M16
G05
G00X5.5226Y-0.9575
M15
G01X5.5463Y-0.9575
M16
G05
G00X6.7656Y-0.6173
M15
G01X6.8089Y-0.6173
M16
G05
G00X6.7656Y-0.9575
M15
G01X6.8089Y-0.9575
M16
G05
G00X6.94Y-0.6173
M15
G01X6.9636Y-0.6173
M16
G05
G00X6.94Y-0.9575
M15
G01X6.9636Y-0.9575
M16
G05
M30
